<svg width="110" height="95" viewBox="0 0 110 95" fill="none" xmlns="http://www.w3.org/2000/svg">
<path d="M6.99045 64.2157C-1.62761 84.3469 12.3289 93.8852 42.4681 94.8678C72.6074 95.8504 89.1254 91.944 102.723 61.7952C116.32 31.6224 109.521 -4.85341 93.4823 8.7591C77.4431 22.3716 58.9861 37.47 43.4257 42.8144C27.8653 48.1587 9.88707 57.4094 6.96651 64.2157H6.99045Z" fill="#7A7A7A"/>
<path d="M2.51388 58.392C-6.10418 78.5232 7.8523 88.0615 37.9916 89.0441C68.1309 90.0267 84.6488 86.1203 98.2462 55.9714C111.844 25.7986 105.045 -10.6771 89.0057 2.93537C72.9666 16.5479 54.5095 31.6463 38.9491 36.9906C23.3888 42.335 5.41051 51.5857 2.48995 58.392H2.51388Z" fill="#1497EB"/>
<path d="M51.3975 50.0039C51.3975 52.9996 53.8153 55.4441 56.8316 55.4441C59.848 55.4441 62.2658 53.0236 62.2658 50.0039C62.2658 46.9843 59.848 44.5637 56.8316 44.5637C53.8153 44.5637 51.3975 46.9843 51.3975 50.0039Z" fill="#0D6196"/>
<path d="M56.8316 54.749C59.0527 54.749 60.8533 52.9464 60.8533 50.7228C60.8533 48.4991 59.0527 46.6965 56.8316 46.6965C54.6104 46.6965 52.8098 48.4991 52.8098 50.7228C52.8098 52.9464 54.6104 54.749 56.8316 54.749Z" fill="url(#paint0_linear_2052_1065)"/>
<path d="M52.762 50.7229C52.762 48.4701 54.5813 46.6487 56.8316 46.6487C59.0819 46.6487 60.9012 48.4701 60.9012 50.7229C60.9012 52.9756 59.0819 54.797 56.8316 54.797C54.5813 54.797 52.762 52.9756 52.762 50.7229ZM52.8577 50.7229C52.8577 52.9277 54.6531 54.7012 56.8316 54.7012C59.0101 54.7012 60.8055 52.9037 60.8055 50.7229C60.8055 48.542 59.0101 46.7445 56.8316 46.7445C54.6531 46.7445 52.8577 48.542 52.8577 50.7229Z" fill="url(#paint1_linear_2052_1065)"/>
<path d="M54.2461 50.7228C54.2461 52.1608 55.3952 53.3111 56.8315 53.3111C58.2679 53.3111 59.4169 52.1608 59.4169 50.7228C59.4169 49.2849 58.2679 48.1345 56.8315 48.1345C55.3952 48.1345 54.2461 49.2849 54.2461 50.7228Z" fill="url(#paint2_linear_2052_1065)"/>
<path d="M54.5813 52.0172V49.4528L56.8316 48.1587L59.0579 49.4528V52.0172L56.8316 53.3113L54.5813 52.0172Z" fill="url(#paint3_linear_2052_1065)"/>
<path d="M5.09918 79.2901L4.54858 79.8413C10.4376 85.5452 21.9044 88.5169 37.9915 89.0202C68.1307 90.0028 84.6487 86.0964 98.2461 55.9475C106.864 36.8229 107.295 15.1819 102.364 5.35596C102.244 5.61958 101.957 5.83527 101.981 6.14682C105.547 69.0568 52.331 82.2379 5.09918 79.2901Z" fill="#0D6196"/>
<defs>
<linearGradient id="paint0_linear_2052_1065" x1="56.8316" y1="45.7858" x2="56.8316" y2="56.6902" gradientUnits="userSpaceOnUse">
<stop stop-color="#D9D9D9"/>
<stop offset="0.08" stop-color="#CFCFCF"/>
<stop offset="0.23" stop-color="#B4B4B4"/>
<stop offset="0.41" stop-color="#888888"/>
<stop offset="0.54" stop-color="#666666"/>
<stop offset="0.9" stop-color="#ACACAC"/>
</linearGradient>
<linearGradient id="paint1_linear_2052_1065" x1="56.8316" y1="55.2524" x2="56.8316" y2="43.4612" gradientUnits="userSpaceOnUse">
<stop stop-color="#D0D0D0"/>
<stop offset="0.09" stop-color="#C5C5C5"/>
<stop offset="0.25" stop-color="#A8A8A8"/>
<stop offset="0.46" stop-color="#7A7A7A"/>
<stop offset="0.54" stop-color="#666666"/>
<stop offset="0.71" stop-color="#878787"/>
<stop offset="1" stop-color="#C0C0C0"/>
</linearGradient>
<linearGradient id="paint2_linear_2052_1065" x1="57.2145" y1="55.2523" x2="56.4228" y2="46.0017" gradientUnits="userSpaceOnUse">
<stop stop-color="#D9D9D9"/>
<stop offset="0.08" stop-color="#CFCFCF"/>
<stop offset="0.23" stop-color="#B4B4B4"/>
<stop offset="0.41" stop-color="#888888"/>
<stop offset="0.54" stop-color="#666666"/>
<stop offset="0.77" stop-color="#949494"/>
<stop offset="0.9" stop-color="#ACACAC"/>
</linearGradient>
<linearGradient id="paint3_linear_2052_1065" x1="56.8316" y1="53.4311" x2="56.8316" y2="48.7099" gradientUnits="userSpaceOnUse">
<stop stop-color="#808080"/>
<stop offset="1" stop-color="#333333"/>
</linearGradient>
</defs>
</svg>
