<?xml version="1.0" encoding="UTF-8"?>
<svg id="Layer_2" data-name="Layer 2" xmlns="http://www.w3.org/2000/svg" xmlns:xlink="http://www.w3.org/1999/xlink" viewBox="0 0 33.63 27.44">
  <defs>
    <style>
      .cls-1 {
        fill: url(#linear-gradient-2);
      }

      .cls-2 {
        fill: url(#linear-gradient-4);
      }

      .cls-3 {
        fill: url(#linear-gradient-3);
      }

      .cls-4 {
        fill: #1497eb;
      }

      .cls-5 {
        fill: #7a7a7a;
      }

      .cls-6 {
        fill: #0d6196;
      }

      .cls-7 {
        fill: url(#linear-gradient);
      }
    </style>
    <linearGradient id="linear-gradient" x1="1404.26" y1="7.05" x2="1404.26" y2="11.6" gradientTransform="translate(1425.59) rotate(-180) scale(1 -1)" gradientUnits="userSpaceOnUse">
      <stop offset="0" stop-color="#d9d9d9"/>
      <stop offset=".08" stop-color="#cfcfcf"/>
      <stop offset=".23" stop-color="#b4b4b4"/>
      <stop offset=".41" stop-color="#888"/>
      <stop offset=".54" stop-color="#666"/>
      <stop offset=".9" stop-color="#acacac"/>
    </linearGradient>
    <linearGradient id="linear-gradient-2" x1="1404.26" y1="11.01" x2="1404.26" y2="6.08" gradientTransform="translate(1425.59) rotate(-180) scale(1 -1)" gradientUnits="userSpaceOnUse">
      <stop offset="0" stop-color="#d0d0d0"/>
      <stop offset=".09" stop-color="#c5c5c5"/>
      <stop offset=".25" stop-color="#a8a8a8"/>
      <stop offset=".46" stop-color="#7a7a7a"/>
      <stop offset=".54" stop-color="#666"/>
      <stop offset=".71" stop-color="#878787"/>
      <stop offset="1" stop-color="silver"/>
    </linearGradient>
    <linearGradient id="linear-gradient-3" x1="1404.1" y1="11.01" x2="1404.42" y2="7.15" gradientTransform="translate(1425.59) rotate(-180) scale(1 -1)" gradientUnits="userSpaceOnUse">
      <stop offset="0" stop-color="#d9d9d9"/>
      <stop offset=".08" stop-color="#cfcfcf"/>
      <stop offset=".23" stop-color="#b4b4b4"/>
      <stop offset=".41" stop-color="#888"/>
      <stop offset=".54" stop-color="#666"/>
      <stop offset=".77" stop-color="#949494"/>
      <stop offset=".9" stop-color="#acacac"/>
    </linearGradient>
    <linearGradient id="linear-gradient-4" x1="1404.26" y1="10.24" x2="1404.26" y2="8.28" gradientTransform="translate(1425.59) rotate(-180) scale(1 -1)" gradientUnits="userSpaceOnUse">
      <stop offset="0" stop-color="#fff"/>
      <stop offset="0" stop-color="#cbcbcb"/>
      <stop offset="0" stop-color="gray"/>
      <stop offset="1" stop-color="#333"/>
    </linearGradient>
  </defs>
  <g id="Layer_1-2" data-name="Layer 1">
    <g>
      <path class="cls-5" d="M6.33,13.15C1.03,9.29.44,5.43,8.97,5.84S25.82,1.17,29.88,3.81c4.06,2.64,4.87,3.86,2.23,9.34-2.64,5.48,2.03,12.38-2.03,13.8-4.06,1.42-9.34-.2-10.96-5.28-1.62-5.08-10.3-6.72-12.79-8.53Z"/>
      <path class="cls-4" d="M3.89,10.1C-1.4,6.25-2,2.39,6.53,2.79S23.38-1.87,27.44.76c4.06,2.64,4.87,3.86,2.23,9.34-2.64,5.48,2.03,12.38-2.03,13.8-4.06,1.42-9.34-.2-10.96-5.28-1.62-5.08-10.3-6.72-12.79-8.53Z"/>
      <g>
        <path class="cls-6" d="M19.07,8.82c0,1.25,1.01,2.27,2.27,2.27s2.27-1.01,2.27-2.27-1.01-2.27-2.27-2.27-2.27,1.01-2.27,2.27Z"/>
        <g>
          <path class="cls-7" d="M19.65,9.12c0,.93.75,1.68,1.68,1.68s1.68-.75,1.68-1.68-.75-1.68-1.68-1.68-1.68.75-1.68,1.68Z"/>
          <path class="cls-1" d="M19.63,9.12c0-.94.76-1.7,1.7-1.7s1.7.76,1.7,1.7-.76,1.7-1.7,1.7-1.7-.76-1.7-1.7ZM19.67,9.12c0,.92.75,1.66,1.66,1.66s1.66-.75,1.66-1.66-.75-1.66-1.66-1.66-1.66.75-1.66,1.66Z"/>
        </g>
        <path class="cls-3" d="M20.25,9.12c0,.6.48,1.08,1.08,1.08s1.08-.48,1.08-1.08-.48-1.08-1.08-1.08-1.08.48-1.08,1.08Z"/>
        <polygon class="cls-2" points="20.4 9.66 20.4 8.58 21.33 8.04 22.27 8.58 22.27 9.66 21.33 10.2 20.4 9.66"/>
      </g>
      <g>
        <path class="cls-6" d="M18.89,20.74c-.37-1.69.49-4.64.17-8.34-.47-5.39-8.7-4.52-16.42-3.28.38.33.79.65,1.25.98,2.49,1.81,11.17,3.45,12.79,8.53.74,2.31,2.24,3.9,4.04,4.82-1.08-.83-1.65-1.93-1.83-2.71Z"/>
        <path class="cls-6" d="M24.41,24.39c1.1.04,2.21-.13,3.23-.49,4.06-1.42-.61-8.32,2.03-13.8,1.2-2.49,1.68-4.1,1.47-5.36-11.67,7.05-4.79,7.92-5.3,15.88-.14,2.18-.69,3.31-1.44,3.77Z"/>
      </g>
    </g>
  </g>
</svg>