<?xml version="1.0" encoding="UTF-8"?>
<svg id="Layer_2" data-name="Layer 2" xmlns="http://www.w3.org/2000/svg" xmlns:xlink="http://www.w3.org/1999/xlink" viewBox="0 0 46.35 43.2">
  <defs>
    <style>
      .cls-1 {
        fill: url(#linear-gradient-2);
      }

      .cls-2 {
        fill: url(#linear-gradient-4);
      }

      .cls-3 {
        fill: url(#linear-gradient-3);
      }

      .cls-4 {
        fill: #1497eb;
      }

      .cls-5 {
        fill: #7a7a7a;
      }

      .cls-6 {
        fill: #0d6196;
      }

      .cls-7 {
        fill: url(#linear-gradient);
      }
    </style>
    <linearGradient id="linear-gradient" x1="671.17" y1="18.31" x2="671.17" y2="22.86" gradientTransform="translate(690.35) rotate(-180) scale(1 -1)" gradientUnits="userSpaceOnUse">
      <stop offset="0" stop-color="#d9d9d9"/>
      <stop offset=".08" stop-color="#cfcfcf"/>
      <stop offset=".23" stop-color="#b4b4b4"/>
      <stop offset=".41" stop-color="#888"/>
      <stop offset=".54" stop-color="#666"/>
      <stop offset=".9" stop-color="#acacac"/>
    </linearGradient>
    <linearGradient id="linear-gradient-2" x1="671.17" y1="22.27" x2="671.17" y2="17.34" gradientTransform="translate(690.35) rotate(-180) scale(1 -1)" gradientUnits="userSpaceOnUse">
      <stop offset="0" stop-color="#d0d0d0"/>
      <stop offset=".09" stop-color="#c5c5c5"/>
      <stop offset=".25" stop-color="#a8a8a8"/>
      <stop offset=".46" stop-color="#7a7a7a"/>
      <stop offset=".54" stop-color="#666"/>
      <stop offset=".71" stop-color="#878787"/>
      <stop offset="1" stop-color="silver"/>
    </linearGradient>
    <linearGradient id="linear-gradient-3" x1="671.01" y1="22.27" x2="671.33" y2="18.41" gradientTransform="translate(690.35) rotate(-180) scale(1 -1)" gradientUnits="userSpaceOnUse">
      <stop offset="0" stop-color="#d9d9d9"/>
      <stop offset=".08" stop-color="#cfcfcf"/>
      <stop offset=".23" stop-color="#b4b4b4"/>
      <stop offset=".41" stop-color="#888"/>
      <stop offset=".54" stop-color="#666"/>
      <stop offset=".77" stop-color="#949494"/>
      <stop offset=".9" stop-color="#acacac"/>
    </linearGradient>
    <linearGradient id="linear-gradient-4" x1="671.17" y1="21.5" x2="671.17" y2="19.54" gradientTransform="translate(690.35) rotate(-180) scale(1 -1)" gradientUnits="userSpaceOnUse">
      <stop offset="0" stop-color="#fff"/>
      <stop offset="0" stop-color="#cbcbcb"/>
      <stop offset="0" stop-color="gray"/>
      <stop offset="1" stop-color="#333"/>
    </linearGradient>
  </defs>
  <g id="Layer_1-2" data-name="Layer 1">
    <g>
      <path class="cls-5" d="M24.63,5.72c9.92,3.07,12.03,2.13,14.62,0s6.55,0,7,5.48-.46,10.51-7,13.25c-6.55,2.74-10.35,1.98-13.09,8.07s-4.87,12.79-10.35,10.05c-5.48-2.74-15.53-8.07-12.94-17.66S7.57,10.59,9.55,5.72s8.68-1.98,15.07,0Z"/>
      <path class="cls-4" d="M22.19,2.68c9.92,3.07,12.03,2.13,14.62,0,2.59-2.13,6.55,0,7,5.48s-.46,10.51-7,13.25c-6.55,2.74-10.35,1.98-13.09,8.07-2.74,6.09-4.87,12.79-10.35,10.05S-2.17,31.45.42,21.86C3.01,12.27,5.14,7.55,7.12,2.68s8.68-1.98,15.07,0Z"/>
      <g>
        <circle class="cls-6" cx="19.19" cy="20.08" r="2.27"/>
        <g>
          <circle class="cls-7" cx="19.19" cy="20.38" r="1.68"/>
          <path class="cls-1" d="M17.49,20.38c0-.94.76-1.7,1.7-1.7s1.7.76,1.7,1.7-.76,1.7-1.7,1.7-1.7-.76-1.7-1.7ZM17.53,20.38c0,.92.75,1.66,1.66,1.66s1.66-.75,1.66-1.66-.75-1.66-1.66-1.66-1.66.75-1.66,1.66Z"/>
        </g>
        <circle class="cls-3" cx="19.19" cy="20.38" r="1.08"/>
        <polygon class="cls-2" points="18.25 20.92 18.25 19.84 19.19 19.3 20.12 19.84 20.12 20.92 19.19 21.46 18.25 20.92"/>
      </g>
      <path class="cls-6" d="M38.85,1.89c-.71.04-1.4.29-2.02.8-2.59,2.13-4.7,3.07-14.62,0-1.77-.55-3.56-1.16-5.27-1.67,6.46,6.05,10.05,10.02,15.29,7.19,3.56-1.92,4.19-4.59,6.62-6.32Z"/>
      <path class="cls-6" d="M43.81,8.16c-.09-1.05-.3-1.97-.61-2.76,0,.02-.71,3.09-1.62,5.82-.91,2.74-5.58,7.71-11.88,5.79-6.29-1.93-8.42,9.24-11.45,14.72-3.02,5.48-3.37,5.18-13.22,1.83l-.9-.02c2.84,2.73,6.57,4.67,9.22,6,5.48,2.74,7.61-3.96,10.35-10.05,2.74-6.09,6.55-5.33,13.09-8.07,6.55-2.74,7.46-7.76,7-13.25Z"/>
    </g>
  </g>
</svg>