<svg width="139" height="127" viewBox="0 0 139 127" fill="none" xmlns="http://www.w3.org/2000/svg">
<path d="M127.929 125.253C100.821 130.145 84.332 123.368 62.0443 120.457C45.1257 118.238 33.8148 115.923 25.9401 96.713C23.4345 90.604 21.2869 82.8246 19.4256 72.7782C14.9394 48.6764 9.73737 49.1298 30.0684 39.7515C47.4642 31.7335 61.3284 12.8338 73.4745 20.2791C76.9346 24.5268 80.6333 28.8699 84.2605 33.1414C87.9115 37.9141 92.0397 42.8537 96.2157 47.7457C108.386 62.0636 120.842 76.2384 122.107 86.5711C124.063 102.058 155.061 120.385 127.929 125.277V125.253Z" fill="#7A7A7A"/>
<path d="M112.609 106.688C85.4775 111.58 69.0122 104.779 46.7245 101.867C38.5635 100.817 31.7149 99.7198 25.9163 96.713C15.8701 91.5347 8.99764 80.6292 4.08193 54.1888C-0.380387 30.1108 -5.58245 30.5642 14.7485 21.1859C35.1034 11.7838 50.5903 -12.4373 64.1681 7.918C66.8407 11.9032 70.0383 16.0792 73.4745 20.2791C76.9346 24.5268 80.6334 28.8699 84.2605 33.1414C88.508 38.1288 92.6363 43.0446 96.2157 47.7457C101.895 55.2626 106.095 62.2307 106.811 67.9817C108.744 83.4928 139.741 101.82 112.633 106.688H112.609Z" fill="#1497EB"/>
<path d="M44.219 59.6057C44.219 62.5886 46.6291 65.0226 49.6358 65.0226C52.6425 65.0226 55.0526 62.6124 55.0526 59.6057C55.0526 56.5989 52.6425 54.1887 49.6358 54.1887C46.6291 54.1887 44.219 56.5989 44.219 59.6057Z" fill="#0D6196"/>
<path d="M49.612 64.3305C51.826 64.3305 53.6209 62.5356 53.6209 60.3215C53.6209 58.1074 51.826 56.3125 49.612 56.3125C47.3979 56.3125 45.603 58.1074 45.603 60.3215C45.603 62.5356 47.3979 64.3305 49.612 64.3305Z" fill="url(#paint0_linear_2061_2164)"/>
<path d="M45.5791 60.3216C45.5791 58.0785 47.3927 56.2649 49.6358 56.2649C51.8788 56.2649 53.6924 58.0785 53.6924 60.3216C53.6924 62.5648 51.8788 64.3784 49.6358 64.3784C47.3927 64.3784 45.5791 62.5648 45.5791 60.3216ZM45.6507 60.3216C45.6507 62.5171 47.4404 64.2829 49.6119 64.2829C51.7834 64.2829 53.5731 62.4932 53.5731 60.3216C53.5731 58.1501 51.7834 56.3603 49.6119 56.3603C47.4404 56.3603 45.6507 58.1501 45.6507 60.3216Z" fill="url(#paint1_linear_2061_2164)"/>
<path d="M47.0347 60.3216C47.0347 61.7534 48.1801 62.8988 49.6118 62.8988C51.0436 62.8988 52.189 61.7534 52.189 60.3216C52.189 58.8898 51.0436 57.7444 49.6118 57.7444C48.1801 57.7444 47.0347 58.8898 47.0347 60.3216Z" fill="url(#paint2_linear_2061_2164)"/>
<path d="M47.3928 61.6102V59.033L49.6121 57.7444L51.8551 59.033V61.6102L49.6121 62.8988L47.3928 61.6102Z" fill="url(#paint3_linear_2061_2164)"/>
<path d="M46.7245 101.891C69.0122 104.803 85.4774 111.58 112.609 106.688C139.741 101.796 108.744 83.4689 106.787 67.9816C106.429 65.1658 105.236 62.0636 103.47 58.7466C112.633 110.625 61.7818 101.486 26.1787 96.8561C31.9296 99.7674 38.6827 100.841 46.7245 101.891Z" fill="#0D6196"/>
<defs>
<linearGradient id="paint0_linear_2061_2164" x1="49.612" y1="55.4057" x2="49.612" y2="66.2635" gradientUnits="userSpaceOnUse">
<stop stop-color="#D9D9D9"/>
<stop offset="0.08" stop-color="#CFCFCF"/>
<stop offset="0.23" stop-color="#B4B4B4"/>
<stop offset="0.41" stop-color="#888888"/>
<stop offset="0.54" stop-color="#666666"/>
<stop offset="0.9" stop-color="#ACACAC"/>
</linearGradient>
<linearGradient id="paint1_linear_2061_2164" x1="49.6119" y1="64.8318" x2="49.6119" y2="53.0672" gradientUnits="userSpaceOnUse">
<stop stop-color="#D0D0D0"/>
<stop offset="0.09" stop-color="#C5C5C5"/>
<stop offset="0.25" stop-color="#A8A8A8"/>
<stop offset="0.46" stop-color="#7A7A7A"/>
<stop offset="0.54" stop-color="#666666"/>
<stop offset="0.71" stop-color="#878787"/>
<stop offset="1" stop-color="#C0C0C0"/>
</linearGradient>
<linearGradient id="paint2_linear_2061_2164" x1="49.9936" y1="64.8318" x2="49.23" y2="55.6206" gradientUnits="userSpaceOnUse">
<stop stop-color="#D9D9D9"/>
<stop offset="0.08" stop-color="#CFCFCF"/>
<stop offset="0.23" stop-color="#B4B4B4"/>
<stop offset="0.41" stop-color="#888888"/>
<stop offset="0.54" stop-color="#666666"/>
<stop offset="0.77" stop-color="#949494"/>
<stop offset="0.9" stop-color="#ACACAC"/>
</linearGradient>
<linearGradient id="paint3_linear_2061_2164" x1="49.612" y1="63.0182" x2="49.612" y2="58.3171" gradientUnits="userSpaceOnUse">
<stop stop-color="#808080"/>
<stop offset="1" stop-color="#333333"/>
</linearGradient>
</defs>
</svg>
