<?xml version="1.0" encoding="UTF-8"?>
<svg id="Layer_2" data-name="Layer 2" xmlns="http://www.w3.org/2000/svg" xmlns:xlink="http://www.w3.org/1999/xlink" viewBox="0 0 36.07 29.47">
  <defs>
    <style>
      .cls-1 {
        fill: url(#linear-gradient-2);
      }

      .cls-2 {
        fill: url(#linear-gradient-4);
      }

      .cls-3 {
        fill: url(#linear-gradient-3);
      }

      .cls-4 {
        fill: #1497eb;
      }

      .cls-5 {
        fill: #7a7a7a;
      }

      .cls-6 {
        fill: #0d6196;
      }

      .cls-7 {
        fill: url(#linear-gradient);
      }
    </style>
    <linearGradient id="linear-gradient" x1="1157.43" y1="15.6" x2="1157.43" y2="20.15" gradientTransform="translate(1175.53) rotate(-180) scale(1 -1)" gradientUnits="userSpaceOnUse">
      <stop offset="0" stop-color="#d9d9d9"/>
      <stop offset=".08" stop-color="#cfcfcf"/>
      <stop offset=".23" stop-color="#b4b4b4"/>
      <stop offset=".41" stop-color="#888"/>
      <stop offset=".54" stop-color="#666"/>
      <stop offset=".9" stop-color="#acacac"/>
    </linearGradient>
    <linearGradient id="linear-gradient-2" x1="1157.43" y1="19.55" x2="1157.43" y2="14.62" gradientTransform="translate(1175.53) rotate(-180) scale(1 -1)" gradientUnits="userSpaceOnUse">
      <stop offset="0" stop-color="#d0d0d0"/>
      <stop offset=".09" stop-color="#c5c5c5"/>
      <stop offset=".25" stop-color="#a8a8a8"/>
      <stop offset=".46" stop-color="#7a7a7a"/>
      <stop offset=".54" stop-color="#666"/>
      <stop offset=".71" stop-color="#878787"/>
      <stop offset="1" stop-color="silver"/>
    </linearGradient>
    <linearGradient id="linear-gradient-3" x1="1157.27" y1="19.55" x2="1157.59" y2="15.69" gradientTransform="translate(1175.53) rotate(-180) scale(1 -1)" gradientUnits="userSpaceOnUse">
      <stop offset="0" stop-color="#d9d9d9"/>
      <stop offset=".08" stop-color="#cfcfcf"/>
      <stop offset=".23" stop-color="#b4b4b4"/>
      <stop offset=".41" stop-color="#888"/>
      <stop offset=".54" stop-color="#666"/>
      <stop offset=".77" stop-color="#949494"/>
      <stop offset=".9" stop-color="#acacac"/>
    </linearGradient>
    <linearGradient id="linear-gradient-4" x1="1157.43" y1="18.78" x2="1157.43" y2="16.82" gradientTransform="translate(1175.53) rotate(-180) scale(1 -1)" gradientUnits="userSpaceOnUse">
      <stop offset="0" stop-color="#fff"/>
      <stop offset="0" stop-color="#cbcbcb"/>
      <stop offset="0" stop-color="gray"/>
      <stop offset="1" stop-color="#333"/>
    </linearGradient>
  </defs>
  <g id="Layer_1-2" data-name="Layer 1">
    <g>
      <path class="cls-5" d="M25.79,13.33c6.54-7.47,7.38-11.22,7.38-11.22-1.12,8.21,7.84,27.66-1.14,27.35S6.32,24.5,5.25,20.48c-2.93-10.99,16.27-2.28,20.54-7.16Z"/>
      <path class="cls-4" d="M19.39,8.09c6.54-7.47,16.14-11.72,13.25-3.96-2.89,7.76,1.98,20.4-7,20.1S-8.32,18.44,2.8,16.01c11.11-2.44,12.33-3.05,16.6-7.92Z"/>
      <g>
        <path class="cls-6" d="M15.84,17.36c0,1.25,1.01,2.27,2.27,2.27s2.27-1.01,2.27-2.27-1.01-2.27-2.27-2.27-2.27,1.01-2.27,2.27Z"/>
        <g>
          <circle class="cls-7" cx="18.11" cy="17.66" r="1.68"/>
          <path class="cls-1" d="M16.41,17.66c0-.94.76-1.7,1.7-1.7s1.7.76,1.7,1.7-.76,1.7-1.7,1.7-1.7-.76-1.7-1.7ZM16.44,17.66c0,.92.75,1.66,1.66,1.66s1.66-.75,1.66-1.66-.75-1.66-1.66-1.66-1.66.75-1.66,1.66Z"/>
        </g>
        <path class="cls-3" d="M17.03,17.66c0,.6.48,1.08,1.08,1.08s1.08-.48,1.08-1.08-.48-1.08-1.08-1.08-1.08.48-1.08,1.08Z"/>
        <polygon class="cls-2" points="17.17 18.2 17.17 17.12 18.11 16.58 19.04 17.12 19.04 18.2 18.11 18.74 17.17 18.2"/>
      </g>
      <path class="cls-6" d="M26.75,17.74c-.74,4.4-3.35,2.49-21.5,2.74h0c5.97,1.9,15.52,3.58,20.38,3.74,8.98.3,4.11-12.33,7-20.1,0,0-4.2,3.6-5.89,13.61Z"/>
    </g>
  </g>
</svg>