<?xml version="1.0" encoding="UTF-8"?>
<svg id="Layer_1" data-name="Layer 1" xmlns="http://www.w3.org/2000/svg" viewBox="0 0 683 3993.87">
  <defs>
    <style>
      .cls-1 {
        fill: #5d9dcd;
      }

      .cls-2 {
        fill: none;
      }

      .cls-3 {
        fill: #a0a0a0;
      }

      .cls-4 {
        fill: #595858;
      }

      .cls-5 {
        fill: #019970;
      }

      .cls-6 {
        fill: #e43c14;
      }

      .cls-7 {
        fill: #c6c6c6;
      }

      .cls-8 {
        fill: #fcc83e;
      }

      .cls-9 {
        fill: #fcfbfc;
      }

      .cls-10 {
        fill: #e0a3c5;
      }

      .cls-11 {
        fill: #e8e8e8;
      }
    </style>
  </defs>
  <polygon class="cls-2" points="86.22 1993.86 259.44 1953.45 259.43 1953.44 86.17 1993.86 86.22 1993.86"/>
  <polygon class="cls-2" points="538.18 3470.04 538.17 3470.04 434.4 3537.75 477.45 3424.87 477.45 3424.87 434.4 3537.75 538.18 3470.04"/>
  <polygon class="cls-2" points="426.7 1553.09 366.94 1857.87 366.94 1857.87 426.71 1553.1 426.7 1553.09"/>
  <polygon class="cls-2" points="59.85 0 339.07 0 360.46 0 360.45 0 0 0 0 0 59.85 0"/>
  <rect class="cls-2" x="308.01" y="499.46" width="0" height="362.1" transform="translate(-431.35 786.89) rotate(-73.84)"/>
  <rect class="cls-2" x="255.32" y="2532.54" width="0" height="253.4" transform="translate(-2369.87 2164.15) rotate(-73.84)"/>
  <path class="cls-2" d="M0,1743.23c122.35,66.61,239.18,130.59,301.14,164.58h0c-61.97-33.98-178.8-97.97-301.15-164.58h0Z"/>
  <polygon class="cls-2" points="508.18 1496.07 508.18 1496.07 434.88 1543.9 464.69 1465.74 464.69 1465.74 434.88 1543.9 508.18 1496.07"/>
  <path class="cls-2" d="M133.63,2623.96h0c0,4.64,38.53,342.28,57.55,508.63-19.01-166.34-57.55-504-57.55-508.63Z"/>
  <polygon class="cls-2" points="371.15 3827.79 371.15 3827.79 354.7 3911.68 371.15 3827.79"/>
  <path class="cls-2" d="M346.55,3926.85c-.73-.4-167.68-92.11-346.55-189.49h0c179.19,97.56,346.43,189.43,346.56,189.5h0Z"/>
  <path class="cls-2" d="M134.11,630.11h0c0,4.64,38.53,342.28,57.55,508.63-19.01-166.34-57.55-504-57.55-508.63Z"/>
  <polygon class="cls-2" points="0 3314.51 0 3314.51 195.49 3225.94 0 3314.51"/>
  <polygon class="cls-2" points="424.66 1543.9 424.66 1543.88 202.04 1229.35 202.04 1229.37 424.66 1543.9"/>
  <rect class="cls-2" x="338.59" y="3993.86" width="165.73" height="0"/>
  <polygon class="cls-2" points="346.56 3926.85 59.37 3993.86 0 3993.86 0 3993.87 59.39 3993.87 346.56 3926.86 346.56 3926.85"/>
  <polygon class="cls-2" points="201.56 3223.23 424.18 3537.75 424.17 3537.73 201.55 3223.21 201.56 3223.23"/>
  <polygon class="cls-2" points="0 1320.87 0 1320.87 195.98 1232.08 0 1320.87"/>
  <polygon class="cls-2" points="426.22 3546.95 381.49 3775.08 381.49 3775.08 426.22 3546.96 426.22 3546.95"/>
  <polygon class="cls-2" points="0 840.88 0 840.88 134.11 630.1 0 840.88"/>
  <polygon class="cls-9" points="0 0 0 13.97 59.85 0 0 0"/>
  <path class="cls-3" d="M42.08,509.27c-.39-.08-.39-.03,0,0h0Z"/>
  <path class="cls-3" d="M0,330.78v162.06c2.99-1.8,6.49-3.07,10.64-3.43,14.4-1.25,23.21,15.57,31.65,19.87,10.71,5.45,17.72-7.7,30.39-6.34h-.02c12.67,1.36,22.2,13.31,21.21,24.3-.84,9.39.58,16.91-20.05,22.04-20.63,5.13-26.67,28.42-46.2,33.03-10.76.51-13.77-6.55-27.62-7.83v60.39l134.11-4.77h0s0,0,0,0l373.45-180.87-119.11-65.61,164.63-92.86-64.95-98.04-183.98-14.62L0,330.78ZM162.5,311.99c-5.05,4.78-13.23,4.78-18.27,0-5.04-4.78-5.05-12.54,0-17.32,5.05-4.78,13.23-4.78,18.27,0,5.04,4.78,5.05,12.54,0,17.32ZM388.41,297.57c9.61-20.31,27.73-24.59,39.26-3.11,9.55,3.55,19.61,5.6,28.54,10.69,12,6.01,25.43,24.85,8.36,33.23-8.99,4.3-18.43-2.98-27.47-.48-14.08,3.21-28.51,18.94-43.35,10.74-22.87-10.62-20.85-34.67-5.34-51.07ZM317.61,499.08c7.51,12.42,7.77,29.26-5.52,37.81-14.32,10.96-40.48,28.74-55.67,10.96-27.65-35.59,36.49-96.17,61.19-48.77Z"/>
  <path class="cls-9" d="M191.66,1138.73c-19.02-166.34-57.55-503.99-57.55-508.63h0s0,0,0,0h0S0,840.88,0,840.88v105.13c.8.03,1.63.11,2.48.24,23.78,1.06,86.29,21.17,36.1,41.68h.01c-12.86,4.65-27.2,8.1-38.59,15.84v135.95h191.77c-.04-.32-.07-.66-.11-.98Z"/>
  <polygon class="cls-7" points="304.15 178.1 488.13 192.72 360.46 0 339.07 0 304.15 178.1"/>
  <polygon class="cls-7" points="134.11 630.11 481.9 730.91 433.6 591.12 562.83 479.67 507.56 449.23 134.11 630.1 134.11 630.11"/>
  <path class="cls-7" d="M202.04,1229.37h0s-.01-.03-.01-.03l-6.05,2.74L0,1320.87v81.19c24.13-15.95,73.65-11.83,72.64,21.91-3.47,14.96-17.77,23.69-32.54,18.72-11.25-1.2-28.39-2.56-40.1-7.2v307.74c122.35,66.61,239.18,130.59,301.15,164.57l35.2-26.71-134.32-651.75.02.02ZM272.65,1850.23c5.05-4.78,13.23-4.78,18.27,0s5.05,12.54,0,17.32c-5.05,4.78-13.23,4.78-18.27,0-5.05-4.78-5.05-12.54,0-17.32ZM198.24,1679.6c-5.86,16.58-23.59,24.48-38.89,14.59-16.58-6.46-34.66-15.85-42.98-32.39-11.32-34.39,32.3-86.77,62.83-49.86,17.24,16.88,29.31,44.09,19.04,67.66Z"/>
  <path class="cls-9" d="M0,1824.56c1.77.9,3.46,1.87,5.05,2.88,27.99,26.86,54.04,19.19,79.2,40.91h0c14.13,16.61-2.67,40.84-22.38,40.84-18.7-1.25-33.37-16.51-51.9-18.49-3.18-.49-6.56-.58-9.98-.61v103.76h86.17l173.25-40.43-8.69-7.37,50.41-38.26c-61.97-33.98-178.79-97.97-301.14-164.58v81.33Z"/>
  <polygon class="cls-3" points="134.11 630.11 134.11 630.11 134.11 630.1 134.11 630.09 134.11 630.1 134.11 630.11 134.11 630.11"/>
  <path class="cls-3" d="M134.11,630.11c0,4.63,38.54,342.28,57.55,508.63.04.33.08.66.11.98h.01c6.16,53.93,10.25,89.62,10.25,89.62h0s.01.02.01.02l222.62,314.52-43.34-136.3-61.89-43.17,33.19-47.1-56.46-177.59-162.04-509.61Z"/>
  <polygon class="cls-11" points="0 634.87 0 840.88 134.11 630.1 0 634.87"/>
  <path class="cls-11" d="M339.07,0H59.85L0,13.97v25.12c1.52-1.18,3.27-2.17,5.32-2.9,11.38-4.1,21.26,3.65,28.59,11.46,1.8,1.92,3.55,3.87,5.37,5.76,1.66,1.72,3.65,3.64,4.98,4.64.93.7,1.88,1.34,2.89,1.91,1.3.74.97.6,2.34,1.03.23.08,1.17.3,1.25.34.5.08,1.01.12,1.52.15,1.19.07,2.38.02,3.57-.05,1.04-.06.26,0,1.29-.12.62-.07,1.23-.14,1.85-.22,1.23-.16,2.45-.32,3.68-.45,2.57-.27,5.19-.56,7.78-.26,6,.68,10.87,4.04,13.1,9.76.08.2.14.42.2.63.09.2.19.4.27.62.98,2.69,1.71,5.44,2.22,8.25,2.52,14,.19,28.66-6.64,41.14-7.35,13.44-20.22,24.88-35.03,29.25h0c-7.21,2.13-15.06,2.25-22.28.09-6.53-1.96-12.38-5.66-17.74-9.79-1.53-1.18-3.03-2.4-4.53-3.62v194.08l304.15-152.68L339.07,0ZM290.92,89.77c-5.05,4.78-13.23,4.78-18.27,0-5.04-4.78-5.05-12.54,0-17.32,5.05-4.78,13.23-4.78,18.27,0,5.05,4.78,5.05,12.54,0,17.32Z"/>
  <path class="cls-9" d="M202.02,1229.34h0s-4.09-35.69-10.25-89.62h-.01s-191.77,0-191.77,0v181.15l195.98-88.79,6.05-2.74ZM168.49,1207.99c-8.07,7.63-20.03,12.31-30.43,8.11-9.27-3.51-11.94-13.73-17.3-21.04-11.37-12.64-38.55-28.94-27.95-45.11,10.59-16.18,15.26-1.59,22.93-2.26,7.24-3.83,14.38-3.04,19.83.61,5.66,3.79,4.71,13.47,9.7,18.68,5,5.21,9.98,5.16,15.12,6.82h0c23.48,4.86,20.14,22.81,8.11,34.19Z"/>
  <polygon class="cls-7" points="366.94 1857.87 555.75 1714.59 426.71 1553.1 366.94 1857.87"/>
  <polygon class="cls-7" points="508.18 1496.07 464.69 1465.74 434.88 1543.9 508.18 1496.07"/>
  <path class="cls-11" d="M568.4,1011.03l6.89-9.78-3.32-9.6c-2.23,4.51-2.18,10.15-3.03,15.04-.06,1.46-.25,2.91-.55,4.34Z"/>
  <path class="cls-11" d="M424.66,1543.9l-222.62-314.53-.02-.02,134.32,651.75,30.6-23.22,59.76-304.78h0s129.04,161.49,129.04,161.49l75.82-57.54c1.57-8.9,5.31-18.29,6.64-23.36,2.23-8.51,3.33-17.3,2.13-26.36-.45-6.15-2.26-13.03.2-18.93l-132.36-92.32-73.3,47.83,29.81-78.16-83.38-58.16,43.34,136.3v.02ZM272.65,1405.79c5.05-4.78,13.23-4.78,18.27,0,5.05,4.78,5.05,12.54,0,17.32-5.05,4.78-13.23,4.78-18.27,0-5.05-4.78-5.05-12.54,0-17.32Z"/>
  <polygon class="cls-11" points="307.11 1993.86 259.44 1953.45 86.22 1993.86 307.11 1993.86"/>
  <path class="cls-11" d="M134.11,630.11h0,0s162.04,509.61,162.04,509.61l56.46,177.59,49.83-70.72c-7.86-7.79-11.64-20.45-6.31-38.92-1.99-21.06-17.05-57.49,5.53-65.79s16.42,9.73,24.58,14.75c10.06,1.53,16.61,7.62,19.35,15.31.43,7.15-1.22,12.34-2.54,17.02l113.09-160.51c-6.12,3.44-13.6,3.49-20.5-2.51-11.49-9.21-11.59-25.48-19.92-36.63-13.26-16.24-26.2-35.01-26.45-56.77-.54-8.79,1.31-23.47,13.39-19.19,20.75,6.87,34.29,25.84,53.74,33.23l-74.5-215.65-347.78-100.8h0ZM402.65,739.12c5.05-4.78,13.23-4.78,18.27,0,5.05,4.78,5.05,12.54,0,17.32s-13.23,4.78-18.27,0c-5.05-4.78-5.05-12.54,0-17.32ZM274.95,934.71c11.87-10.66,28.48,6.36,26.47,19.3-3.83,14.96,10.55,22.27,20.37,30.14h0c28.2,38.28-46.73,36.65-58.5-1.98-5.66-16.46,1.73-34.26,11.66-47.46Z"/>
  <path class="cls-10" d="M22.27,150.11c7.22,2.16,15.07,2.04,22.28-.09h0c14.81-4.37,27.68-15.81,35.03-29.25,6.83-12.48,9.16-27.14,6.64-41.14-.51-2.81-1.24-5.56-2.22-8.25-.08-.22-.18-.42-.27-.62-.06-.21-.12-.43-.2-.63-2.23-5.72-7.1-9.08-13.1-9.76-2.59-.3-5.21-.01-7.78.26-1.23.13-2.45.29-3.68.45-.62.08-1.23.15-1.85.22-1.03.12-.25.06-1.29.12-1.19.07-2.38.12-3.57.05-.51-.03-1.02-.07-1.52-.15-.08-.04-1.02-.26-1.25-.34-1.37-.43-1.04-.29-2.34-1.03-1.01-.57-1.96-1.21-2.89-1.91-1.33-1-3.32-2.92-4.98-4.64-1.82-1.89-3.57-3.84-5.37-5.76-7.33-7.81-17.21-15.56-28.59-11.46-2.05.74-3.8,1.72-5.32,2.9v97.61c1.5,1.23,3,2.44,4.53,3.62,5.36,4.13,11.21,7.83,17.74,9.79ZM14.23,72.46c5.05-4.78,13.23-4.78,18.27,0,5.05,4.78,5.05,12.54,0,17.32-5.05,4.78-13.23,4.78-18.27,0-5.04-4.78-5.05-12.54,0-17.32Z"/>
  <path class="cls-5" d="M640.34,1607.32c1.2,9.06.1,17.85-2.13,26.36-1.33,5.07-5.07,14.46-6.64,23.36l25.76-19.55c-.24-3.4,1-6.89,3.75-9.49,3.47-3.29,8.42-4.31,12.81-3.08l9.11-6.91-42.46-29.62c-2.45,5.9-.64,12.78-.2,18.93Z"/>
  <path class="cls-1" d="M61.88,1909.19c19.71,0,36.51-24.23,22.38-40.85h0c-25.16-21.71-51.21-14.04-79.2-40.9-1.59-1.01-3.28-1.98-5.05-2.88v65.54c3.42.03,6.8.11,9.98.61,18.53,1.98,33.2,17.24,51.9,18.49ZM14.23,1850.23c5.05-4.78,13.23-4.78,18.27,0s5.05,12.54,0,17.32c-5.05,4.78-13.23,4.78-18.27,0-5.05-4.78-5.05-12.54,0-17.32Z"/>
  <path class="cls-8" d="M489.27,932.53c.25,21.76,13.19,40.53,26.45,56.77,8.33,11.15,8.43,27.42,19.92,36.63,6.9,6,14.37,5.95,20.5,2.51l12.26-17.41c.3-1.42.49-2.87.55-4.34.84-4.89.79-10.53,3.03-15.04l-15.58-45.09c-19.45-7.39-32.99-26.36-53.74-33.23-12.08-4.28-13.93,10.4-13.39,19.19ZM531.08,961.35c5.05-4.78,13.23-4.78,18.27,0,5.05,4.78,5.05,12.54,0,17.32s-13.23,4.78-18.27,0c-5.05-4.78-5.05-12.54,0-17.32Z"/>
  <path class="cls-8" d="M256.42,547.85c15.19,17.78,41.35,0,55.67-10.96,13.29-8.55,13.03-25.39,5.52-37.81-24.7-47.4-88.84,13.18-61.19,48.77ZM290.92,534.22c-5.05,4.78-13.23,4.78-18.27,0s-5.05-12.54,0-17.32,13.23-4.78,18.27,0,5.05,12.54,0,17.32Z"/>
  <path class="cls-10" d="M160.38,1173.81h0c-5.14-1.67-10.12-1.62-15.12-6.83-4.99-5.21-4.04-14.89-9.7-18.68-5.45-3.65-12.59-4.44-19.83-.61-7.67.67-12.34-13.92-22.93,2.26-10.6,16.17,16.58,32.47,27.95,45.11,5.36,7.31,8.03,17.53,17.3,21.04,10.4,4.2,22.36-.48,30.43-8.11,12.03-11.38,15.37-29.33-8.11-34.18ZM162.5,1200.89c-5.05,4.78-13.23,4.78-18.27,0-5.05-4.78-5.05-12.54,0-17.32,5.05-4.78,13.23-4.78,18.27,0,5.05,4.78,5.05,12.54,0,17.32Z"/>
  <path class="cls-6" d="M321.79,984.15h0c-9.82-7.87-24.2-15.18-20.37-30.14,2.01-12.94-14.6-29.96-26.47-19.3-9.93,13.2-17.32,31-11.66,47.46,11.77,38.63,86.7,40.26,58.5,1.98ZM272.65,961.35c5.05-4.78,13.23-4.78,18.27,0,5.05,4.78,5.05,12.54,0,17.32s-13.23,4.78-18.27,0c-5.05-4.78-5.05-12.54,0-17.32Z"/>
  <path class="cls-6" d="M72.64,1423.97c1.01-33.74-48.51-37.85-72.64-21.91v33.42c11.71,4.65,28.85,6.01,40.1,7.2,14.77,4.97,29.07-3.76,32.54-18.72ZM32.5,1423.1c-5.05,4.78-13.23,4.78-18.27,0-5.05-4.78-5.05-12.54,0-17.32,5.05-4.78,13.23-4.78,18.27,0,5.05,4.78,5.05,12.54,0,17.32Z"/>
  <path class="cls-1" d="M445.59,1171.93c-2.74-7.69-9.29-13.78-19.35-15.31-8.16-5.02-2-23.05-24.58-14.75s-7.52,44.73-5.53,65.79c-5.33,18.47-1.54,31.13,6.31,38.92l40.61-57.63c1.32-4.68,2.98-9.87,2.54-17.02ZM420.92,1200.89c-5.05,4.78-13.23,4.78-18.27,0-5.05-4.78-5.05-12.54,0-17.32,5.05-4.78,13.23-4.78,18.27,0,5.05,4.78,5.05,12.54,0,17.32Z"/>
  <path class="cls-8" d="M38.58,987.92c50.19-20.51-12.32-40.62-36.1-41.68-.85-.13-1.68-.21-2.48-.24v57.77c11.39-7.74,25.73-11.19,38.59-15.85h-.01ZM32.5,978.67c-5.05,4.78-13.23,4.78-18.27,0-5.05-4.78-5.05-12.54,0-17.32s13.23-4.78,18.27,0c5.05,4.78,5.05,12.54,0,17.32Z"/>
  <path class="cls-1" d="M393.75,348.64c14.84,8.2,29.27-7.53,43.35-10.74,9.04-2.5,18.48,4.78,27.47.48,17.07-8.38,3.64-27.22-8.36-33.23-8.93-5.09-18.99-7.14-28.54-10.69-11.53-21.48-29.65-17.2-39.26,3.11-15.51,16.4-17.53,40.45,5.34,51.07ZM402.65,294.67c5.05-4.78,13.23-4.78,18.27,0,5.04,4.78,5.05,12.54,0,17.32-5.05,4.78-13.23,4.78-18.27,0-5.04-4.78-5.05-12.54,0-17.32Z"/>
  <path class="cls-8" d="M116.37,1661.8c8.32,16.54,26.4,25.93,42.98,32.39,15.3,9.89,33.03,1.99,38.89-14.59,10.27-23.57-1.8-50.78-19.04-67.66-30.53-36.91-74.15,15.47-62.83,49.86ZM162.5,1645.32c-5.05,4.78-13.23,4.78-18.27,0-5.05-4.78-5.05-12.54,0-17.32,5.05-4.78,13.23-4.78,18.27,0,5.05,4.78,5.05,12.54,0,17.32Z"/>
  <path class="cls-6" d="M27.62,582.32c19.53-4.61,25.57-27.9,46.2-33.03,20.63-5.13,19.21-12.65,20.05-22.04.99-10.99-8.54-22.94-21.21-24.29h.02c-12.67-1.37-19.68,11.78-30.39,6.33-8.44-4.3-17.25-21.12-31.65-19.87-4.15.36-7.65,1.63-10.64,3.43v81.63c13.85,1.29,16.86,8.34,27.62,7.83ZM42.08,509.27c-.39-.03-.39-.08,0,0h0ZM14.23,534.22c-5.04-4.78-5.05-12.54,0-17.32s13.23-4.78,18.27,0,5.05,12.54,0,17.32-13.23,4.78-18.27,0Z"/>
  <path class="cls-4" d="M32.5,89.77c5.05-4.78,5.05-12.54,0-17.32-5.04-4.78-13.22-4.78-18.27,0-5.05,4.78-5.04,12.54,0,17.32,5.04,4.78,13.22,4.78,18.27,0Z"/>
  <path class="cls-4" d="M272.65,72.46c-5.05,4.78-5.04,12.54,0,17.32,5.04,4.78,13.22,4.78,18.27,0,5.05-4.78,5.05-12.54,0-17.32-5.04-4.78-13.22-4.78-18.27,0Z"/>
  <path class="cls-4" d="M144.23,294.67c-5.05,4.78-5.04,12.54,0,17.32,5.04,4.78,13.22,4.78,18.27,0,5.05-4.78,5.04-12.54,0-17.32-5.04-4.78-13.22-4.78-18.27,0Z"/>
  <path class="cls-4" d="M420.92,311.99c5.05-4.78,5.04-12.54,0-17.32-5.04-4.78-13.22-4.78-18.27,0-5.05,4.78-5.04,12.54,0,17.32,5.04,4.78,13.22,4.78,18.27,0Z"/>
  <path class="cls-4" d="M420.92,756.45c5.05-4.78,5.05-12.54,0-17.32-5.04-4.78-13.22-4.78-18.27,0s-5.05,12.54,0,17.32c5.04,4.78,13.22,4.78,18.27,0Z"/>
  <path class="cls-4" d="M32.5,516.9c-5.04-4.78-13.22-4.78-18.27,0s-5.04,12.54,0,17.32,13.22,4.78,18.27,0,5.04-12.54,0-17.32Z"/>
  <path class="cls-4" d="M272.65,516.9c-5.05,4.78-5.04,12.54,0,17.32s13.22,4.78,18.27,0,5.04-12.54,0-17.32-13.22-4.78-18.27,0Z"/>
  <path class="cls-4" d="M144.23,1183.57c-5.05,4.78-5.05,12.54,0,17.32,5.04,4.78,13.22,4.78,18.27,0,5.05-4.78,5.05-12.54,0-17.32-5.04-4.78-13.22-4.78-18.27,0Z"/>
  <path class="cls-4" d="M402.65,1183.57c-5.05,4.78-5.05,12.54,0,17.32,5.04,4.78,13.22,4.78,18.27,0,5.05-4.78,5.05-12.54,0-17.32-5.04-4.78-13.22-4.78-18.27,0Z"/>
  <path class="cls-4" d="M14.23,961.35c-5.05,4.78-5.05,12.54,0,17.32,5.04,4.78,13.22,4.78,18.27,0s5.05-12.54,0-17.32c-5.04-4.78-13.22-4.78-18.27,0Z"/>
  <path class="cls-4" d="M290.92,978.67c5.05-4.78,5.05-12.54,0-17.32-5.04-4.78-13.22-4.78-18.27,0s-5.05,12.54,0,17.32c5.04,4.78,13.22,4.78,18.27,0Z"/>
  <path class="cls-4" d="M549.35,978.67c5.05-4.78,5.05-12.54,0-17.32-5.04-4.78-13.22-4.78-18.27,0s-5.05,12.54,0,17.32c5.04,4.78,13.22,4.78,18.27,0Z"/>
  <path class="cls-4" d="M14.23,1405.79c-5.05,4.78-5.05,12.54,0,17.32,5.04,4.78,13.22,4.78,18.27,0,5.05-4.78,5.05-12.54,0-17.32-5.04-4.78-13.22-4.78-18.27,0Z"/>
  <path class="cls-4" d="M290.92,1423.1c5.05-4.78,5.05-12.54,0-17.32-5.04-4.78-13.22-4.78-18.27,0-5.05,4.78-5.05,12.54,0,17.32,5.04,4.78,13.22,4.78,18.27,0Z"/>
  <path class="cls-4" d="M144.23,1628.01c-5.05,4.78-5.05,12.54,0,17.32,5.04,4.78,13.22,4.78,18.27,0,5.05-4.78,5.05-12.54,0-17.32-5.04-4.78-13.22-4.78-18.27,0Z"/>
  <path class="cls-4" d="M661.08,1628.01c-2.75,2.6-3.99,6.08-3.75,9.49l16.56-12.57c-4.39-1.23-9.34-.2-12.81,3.08Z"/>
  <path class="cls-4" d="M32.5,1867.55c5.05-4.78,5.04-12.54,0-17.32s-13.22-4.78-18.27,0c-5.05,4.78-5.05,12.54,0,17.32,5.04,4.78,13.22,4.78,18.27,0Z"/>
  <path class="cls-4" d="M290.92,1867.55c5.05-4.78,5.04-12.54,0-17.32s-13.22-4.78-18.27,0c-5.05,4.78-5.05,12.54,0,17.32,5.04,4.78,13.22,4.78,18.27,0Z"/>
  <polygon class="cls-9" points="59.37 1993.86 0 1993.86 0 2007.71 59.37 1993.86"/>
  <path class="cls-3" d="M0,2324.4v162.02c2.89-1.65,6.23-2.81,10.16-3.15,14.4-1.25,23.21,15.57,31.65,19.87,10.71,5.45,17.72-7.7,30.39-6.34h-.02c12.67,1.36,22.2,13.31,21.21,24.3-.84,9.39.58,16.91-20.05,22.04-20.63,5.13-26.67,28.42-46.2,33.03-10.63.5-13.69-6.38-27.14-7.79v60.33l133.63-4.75h0s0,0,0,0l310.41-150.34-52.11-131.8c-15.12-7.71-18.46-21.64-13.77-34.82l-52.71-133.31-21.79-1.73L0,2324.4ZM162.02,2305.85c-5.05,4.78-13.23,4.78-18.27,0s-5.05-12.54,0-17.32,13.23-4.78,18.27,0,5.05,12.54,0,17.32ZM317.13,2492.93c7.51,12.42,7.77,29.26-5.52,37.81-14.32,10.96-40.48,28.74-55.67,10.96-27.65-35.59,36.49-96.17,61.19-48.77Z"/>
  <path class="cls-3" d="M41.6,2503.12c-.39-.08-.39-.03,0,0h0Z"/>
  <path class="cls-9" d="M191.18,3132.59c-19.02-166.34-57.55-503.99-57.55-508.63h0s0,0,0,0h0S0,2833.97,0,2833.97v105.92c.65.04,1.31.1,2,.21,23.78,1.06,86.29,21.17,36.1,41.68h.01c-12.68,4.59-26.8,8-38.11,15.51v136.28h191.29c-.04-.32-.07-.66-.11-.98Z"/>
  <polygon class="cls-7" points="133.63 2623.96 377.01 2694.51 453.11 2496.57 444.04 2473.62 133.63 2623.96 133.63 2623.96"/>
  <polygon class="cls-7" points="325.45 2173.69 319.03 2157.44 414.56 2084.97 334.1 2016.75 303.67 2171.96 325.45 2173.69"/>
  <path class="cls-7" d="M201.56,3223.23h0s-.01-.03-.01-.03l-6.05,2.74L0,3314.51v81.1c24.3-15.58,73.16-11.3,72.16,22.22-3.47,14.96-17.77,23.69-32.54,18.72-11.1-1.18-27.92-2.52-39.62-7.01v307.81c178.87,97.38,345.82,189.09,346.55,189.49l-22.98-111.5c-20.51-5.53-33.49-9.38-33.83-10.35-.4-1.15,11.32-5.36,29.41-11.11l-117.62-570.69.02.02ZM272.17,3844.09c5.05-4.78,13.23-4.78,18.27,0s5.05,12.54,0,17.32c-5.05,4.78-13.23,4.78-18.27,0-5.05-4.78-5.05-12.54,0-17.32ZM197.76,3673.45c-5.86,16.58-23.59,24.48-38.89,14.59-16.58-6.46-34.66-15.85-42.98-32.39-11.32-34.39,32.3-86.77,62.83-49.86,17.24,16.88,29.31,44.09,19.04,67.66Z"/>
  <path class="cls-9" d="M346.56,3926.85h0c-.13-.07-167.36-91.94-346.56-189.5v81.32c1.59.83,3.12,1.71,4.57,2.63,27.99,26.86,54.04,19.19,79.2,40.91h0c14.13,16.61-2.67,40.84-22.38,40.84-18.7-1.25-33.37-16.51-51.9-18.49-3.03-.47-6.24-.57-9.5-.6v109.9h59.37l287.19-67.01Z"/>
  <polygon class="cls-3" points="133.63 2623.96 133.63 2623.96 133.63 2623.96 133.63 2623.95 133.63 2623.96 133.63 2623.96 133.63 2623.96"/>
  <path class="cls-3" d="M191.29,3133.57h.01c6.16,53.93,10.25,89.62,10.25,89.62h0s.01.02.01.02l222.62,314.52-128.5-404.16-162.04-509.61c0,4.63,38.54,342.28,57.55,508.63.04.33.08.66.11.98Z"/>
  <polygon class="cls-11" points="0 2628.72 0 2833.97 133.63 2623.96 0 2628.72"/>
  <path class="cls-11" d="M86.17,1993.86h-26.81l-59.37,13.85v24.88c1.41-1.02,3-1.89,4.84-2.55,11.38-4.1,21.26,3.65,28.59,11.46,1.8,1.92,3.55,3.87,5.37,5.76,1.66,1.72,3.65,3.64,4.98,4.64.93.7,1.88,1.34,2.89,1.91,1.3.74.97.6,2.34,1.03.23.08,1.17.3,1.25.34.5.08,1.01.12,1.52.15,1.19.07,2.38.02,3.57-.05,1.04-.06.26,0,1.29-.12.62-.07,1.23-.14,1.85-.22,1.23-.16,2.45-.32,3.68-.45,2.57-.27,5.19-.56,7.78-.26,6,.68,10.87,4.04,13.1,9.76.08.2.14.42.2.63.09.2.19.4.27.62.98,2.69,1.71,5.44,2.22,8.25,2.52,14,.19,28.66-6.64,41.14-7.35,13.44-20.22,24.88-35.03,29.25h0c-7.21,2.13-15.06,2.25-22.28.09-6.53-1.96-12.38-5.66-17.74-9.79-1.37-1.05-2.71-2.14-4.05-3.23v193.44l303.67-152.44,30.43-155.21-27-22.89H86.17ZM290.44,2083.63c-5.05,4.78-13.23,4.78-18.27,0s-5.05-12.54,0-17.32,13.23-4.78,18.27,0c5.05,4.78,5.05,12.54,0,17.32Z"/>
  <path class="cls-9" d="M201.54,3223.2h0s-4.09-35.69-10.25-89.62H0v180.93l195.49-88.57,6.05-2.74ZM168.01,3201.84c-8.07,7.63-20.03,12.31-30.43,8.11-9.27-3.51-11.94-13.73-17.3-21.04-11.37-12.64-38.55-28.94-27.95-45.11,10.59-16.18,15.26-1.59,22.93-2.26,7.24-3.83,14.38-3.04,19.83.61,5.66,3.79,4.71,13.47,9.7,18.68,5,5.21,9.98,5.16,15.12,6.82h0c23.48,4.86,20.14,22.81,8.11,34.19Z"/>
  <path class="cls-7" d="M338.59,3993.86h165.73l99.96-108.3s-9.87-2.39-26.1-6.34c-4.15,18.07-19.1,30.95-40.08,16.98-20.23-22.7-30.96-12.89-54.82-22.36-7.88-4.58-13.26-12.77-16-21.87-32.79-8.14-66.78-16.65-96.13-24.17l-16.45,83.89-16.11,82.18Z"/>
  <path class="cls-7" d="M381.49,3775.08c56.4-16.49,117.95-33.58,117.95-33.58l-97.53-53,80.09-71.74-55.77-69.79-44.73,228.12Z"/>
  <polygon class="cls-7" points="538.17 3470.04 477.45 3424.87 434.4 3537.75 538.17 3470.04"/>
  <path class="cls-11" d="M346.56,3926.85h0s0,.01,0,.01l-287.17,67h279.2s16.11-82.18,16.11-82.18l16.45-83.89c-18.07-4.63-34.38-8.89-47.58-12.44l22.98,111.5h0Z"/>
  <path class="cls-11" d="M133.63,2623.96h0,0s162.04,509.61,162.04,509.61l128.5,404.16v.02s-222.62-314.53-222.62-314.53l-.02-.02,117.62,570.69c16.82-5.35,39.14-12.03,62.33-18.81l44.73-228.13h0s55.77,69.8,55.77,69.8l114.97-102.99-58.79-43.73-103.78,67.71,43.06-112.88-105.31-78.33,71.58-98.83c-22.71,8.53-60.61-2.74-48.08-46.2-1.99-21.06-17.05-57.49,5.53-65.79s16.42,9.73,24.58,14.75c10.06,1.53,16.61,7.62,19.35,15.31,1.18,19.41-13.05,24.39,5.87,43.88h.01c5.1,6.07,7.67,11.61,8.33,16.53l188.86-260.73-282.84-240.56,11.68-30.39-243.38-70.54h0ZM272.17,3399.64c5.05-4.78,13.23-4.78,18.27,0,5.05,4.78,5.05,12.54,0,17.32-5.05,4.78-13.23,4.78-18.27,0-5.05-4.78-5.05-12.54,0-17.32ZM502.18,2907.19c28.2,9.34,43.06,41.05,77.58,35.62h-.01c25.81-6.72,40.23,22.54,12.54,32.62-6.13,1.67-13.35,1.85-18.18,6.46-4.97,4.76-4.55,12.34-5.64,18.66-.64,16.83-18.35,32.25-33.31,19.23-11.49-9.21-11.59-25.48-19.92-36.63-13.26-16.24-26.2-35.01-26.45-56.77-.54-8.79,1.31-23.47,13.39-19.19ZM274.47,2928.56c11.87-10.66,28.48,6.36,26.47,19.3-3.83,14.96,10.55,22.27,20.37,30.14h0c28.2,38.28-46.73,36.65-58.5-1.98-5.66-16.46,1.73-34.26,11.66-47.46Z"/>
  <path class="cls-10" d="M21.79,2143.97c7.22,2.16,15.07,2.04,22.28-.09h0c14.81-4.37,27.68-15.81,35.03-29.25,6.83-12.48,9.16-27.14,6.64-41.14-.51-2.81-1.24-5.56-2.22-8.25-.08-.22-.18-.42-.27-.62-.06-.21-.12-.43-.2-.63-2.23-5.72-7.1-9.08-13.1-9.76-2.59-.3-5.21-.01-7.78.26-1.23.13-2.45.29-3.68.45-.62.08-1.23.15-1.85.22-1.03.12-.25.06-1.29.12-1.19.07-2.38.12-3.57.05-.51-.03-1.02-.07-1.52-.15-.08-.04-1.02-.26-1.25-.34-1.37-.43-1.04-.29-2.34-1.03-1.01-.57-1.96-1.21-2.89-1.91-1.33-1-3.32-2.92-4.98-4.64-1.82-1.89-3.57-3.84-5.37-5.76-7.33-7.81-17.21-15.56-28.59-11.46-1.84.66-3.43,1.53-4.84,2.55v98.36c1.34,1.09,2.68,2.17,4.05,3.23,5.36,4.13,11.21,7.83,17.74,9.79ZM13.75,2066.31c5.05-4.78,13.23-4.78,18.27,0,5.05,4.78,5.05,12.54,0,17.32s-13.23,4.78-18.27,0-5.05-12.54,0-17.32Z"/>
  <path class="cls-1" d="M61.4,3903.05c19.71,0,36.51-24.23,22.38-40.85h0c-25.16-21.71-51.21-14.04-79.2-40.9-1.44-.92-2.98-1.8-4.57-2.63v65.29c3.26.03,6.47.13,9.5.6,18.53,1.98,33.2,17.24,51.9,18.49ZM13.75,3844.09c5.05-4.78,13.23-4.78,18.27,0s5.05,12.54,0,17.32c-5.05,4.78-13.23,4.78-18.27,0-5.05-4.78-5.05-12.54,0-17.32Z"/>
  <path class="cls-8" d="M515.24,2983.15c8.33,11.15,8.43,27.42,19.92,36.63,14.96,13.02,32.67-2.4,33.31-19.23,1.09-6.32.67-13.9,5.64-18.66,4.83-4.61,12.05-4.79,18.18-6.46,27.69-10.08,13.27-39.34-12.54-32.62h.01c-34.52,5.43-49.38-26.28-77.58-35.62-12.08-4.28-13.93,10.4-13.39,19.19.25,21.76,13.19,40.53,26.45,56.77ZM530.6,2955.2c5.05-4.78,13.23-4.78,18.27,0,5.05,4.78,5.05,12.54,0,17.32s-13.23,4.78-18.27,0c-5.05-4.78-5.05-12.54,0-17.32Z"/>
  <path class="cls-8" d="M255.94,2541.7c15.19,17.78,41.35,0,55.67-10.96,13.29-8.55,13.03-25.39,5.52-37.81-24.7-47.4-88.84,13.18-61.19,48.77ZM290.44,2528.07c-5.05,4.78-13.23,4.78-18.27,0s-5.05-12.54,0-17.32,13.23-4.78,18.27,0,5.05,12.54,0,17.32Z"/>
  <path class="cls-10" d="M159.9,3167.66h0c-5.14-1.67-10.12-1.62-15.12-6.83-4.99-5.21-4.04-14.89-9.7-18.68-5.45-3.65-12.59-4.44-19.83-.61-7.67.67-12.34-13.92-22.93,2.26-10.6,16.17,16.58,32.47,27.95,45.11,5.36,7.31,8.03,17.53,17.3,21.04,10.4,4.2,22.36-.48,30.43-8.11,12.03-11.38,15.37-29.33-8.11-34.18ZM162.02,3194.74c-5.05,4.78-13.23,4.78-18.27,0-5.05-4.78-5.05-12.54,0-17.32,5.05-4.78,13.23-4.78,18.27,0,5.05,4.78,5.05,12.54,0,17.32Z"/>
  <path class="cls-6" d="M321.31,2978h0c-9.82-7.87-24.2-15.18-20.37-30.14,2.01-12.94-14.6-29.96-26.47-19.3-9.93,13.2-17.32,31-11.66,47.46,11.77,38.63,86.7,40.26,58.5,1.98ZM272.17,2955.2c5.05-4.78,13.23-4.78,18.27,0,5.05,4.78,5.05,12.54,0,17.32s-13.23,4.78-18.27,0c-5.05-4.78-5.05-12.54,0-17.32Z"/>
  <path class="cls-6" d="M72.16,3417.83c1-33.52-47.85-37.8-72.16-22.22v33.93c11.7,4.49,28.52,5.83,39.62,7.01,14.77,4.97,29.07-3.76,32.54-18.72ZM32.02,3416.96c-5.05,4.78-13.23,4.78-18.27,0-5.05-4.78-5.05-12.54,0-17.32,5.05-4.78,13.23-4.78,18.27,0,5.05,4.78,5.05,12.54,0,17.32Z"/>
  <path class="cls-1" d="M450.98,3209.66c-18.92-19.49-4.69-24.47-5.87-43.88-2.74-7.69-9.29-13.78-19.35-15.31-8.16-5.02-2-23.05-24.58-14.75s-7.52,44.73-5.53,65.79c-12.53,43.46,25.36,54.73,48.08,46.2l15.59-21.52c-.66-4.91-3.23-10.46-8.33-16.52h-.01ZM420.44,3194.74c-5.05,4.78-13.23,4.78-18.27,0-5.05-4.78-5.05-12.54,0-17.32,5.05-4.78,13.23-4.78,18.27,0,5.05,4.78,5.05,12.54,0,17.32Z"/>
  <path class="cls-8" d="M38.1,2981.78c50.19-20.51-12.32-40.62-36.1-41.68-.68-.11-1.35-.17-2-.21v57.4c11.31-7.51,25.43-10.93,38.11-15.52h-.01ZM32.02,2972.52c-5.05,4.78-13.23,4.78-18.27,0-5.05-4.78-5.05-12.54,0-17.32,5.05-4.78,13.23-4.78,18.27,0,5.05,4.78,5.05,12.54,0,17.32Z"/>
  <path class="cls-6" d="M483.29,3873.83c23.86,9.47,34.59-.34,54.82,22.36,20.98,13.97,35.93,1.1,40.08-16.98-25.65-6.25-67.21-16.42-110.9-27.25,2.74,9.1,8.13,17.29,16,21.87Z"/>
  <path class="cls-1" d="M391.93,2341.82l-13.77-34.82c-4.69,13.18-1.36,27.1,13.77,34.82Z"/>
  <path class="cls-8" d="M115.89,3655.65c8.32,16.54,26.4,25.93,42.98,32.39,15.3,9.89,33.03,1.99,38.89-14.59,10.27-23.57-1.8-50.78-19.04-67.66-30.53-36.91-74.15,15.47-62.83,49.86ZM162.02,3639.18c-5.05,4.78-13.23,4.78-18.27,0-5.05-4.78-5.05-12.54,0-17.32,5.05-4.78,13.23-4.78,18.27,0,5.05,4.78,5.05,12.54,0,17.32Z"/>
  <path class="cls-6" d="M27.14,2576.17c19.53-4.61,25.57-27.9,46.2-33.03,20.63-5.13,19.21-12.65,20.05-22.04.99-10.99-8.54-22.94-21.21-24.29h.02c-12.67-1.37-19.68,11.78-30.39,6.33-8.44-4.3-17.25-21.12-31.65-19.87-3.93.34-7.27,1.5-10.16,3.15v81.96c13.44,1.4,16.51,8.29,27.14,7.79ZM41.6,2503.12c-.39-.03-.39-.08,0,0h0ZM13.75,2528.07c-5.04-4.78-5.05-12.54,0-17.32s13.23-4.78,18.27,0,5.05,12.54,0,17.32-13.23,4.78-18.27,0Z"/>
  <path class="cls-4" d="M32.02,2083.63c5.05-4.78,5.05-12.54,0-17.32-5.04-4.78-13.22-4.78-18.27,0s-5.04,12.54,0,17.32,13.22,4.78,18.27,0Z"/>
  <path class="cls-4" d="M272.17,2066.31c-5.05,4.78-5.04,12.54,0,17.32s13.22,4.78,18.27,0,5.05-12.54,0-17.32c-5.04-4.78-13.22-4.78-18.27,0Z"/>
  <path class="cls-4" d="M143.75,2288.53c-5.05,4.78-5.04,12.54,0,17.32s13.22,4.78,18.27,0,5.04-12.54,0-17.32-13.22-4.78-18.27,0Z"/>
  <path class="cls-4" d="M32.02,2510.75c-5.04-4.78-13.22-4.78-18.27,0s-5.04,12.54,0,17.32,13.22,4.78,18.27,0,5.04-12.54,0-17.32Z"/>
  <path class="cls-4" d="M272.17,2510.75c-5.05,4.78-5.04,12.54,0,17.32s13.22,4.78,18.27,0,5.04-12.54,0-17.32-13.22-4.78-18.27,0Z"/>
  <path class="cls-4" d="M143.75,3177.42c-5.05,4.78-5.05,12.54,0,17.32,5.04,4.78,13.22,4.78,18.27,0,5.05-4.78,5.05-12.54,0-17.32-5.04-4.78-13.22-4.78-18.27,0Z"/>
  <path class="cls-4" d="M402.17,3177.42c-5.05,4.78-5.05,12.54,0,17.32,5.04,4.78,13.22,4.78,18.27,0,5.05-4.78,5.05-12.54,0-17.32-5.04-4.78-13.22-4.78-18.27,0Z"/>
  <path class="cls-4" d="M13.75,2955.2c-5.05,4.78-5.05,12.54,0,17.32,5.04,4.78,13.22,4.78,18.27,0s5.05-12.54,0-17.32c-5.04-4.78-13.22-4.78-18.27,0Z"/>
  <path class="cls-4" d="M290.44,2972.52c5.05-4.78,5.05-12.54,0-17.32-5.04-4.78-13.22-4.78-18.27,0-5.05,4.78-5.05,12.54,0,17.32,5.04,4.78,13.22,4.78,18.27,0Z"/>
  <path class="cls-4" d="M548.87,2972.52c5.05-4.78,5.05-12.54,0-17.32-5.04-4.78-13.22-4.78-18.27,0-5.05,4.78-5.05,12.54,0,17.32,5.04,4.78,13.22,4.78,18.27,0Z"/>
  <path class="cls-4" d="M13.75,3399.64c-5.05,4.78-5.05,12.54,0,17.32,5.04,4.78,13.22,4.78,18.27,0,5.05-4.78,5.05-12.54,0-17.32-5.04-4.78-13.22-4.78-18.27,0Z"/>
  <path class="cls-4" d="M290.44,3416.96c5.05-4.78,5.05-12.54,0-17.32-5.04-4.78-13.22-4.78-18.27,0-5.05,4.78-5.05,12.54,0,17.32,5.04,4.78,13.22,4.78,18.27,0Z"/>
  <path class="cls-4" d="M143.75,3621.86c-5.05,4.78-5.05,12.54,0,17.32,5.04,4.78,13.22,4.78,18.27,0,5.05-4.78,5.05-12.54,0-17.32-5.04-4.78-13.22-4.78-18.27,0Z"/>
  <path class="cls-4" d="M32.02,3861.41c5.05-4.78,5.04-12.54,0-17.32s-13.22-4.78-18.27,0c-5.05,4.78-5.05,12.54,0,17.32,5.04,4.78,13.22,4.78,18.27,0Z"/>
  <path class="cls-4" d="M290.44,3861.41c5.05-4.78,5.04-12.54,0-17.32s-13.22-4.78-18.27,0c-5.05,4.78-5.05,12.54,0,17.32,5.04,4.78,13.22,4.78,18.27,0Z"/>
</svg>