<?xml version="1.0" encoding="UTF-8"?>
<svg id="Layer_2" data-name="Layer 2" xmlns="http://www.w3.org/2000/svg" viewBox="0 0 104.57 102.53">
  <defs>
    <style>
      .cls-1 {
        fill: #a37fdb;
      }
    </style>
  </defs>
  <g id="Layer_1-2" data-name="Layer 1">
    <path class="cls-1" d="M103.73,46.83c-5.15-15.47-22.67-17.14-35.06-24.16-4.62-2.49-7.37-7.58-10.47-11.72C47.5-2.64,22.06-4.07,10.79,9.4c-4.04,6.32-1.8,14.16-1.3,21.07,1.2,9.06.1,17.85-2.13,26.36-2.65,10.11-14.89,37.4-.41,43.76,15.89,6.98,39.79-6.52,54.48-15.27,17.66-6.5,48.65-13.11,42.3-38.5ZM63.77,84.15s.01,0,.02-.01c.36-.16.15-.07-.02.01Z"/>
  </g>
</svg>