<?xml version="1.0" encoding="UTF-8"?>
<svg id="Layer_2" data-name="Layer 2" xmlns="http://www.w3.org/2000/svg" xmlns:xlink="http://www.w3.org/1999/xlink" viewBox="0 0 500 330">
  <defs>
    <style>
      .cls-1 {
        fill: none;
      }

      .cls-2 {
        fill: #fff;
        stroke: #575757;
        stroke-miterlimit: 10;
      }

      .cls-3 {
        clip-path: url(#clippath);
      }
    </style>
    <clipPath id="clippath">
      <rect class="cls-1" width="500" height="330"/>
    </clipPath>
  </defs>
  <g id="Layer_1-2" data-name="Layer 1">
    <g class="cls-3">
      <path class="cls-2" d="M470.83,177.38c0-2.81-.76-5.82-2.26-8.17-2.55-4.01.35-4.2,9.55-4.2h21.87v-82.5h-21.87c-9.21,0-12.11-.19-9.55-4.2,1.5-2.35,2.26-5.36,2.26-8.17,0-6.83-5.6-12.38-12.5-12.38s-12.5,5.54-12.5,12.38c0,2.81.76,5.82,2.26,8.17,2.56,4.01-.34,4.2-9.55,4.2h-21.87v21.66c0,9.11.19,11.98,4.24,9.46,2.37-1.48,5.42-2.24,8.25-2.24,6.9,0,12.5,5.54,12.5,12.38s-5.6,12.38-12.5,12.38c-2.84,0-5.88-.75-8.25-2.24-4.05-2.53-4.24.34-4.24,9.46v21.66h21.87c9.21,0,12.11.19,9.55,4.2-1.5,2.35-2.26,5.36-2.26,8.17,0,6.84,5.59,12.38,12.5,12.38s12.5-5.54,12.5-12.38Z"/>
      <path class="cls-2" d="M387.5,259.87c0-2.81-.76-5.82-2.26-8.17-2.56-4.01.34-4.2,9.55-4.2h21.88v-21.65c0-9.12-.2-11.99-4.25-9.46-2.37,1.48-5.42,2.24-8.25,2.24-6.9,0-12.5-5.54-12.5-12.37s5.6-12.38,12.5-12.38c2.84,0,5.88.75,8.25,2.24,4.05,2.53,4.25-.34,4.25-9.46v-21.66h-21.88c-9.21,0-12.11-.19-9.55-4.2,1.5-2.35,2.26-5.36,2.26-8.17,0-6.83-5.59-12.38-12.5-12.38s-12.5,5.54-12.5,12.38c0,2.81.76,5.82,2.26,8.17,2.56,4.01-.34,4.2-9.55,4.2h-21.88v21.66c0,9.11.2,11.98,4.25,9.46,2.37-1.48,5.42-2.24,8.25-2.24,6.9,0,12.5,5.54,12.5,12.38s-5.6,12.37-12.5,12.37c-2.84,0-5.88-.75-8.25-2.24-4.05-2.53-4.25.34-4.25,9.46v21.65h21.88c9.21,0,12.11.19,9.55,4.2-1.5,2.35-2.26,5.36-2.26,8.17,0,6.84,5.59,12.38,12.5,12.38s12.5-5.54,12.5-12.38Z"/>
      <path class="cls-2" d="M333.33,0v21.66c0,9.12.2,11.99,4.25,9.46,2.37-1.48,5.42-2.23,8.25-2.23,6.9,0,12.5,5.54,12.5,12.37s-5.6,12.38-12.5,12.38c-2.84,0-5.88-.75-8.25-2.24-4.05-2.53-4.25.34-4.25,9.46v21.66h21.88c9.21,0,12.11.19,9.55,4.2-1.5,2.35-2.26,5.36-2.26,8.17,0,6.84,5.59,12.38,12.5,12.38s12.5-5.54,12.5-12.38c0-2.81-.76-5.82-2.26-8.17-2.56-4.01.34-4.2,9.55-4.2h21.88v-21.66c0-9.11-.2-11.98-4.25-9.46-2.37,1.48-5.42,2.24-8.25,2.24-6.9,0-12.5-5.54-12.5-12.38s5.6-12.37,12.5-12.37c2.84,0,5.88.75,8.25,2.23,4.05,2.53,4.25-.34,4.25-9.46V0h-83.34Z"/>
      <path class="cls-2" d="M404.17,218.63c2.84,0,5.88-.75,8.25-2.24,4.05-2.53,4.25.34,4.25,9.46v21.65h21.87c9.21,0,12.11-.19,9.55-4.2-1.5-2.35-2.26-5.36-2.26-8.17,0-6.83,5.59-12.38,12.5-12.38s12.5,5.54,12.5,12.38c0,2.81-.76,5.83-2.26,8.17-2.55,4.01.35,4.2,9.55,4.2h21.87v-82.5h-21.87c-9.21,0-12.11.19-9.55,4.2,1.5,2.35,2.26,5.36,2.26,8.17,0,6.84-5.6,12.38-12.5,12.38s-12.5-5.54-12.5-12.38c0-2.81.76-5.82,2.26-8.17,2.56-4.01-.34-4.2-9.55-4.2h-21.87v21.66c0,9.11-.2,11.98-4.25,9.46-2.37-1.48-5.42-2.24-8.25-2.24-6.9,0-12.5,5.54-12.5,12.38s5.6,12.37,12.5,12.37Z"/>
      <path class="cls-2" d="M416.67,0v21.66c0,9.12-.2,11.99-4.25,9.46-2.37-1.48-5.42-2.23-8.25-2.23-6.9,0-12.5,5.54-12.5,12.37s5.6,12.38,12.5,12.38c2.84,0,5.88-.75,8.25-2.24,4.05-2.53,4.25.34,4.25,9.46v21.66h21.87c9.21,0,12.11-.19,9.55-4.2-1.5-2.35-2.26-5.36-2.26-8.17,0-6.83,5.59-12.38,12.5-12.38s12.5,5.54,12.5,12.38c0,2.81-.76,5.82-2.26,8.17-2.55,4.01.35,4.2,9.55,4.2h21.87V0h-83.33Z"/>
      <path class="cls-2" d="M250,0v21.66c0,9.12-.2,11.99-4.25,9.46-2.37-1.48-5.41-2.23-8.25-2.23-6.9,0-12.5,5.54-12.5,12.37s5.6,12.38,12.5,12.38c2.84,0,5.88-.75,8.25-2.24,4.05-2.53,4.25.34,4.25,9.46v21.66h21.87c9.21,0,12.11-.19,9.55-4.2-1.5-2.35-2.26-5.36-2.26-8.17,0-6.83,5.6-12.38,12.5-12.38s12.5,5.54,12.5,12.38c0,2.81-.76,5.82-2.26,8.17-2.56,4.01.34,4.2,9.55,4.2h21.87v-21.66c0-9.11.2-11.98,4.25-9.46,2.37,1.48,5.42,2.24,8.25,2.24,6.9,0,12.5-5.54,12.5-12.38s-5.6-12.37-12.5-12.37c-2.84,0-5.88.75-8.25,2.23-4.05,2.53-4.25-.34-4.25-9.46V0h-83.33Z"/>
      <path class="cls-2" d="M83.33,0v21.66c0,9.12-.2,11.99-4.25,9.46-2.37-1.48-5.42-2.23-8.25-2.23-6.9,0-12.5,5.54-12.5,12.37s5.6,12.38,12.5,12.38c2.84,0,5.88-.75,8.25-2.24,4.05-2.53,4.25.34,4.25,9.46v21.66h21.87c9.21,0,12.11-.19,9.55-4.2-1.5-2.35-2.26-5.36-2.26-8.17,0-6.83,5.6-12.38,12.5-12.38s12.5,5.54,12.5,12.38c0,2.81-.76,5.82-2.26,8.17-2.55,4.01.35,4.2,9.55,4.2h21.87v-21.66c0-9.11.2-11.98,4.25-9.46,2.37,1.48,5.42,2.24,8.25,2.24,6.9,0,12.5-5.54,12.5-12.38s-5.6-12.37-12.5-12.37c-2.84,0-5.88.75-8.25,2.23-4.05,2.53-4.25-.34-4.25-9.46V0h-83.33Z"/>
      <path class="cls-2" d="M320.83,136.13c2.84,0,5.88-.75,8.25-2.24,4.05-2.53,4.24.34,4.24,9.46v21.66h21.88c9.21,0,12.11-.19,9.55-4.2-1.5-2.35-2.26-5.36-2.26-8.17,0-6.83,5.59-12.38,12.5-12.38s12.5,5.54,12.5,12.38c0,2.81-.76,5.82-2.26,8.17-2.56,4.01.34,4.2,9.55,4.2h21.88v-21.66c0-9.11.19-11.98,4.24-9.46,2.37,1.48,5.42,2.24,8.25,2.24,6.9,0,12.5-5.54,12.5-12.38s-5.6-12.38-12.5-12.38c-2.84,0-5.88.75-8.25,2.24-4.05,2.53-4.24-.34-4.24-9.46v-21.66h-21.88c-9.21,0-12.11.19-9.55,4.2,1.5,2.35,2.26,5.36,2.26,8.17,0,6.84-5.59,12.38-12.5,12.38s-12.5-5.54-12.5-12.38c0-2.81.76-5.82,2.26-8.17,2.56-4.01-.34-4.2-9.55-4.2h-21.88v21.66c0,9.11-.19,11.98-4.24,9.46-2.37-1.48-5.42-2.24-8.25-2.24-6.9,0-12.5,5.54-12.5,12.38s5.6,12.38,12.5,12.38Z"/>
      <path class="cls-2" d="M320.83,301.13c2.84,0,5.88-.75,8.25-2.23,4.05-2.53,4.24.34,4.24,9.45v21.66h83.34v-21.66c0-9.11.19-11.98,4.24-9.45,2.37,1.48,5.42,2.23,8.25,2.23,6.9,0,12.5-5.54,12.5-12.38s-5.6-12.38-12.5-12.38c-2.84,0-5.88.76-8.25,2.24-4.05,2.53-4.24-.34-4.24-9.46v-21.66h-21.88c-9.21,0-12.11.19-9.55,4.2,1.5,2.35,2.26,5.36,2.26,8.17,0,6.84-5.59,12.38-12.5,12.38s-12.5-5.54-12.5-12.38c0-2.81.76-5.82,2.26-8.17,2.56-4.01-.34-4.2-9.55-4.2h-21.88v21.66c0,9.11-.19,11.98-4.24,9.46-2.37-1.48-5.42-2.24-8.25-2.24-6.9,0-12.5,5.54-12.5,12.38s5.6,12.38,12.5,12.38Z"/>
      <path class="cls-2" d="M500,330v-82.5h-21.87c-9.21,0-12.11-.19-9.55-4.2,1.5-2.35,2.26-5.36,2.26-8.17,0-6.83-5.6-12.38-12.5-12.38s-12.5,5.54-12.5,12.38c0,2.81.76,5.83,2.26,8.17,2.56,4.01-.34,4.2-9.55,4.2h-21.87v21.66c0,9.11.19,11.98,4.24,9.46,2.37-1.48,5.42-2.24,8.25-2.24,6.9,0,12.5,5.54,12.5,12.38s-5.6,12.38-12.5,12.38c-2.84,0-5.88-.75-8.25-2.23-4.05-2.53-4.24.34-4.24,9.45v21.66h83.33Z"/>
      <path class="cls-2" d="M304.17,177.38c0-2.81-.76-5.82-2.26-8.17-2.56-4.01.34-4.2,9.55-4.2h21.87v-21.66c0-9.11-.19-11.98-4.24-9.46-2.37,1.48-5.42,2.24-8.25,2.24-6.9,0-12.5-5.54-12.5-12.38s5.6-12.38,12.5-12.38c2.84,0,5.88.75,8.25,2.24,4.05,2.53,4.24-.34,4.24-9.46v-21.66h-21.87c-9.21,0-12.11-.19-9.55-4.2,1.5-2.35,2.26-5.36,2.26-8.17,0-6.83-5.59-12.38-12.5-12.38s-12.5,5.54-12.5,12.38c0,2.81.76,5.82,2.26,8.17,2.55,4.01-.35,4.2-9.55,4.2h-21.87v21.66c0,9.11.2,11.98,4.24,9.46,2.37-1.48,5.42-2.24,8.25-2.24,6.9,0,12.5,5.54,12.5,12.38s-5.6,12.38-12.5,12.38c-2.84,0-5.88-.75-8.25-2.24-4.05-2.53-4.24.34-4.24,9.46v21.66h21.87c9.21,0,12.11.19,9.55,4.2-1.5,2.35-2.26,5.36-2.26,8.17,0,6.84,5.6,12.38,12.5,12.38s12.5-5.54,12.5-12.38Z"/>
      <path class="cls-2" d="M220.83,259.87c0-2.81-.76-5.82-2.26-8.17-2.56-4.01.34-4.2,9.55-4.2h21.87v-21.65c0-9.12-.2-11.99-4.25-9.46-2.37,1.48-5.41,2.24-8.25,2.24-6.9,0-12.5-5.54-12.5-12.37s5.6-12.38,12.5-12.38c2.84,0,5.88.75,8.25,2.24,4.05,2.53,4.25-.34,4.25-9.46v-21.66h-21.87c-9.21,0-12.11-.19-9.55-4.2,1.5-2.35,2.26-5.36,2.26-8.17,0-6.83-5.6-12.38-12.5-12.38s-12.5,5.54-12.5,12.38c0,2.81.76,5.82,2.26,8.17,2.55,4.01-.35,4.2-9.55,4.2h-21.88v21.66c0,9.11.2,11.98,4.25,9.46,2.37-1.48,5.42-2.24,8.25-2.24,6.9,0,12.5,5.54,12.5,12.38s-5.6,12.37-12.5,12.37c-2.84,0-5.88-.75-8.25-2.24-4.05-2.53-4.25.34-4.25,9.46v21.65h21.88c9.21,0,12.11.19,9.55,4.2-1.5,2.35-2.26,5.36-2.26,8.17,0,6.84,5.6,12.38,12.5,12.38s12.5-5.54,12.5-12.38Z"/>
      <path class="cls-2" d="M166.67,0v21.66c0,9.12.2,11.99,4.25,9.46,2.37-1.48,5.42-2.23,8.25-2.23,6.9,0,12.5,5.54,12.5,12.37s-5.6,12.38-12.5,12.38c-2.84,0-5.88-.75-8.25-2.24-4.05-2.53-4.25.34-4.25,9.46v21.66h21.88c9.21,0,12.11.19,9.55,4.2-1.5,2.35-2.26,5.36-2.26,8.17,0,6.84,5.6,12.38,12.5,12.38s12.5-5.54,12.5-12.38c0-2.81-.76-5.82-2.26-8.17-2.56-4.01.34-4.2,9.55-4.2h21.87v-21.66c0-9.11-.2-11.98-4.25-9.46-2.37,1.48-5.41,2.24-8.25,2.24-6.9,0-12.5-5.54-12.5-12.38s5.6-12.37,12.5-12.37c2.84,0,5.88.75,8.25,2.23,4.05,2.53,4.25-.34,4.25-9.46V0h-83.33Z"/>
      <path class="cls-2" d="M0,0v82.5h21.88c9.21,0,12.11.19,9.55,4.2-1.5,2.35-2.26,5.36-2.26,8.17,0,6.84,5.6,12.38,12.5,12.38s12.5-5.54,12.5-12.38c0-2.81-.76-5.82-2.26-8.17-2.56-4.01.34-4.2,9.55-4.2h21.87v-21.66c0-9.11-.2-11.98-4.25-9.46-2.37,1.48-5.42,2.24-8.25,2.24-6.9,0-12.5-5.54-12.5-12.38s5.6-12.37,12.5-12.37c2.84,0,5.88.75,8.25,2.23,4.05,2.53,4.25-.34,4.25-9.46V0H0Z"/>
      <path class="cls-2" d="M237.5,218.63c2.84,0,5.88-.75,8.25-2.24,4.05-2.53,4.25.34,4.25,9.46v21.65h21.87c9.21,0,12.11-.19,9.55-4.2-1.5-2.35-2.26-5.36-2.26-8.17,0-6.83,5.6-12.38,12.5-12.38s12.5,5.54,12.5,12.38c0,2.81-.76,5.83-2.26,8.17-2.56,4.01.34,4.2,9.55,4.2h21.87v-21.65c0-9.12.2-11.99,4.25-9.46,2.37,1.48,5.42,2.24,8.25,2.24,6.9,0,12.5-5.54,12.5-12.37s-5.6-12.38-12.5-12.38c-2.84,0-5.88.75-8.25,2.24-4.05,2.53-4.25-.34-4.25-9.46v-21.66h-21.87c-9.21,0-12.11.19-9.55,4.2,1.5,2.35,2.26,5.36,2.26,8.17,0,6.84-5.59,12.38-12.5,12.38s-12.5-5.54-12.5-12.38c0-2.81.76-5.82,2.26-8.17,2.55-4.01-.35-4.2-9.55-4.2h-21.87v21.66c0,9.11-.2,11.98-4.25,9.46-2.37-1.48-5.41-2.24-8.25-2.24-6.9,0-12.5,5.54-12.5,12.38s5.6,12.37,12.5,12.37Z"/>
      <path class="cls-2" d="M154.17,136.13c2.84,0,5.88-.75,8.25-2.24,4.05-2.53,4.24.34,4.24,9.46v21.66h21.88c9.21,0,12.11-.19,9.55-4.2-1.5-2.35-2.26-5.36-2.26-8.17,0-6.83,5.6-12.38,12.5-12.38s12.5,5.54,12.5,12.38c0,2.81-.76,5.82-2.26,8.17-2.56,4.01.34,4.2,9.55,4.2h21.87v-21.66c0-9.11.2-11.98,4.24-9.46,2.37,1.48,5.42,2.24,8.25,2.24,6.9,0,12.5-5.54,12.5-12.38s-5.6-12.38-12.5-12.38c-2.84,0-5.88.75-8.25,2.24-4.05,2.53-4.24-.34-4.24-9.46v-21.66h-21.87c-9.21,0-12.11.19-9.55,4.2,1.5,2.35,2.26,5.36,2.26,8.17,0,6.84-5.6,12.38-12.5,12.38s-12.5-5.54-12.5-12.38c0-2.81.76-5.82,2.26-8.17,2.55-4.01-.35-4.2-9.55-4.2h-21.88v21.66c0,9.11-.19,11.98-4.24,9.46-2.37-1.48-5.42-2.24-8.25-2.24-6.9,0-12.5,5.54-12.5,12.38s5.6,12.38,12.5,12.38Z"/>
      <path class="cls-2" d="M154.17,301.13c2.84,0,5.88-.75,8.25-2.23,4.05-2.53,4.24.34,4.24,9.45v21.66h83.33v-21.66c0-9.11.2-11.98,4.24-9.45,2.37,1.48,5.42,2.23,8.25,2.23,6.9,0,12.5-5.54,12.5-12.38s-5.6-12.38-12.5-12.38c-2.84,0-5.88.76-8.25,2.24-4.05,2.53-4.24-.34-4.24-9.46v-21.66h-21.87c-9.21,0-12.11.19-9.55,4.2,1.5,2.35,2.26,5.36,2.26,8.17,0,6.84-5.6,12.38-12.5,12.38s-12.5-5.54-12.5-12.38c0-2.81.76-5.82,2.26-8.17,2.55-4.01-.35-4.2-9.55-4.2h-21.88v21.66c0,9.11-.19,11.98-4.24,9.46-2.37-1.48-5.42-2.24-8.25-2.24-6.9,0-12.5,5.54-12.5,12.38s5.6,12.38,12.5,12.38Z"/>
      <path class="cls-2" d="M333.33,330v-21.66c0-9.11-.19-11.98-4.24-9.45-2.37,1.48-5.42,2.23-8.25,2.23-6.9,0-12.5-5.54-12.5-12.38s5.6-12.38,12.5-12.38c2.84,0,5.88.76,8.25,2.24,4.05,2.53,4.24-.34,4.24-9.46v-21.66h-21.87c-9.21,0-12.11-.19-9.55-4.2,1.5-2.35,2.26-5.36,2.26-8.17,0-6.83-5.59-12.38-12.5-12.38s-12.5,5.54-12.5,12.38c0,2.81.76,5.83,2.26,8.17,2.55,4.01-.35,4.2-9.55,4.2h-21.87v21.66c0,9.11.2,11.98,4.24,9.46,2.37-1.48,5.42-2.24,8.25-2.24,6.9,0,12.5,5.54,12.5,12.38s-5.6,12.38-12.5,12.38c-2.84,0-5.88-.75-8.25-2.23-4.05-2.53-4.24.34-4.24,9.45v21.66h83.33Z"/>
      <path class="cls-2" d="M137.5,177.38c0-2.81-.76-5.82-2.26-8.17-2.55-4.01.35-4.2,9.55-4.2h21.87v-21.66c0-9.11-.19-11.98-4.24-9.46-2.37,1.48-5.42,2.24-8.25,2.24-6.9,0-12.5-5.54-12.5-12.38s5.6-12.38,12.5-12.38c2.84,0,5.88.75,8.25,2.24,4.05,2.53,4.24-.34,4.24-9.46v-21.66h-21.87c-9.21,0-12.11-.19-9.55-4.2,1.5-2.35,2.26-5.36,2.26-8.17,0-6.83-5.6-12.38-12.5-12.38s-12.5,5.54-12.5,12.38c0,2.81.76,5.82,2.26,8.17,2.55,4.01-.35,4.2-9.55,4.2h-21.87v21.66c0,9.11.19,11.98,4.24,9.46,2.37-1.48,5.42-2.24,8.25-2.24,6.9,0,12.5,5.54,12.5,12.38s-5.6,12.38-12.5,12.38c-2.84,0-5.88-.75-8.25-2.24-4.05-2.53-4.24.34-4.24,9.46v21.66h21.87c9.21,0,12.11.19,9.55,4.2-1.5,2.35-2.26,5.36-2.26,8.17,0,6.84,5.6,12.38,12.5,12.38s12.5-5.54,12.5-12.38Z"/>
      <path class="cls-2" d="M0,247.5h21.87c9.21,0,12.11.19,9.55,4.2-1.5,2.35-2.26,5.36-2.26,8.17,0,6.84,5.6,12.38,12.5,12.38s12.5-5.54,12.5-12.38c0-2.81-.76-5.82-2.26-8.17-2.55-4.01.35-4.2,9.55-4.2h21.88v-21.65c0-9.12-.2-11.99-4.25-9.46-2.37,1.48-5.42,2.24-8.25,2.24-6.9,0-12.5-5.54-12.5-12.37s5.6-12.38,12.5-12.38c2.84,0,5.88.75,8.25,2.24,4.05,2.53,4.25-.34,4.25-9.46v-21.66h-21.88c-9.21,0-12.11-.19-9.55-4.2,1.5-2.35,2.26-5.36,2.26-8.17,0-6.83-5.6-12.38-12.5-12.38s-12.5,5.54-12.5,12.38c0,2.81.76,5.82,2.26,8.17,2.56,4.01-.34,4.2-9.55,4.2H0v82.5Z"/>
      <path class="cls-2" d="M70.83,218.63c2.84,0,5.88-.75,8.25-2.24,4.05-2.53,4.25.34,4.25,9.46v21.65h21.87c9.21,0,12.11-.19,9.55-4.2-1.5-2.35-2.26-5.36-2.26-8.17,0-6.83,5.6-12.38,12.5-12.38s12.5,5.54,12.5,12.38c0,2.81-.76,5.83-2.26,8.17-2.55,4.01.35,4.2,9.55,4.2h21.87v-21.65c0-9.12.2-11.99,4.25-9.46,2.37,1.48,5.42,2.24,8.25,2.24,6.9,0,12.5-5.54,12.5-12.37s-5.6-12.38-12.5-12.38c-2.84,0-5.88.75-8.25,2.24-4.05,2.53-4.25-.34-4.25-9.46v-21.66h-21.87c-9.21,0-12.11.19-9.55,4.2,1.5,2.35,2.26,5.36,2.26,8.17,0,6.84-5.6,12.38-12.5,12.38s-12.5-5.54-12.5-12.38c0-2.81.76-5.82,2.26-8.17,2.55-4.01-.35-4.2-9.55-4.2h-21.87v21.66c0,9.11-.2,11.98-4.25,9.46-2.37-1.48-5.42-2.24-8.25-2.24-6.9,0-12.5,5.54-12.5,12.38s5.6,12.37,12.5,12.37Z"/>
      <path class="cls-2" d="M0,165h21.87c9.21,0,12.11-.19,9.55-4.2-1.5-2.35-2.26-5.36-2.26-8.17,0-6.83,5.6-12.38,12.5-12.38s12.5,5.54,12.5,12.38c0,2.81-.76,5.82-2.26,8.17-2.55,4.01.35,4.2,9.55,4.2h21.88v-21.66c0-9.11.19-11.98,4.24-9.46,2.37,1.48,5.42,2.24,8.25,2.24,6.9,0,12.5-5.54,12.5-12.38s-5.6-12.38-12.5-12.38c-2.84,0-5.88.75-8.25,2.24-4.05,2.53-4.24-.34-4.24-9.46v-21.66h-21.88c-9.21,0-12.11.19-9.55,4.2,1.5,2.35,2.26,5.36,2.26,8.17,0,6.84-5.6,12.38-12.5,12.38s-12.5-5.54-12.5-12.38c0-2.81.76-5.82,2.26-8.17,2.56-4.01-.34-4.2-9.55-4.2H0v82.5Z"/>
      <path class="cls-2" d="M0,330h83.33v-21.66c0-9.11.19-11.98,4.24-9.45,2.37,1.48,5.42,2.23,8.25,2.23,6.9,0,12.5-5.54,12.5-12.38s-5.6-12.38-12.5-12.38c-2.84,0-5.88.76-8.25,2.24-4.05,2.53-4.24-.34-4.24-9.46v-21.66h-21.88c-9.21,0-12.11.19-9.55,4.2,1.5,2.35,2.26,5.36,2.26,8.17,0,6.84-5.6,12.38-12.5,12.38s-12.5-5.54-12.5-12.38c0-2.81.76-5.82,2.26-8.17,2.56-4.01-.34-4.2-9.55-4.2H0v82.5Z"/>
      <path class="cls-2" d="M166.67,330v-21.66c0-9.11-.19-11.98-4.24-9.45-2.37,1.48-5.42,2.23-8.25,2.23-6.9,0-12.5-5.54-12.5-12.38s5.6-12.38,12.5-12.38c2.84,0,5.88.76,8.25,2.24,4.05,2.53,4.24-.34,4.24-9.46v-21.66h-21.87c-9.21,0-12.11-.19-9.55-4.2,1.5-2.35,2.26-5.36,2.26-8.17,0-6.83-5.6-12.38-12.5-12.38s-12.5,5.54-12.5,12.38c0,2.81.76,5.83,2.26,8.17,2.55,4.01-.35,4.2-9.55,4.2h-21.87v21.66c0,9.11.19,11.98,4.24,9.46,2.37-1.48,5.42-2.24,8.25-2.24,6.9,0,12.5,5.54,12.5,12.38s-5.6,12.38-12.5,12.38c-2.84,0-5.88-.75-8.25-2.23-4.05-2.53-4.24.34-4.24,9.45v21.66h83.33Z"/>
    </g>
  </g>
</svg>