<?xml version="1.0" encoding="UTF-8"?>
<svg id="Layer_1" data-name="Layer 1" xmlns="http://www.w3.org/2000/svg" viewBox="0 0 683.23 3993.87">
  <defs>
    <style>
      .cls-1 {
        fill: #5d9dcd;
      }

      .cls-2 {
        fill: #cecece;
      }

      .cls-3 {
        fill: none;
      }

      .cls-4 {
        fill: #a0a0a0;
      }

      .cls-5 {
        fill: #595858;
      }

      .cls-6 {
        fill: #019970;
      }

      .cls-7 {
        fill: #e43c14;
      }

      .cls-8 {
        fill: #c6c6c6;
      }

      .cls-9 {
        fill: #fcc83e;
      }

      .cls-10 {
        fill: #fcfbfc;
      }

      .cls-11 {
        fill: #e0a3c5;
      }

      .cls-12 {
        fill: #e8e8e8;
      }
    </style>
  </defs>
  <path class="cls-3" d="M683.23,0h-391.71c-3.16,61.61-5.93,114.84-7.97,153.95h.01c2.04-39.1,4.81-92.33,7.97-153.94h391.47v609.24l-51.95,141.21h.01l51.94-141.18v1350.77l-275.46-244.58,275.46,244.58v641.75l-52.43,142.52h.01l52.42-142.5v1352.51l-275.94-245,275.94,245.01v39.53h-391.95c6.8-132.43,15.43-303.54,22.66-456.11h0c-7.23,152.58-15.86,323.69-22.66,456.11h392.2V0Z"/>
  <path class="cls-3" d="M298.74,1858.28c-1.79,35.41-3.53,69.74-5.19,102.26h0c1.66-32.52,3.41-66.86,5.19-102.27h-.01Z"/>
  <rect class="cls-3" x="131.48" y="35.37" width="0" height="5.96" transform="translate(4.83 90.47) rotate(-38.63)"/>
  <path class="cls-3" d="M283.08,2147.8c.23-4.36.46-8.89.71-13.59h-.01c-.24,4.7-.48,9.24-.71,13.59h.01Z"/>
  <path class="cls-3" d="M314.18,1543.9c-3.55,74.96-7.44,154.38-11.29,231.5v.02c3.85-77.13,7.74-156.56,11.3-231.52h0Z"/>
  <polygon class="cls-10" points="238.5 1226.38 238.5 1226.38 327.88 1168.07 238.5 1226.38"/>
  <path class="cls-10" d="M314.18,1543.9h0c9.68-204.34,16.84-375.44,13.69-375.83h-.01c3.15.39-4.01,171.49-13.69,375.83Z"/>
  <path class="cls-10" d="M572.98,908.32h0s0,0,0,0c.02.08,0,.12-.05.14,0,0-.01,0-.02,0-.03,0-.05.02-.09.01l-244.94,259.59,355.12-21.65v-26.85c-59.72-115.21-109.4-210.85-109.99-211.32l58.05-157.8h-.01l-58.05,157.79-.02.07Z"/>
  <path class="cls-10" d="M573,908.24s-.02,0-.02.02c0,0,0,0,0,0,0-.01.02-.01.02-.01Z"/>
  <path class="cls-4" d="M279.87,224.06v-.04c.03-.37.19-3.48.49-9.06,0,0,0,0-.01,0-.31,5.93-.48,9.08-.48,9.09h0Z"/>
  <path class="cls-4" d="M283.55,153.95c-.25,4.73-.48,9.24-.71,13.54h.01c.23-4.3.46-8.82.71-13.54h-.01Z"/>
  <path class="cls-4" d="M279.8,224.97l-26.59-1.12c-45.41,14.75-89.6,28.52-89.6,28.52l28.46,17.35,87.74-44.75h0Z"/>
  <polygon class="cls-2" points="572.98 908.32 572.98 908.33 572.98 908.32 572.98 908.32 572.98 908.32"/>
  <path class="cls-2" d="M279.88,224.08l219.46,512.32c4.64-1.73,10.12-.82,13.86,2.73,5.05,4.78,5.05,12.54,0,17.32-1.23,1.16-2.64,2.04-4.15,2.63l63.91,149.19s.01,0,.02-.01c0-.02.01-.03.02-.02l58.05-157.79,51.95-141.21V114.9c-10.31-.36-20.59.07-30.07,2.52-2.09.54-4.16,1.18-6.19,1.94-.5.19-1,.39-1.5.59t-.03.01c-.12.05-.24.11-.36.16-.8.37-1.59.73-2.38,1.12-2.94,1.46-5.75,3.15-8.59,4.79-6.82,3.94-13.79,6.57-21.64,7.52-2.35.28-4.86.58-7.23.44-3.97-.23-9.04-3.77-11.66-6.65-4.91-5.4-4.46-12.24-1.08-18.31,1.64-2.96,3.8-5.63,5.9-8.27,1.84-2.31,4.19-4.55,5.47-6.95,3.13-5.87-1.79-14.11-4.27-19.4-3.05-6.53-5.73-13.19-4.92-20.53.59-5.33,1.77-10.55,4.18-15.38,2.73-5.47,7.51-9.66,13.75-10.23,7.68-.7,15.45,4.35,20.88,9.28,4.63,4.2,8.51,10.23,13.34,13.66,3.03,2.15,6.23,2.98,9.77,4,4.25,1.23,8.5,2.47,12.71,3.86,4.64,1.53,9.4,3.28,13.92,5.43V0h-346.88l-42.8,170.52c33.24,9.67,56.75,16.96,57.18,18.35.62,1.97-30.87,13.06-68.17,25.43l-2.45,9.76h0ZM547.15,513.86c25.52-10.35,79.79-55.46,99.94-20.99,20.19,27.31,54.06,114.61-13.75,77.43h0c-22.88-13.77-45.71-32.66-73.95-31.39-13.54,1.99-23.81-15.74-12.24-25.05ZM494.93,294.68c5.05-4.78,13.23-4.78,18.27,0,5.05,4.78,5.05,12.54,0,17.32-5.05,4.78-13.23,4.78-18.27,0-5.05-4.78-5.05-12.54,0-17.32ZM342.11,106.1c-19.78-27.02,6.02-38.04,26.55-49.8,19.08-13.12,46.42-61.16,69.46-29.37,2.74,7.23-2,13.8-4.29,20.35-4.16,15.11-1.69,31.33-8.81,45.7h0c-13.99,29.29-61.67,39.86-82.91,13.12Z"/>
  <path class="cls-2" d="M279.87,224.06h0s0-.02,0-.04v.04Z"/>
  <path class="cls-8" d="M572.98,908.26s.02-.01.02-.01c0,0-.01,0-.02.01Z"/>
  <path class="cls-8" d="M129.62,36.03l-59.46,72.28s77.06,20.94,150.38,41.5l-87.2-109.12-3.72-4.66ZM124.78,89.78c-5.05,4.78-13.23,4.78-18.27,0-5.04-4.78-5.05-12.54,0-17.32,5.05-4.78,13.23-4.78,18.27,0,5.05,4.78,5.05,12.54,0,17.32Z"/>
  <path class="cls-8" d="M279.8,224.98l-87.74,44.75,43.2,26.34c.38-.48.78-.95,1.24-1.39,5.05-4.78,13.23-4.78,18.27,0,5.05,4.78,5.05,12.54,0,17.32-3.69,3.49-9.05,4.42-13.63,2.81l-164.47,165.3,33.55,28c3.82-3.24,10.7-18.11,20.88-18.93,6.47-.52,12.9,2.63,18.83,12.03,3.95,6.68,8.73,11.93,15.96,15.05h0c13.72,6.45,15.4,25.39,2.26,33.44-1.5,1.11-3.09,2-4.75,2.78l87.2,72.77,29.2-400.27Z"/>
  <path class="cls-8" d="M279.87,224.05v.02s.01-.01.01-.01h0s0-.01,0-.01c0,0,0,0,0,0l-5.65-7.07c-6.93,2.28-13.98,4.59-21.01,6.87l26.59,1.12.07-.92Z"/>
  <polygon class="cls-4" points="683 657.43 683 649.05 665.05 658.07 683 657.43"/>
  <path class="cls-12" d="M572.91,908.47s-.05,0-.07,0l-.02.02s.06,0,.09-.01Z"/>
  <path class="cls-12" d="M572.67,908.42h.01c.16-.08.24-.12.28-.15l-63.91-149.19c-4.69,1.86-10.31.99-14.12-2.63-5.05-4.78-5.05-12.54,0-17.32,1.3-1.23,2.8-2.13,4.41-2.73L279.88,224.08v-.02s-.08.92-.08.92h0s-29.2,400.27-29.2,400.27l26.46,22.08-2.62,4.05c73.34,64.52,288.9,253.77,298.23,257.04ZM376.85,565.49c-11.02-7.02-14.88-21.25-25.55-28.66-7.4-5.68-19.36-8.19-20.06-19.36.87-11.8-.8-30.35,11.93-36.06,11.31-3.69,21.23,5.92,26.28,15.1,2.29,7.26,5.4,12.8,8.87,17.49,1.78.59,3.46,1.54,4.88,2.89,2.06,1.95,3.26,4.39,3.64,6.92,6.65,6.93,13.29,13.36,17.35,24.2h0c3.08,14.88-15.29,24.08-27.34,17.48Z"/>
  <path class="cls-12" d="M572.93,908.46s.06-.06.05-.14c0,0,0,0,0,0,.02.08,0,.13-.05.15Z"/>
  <path class="cls-4" d="M336.12,0h-44.59c-3.16,61.61-5.93,114.84-7.97,153.94-.25,4.73-.48,9.24-.71,13.55,3.58,1.03,7.08,2.05,10.47,3.03L336.12,0Z"/>
  <path class="cls-4" d="M279.88,224.06l2.45-9.76c-.65.22-1.31.43-1.97.65-.29,5.58-.46,8.69-.48,9.06,0,.03,0,.05,0,.05Z"/>
  <path class="cls-12" d="M291.52,0h-132.26l-29.64,36.02,3.72,4.65h0s87.2,109.13,87.2,109.13c21.81,6.12,43.29,12.2,62.31,17.68.23-4.3.46-8.82.71-13.54,2.04-39.1,4.81-92.33,7.97-153.95Z"/>
  <path class="cls-12" d="M279.87,224.05s.17-3.17.48-9.09c-2.03.67-4.07,1.35-6.13,2.02l5.65,7.07s0,0,0,0Z"/>
  <path class="cls-10" d="M683,1960.04v-359.37l-275.46,114.79,275.46,244.58ZM641.63,1850.23c5.04,4.78,5.05,12.54,0,17.32-5.05,4.78-13.23,4.78-18.27,0-5.05-4.78-5.05-12.54,0-17.32,5.05-4.78,13.23-4.78,18.27,0Z"/>
  <path class="cls-2" d="M383.2,1850.23c5.05,4.78,5.05,12.54,0,17.32-3.91,3.7-9.7,4.52-14.46,2.49l-31.08,123.82h345.34v-33.82l-275.46-244.58-32.93,131.21c3.12.12,6.21,1.3,8.59,3.56Z"/>
  <path class="cls-8" d="M572.83,908.48l.02-.02c-.05,0-.09,0-.18-.02h0c-5.76,2.53-84.67,30.08-186.32,65.34-.61,1.79-1.65,3.47-3.15,4.89-4.33,4.1-10.97,4.67-15.95,1.73-90.79,31.47-196.45,67.98-283.72,98.1l127.34,121.52c.53-2.54,1.26-5.32,2.23-8.4h.01c7.07-19.66,18.09-40.07,12.8-61.55-3.61-10.09,8.44-20.68,17.35-13.22,11.84,18.01,54.75,52.77,31.37,73.5-8.73,9.61-27.95,23.9-43.21,29.28l7.08,6.75,89.38-58.31,244.94-259.59Z"/>
  <path class="cls-8" d="M572.67,908.42s0,0,0,0c0,0,0,0,.01,0h-.01Z"/>
  <path class="cls-8" d="M683,1388.26v-241.84l-355.12,21.65,355.12,220.19ZM513.2,1183.57c5.05,4.78,5.05,12.54,0,17.32-5.05,4.78-13.23,4.78-18.27,0-5.05-4.78-5.05-12.54,0-17.32,5.05-4.78,13.23-4.78,18.27,0Z"/>
  <path class="cls-12" d="M683,1119.57v-462.14l-17.95.64,17.95-9.01v-39.78l-51.94,141.18-58.05,157.8c.59.47,50.27,96.1,109.99,211.32ZM641.63,961.35c5.05,4.78,5.05,12.54,0,17.32s-13.23,4.78-18.27,0c-5.05-4.78-5.05-12.54,0-17.32s13.23-4.78,18.27,0Z"/>
  <path class="cls-12" d="M239.26,1908.9l54.29,51.64c1.66-32.53,3.41-66.85,5.19-102.26l-59.48,50.62Z"/>
  <path class="cls-12" d="M327.87,1168.08h.01s-89.38,58.31-89.38,58.31l44.63,42.59-78.23,228.33,45.04,127.83c1.77.59,3.43,1.54,4.84,2.88,4.43,4.2,4.97,10.69,1.62,15.45l46.49,131.94c3.84-77.12,7.73-156.54,11.29-231.5,9.68-204.34,16.84-375.44,13.69-375.82Z"/>
  <path class="cls-4" d="M335.64,1993.86h2.02l31.08-123.82c-1.38-.59-2.68-1.41-3.81-2.49-5.05-4.78-5.05-12.54,0-17.32,2.66-2.52,6.19-3.7,9.68-3.56l32.93-131.21,275.46-114.79v-212.42l-355.12-220.19c3.15.39-4.01,171.49-13.69,375.83-3.55,74.96-7.44,154.4-11.29,231.52l21.5,61.01-25.66,21.84c-1.79,35.42-3.53,69.75-5.19,102.28l35.02,33.31h7.07ZM586.16,1376.81c5.88-2.12,11.13,1.8,16.4,3.73,12.17,3.56,25.32,1.77,36.85,7.7h.01c23.52,11.68,31.48,50.37,9.58,67.22-22.1,15.66-30.69-5.35-39.95-22.1-10.37-15.6-48.89-38.31-22.89-56.55ZM407.91,1389.71c17.24,16.88,29.31,44.09,19.04,67.66-5.86,16.58-23.59,24.48-38.89,14.59-16.58-6.46-34.66-15.85-42.98-32.39-11.32-34.39,32.3-86.77,62.83-49.86ZM513.2,1645.32c-5.05,4.78-13.23,4.78-18.27,0-5.05-4.78-5.05-12.54,0-17.32,5.05-4.78,13.23-4.78,18.27,0,5.05,4.78,5.05,12.54,0,17.32Z"/>
  <path class="cls-4" d="M572.93,908.46s.07-.07.05-.15c0,0,0,0,0,0l.02-.07s-.02,0-.02.01c0,0,0,0,0,0,0,0-.01,0-.02.01-.04.03-.12.07-.28.15,0,0,0,0-.01,0,0,0,0,0,0,0,0,0,0,0,0,0h0c.08.03.12.03.18.03.02,0,.05.01.07,0,0,0,.01,0,.02,0Z"/>
  <path class="cls-4" d="M367.25,980.4c-.82-.49-1.61-1.06-2.32-1.73-5.05-4.78-5.05-12.54,0-17.32s13.23-4.78,18.27,0c3.55,3.36,4.59,8.19,3.15,12.43,101.65-35.26,180.56-62.81,186.32-65.35,0,0,0,0,0,0,0,0,0,0,0,0,0,0,0,0,0,0-9.33-3.27-224.89-192.52-298.23-257.04l-176.84,273.93c1.61-1.09,3.19-2.25,4.71-3.52,9.8-8.17,23.56-8.19,38.11-3.36,9.72,3.23,18.53,2.47,24.99,11.05h-.01c6.46,8.58,4.48,24.09-2.07,33.83-7.23,10.75-20.17,10.64-33.04,22.82s-12.61,29.61-22.78,28.81c-7.71-.61-12.52-8.6-18.59-21-4.69-9.57-15.93-13.61-22.92-19.68l-34.96,54.15,52.49,50.09c87.27-30.12,192.93-66.63,283.72-98.1ZM269.23,731.41h0c10.56,9.41,16.24,23.77,7.47,33.22-8.88,11.68-25.85,31.09-44.82,18.34-35.57-25.98.5-88.1,37.35-51.56Z"/>
  <path class="cls-6" d="M388.06,1471.96c15.3,9.89,33.03,1.99,38.89-14.59,10.27-23.57-1.8-50.78-19.04-67.66-30.53-36.91-74.15,15.47-62.83,49.86,8.32,16.54,26.4,25.93,42.98,32.39ZM364.93,1405.79c5.05-4.78,13.23-4.78,18.27,0,5.05,4.78,5.05,12.54,0,17.32-5.05,4.78-13.23,4.78-18.27,0-5.05-4.78-5.05-12.54,0-17.32Z"/>
  <path class="cls-11" d="M274.63,1190.34c23.38-20.73-19.53-55.49-31.37-73.5-8.91-7.46-20.96,3.13-17.35,13.22,5.29,21.48-5.73,41.89-12.8,61.55h-.01c-.97,3.07-1.7,5.86-2.23,8.4l20.55,19.61c15.26-5.39,34.48-19.68,43.21-29.28ZM254.78,1200.89c-5.05,4.78-13.23,4.78-18.27,0-5.05-4.78-5.05-12.54,0-17.32,5.05-4.78,13.23-4.78,18.27,0,5.05,4.78,5.05,12.54,0,17.32Z"/>
  <path class="cls-7" d="M231.88,782.97c18.97,12.75,35.94-6.66,44.82-18.34,8.77-9.45,3.09-23.81-7.47-33.21h0c-36.85-36.55-72.92,25.57-37.35,51.55ZM236.51,739.12c5.05-4.78,13.23-4.78,18.27,0,5.05,4.78,5.05,12.54,0,17.32s-13.23,4.78-18.27,0c-5.05-4.78-5.05-12.54,0-17.32Z"/>
  <path class="cls-6" d="M559.39,538.92c28.24-1.27,51.07,17.62,73.95,31.39h0c67.81,37.18,33.94-50.12,13.75-77.43-20.15-34.47-74.42,10.64-99.94,20.99-11.57,9.31-1.3,27.04,12.24,25.05ZM623.36,516.9c5.05-4.78,13.23-4.78,18.27,0s5.05,12.54,0,17.32-13.23,4.78-18.27,0c-5.05-4.78-5.05-12.54,0-17.32Z"/>
  <path class="cls-7" d="M609.05,1433.36c9.26,16.75,17.85,37.76,39.95,22.1,21.9-16.85,13.94-55.54-9.58-67.22h-.01c-11.53-5.93-24.68-4.14-36.85-7.7-5.27-1.93-10.52-5.85-16.4-3.73-26,18.24,12.52,40.95,22.89,56.55ZM623.36,1405.79c5.05-4.78,13.23-4.78,18.27,0,5.05,4.78,5.05,12.54,0,17.32-5.05,4.78-13.23,4.78-18.27,0-5.05-4.78-5.05-12.54,0-17.32Z"/>
  <path class="cls-1" d="M88.92,993.94c6.07,12.4,10.88,20.39,18.59,21,10.17.8,9.91-16.63,22.78-28.81s25.81-12.07,33.04-22.82c6.55-9.74,8.53-25.25,2.07-33.83h.01c-6.46-8.58-15.27-7.82-24.99-11.05-14.55-4.83-28.31-4.81-38.11,3.36-1.52,1.27-3.1,2.43-4.71,3.52l-31.6,48.95c6.99,6.07,18.23,10.11,22.92,19.68ZM106.51,961.35c5.05-4.78,13.23-4.78,18.27,0,5.05,4.78,5.05,12.54,0,17.32s-13.23,4.78-18.27,0c-5.05-4.78-5.05-12.54,0-17.32Z"/>
  <path class="cls-7" d="M165.89,516.26h0c-7.23-3.12-12.01-8.37-15.96-15.05-5.93-9.4-12.36-12.55-18.83-12.03-10.18.82-17.06,15.69-20.88,18.93l6.29,5.25c3.01.19,5.96,1.37,8.26,3.55,1.89,1.79,3.07,4,3.55,6.31l35.08,29.27c1.65-.78,3.25-1.68,4.75-2.78,13.14-8.05,11.46-26.99-2.26-33.44Z"/>
  <path class="cls-11" d="M425.02,92.99h0c7.12-14.37,4.65-30.59,8.81-45.7,2.29-6.55,7.03-13.12,4.29-20.35-23.04-31.79-50.38,16.25-69.46,29.37-20.53,11.76-46.33,22.78-26.55,49.8,21.24,26.74,68.92,16.17,82.91-13.12ZM364.93,89.78c-5.05-4.78-5.05-12.54,0-17.32,5.05-4.78,13.23-4.78,18.27,0,5.05,4.78,5.05,12.54,0,17.32-5.05,4.78-13.23,4.78-18.27,0Z"/>
  <path class="cls-9" d="M656.37,55.22c-3.54-1.02-6.74-1.85-9.77-4-4.83-3.43-8.71-9.46-13.34-13.66-5.43-4.93-13.2-9.98-20.88-9.28-6.24.57-11.02,4.76-13.75,10.23-2.41,4.83-3.59,10.05-4.18,15.38-.81,7.34,1.87,14,4.92,20.53,2.48,5.29,7.4,13.53,4.27,19.4-1.28,2.4-3.63,4.64-5.47,6.95-2.1,2.64-4.26,5.31-5.9,8.27-3.38,6.07-3.83,12.91,1.08,18.31,2.62,2.88,7.69,6.42,11.66,6.65,2.37.14,4.88-.16,7.23-.44,7.85-.95,14.82-3.58,21.64-7.52,2.84-1.64,5.65-3.33,8.59-4.79.79-.39,1.58-.75,2.38-1.12.12-.05.24-.11.36-.16t.03-.01c.5-.2,1-.4,1.5-.59,2.03-.76,4.1-1.4,6.19-1.94,9.48-2.45,19.76-2.88,30.07-2.52v-50.4c-4.52-2.15-9.28-3.9-13.92-5.43-4.21-1.39-8.46-2.63-12.71-3.86ZM641.63,89.78c-5.05,4.78-13.23,4.78-18.27,0-5.05-4.78-5.05-12.54,0-17.32,5.05-4.78,13.23-4.78,18.27,0,5.05,4.78,5.05,12.54,0,17.32Z"/>
  <path class="cls-9" d="M404.19,548.01h0c-4.06-10.83-10.7-17.26-17.35-24.19.55,3.69-.65,7.56-3.64,10.4-5.05,4.78-13.23,4.78-18.27,0-5.05-4.78-5.05-12.54,0-17.32,3.63-3.43,8.86-4.39,13.39-2.89-3.47-4.69-6.58-10.23-8.87-17.49-5.05-9.18-14.97-18.79-26.28-15.1-12.73,5.71-11.06,24.26-11.93,36.06.7,11.17,12.66,13.68,20.06,19.36,10.67,7.41,14.53,21.64,25.55,28.66,12.05,6.6,30.42-2.6,27.34-17.49Z"/>
  <path class="cls-5" d="M106.51,72.46c-5.05,4.78-5.04,12.54,0,17.32,5.04,4.78,13.22,4.78,18.27,0,5.05-4.78,5.05-12.54,0-17.32-5.04-4.78-13.22-4.78-18.27,0Z"/>
  <path class="cls-5" d="M383.2,72.46c-5.04-4.78-13.22-4.78-18.27,0-5.05,4.78-5.05,12.54,0,17.32,5.04,4.78,13.22,4.78,18.27,0,5.05-4.78,5.05-12.54,0-17.32Z"/>
  <path class="cls-5" d="M623.36,72.46c-5.05,4.78-5.05,12.54,0,17.32,5.04,4.78,13.22,4.78,18.27,0,5.05-4.78,5.05-12.54,0-17.32-5.04-4.78-13.22-4.78-18.27,0Z"/>
  <path class="cls-5" d="M254.78,312c5.05-4.78,5.05-12.54,0-17.32-5.04-4.78-13.22-4.78-18.27,0-.46.44-.87.91-1.24,1.39l15.27,9.31-9.38,9.43c4.59,1.61,9.94.68,13.63-2.81Z"/>
  <path class="cls-5" d="M513.2,312c5.05-4.78,5.05-12.54,0-17.32-5.04-4.78-13.22-4.78-18.27,0s-5.05,12.54,0,17.32c5.04,4.78,13.22,4.78,18.27,0Z"/>
  <path class="cls-5" d="M236.51,756.45c5.04,4.78,13.22,4.78,18.27,0s5.05-12.54,0-17.32c-5.04-4.78-13.22-4.78-18.27,0s-5.05,12.54,0,17.32Z"/>
  <path class="cls-5" d="M513.2,739.12c-3.75-3.55-9.22-4.46-13.86-2.73-1.6.6-3.11,1.5-4.41,2.73-5.05,4.78-5.05,12.54,0,17.32,3.82,3.62,9.43,4.49,14.12,2.63,1.51-.6,2.92-1.47,4.15-2.63,5.05-4.78,5.05-12.54,0-17.32Z"/>
  <path class="cls-5" d="M116.52,513.35l11.81,9.86c-.47-2.31-1.66-4.52-3.55-6.31-2.3-2.18-5.25-3.35-8.26-3.55Z"/>
  <path class="cls-5" d="M364.93,516.9c-5.05,4.78-5.05,12.54,0,17.32,5.04,4.78,13.22,4.78,18.27,0,2.99-2.83,4.2-6.71,3.64-10.4-.38-2.53-1.59-4.98-3.64-6.92-1.42-1.35-3.1-2.3-4.88-2.89-4.53-1.5-9.77-.54-13.39,2.89Z"/>
  <path class="cls-5" d="M641.63,534.22c5.05-4.78,5.04-12.54,0-17.32s-13.22-4.78-18.27,0-5.05,12.54,0,17.32c5.04,4.78,13.22,4.78,18.27,0Z"/>
  <path class="cls-5" d="M236.51,1183.57c-5.05,4.78-5.05,12.54,0,17.32,5.04,4.78,13.22,4.78,18.27,0,5.05-4.78,5.05-12.54,0-17.32-5.04-4.78-13.22-4.78-18.27,0Z"/>
  <path class="cls-5" d="M494.93,1200.89c5.04,4.78,13.22,4.78,18.27,0,5.05-4.78,5.05-12.54,0-17.32-5.04-4.78-13.22-4.78-18.27,0-5.05,4.78-5.05,12.54,0,17.32Z"/>
  <path class="cls-5" d="M124.78,978.67c5.05-4.78,5.05-12.54,0-17.32-5.04-4.78-13.22-4.78-18.27,0s-5.05,12.54,0,17.32c5.04,4.78,13.22,4.78,18.27,0Z"/>
  <path class="cls-5" d="M383.2,961.35c-5.04-4.78-13.22-4.78-18.27,0s-5.05,12.54,0,17.32c.71.68,1.5,1.25,2.32,1.73,4.98,2.94,11.62,2.37,15.95-1.73,1.5-1.42,2.54-3.1,3.15-4.89,1.44-4.24.4-9.07-3.15-12.43Z"/>
  <path class="cls-5" d="M623.36,978.67c5.04,4.78,13.22,4.78,18.27,0s5.05-12.54,0-17.32c-5.04-4.78-13.22-4.78-18.27,0s-5.05,12.54,0,17.32Z"/>
  <path class="cls-5" d="M383.2,1423.1c5.05-4.78,5.05-12.54,0-17.32-5.04-4.78-13.22-4.78-18.27,0-5.05,4.78-5.05,12.54,0,17.32,5.04,4.78,13.22,4.78,18.27,0Z"/>
  <path class="cls-5" d="M641.63,1423.1c5.05-4.78,5.05-12.54,0-17.32-5.04-4.78-13.22-4.78-18.27,0-5.05,4.78-5.05,12.54,0,17.32,5.04,4.78,13.22,4.78,18.27,0Z"/>
  <path class="cls-5" d="M254.78,1628.01c-1.41-1.34-3.07-2.29-4.84-2.88l6.46,18.33c3.35-4.76,2.82-11.25-1.62-15.45Z"/>
  <path class="cls-5" d="M494.93,1628.01c-5.05,4.78-5.05,12.54,0,17.32,5.04,4.78,13.22,4.78,18.27,0,5.05-4.78,5.05-12.54,0-17.32-5.04-4.78-13.22-4.78-18.27,0Z"/>
  <path class="cls-5" d="M383.2,1867.55c5.05-4.78,5.05-12.54,0-17.32-2.38-2.26-5.47-3.44-8.59-3.56-3.48-.14-7.01,1.04-9.68,3.56-5.05,4.78-5.05,12.54,0,17.32,1.13,1.08,2.43,1.9,3.81,2.49,4.76,2.04,10.54,1.22,14.46-2.49Z"/>
  <path class="cls-5" d="M623.36,1867.55c5.04,4.78,13.22,4.78,18.27,0,5.05-4.78,5.04-12.54,0-17.32s-13.22-4.78-18.27,0c-5.05,4.78-5.05,12.54,0,17.32Z"/>
  <polygon class="cls-10" points="178.12 3259.32 178.12 3259.33 327.4 3161.92 178.12 3259.32"/>
  <path class="cls-10" d="M327.4,3161.92h-.01c3.15.39-4.01,171.49-13.69,375.83h0c9.68-204.34,16.84-375.44,13.69-375.83Z"/>
  <path class="cls-10" d="M572.52,2902.1s-.02,0-.02.02c0,0,0,0,0,0,0-.01.02-.01.02-.01Z"/>
  <path class="cls-10" d="M572.5,2902.17h0s0,0,0,0c.02.08,0,.12-.05.14,0,0-.01,0-.02,0-.03,0-.05.02-.09.01l-244.94,259.59,355.6-21.68v-25.89c-59.94-115.63-109.88-211.78-110.47-212.25l58.05-157.8h-.01l-58.05,157.79-.02.07Z"/>
  <path class="cls-4" d="M283.08,2147.8h-.01c-2.3,43.96-3.68,70.06-3.68,70.11h0s.01-.04.01-.04c.06-1.12,1.43-27.03,3.68-70.07Z"/>
  <polygon class="cls-4" points="279.32 2218.84 279.32 2218.83 188.89 2215.02 48.96 2334.17 132.86 2293.53 279.32 2218.84"/>
  <polygon class="cls-2" points="572.5 2902.18 572.5 2902.18 572.5 2902.17 572.5 2902.17 572.5 2902.18"/>
  <path class="cls-2" d="M279.4,2217.92h0s219.46,512.33,219.46,512.33c4.64-1.73,10.12-.82,13.86,2.73,5.05,4.78,5.05,12.54,0,17.32-1.23,1.16-2.64,2.04-4.15,2.63l63.91,149.19s.01,0,.02-.01c0-.02.01-.03.02-.02l58.05-157.79,52.43-142.52v-493.02c-10.47-.39-20.92.02-30.55,2.51-2.09.54-4.16,1.18-6.19,1.94-.5.19-1,.39-1.5.59t-.03.01c-.12.05-.24.11-.36.16-.8.37-1.59.73-2.38,1.12-2.94,1.46-5.75,3.15-8.59,4.79-6.82,3.94-13.79,6.57-21.64,7.52-2.35.28-4.86.58-7.23.44-3.97-.23-9.04-3.77-11.66-6.65-4.91-5.4-4.46-12.24-1.08-18.31,1.64-2.96,3.8-5.63,5.9-8.27,1.84-2.31,4.19-4.55,5.47-6.95,3.13-5.87-1.79-14.11-4.27-19.4-3.05-6.53-5.73-13.19-4.92-20.53.59-5.33,1.77-10.55,4.18-15.38,2.73-5.47,7.51-9.66,13.75-10.23,7.68-.7,15.45,4.35,20.88,9.28,4.63,4.2,8.51,10.23,13.34,13.66,3.03,2.15,6.23,2.98,9.77,4,4.25,1.23,8.5,2.47,12.71,3.86,4.81,1.59,9.74,3.4,14.4,5.66v-64.73h-347.36l-1.36,5.43,44.08,41.93c17.9-17.98,40.09-46.92,59.29-20.43,2.74,7.23-2,13.8-4.29,20.35-4.16,15.11-1.69,31.33-8.81,45.7h0c-13.99,29.29-61.67,39.86-82.91,13.12-2.69-3.67-4.53-7.05-5.66-10.18l-31.04,26.43-25.53,101.71ZM512.72,2305.85c-5.05,4.78-13.23,4.78-18.27,0-5.05-4.78-5.05-12.54,0-17.32,5.05-4.78,13.23-4.78,18.27,0,5.05,4.78,5.05,12.54,0,17.32ZM646.61,2486.73c20.19,27.31,54.06,114.61-13.75,77.43h0c-22.88-13.77-45.71-32.66-73.95-31.39-13.54,1.99-23.81-15.74-12.24-25.05,25.52-10.35,79.79-55.46,99.94-20.99Z"/>
  <path class="cls-2" d="M279.39,2217.91h0s0-.02,0-.04v.04Z"/>
  <path class="cls-8" d="M572.5,2902.11s.02-.01.02-.01c0,0-.01,0-.02.01Z"/>
  <path class="cls-8" d="M279.32,2218.84l-146.46,74.7-83.9,40.64-48.96,41.68,139.02,108.8c2.14,1.07,4.25,2.69,6.31,4.94l108.07,84.58,25.92-355.34ZM236.03,2288.53c5.05-4.78,13.23-4.78,18.27,0,5.05,4.78,5.05,12.54,0,17.32-5.05,4.78-13.23,4.78-18.27,0-5.04-4.78-5.05-12.54,0-17.32ZM116.65,2413.49c-7.03,6.64-6.89,16.16-12.44,15.72-4.21-.33-6.83-4.69-10.15-11.46-3.31-6.77-12.64-8.47-15.13-14.08-7.38-16.66,10.63-15.46,22.44-25.31,5.35-4.47,12.86-4.48,20.8-1.84,5.3,1.76,10.11,1.35,13.64,6.03h.01c3.53,4.7,2.45,13.17-1.13,18.48-3.95,5.87-11.01,5.81-18.04,12.46Z"/>
  <polygon class="cls-8" points="279.39 2217.91 279.4 2217.93 279.4 2217.92 279.39 2217.91 279.39 2217.91 279.39 2217.91 241.37 2170.33 188.89 2215.02 279.32 2218.83 279.39 2217.91"/>
  <polygon class="cls-4" points="683 2651.27 683 2642.67 664.57 2651.92 683 2651.27"/>
  <path class="cls-12" d="M572.43,2902.32s-.05,0-.07,0l-.02.02s.06,0,.09-.01Z"/>
  <path class="cls-12" d="M572.19,2902.28h.01c.16-.08.24-.12.28-.15l-63.91-149.19c-4.69,1.86-10.31.99-14.12-2.63-5.05-4.78-5.05-12.54,0-17.32,1.3-1.23,2.8-2.13,4.41-2.73l-219.46-512.32v-.02s-.08.92-.08.92h0s-25.92,355.34-25.92,355.34l70.65,55.29-24.2,38.53c88.46,77.72,263.95,231.34,272.34,234.28ZM376.37,2559.35c-11.02-7.02-14.88-21.25-25.55-28.66-7.4-5.68-19.36-8.19-20.06-19.36.87-11.8-.8-30.35,11.93-36.06,11.31-3.69,21.23,5.92,26.28,15.1,2.29,7.26,5.4,12.8,8.87,17.49,1.78.59,3.46,1.54,4.88,2.89,2.06,1.95,3.26,4.39,3.64,6.92,6.65,6.93,13.29,13.36,17.35,24.2h0c3.08,14.88-15.29,24.08-27.34,17.48Z"/>
  <path class="cls-12" d="M572.45,2902.32s.06-.06.05-.14c0,0,0,0,0,0,.02.08,0,.13-.05.15Z"/>
  <path class="cls-4" d="M279.4,2217.87s0,.05,0,.05l25.53-101.71-21.14,18c-.24,4.7-.48,9.23-.71,13.59-2.25,43.04-3.62,68.95-3.68,70.07Z"/>
  <polygon class="cls-4" points="335.63 1993.86 328.57 1993.86 334.28 1999.29 335.64 1993.86 335.63 1993.86"/>
  <path class="cls-12" d="M279.39,2217.91c0-.05,1.38-26.15,3.68-70.11.23-4.35.46-8.88.71-13.58l-42.41,36.11,38.02,47.58s0,0,0,0Z"/>
  <path class="cls-10" d="M683,3954.33v-360l-275.94,114.99,275.94,245ZM641.15,3844.09c5.04,4.78,5.05,12.54,0,17.32-5.05,4.78-13.23,4.78-18.27,0-5.05-4.78-5.05-12.54,0-17.32,5.05-4.78,13.23-4.78,18.27,0Z"/>
  <path class="cls-2" d="M382.72,3844.09c5.05,4.78,5.05,12.54,0,17.32-3.91,3.7-9.7,4.52-14.46,2.49l-32.62,129.96h347.36v-39.53l-275.94-245.01-32.93,131.21c3.12.12,6.21,1.3,8.59,3.56Z"/>
  <path class="cls-8" d="M572.34,2902.34l.02-.02c-.05,0-.09,0-.18-.02h0c-5.76,2.53-84.67,30.08-186.32,65.34-.61,1.79-1.65,3.47-3.15,4.89-4.33,4.1-10.97,4.67-15.95,1.73-79.32,27.5-169.98,58.83-249.82,86.4l61.17,198.66,149.28-97.39,244.94-259.59ZM274.15,3184.2c-17.88,19.67-79.72,58.99-61.53,1.27h.01c7.07-19.66,18.09-40.07,12.8-61.55-3.61-10.09,8.44-20.68,17.35-13.22,11.84,18.01,54.75,52.77,31.37,73.5Z"/>
  <path class="cls-8" d="M572.19,2902.28s0,0,0,0c0,0,0,0,.01,0h-.01Z"/>
  <path class="cls-8" d="M683,3382.42v-242.17l-355.6,21.68,355.6,220.49ZM512.72,3177.42c5.05,4.78,5.05,12.54,0,17.32-5.05,4.78-13.23,4.78-18.27,0-5.05-4.78-5.05-12.54,0-17.32,5.05-4.78,13.23-4.78,18.27,0Z"/>
  <path class="cls-12" d="M683,3114.36v-463.09l-18.43.66,18.43-9.25v-40.85l-52.42,142.5-58.05,157.8c.59.47,50.53,96.62,110.47,212.25ZM641.15,2955.2c5.05,4.78,5.05,12.54,0,17.32s-13.23,4.78-18.27,0c-5.05-4.78-5.05-12.54,0-17.32s13.23-4.78,18.27,0Z"/>
  <path class="cls-12" d="M327.39,3161.93h.01s-149.28,97.39-149.28,97.39l44.16,143.42-115.18,111.45,155.42,96.06-13.55,8.58c1.95.57,3.78,1.58,5.32,3.04,5.05,4.78,5.05,12.54,0,17.32-5.05,4.78-13.23,4.78-18.27,0-2.83-2.68-4.07-6.3-3.73-9.8l-116.5,73.73,171.68,290.76h3.56c6.8-132.43,15.43-303.54,22.66-456.11,9.68-204.34,16.84-375.44,13.69-375.82Z"/>
  <path class="cls-4" d="M313.71,3537.75c-7.23,152.57-15.86,323.68-22.66,456.11h44.59l32.62-129.96c-1.38-.59-2.68-1.41-3.81-2.49-5.05-4.78-5.05-12.54,0-17.32,2.66-2.52,6.19-3.7,9.68-3.56l32.93-131.21,275.94-114.99v-211.92l-355.6-220.49c3.15.39-4.01,171.49-13.69,375.83ZM512.72,3639.18c-5.05,4.78-13.23,4.78-18.27,0-5.05-4.78-5.05-12.54,0-17.32,5.05-4.78,13.23-4.78,18.27,0,5.05,4.78,5.05,12.54,0,17.32ZM585.68,3370.66c5.88-2.12,11.13,1.8,16.4,3.73,12.17,3.56,25.32,1.77,36.85,7.7h.01c23.52,11.68,31.48,50.37,9.58,67.22-22.1,15.66-30.69-5.35-39.95-22.1-10.37-15.6-48.89-38.31-22.89-56.55ZM407.43,3383.57c17.24,16.88,29.31,44.09,19.04,67.66-5.86,16.58-23.59,24.48-38.89,14.59-16.58-6.46-34.66-15.85-42.98-32.39-11.32-34.39,32.3-86.77,62.83-49.86Z"/>
  <path class="cls-4" d="M572.45,2902.32s.07-.07.05-.15c0,0,0,0,0,0l.02-.07s-.02,0-.02.01c0,0,0,0,0,0,0,0-.01,0-.02.01-.04.03-.12.07-.28.15,0,0,0,0-.01,0,0,0,0,0,0,0,0,0,0,0,0,0h0c.08.03.12.03.18.03.02,0,.05.01.07,0,0,0,.01,0,.02,0Z"/>
  <path class="cls-4" d="M366.77,2974.26c-.82-.49-1.61-1.06-2.32-1.73-5.05-4.78-5.05-12.54,0-17.32s13.23-4.78,18.27,0c3.55,3.36,4.59,8.19,3.15,12.43,101.65-35.26,180.56-62.81,186.32-65.35,0,0,0,0,0,0,0,0,0,0,0,0,0,0,0,0,0,0-8.4-2.95-183.89-156.57-272.34-234.28l-34.19,54.45c1.03.87,2.06,1.81,3.09,2.83h0c10.56,9.41,16.24,23.77,7.47,33.22-8.87,11.66-25.81,31.04-44.75,18.39l-85.99,136.94c7.51,1.76,14.24,2.61,19.45,9.52h-.01c6.46,8.58,4.48,24.09-2.07,33.83-7.23,10.75-20.17,10.64-33.04,22.82-12.87,12.18-12.61,29.61-22.78,28.81-2.61-.21-4.88-1.28-6.99-3.06l16.91,54.91c79.84-27.56,170.51-58.9,249.82-86.4Z"/>
  <path class="cls-6" d="M387.58,3465.82c15.3,9.89,33.03,1.99,38.89-14.59,10.27-23.57-1.8-50.78-19.04-67.66-30.53-36.91-74.15,15.47-62.83,49.86,8.32,16.54,26.4,25.93,42.98,32.39ZM364.45,3399.64c5.05-4.78,13.23-4.78,18.27,0,5.05,4.78,5.05,12.54,0,17.32-5.05,4.78-13.23,4.78-18.27,0-5.05-4.78-5.05-12.54,0-17.32Z"/>
  <path class="cls-11" d="M225.43,3123.92c5.29,21.48-5.73,41.89-12.8,61.55h-.01c-18.19,57.72,43.65,18.4,61.53-1.27,23.38-20.73-19.53-55.49-31.37-73.5-8.91-7.46-20.96,3.13-17.35,13.22ZM254.3,3177.42c5.05,4.78,5.05,12.54,0,17.32-5.05,4.78-13.23,4.78-18.27,0-5.05-4.78-5.05-12.54,0-17.32,5.05-4.78,13.23-4.78,18.27,0Z"/>
  <path class="cls-7" d="M276.22,2758.49c8.77-9.45,3.09-23.81-7.47-33.21h0c-1.03-1.03-2.06-1.97-3.09-2.84l-8.8,14.01c2.24,4.54,1.4,10.1-2.56,13.85-2.33,2.2-5.32,3.38-8.37,3.55l-14.46,23.03c18.94,12.65,35.88-6.72,44.75-18.39Z"/>
  <path class="cls-6" d="M558.91,2532.77c28.24-1.27,51.07,17.62,73.95,31.39h0c67.81,37.18,33.94-50.12,13.75-77.43-20.15-34.47-74.42,10.64-99.94,20.99-11.57,9.31-1.3,27.04,12.24,25.05ZM622.88,2510.75c5.05-4.78,13.23-4.78,18.27,0s5.05,12.54,0,17.32-13.23,4.78-18.27,0c-5.05-4.78-5.05-12.54,0-17.32Z"/>
  <path class="cls-7" d="M608.57,3427.21c9.26,16.75,17.85,37.76,39.95,22.1,21.9-16.85,13.94-55.54-9.58-67.22h-.01c-11.53-5.93-24.68-4.14-36.85-7.7-5.27-1.93-10.52-5.85-16.4-3.73-26,18.24,12.52,40.95,22.89,56.55ZM622.88,3399.64c5.05-4.78,13.23-4.78,18.27,0,5.05,4.78,5.05,12.54,0,17.32-5.05,4.78-13.23,4.78-18.27,0-5.05-4.78-5.05-12.54,0-17.32Z"/>
  <path class="cls-1" d="M129.81,2979.99c12.87-12.18,25.81-12.07,33.04-22.82,6.55-9.74,8.53-25.25,2.07-33.83h.01c-5.21-6.92-11.94-7.76-19.45-9.52l-24.55,39.09c1.21.57,2.36,1.33,3.37,2.29,5.05,4.78,5.05,12.54,0,17.32-4.51,4.27-11.5,4.71-16.54,1.36l-11.76,18.73,4.04,13.13c2.11,1.78,4.38,2.85,6.99,3.06,10.17.8,9.91-16.63,22.78-28.81Z"/>
  <path class="cls-7" d="M139.02,2484.66l6.31,4.94c-2.07-2.25-4.17-3.87-6.31-4.94Z"/>
  <path class="cls-11" d="M424.54,2086.84h0c7.12-14.37,4.65-30.59,8.81-45.7,2.29-6.55,7.03-13.12,4.29-20.35-19.2-26.49-41.38,2.45-59.29,20.43l6.92,6.58-49.31,41.98c1.13,3.13,2.97,6.5,5.66,10.18,21.24,26.74,68.92,16.17,82.91-13.12ZM364.45,2066.31c5.05-4.78,13.23-4.78,18.27,0,5.05,4.78,5.05,12.54,0,17.32-5.05,4.78-13.23,4.78-18.27,0-5.05-4.78-5.05-12.54,0-17.32Z"/>
  <path class="cls-9" d="M655.89,2049.07c-3.54-1.02-6.74-1.85-9.77-4-4.83-3.43-8.71-9.46-13.34-13.66-5.43-4.93-13.2-9.98-20.88-9.28-6.24.57-11.02,4.76-13.75,10.23-2.41,4.83-3.59,10.05-4.18,15.38-.81,7.34,1.87,14,4.92,20.53,2.48,5.29,7.4,13.53,4.27,19.4-1.28,2.4-3.63,4.64-5.47,6.95-2.1,2.64-4.26,5.31-5.9,8.27-3.38,6.07-3.83,12.91,1.08,18.31,2.62,2.88,7.69,6.42,11.66,6.65,2.37.14,4.88-.16,7.23-.44,7.85-.95,14.82-3.58,21.64-7.52,2.84-1.64,5.65-3.33,8.59-4.79.79-.39,1.58-.75,2.38-1.12.12-.05.24-.11.36-.16t.03-.01c.5-.2,1-.4,1.5-.59,2.03-.76,4.1-1.4,6.19-1.94,9.63-2.49,20.08-2.89,30.55-2.51v-50.18c-4.66-2.26-9.59-4.08-14.4-5.66-4.21-1.39-8.46-2.63-12.71-3.86ZM641.15,2083.63c-5.05,4.78-13.23,4.78-18.27,0-5.05-4.78-5.05-12.54,0-17.32,5.05-4.78,13.23-4.78,18.27,0,5.05,4.78,5.05,12.54,0,17.32Z"/>
  <path class="cls-9" d="M403.71,2541.86h0c-4.06-10.83-10.7-17.26-17.35-24.19.55,3.69-.65,7.56-3.64,10.4-5.05,4.78-13.23,4.78-18.27,0-5.05-4.78-5.05-12.54,0-17.32,3.63-3.43,8.86-4.39,13.39-2.89-3.47-4.69-6.58-10.23-8.87-17.49-5.05-9.18-14.97-18.79-26.28-15.1-12.73,5.71-11.06,24.26-11.93,36.06.7,11.17,12.66,13.68,20.06,19.36,10.67,7.41,14.53,21.64,25.55,28.66,12.05,6.6,30.42-2.6,27.34-17.49Z"/>
  <path class="cls-9" d="M135.82,2382.56h-.01c-3.53-4.69-8.34-4.28-13.64-6.04-7.94-2.64-15.45-2.63-20.8,1.84-11.81,9.85-29.82,8.65-22.44,25.31,2.49,5.61,11.82,7.31,15.13,14.08,3.32,6.77,5.94,11.13,10.15,11.46,5.55.44,5.41-9.08,12.44-15.72,7.03-6.65,14.09-6.59,18.04-12.46,3.58-5.31,4.66-13.78,1.13-18.47Z"/>
  <path class="cls-5" d="M382.72,2083.63c5.05-4.78,5.05-12.54,0-17.32-5.04-4.78-13.22-4.78-18.27,0-5.05,4.78-5.05,12.54,0,17.32,5.04,4.78,13.22,4.78,18.27,0Z"/>
  <path class="cls-5" d="M622.88,2066.31c-5.05,4.78-5.05,12.54,0,17.32,5.04,4.78,13.22,4.78,18.27,0,5.05-4.78,5.05-12.54,0-17.32-5.04-4.78-13.22-4.78-18.27,0Z"/>
  <path class="cls-5" d="M254.3,2305.85c5.05-4.78,5.05-12.54,0-17.32-5.04-4.78-13.22-4.78-18.27,0-5.05,4.78-5.04,12.54,0,17.32,5.04,4.78,13.22,4.78,18.27,0Z"/>
  <path class="cls-5" d="M512.72,2288.53c-5.04-4.78-13.22-4.78-18.27,0-5.05,4.78-5.05,12.54,0,17.32,5.04,4.78,13.22,4.78,18.27,0,5.05-4.78,5.05-12.54,0-17.32Z"/>
  <path class="cls-5" d="M256.86,2736.46l-10.92,17.4c3.04-.17,6.04-1.35,8.37-3.55,3.95-3.74,4.8-9.31,2.56-13.85Z"/>
  <path class="cls-5" d="M512.72,2732.98c-3.75-3.55-9.22-4.46-13.86-2.73-1.6.6-3.11,1.5-4.41,2.73-5.05,4.78-5.05,12.54,0,17.32,3.82,3.62,9.43,4.49,14.12,2.63,1.51-.6,2.92-1.47,4.15-2.63,5.05-4.78,5.05-12.54,0-17.32Z"/>
  <path class="cls-5" d="M364.45,2510.75c-5.05,4.78-5.05,12.54,0,17.32,5.04,4.78,13.22,4.78,18.27,0,2.99-2.83,4.2-6.71,3.64-10.4-.38-2.53-1.59-4.98-3.64-6.92-1.42-1.35-3.1-2.3-4.88-2.89-4.53-1.5-9.77-.54-13.39,2.89Z"/>
  <path class="cls-5" d="M641.15,2528.07c5.05-4.78,5.04-12.54,0-17.32s-13.22-4.78-18.27,0-5.05,12.54,0,17.32c5.04,4.78,13.22,4.78,18.27,0Z"/>
  <path class="cls-5" d="M236.03,3194.74c5.04,4.78,13.22,4.78,18.27,0,5.05-4.78,5.05-12.54,0-17.32-5.04-4.78-13.22-4.78-18.27,0-5.05,4.78-5.05,12.54,0,17.32Z"/>
  <path class="cls-5" d="M494.45,3194.74c5.04,4.78,13.22,4.78,18.27,0,5.05-4.78,5.05-12.54,0-17.32-5.04-4.78-13.22-4.78-18.27,0-5.05,4.78-5.05,12.54,0,17.32Z"/>
  <path class="cls-5" d="M124.3,2972.52c5.05-4.78,5.05-12.54,0-17.32-1.01-.96-2.15-1.72-3.37-2.29l-13.17,20.97c5.04,3.35,12.03,2.9,16.54-1.36Z"/>
  <path class="cls-5" d="M382.72,2955.2c-5.04-4.78-13.22-4.78-18.27,0s-5.05,12.54,0,17.32c.71.68,1.5,1.25,2.32,1.73,4.98,2.94,11.62,2.37,15.95-1.73,1.5-1.42,2.54-3.1,3.15-4.89,1.44-4.24.4-9.07-3.15-12.43Z"/>
  <path class="cls-5" d="M622.88,2972.52c5.04,4.78,13.22,4.78,18.27,0s5.05-12.54,0-17.32c-5.04-4.78-13.22-4.78-18.27,0s-5.05,12.54,0,17.32Z"/>
  <path class="cls-5" d="M382.72,3416.96c5.05-4.78,5.05-12.54,0-17.32-5.04-4.78-13.22-4.78-18.27,0-5.05,4.78-5.05,12.54,0,17.32,5.04,4.78,13.22,4.78,18.27,0Z"/>
  <path class="cls-5" d="M641.15,3416.96c5.05-4.78,5.05-12.54,0-17.32-5.04-4.78-13.22-4.78-18.27,0-5.05,4.78-5.05,12.54,0,17.32,5.04,4.78,13.22,4.78,18.27,0Z"/>
  <path class="cls-5" d="M236.03,3639.18c5.04,4.78,13.22,4.78,18.27,0,5.05-4.78,5.05-12.54,0-17.32-1.54-1.46-3.37-2.47-5.32-3.04l-16.68,10.55c-.34,3.5.9,7.12,3.73,9.8Z"/>
  <path class="cls-5" d="M494.45,3621.86c-5.05,4.78-5.05,12.54,0,17.32,5.04,4.78,13.22,4.78,18.27,0,5.05-4.78,5.05-12.54,0-17.32-5.04-4.78-13.22-4.78-18.27,0Z"/>
  <path class="cls-5" d="M382.72,3861.41c5.05-4.78,5.05-12.54,0-17.32-2.38-2.26-5.47-3.44-8.59-3.56-3.48-.14-7.01,1.04-9.68,3.56-5.05,4.78-5.05,12.54,0,17.32,1.13,1.08,2.43,1.9,3.81,2.49,4.76,2.04,10.54,1.22,14.46-2.49Z"/>
  <path class="cls-5" d="M622.88,3861.41c5.04,4.78,13.22,4.78,18.27,0,5.05-4.78,5.04-12.54,0-17.32-5.04-4.78-13.22-4.78-18.27,0-5.05,4.78-5.05,12.54,0,17.32Z"/>
</svg>