<svg width="280" height="315" viewBox="0 0 280 315" fill="none" xmlns="http://www.w3.org/2000/svg">
<path fill-rule="evenodd" clip-rule="evenodd" d="M3.00659 207.929C-14.1994 277.316 61.3841 307.693 101.327 314.208C261.097 321.538 317.938 189.605 253.415 66.2235C201.797 -32.4816 163.289 1.47886 150.487 30.7972C153.047 47.0852 139.118 84.5475 62.9203 104.093C2.8746 119.495 3.27298 122.275 6.38059 143.956C8.20242 156.667 10.9554 175.874 3.00659 207.929Z" fill="#1497EB" stroke="black"/>
<path d="M35.025 136.5V122.5H37.585L43.725 133.98V122.5H45.485V136.5H43.185L36.785 124.94V136.5H35.025ZM53.1828 136.74C52.3561 136.74 51.5828 136.547 50.8628 136.16C50.1428 135.76 49.5628 135.173 49.1228 134.4C48.6828 133.613 48.4628 132.647 48.4628 131.5C48.4628 130.353 48.6828 129.393 49.1228 128.62C49.5628 127.833 50.1428 127.247 50.8628 126.86C51.5828 126.46 52.3561 126.26 53.1828 126.26C54.0095 126.26 54.7828 126.46 55.5028 126.86C56.2228 127.247 56.8028 127.833 57.2428 128.62C57.6828 129.393 57.9028 130.353 57.9028 131.5C57.9028 132.647 57.6828 133.613 57.2428 134.4C56.8028 135.173 56.2228 135.76 55.5028 136.16C54.7828 136.547 54.0095 136.74 53.1828 136.74ZM53.1828 135.22C54.1828 135.22 54.9361 134.893 55.4428 134.24C55.9628 133.587 56.2228 132.673 56.2228 131.5C56.2228 130.327 55.9628 129.413 55.4428 128.76C54.9361 128.107 54.1828 127.78 53.1828 127.78C52.1828 127.78 51.4228 128.107 50.9028 128.76C50.3961 129.413 50.1428 130.327 50.1428 131.5C50.1428 132.673 50.3961 133.587 50.9028 134.24C51.4228 134.893 52.1828 135.22 53.1828 135.22ZM62.4644 136.5L59.6844 126.52H61.5044L63.4844 134.84L65.7644 126.52H67.6044L69.8644 134.86L71.8644 126.52H73.6844L70.9044 136.5H68.6444L66.6844 129.16L64.6444 136.5H62.4644ZM82.3466 124.6C82.0266 124.6 81.7466 124.487 81.5066 124.26C81.2799 124.02 81.1666 123.747 81.1666 123.44C81.1666 123.12 81.2799 122.847 81.5066 122.62C81.7466 122.38 82.0266 122.26 82.3466 122.26C82.6532 122.26 82.9199 122.38 83.1466 122.62C83.3732 122.847 83.4866 123.12 83.4866 123.44C83.4866 123.747 83.3732 124.02 83.1466 124.26C82.9199 124.487 82.6532 124.6 82.3466 124.6ZM81.4866 136.5V126.5H83.1666V136.5H81.4866ZM90.2419 136.74C89.1485 136.74 88.3752 136.493 87.9219 136C87.4685 135.507 87.2419 134.793 87.2419 133.86V128.04H85.4419V126.5H85.9019C86.4485 126.5 86.8085 126.413 86.9819 126.24C87.1552 126.053 87.2419 125.673 87.2419 125.1V123.96H88.9219V126.52H91.5019V128.04H88.9219V133.86C88.9219 134.393 89.0485 134.767 89.3019 134.98C89.5552 135.193 89.9285 135.3 90.4219 135.3C90.5552 135.3 90.7019 135.293 90.8619 135.28C91.0219 135.267 91.1819 135.247 91.3419 135.22V136.58C90.9819 136.687 90.6152 136.74 90.2419 136.74ZM100.218 124.6C99.8977 124.6 99.6177 124.487 99.3777 124.26C99.151 124.02 99.0377 123.747 99.0377 123.44C99.0377 123.12 99.151 122.847 99.3777 122.62C99.6177 122.38 99.8977 122.26 100.218 122.26C100.524 122.26 100.791 122.38 101.018 122.62C101.244 122.847 101.358 123.12 101.358 123.44C101.358 123.747 101.244 124.02 101.018 124.26C100.791 124.487 100.524 124.6 100.218 124.6ZM99.3577 136.5V126.5H101.038V136.5H99.3577ZM107.713 136.74C107.046 136.74 106.413 136.6 105.813 136.32C105.213 136.027 104.726 135.627 104.353 135.12C103.98 134.613 103.793 134.033 103.793 133.38H105.593C105.593 133.793 105.713 134.14 105.953 134.42C106.193 134.687 106.486 134.887 106.833 135.02C107.18 135.153 107.52 135.22 107.853 135.22C108.52 135.22 109.053 135.1 109.453 134.86C109.853 134.62 110.053 134.253 110.053 133.76C110.053 133.32 109.906 132.993 109.613 132.78C109.32 132.553 108.946 132.387 108.493 132.28C108.04 132.16 107.553 132.053 107.033 131.96C106.513 131.867 106.026 131.733 105.573 131.56C105.12 131.387 104.746 131.12 104.453 130.76C104.16 130.4 104.013 129.9 104.013 129.26C104.013 128.767 104.146 128.293 104.413 127.84C104.68 127.387 105.08 127.013 105.613 126.72C106.16 126.413 106.84 126.26 107.653 126.26C108.626 126.26 109.393 126.42 109.953 126.74C110.526 127.047 110.933 127.427 111.173 127.88C111.426 128.32 111.553 128.747 111.553 129.16H109.833C109.833 128.827 109.646 128.513 109.273 128.22C108.9 127.927 108.353 127.78 107.633 127.78C106.98 127.78 106.493 127.913 106.173 128.18C105.853 128.433 105.693 128.773 105.693 129.2C105.693 129.573 105.84 129.86 106.133 130.06C106.426 130.26 106.8 130.42 107.253 130.54C107.72 130.647 108.206 130.76 108.713 130.88C109.233 130.987 109.72 131.147 110.173 131.36C110.64 131.56 111.02 131.853 111.313 132.24C111.606 132.613 111.753 133.12 111.753 133.76C111.753 134.293 111.606 134.787 111.313 135.24C111.033 135.693 110.593 136.06 109.993 136.34C109.406 136.607 108.646 136.74 107.713 136.74ZM123.523 136.74C122.43 136.74 121.656 136.493 121.203 136C120.75 135.507 120.523 134.793 120.523 133.86V128.04H118.723V126.5H119.183C119.73 126.5 120.09 126.413 120.263 126.24C120.436 126.053 120.523 125.673 120.523 125.1V123.96H122.203V126.52H124.783V128.04H122.203V133.86C122.203 134.393 122.33 134.767 122.583 134.98C122.836 135.193 123.21 135.3 123.703 135.3C123.836 135.3 123.983 135.293 124.143 135.28C124.303 135.267 124.463 135.247 124.623 135.22V136.58C124.263 136.687 123.896 136.74 123.523 136.74ZM128.147 124.6C127.827 124.6 127.547 124.487 127.307 124.26C127.081 124.02 126.967 123.747 126.967 123.44C126.967 123.12 127.081 122.847 127.307 122.62C127.547 122.38 127.827 122.26 128.147 122.26C128.454 122.26 128.721 122.38 128.947 122.62C129.174 122.847 129.287 123.12 129.287 123.44C129.287 123.747 129.174 124.02 128.947 124.26C128.721 124.487 128.454 124.6 128.147 124.6ZM127.287 136.5V126.5H128.967V136.5H127.287ZM132.563 136.5V126.5H134.243V128.38C134.309 128.14 134.463 127.853 134.703 127.52C134.943 127.187 135.296 126.893 135.763 126.64C136.229 126.387 136.836 126.26 137.583 126.26C138.343 126.26 139.003 126.46 139.563 126.86C140.136 127.247 140.536 127.82 140.763 128.58V128.54C140.829 128.3 140.996 128 141.263 127.64C141.529 127.28 141.909 126.96 142.403 126.68C142.909 126.4 143.536 126.26 144.283 126.26C145.256 126.26 146.056 126.573 146.683 127.2C147.323 127.827 147.643 128.74 147.643 129.94V136.5H145.963V130.18C145.963 129.313 145.756 128.7 145.343 128.34C144.929 127.967 144.389 127.78 143.723 127.78C142.803 127.78 142.109 128.093 141.643 128.72C141.176 129.347 140.943 130.14 140.943 131.1V136.5H139.263V130.18C139.263 129.313 139.056 128.7 138.643 128.34C138.229 127.967 137.689 127.78 137.023 127.78C136.103 127.78 135.409 128.093 134.943 128.72C134.476 129.347 134.243 130.14 134.243 131.1V136.5H132.563ZM155.215 136.76C154.375 136.76 153.595 136.553 152.875 136.14C152.155 135.713 151.575 135.107 151.135 134.32C150.695 133.533 150.475 132.607 150.475 131.54C150.475 130.447 150.695 129.507 151.135 128.72C151.575 127.933 152.155 127.327 152.875 126.9C153.595 126.473 154.375 126.26 155.215 126.26C156.068 126.26 156.835 126.44 157.515 126.8C158.208 127.147 158.755 127.693 159.155 128.44C159.568 129.173 159.775 130.12 159.775 131.28V131.9H152.135C152.188 132.86 152.468 133.66 152.975 134.3C153.481 134.927 154.215 135.24 155.175 135.24C155.775 135.24 156.321 135.1 156.815 134.82C157.308 134.54 157.695 134.147 157.975 133.64L159.455 134.24C158.628 135.92 157.215 136.76 155.215 136.76ZM155.175 127.78C154.361 127.78 153.708 128.033 153.215 128.54C152.735 129.033 152.415 129.66 152.255 130.42H158.095C158.095 130.047 157.981 129.66 157.755 129.26C157.541 128.847 157.221 128.5 156.795 128.22C156.368 127.927 155.828 127.78 155.175 127.78ZM171.453 136.74C170.359 136.74 169.586 136.493 169.133 136C168.679 135.507 168.453 134.793 168.453 133.86V128.04H166.653V126.5H167.113C167.659 126.5 168.019 126.413 168.193 126.24C168.366 126.053 168.453 125.673 168.453 125.1V123.96H170.133V126.52H172.713V128.04H170.133V133.86C170.133 134.393 170.259 134.767 170.513 134.98C170.766 135.193 171.139 135.3 171.633 135.3C171.766 135.3 171.913 135.293 172.073 135.28C172.233 135.267 172.393 135.247 172.553 135.22V136.58C172.193 136.687 171.826 136.74 171.453 136.74ZM179.257 136.74C178.43 136.74 177.657 136.547 176.937 136.16C176.217 135.76 175.637 135.173 175.197 134.4C174.757 133.613 174.537 132.647 174.537 131.5C174.537 130.353 174.757 129.393 175.197 128.62C175.637 127.833 176.217 127.247 176.937 126.86C177.657 126.46 178.43 126.26 179.257 126.26C180.084 126.26 180.857 126.46 181.577 126.86C182.297 127.247 182.877 127.833 183.317 128.62C183.757 129.393 183.977 130.353 183.977 131.5C183.977 132.647 183.757 133.613 183.317 134.4C182.877 135.173 182.297 135.76 181.577 136.16C180.857 136.547 180.084 136.74 179.257 136.74ZM179.257 135.22C180.257 135.22 181.01 134.893 181.517 134.24C182.037 133.587 182.297 132.673 182.297 131.5C182.297 130.327 182.037 129.413 181.517 128.76C181.01 128.107 180.257 127.78 179.257 127.78C178.257 127.78 177.497 128.107 176.977 128.76C176.47 129.413 176.217 130.327 176.217 131.5C176.217 132.673 176.47 133.587 176.977 134.24C177.497 134.893 178.257 135.22 179.257 135.22ZM196.25 136.76C195.41 136.76 194.623 136.553 193.89 136.14C193.17 135.713 192.59 135.107 192.15 134.32C191.71 133.533 191.49 132.607 191.49 131.54C191.49 130.447 191.71 129.507 192.15 128.72C192.59 127.933 193.17 127.327 193.89 126.9C194.623 126.473 195.41 126.26 196.25 126.26C197.13 126.26 197.923 126.493 198.63 126.96C199.337 127.413 199.863 128.053 200.21 128.88L198.69 129.48C198.477 128.973 198.157 128.567 197.73 128.26C197.317 127.94 196.81 127.78 196.21 127.78C195.53 127.78 194.963 127.947 194.51 128.28C194.07 128.6 193.737 129.04 193.51 129.6C193.283 130.16 193.17 130.787 193.17 131.48C193.17 132.173 193.283 132.807 193.51 133.38C193.737 133.94 194.07 134.393 194.51 134.74C194.963 135.073 195.53 135.24 196.21 135.24C196.81 135.24 197.317 135.087 197.73 134.78C198.157 134.46 198.477 134.047 198.69 133.54L200.21 134.14C199.863 134.967 199.33 135.613 198.61 136.08C197.903 136.533 197.117 136.76 196.25 136.76ZM202.933 136.5V122.26H204.613V136.5H202.933ZM208.909 124.6C208.589 124.6 208.309 124.487 208.069 124.26C207.842 124.02 207.729 123.747 207.729 123.44C207.729 123.12 207.842 122.847 208.069 122.62C208.309 122.38 208.589 122.26 208.909 122.26C209.216 122.26 209.482 122.38 209.709 122.62C209.936 122.847 210.049 123.12 210.049 123.44C210.049 123.747 209.936 124.02 209.709 124.26C209.482 124.487 209.216 124.6 208.909 124.6ZM208.049 136.5V126.5H209.729V136.5H208.049ZM213.324 136.5V126.5H215.004V128.38C215.071 128.14 215.224 127.853 215.464 127.52C215.704 127.187 216.058 126.893 216.524 126.64C216.991 126.387 217.598 126.26 218.344 126.26C219.104 126.26 219.764 126.46 220.324 126.86C220.898 127.247 221.298 127.82 221.524 128.58V128.54C221.591 128.3 221.758 128 222.024 127.64C222.291 127.28 222.671 126.96 223.164 126.68C223.671 126.4 224.298 126.26 225.044 126.26C226.018 126.26 226.818 126.573 227.444 127.2C228.084 127.827 228.404 128.74 228.404 129.94V136.5H226.724V130.18C226.724 129.313 226.518 128.7 226.104 128.34C225.691 127.967 225.151 127.78 224.484 127.78C223.564 127.78 222.871 128.093 222.404 128.72C221.938 129.347 221.704 130.14 221.704 131.1V136.5H220.024V130.18C220.024 129.313 219.818 128.7 219.404 128.34C218.991 127.967 218.451 127.78 217.784 127.78C216.864 127.78 216.171 128.093 215.704 128.72C215.238 129.347 215.004 130.14 215.004 131.1V136.5H213.324ZM236.836 136.74C236.25 136.74 235.743 136.633 235.316 136.42C234.89 136.207 234.536 135.933 234.256 135.6C233.976 135.253 233.763 134.9 233.616 134.54V136.5H231.996V122.1H233.676V128.42C233.823 127.953 234.063 127.56 234.396 127.24C234.73 126.92 235.123 126.68 235.576 126.52C236.03 126.347 236.483 126.26 236.936 126.26C237.816 126.26 238.583 126.473 239.236 126.9C239.903 127.313 240.423 127.913 240.796 128.7C241.17 129.473 241.356 130.407 241.356 131.5C241.356 132.62 241.163 133.573 240.776 134.36C240.39 135.133 239.856 135.727 239.176 136.14C238.496 136.54 237.716 136.74 236.836 136.74ZM236.756 135.24C237.41 135.24 237.95 135.08 238.376 134.76C238.816 134.427 239.143 133.98 239.356 133.42C239.57 132.86 239.676 132.233 239.676 131.54C239.676 130.847 239.57 130.213 239.356 129.64C239.143 129.067 238.816 128.613 238.376 128.28C237.936 127.933 237.376 127.767 236.696 127.78C236.056 127.78 235.51 127.953 235.056 128.3C234.616 128.633 234.276 129.08 234.036 129.64C233.81 130.2 233.696 130.82 233.696 131.5C233.696 132.593 233.956 133.493 234.476 134.2C235.01 134.893 235.77 135.24 236.756 135.24ZM244.681 136.74C244.335 136.74 244.035 136.613 243.781 136.36C243.528 136.107 243.401 135.813 243.401 135.48C243.401 135.133 243.528 134.833 243.781 134.58C244.035 134.327 244.335 134.2 244.681 134.2C245.028 134.2 245.321 134.327 245.561 134.58C245.801 134.833 245.921 135.133 245.921 135.48C245.921 135.813 245.801 136.107 245.561 136.36C245.321 136.613 245.028 136.74 244.681 136.74ZM31.998 160.5V159.02H34.378V148.02H31.998V146.5H38.518V148.02H36.138V158.98H38.518V160.5H31.998ZM50.2813 160.74C49.6147 160.74 48.9813 160.6 48.3813 160.32C47.7813 160.027 47.2947 159.627 46.9213 159.12C46.548 158.613 46.3613 158.033 46.3613 157.38H48.1613C48.1613 157.793 48.2813 158.14 48.5213 158.42C48.7613 158.687 49.0547 158.887 49.4013 159.02C49.748 159.153 50.088 159.22 50.4213 159.22C51.088 159.22 51.6213 159.1 52.0213 158.86C52.4213 158.62 52.6213 158.253 52.6213 157.76C52.6213 157.32 52.4747 156.993 52.1813 156.78C51.888 156.553 51.5147 156.387 51.0613 156.28C50.608 156.16 50.1213 156.053 49.6013 155.96C49.0813 155.867 48.5947 155.733 48.1413 155.56C47.688 155.387 47.3147 155.12 47.0213 154.76C46.728 154.4 46.5813 153.9 46.5813 153.26C46.5813 152.767 46.7147 152.293 46.9813 151.84C47.248 151.387 47.648 151.013 48.1813 150.72C48.728 150.413 49.408 150.26 50.2213 150.26C51.1947 150.26 51.9613 150.42 52.5213 150.74C53.0947 151.047 53.5013 151.427 53.7413 151.88C53.9947 152.32 54.1213 152.747 54.1213 153.16H52.4013C52.4013 152.827 52.2147 152.513 51.8413 152.22C51.468 151.927 50.9213 151.78 50.2013 151.78C49.548 151.78 49.0613 151.913 48.7413 152.18C48.4213 152.433 48.2613 152.773 48.2613 153.2C48.2613 153.573 48.408 153.86 48.7013 154.06C48.9947 154.26 49.368 154.42 49.8213 154.54C50.288 154.647 50.7747 154.76 51.2813 154.88C51.8013 154.987 52.288 155.147 52.7413 155.36C53.208 155.56 53.588 155.853 53.8813 156.24C54.1747 156.613 54.3213 157.12 54.3213 157.76C54.3213 158.293 54.1747 158.787 53.8813 159.24C53.6013 159.693 53.1613 160.06 52.5613 160.34C51.9747 160.607 51.2147 160.74 50.2813 160.74ZM60.7399 160.74C59.6466 160.74 58.8733 160.493 58.4199 160C57.9666 159.507 57.7399 158.793 57.7399 157.86V152.04H55.9399V150.5H56.3999C56.9466 150.5 57.3066 150.413 57.4799 150.24C57.6533 150.053 57.7399 149.673 57.7399 149.1V147.96H59.4199V150.52H61.9999V152.04H59.4199V157.86C59.4199 158.393 59.5466 158.767 59.7999 158.98C60.0533 159.193 60.4266 159.3 60.9199 159.3C61.0533 159.3 61.1999 159.293 61.3599 159.28C61.5199 159.267 61.6799 159.247 61.8399 159.22V160.58C61.4799 160.687 61.1133 160.74 60.7399 160.74ZM68.2441 160.74C67.3775 160.74 66.6108 160.533 65.9441 160.12C65.2775 159.693 64.7575 159.093 64.3841 158.32C64.0108 157.533 63.8241 156.593 63.8241 155.5C63.8241 154.367 64.0175 153.413 64.4041 152.64C64.7908 151.867 65.3241 151.28 66.0041 150.88C66.6975 150.467 67.4775 150.26 68.3441 150.26C68.9308 150.26 69.4375 150.367 69.8641 150.58C70.2908 150.793 70.6441 151.067 70.9241 151.4C71.2175 151.733 71.4308 152.087 71.5641 152.46V150.5H73.1641V160.5H71.5041V158.58C71.3708 159.033 71.1308 159.427 70.7841 159.76C70.4508 160.08 70.0575 160.327 69.6041 160.5C69.1641 160.66 68.7108 160.74 68.2441 160.74ZM68.4841 159.22C69.1241 159.22 69.6641 159.053 70.1041 158.72C70.5575 158.373 70.8975 157.92 71.1241 157.36C71.3641 156.8 71.4841 156.18 71.4841 155.5C71.4841 154.393 71.2175 153.493 70.6841 152.8C70.1641 152.107 69.4108 151.76 68.4241 151.76C67.7708 151.76 67.2241 151.927 66.7841 152.26C66.3575 152.58 66.0375 153.02 65.8241 153.58C65.6108 154.14 65.5041 154.767 65.5041 155.46C65.5041 156.153 65.6108 156.787 65.8241 157.36C66.0375 157.92 66.3641 158.373 66.8041 158.72C67.2575 159.053 67.8175 159.22 68.4841 159.22ZM76.7326 160.5V150.5H78.4126V152.48C78.5459 152.12 78.7326 151.773 78.9726 151.44C79.2259 151.093 79.5659 150.813 79.9926 150.6C80.4326 150.373 80.9926 150.26 81.6726 150.26C81.7792 150.26 81.9259 150.273 82.1126 150.3C82.2992 150.313 82.4392 150.327 82.5326 150.34V151.9C82.3326 151.833 82.0792 151.787 81.7726 151.76C81.4659 151.72 81.1859 151.727 80.9326 151.78C80.1192 151.94 79.4926 152.293 79.0526 152.84C78.6259 153.387 78.4126 154.14 78.4126 155.1V160.5H76.7326ZM88.7282 160.74C87.6349 160.74 86.8615 160.493 86.4082 160C85.9549 159.507 85.7282 158.793 85.7282 157.86V152.04H83.9282V150.5H84.3882C84.9349 150.5 85.2949 150.413 85.4682 150.24C85.6415 150.053 85.7282 149.673 85.7282 149.1V147.96H87.4082V150.52H89.9882V152.04H87.4082V157.86C87.4082 158.393 87.5349 158.767 87.7882 158.98C88.0415 159.193 88.4149 159.3 88.9082 159.3C89.0415 159.3 89.1882 159.293 89.3482 159.28C89.5082 159.267 89.6682 159.247 89.8282 159.22V160.58C89.4682 160.687 89.1015 160.74 88.7282 160.74ZM97.924 160.5V150.5H99.604V152.38C99.6707 152.14 99.824 151.853 100.064 151.52C100.304 151.187 100.657 150.893 101.124 150.64C101.591 150.387 102.197 150.26 102.944 150.26C103.704 150.26 104.364 150.46 104.924 150.86C105.497 151.247 105.897 151.82 106.124 152.58V152.54C106.191 152.3 106.357 152 106.624 151.64C106.891 151.28 107.271 150.96 107.764 150.68C108.271 150.4 108.897 150.26 109.644 150.26C110.617 150.26 111.417 150.573 112.044 151.2C112.684 151.827 113.004 152.74 113.004 153.94V160.5H111.324V154.18C111.324 153.313 111.117 152.7 110.704 152.34C110.291 151.967 109.751 151.78 109.084 151.78C108.164 151.78 107.471 152.093 107.004 152.72C106.537 153.347 106.304 154.14 106.304 155.1V160.5H104.624V154.18C104.624 153.313 104.417 152.7 104.004 152.34C103.591 151.967 103.051 151.78 102.384 151.78C101.464 151.78 100.771 152.093 100.304 152.72C99.8373 153.347 99.604 154.14 99.604 155.1V160.5H97.924ZM117.016 165.1C116.803 165.1 116.603 165.08 116.416 165.04C116.229 165.013 116.069 164.98 115.936 164.94V163.42C116.056 163.447 116.203 163.467 116.376 163.48C116.549 163.493 116.723 163.5 116.896 163.5C117.203 163.5 117.483 163.42 117.736 163.26C118.003 163.113 118.256 162.82 118.496 162.38C118.736 161.94 118.976 161.293 119.216 160.44L115.056 150.5H116.776L119.996 158.12L122.696 150.5H124.476L120.456 161.18C120.136 162.047 119.829 162.767 119.536 163.34C119.256 163.927 118.923 164.367 118.536 164.66C118.149 164.953 117.643 165.1 117.016 165.1ZM131.908 160.5V146.26H133.588V152.38C133.655 152.14 133.808 151.853 134.048 151.52C134.288 151.187 134.642 150.893 135.108 150.64C135.575 150.387 136.182 150.26 136.928 150.26C137.902 150.26 138.702 150.573 139.328 151.2C139.968 151.827 140.288 152.74 140.288 153.94V160.5H138.608V154.18C138.608 153.313 138.402 152.7 137.988 152.34C137.575 151.967 137.035 151.78 136.368 151.78C135.448 151.78 134.755 152.093 134.288 152.72C133.822 153.347 133.588 154.14 133.588 155.1V160.5H131.908ZM147.502 160.74C146.635 160.74 145.869 160.533 145.202 160.12C144.535 159.693 144.015 159.093 143.642 158.32C143.269 157.533 143.082 156.593 143.082 155.5C143.082 154.367 143.275 153.413 143.662 152.64C144.049 151.867 144.582 151.28 145.262 150.88C145.955 150.467 146.735 150.26 147.602 150.26C148.189 150.26 148.695 150.367 149.122 150.58C149.549 150.793 149.902 151.067 150.182 151.4C150.475 151.733 150.689 152.087 150.822 152.46V150.5H152.422V160.5H150.762V158.58C150.629 159.033 150.389 159.427 150.042 159.76C149.709 160.08 149.315 160.327 148.862 160.5C148.422 160.66 147.969 160.74 147.502 160.74ZM147.742 159.22C148.382 159.22 148.922 159.053 149.362 158.72C149.815 158.373 150.155 157.92 150.382 157.36C150.622 156.8 150.742 156.18 150.742 155.5C150.742 154.393 150.475 153.493 149.942 152.8C149.422 152.107 148.669 151.76 147.682 151.76C147.029 151.76 146.482 151.927 146.042 152.26C145.615 152.58 145.295 153.02 145.082 153.58C144.869 154.14 144.762 154.767 144.762 155.46C144.762 156.153 144.869 156.787 145.082 157.36C145.295 157.92 145.622 158.373 146.062 158.72C146.515 159.053 147.075 159.22 147.742 159.22ZM155.99 160.5V150.5H157.67V152.38C157.737 152.14 157.89 151.853 158.13 151.52C158.37 151.187 158.724 150.893 159.19 150.64C159.657 150.387 160.264 150.26 161.01 150.26C161.984 150.26 162.784 150.573 163.41 151.2C164.05 151.827 164.37 152.74 164.37 153.94V160.5H162.69V154.18C162.69 153.313 162.484 152.7 162.07 152.34C161.657 151.967 161.117 151.78 160.45 151.78C159.53 151.78 158.837 152.093 158.37 152.72C157.904 153.347 157.67 154.14 157.67 155.1V160.5H155.99ZM171.684 160.74C170.817 160.74 170.037 160.54 169.344 160.14C168.664 159.727 168.131 159.133 167.744 158.36C167.357 157.573 167.164 156.62 167.164 155.5C167.164 154.407 167.351 153.473 167.724 152.7C168.097 151.913 168.617 151.313 169.284 150.9C169.951 150.473 170.717 150.26 171.584 150.26C172.051 150.26 172.504 150.347 172.944 150.52C173.397 150.68 173.791 150.92 174.124 151.24C174.471 151.56 174.711 151.953 174.844 152.42V146.26H176.524V157.98C176.524 158.38 176.611 158.667 176.784 158.84C176.957 159 177.291 159.027 177.784 158.92V160.28C177.651 160.36 177.504 160.42 177.344 160.46C177.197 160.5 176.997 160.52 176.744 160.52C176.224 160.52 175.791 160.367 175.444 160.06C175.097 159.753 174.924 159.247 174.924 158.54C174.777 158.9 174.564 159.253 174.284 159.6C174.004 159.933 173.644 160.207 173.204 160.42C172.777 160.633 172.271 160.74 171.684 160.74ZM171.764 159.24C172.751 159.24 173.504 158.893 174.024 158.2C174.557 157.493 174.824 156.593 174.824 155.5C174.824 154.82 174.704 154.2 174.464 153.64C174.237 153.067 173.897 152.613 173.444 152.28C173.004 151.947 172.464 151.78 171.824 151.78C171.157 151.78 170.597 151.953 170.144 152.3C169.704 152.633 169.377 153.087 169.164 153.66C168.951 154.22 168.844 154.847 168.844 155.54C168.844 156.233 168.951 156.86 169.164 157.42C169.377 157.98 169.697 158.427 170.124 158.76C170.564 159.08 171.111 159.24 171.764 159.24ZM183.543 160.74C182.876 160.74 182.243 160.6 181.643 160.32C181.043 160.027 180.556 159.627 180.183 159.12C179.81 158.613 179.623 158.033 179.623 157.38H181.423C181.423 157.793 181.543 158.14 181.783 158.42C182.023 158.687 182.316 158.887 182.663 159.02C183.01 159.153 183.35 159.22 183.683 159.22C184.35 159.22 184.883 159.1 185.283 158.86C185.683 158.62 185.883 158.253 185.883 157.76C185.883 157.32 185.736 156.993 185.443 156.78C185.15 156.553 184.776 156.387 184.323 156.28C183.87 156.16 183.383 156.053 182.863 155.96C182.343 155.867 181.856 155.733 181.403 155.56C180.95 155.387 180.576 155.12 180.283 154.76C179.99 154.4 179.843 153.9 179.843 153.26C179.843 152.767 179.976 152.293 180.243 151.84C180.51 151.387 180.91 151.013 181.443 150.72C181.99 150.413 182.67 150.26 183.483 150.26C184.456 150.26 185.223 150.42 185.783 150.74C186.356 151.047 186.763 151.427 187.003 151.88C187.256 152.32 187.383 152.747 187.383 153.16H185.663C185.663 152.827 185.476 152.513 185.103 152.22C184.73 151.927 184.183 151.78 183.463 151.78C182.81 151.78 182.323 151.913 182.003 152.18C181.683 152.433 181.523 152.773 181.523 153.2C181.523 153.573 181.67 153.86 181.963 154.06C182.256 154.26 182.63 154.42 183.083 154.54C183.55 154.647 184.036 154.76 184.543 154.88C185.063 154.987 185.55 155.147 186.003 155.36C186.47 155.56 186.85 155.853 187.143 156.24C187.436 156.613 187.583 157.12 187.583 157.76C187.583 158.293 187.436 158.787 187.143 159.24C186.863 159.693 186.423 160.06 185.823 160.34C185.236 160.607 184.476 160.74 183.543 160.74ZM199.533 160.74C198.667 160.74 197.9 160.533 197.233 160.12C196.567 159.693 196.047 159.093 195.673 158.32C195.3 157.533 195.113 156.593 195.113 155.5C195.113 154.367 195.307 153.413 195.693 152.64C196.08 151.867 196.613 151.28 197.293 150.88C197.987 150.467 198.767 150.26 199.633 150.26C200.22 150.26 200.727 150.367 201.153 150.58C201.58 150.793 201.933 151.067 202.213 151.4C202.507 151.733 202.72 152.087 202.853 152.46V150.5H204.453V160.5H202.793V158.58C202.66 159.033 202.42 159.427 202.073 159.76C201.74 160.08 201.347 160.327 200.893 160.5C200.453 160.66 200 160.74 199.533 160.74ZM199.773 159.22C200.413 159.22 200.953 159.053 201.393 158.72C201.847 158.373 202.187 157.92 202.413 157.36C202.653 156.8 202.773 156.18 202.773 155.5C202.773 154.393 202.507 153.493 201.973 152.8C201.453 152.107 200.7 151.76 199.713 151.76C199.06 151.76 198.513 151.927 198.073 152.26C197.647 152.58 197.327 153.02 197.113 153.58C196.9 154.14 196.793 154.767 196.793 155.46C196.793 156.153 196.9 156.787 197.113 157.36C197.327 157.92 197.653 158.373 198.093 158.72C198.547 159.053 199.107 159.22 199.773 159.22ZM211.502 160.74C210.408 160.74 209.635 160.493 209.182 160C208.728 159.507 208.502 158.793 208.502 157.86V152.04H206.702V150.5H207.162C207.708 150.5 208.068 150.413 208.242 150.24C208.415 150.053 208.502 149.673 208.502 149.1V147.96H210.182V150.52H212.762V152.04H210.182V157.86C210.182 158.393 210.308 158.767 210.562 158.98C210.815 159.193 211.188 159.3 211.682 159.3C211.815 159.3 211.962 159.293 212.122 159.28C212.282 159.267 212.442 159.247 212.602 159.22V160.58C212.242 160.687 211.875 160.74 211.502 160.74ZM224.177 160.74C223.084 160.74 222.311 160.493 221.857 160C221.404 159.507 221.177 158.793 221.177 157.86V152.04H219.377V150.5H219.837C220.384 150.5 220.744 150.413 220.917 150.24C221.091 150.053 221.177 149.673 221.177 149.1V147.96H222.857V150.52H225.437V152.04H222.857V157.86C222.857 158.393 222.984 158.767 223.237 158.98C223.491 159.193 223.864 159.3 224.357 159.3C224.491 159.3 224.637 159.293 224.797 159.28C224.957 159.267 225.117 159.247 225.277 159.22V160.58C224.917 160.687 224.551 160.74 224.177 160.74ZM228.022 160.5V146.26H229.702V152.38C229.768 152.14 229.922 151.853 230.162 151.52C230.402 151.187 230.755 150.893 231.222 150.64C231.688 150.387 232.295 150.26 233.042 150.26C234.015 150.26 234.815 150.573 235.442 151.2C236.082 151.827 236.402 152.74 236.402 153.94V160.5H234.722V154.18C234.722 153.313 234.515 152.7 234.102 152.34C233.688 151.967 233.148 151.78 232.482 151.78C231.562 151.78 230.868 152.093 230.402 152.72C229.935 153.347 229.702 154.14 229.702 155.1V160.5H228.022ZM243.935 160.76C243.095 160.76 242.315 160.553 241.595 160.14C240.875 159.713 240.295 159.107 239.855 158.32C239.415 157.533 239.195 156.607 239.195 155.54C239.195 154.447 239.415 153.507 239.855 152.72C240.295 151.933 240.875 151.327 241.595 150.9C242.315 150.473 243.095 150.26 243.935 150.26C244.789 150.26 245.555 150.44 246.235 150.8C246.929 151.147 247.475 151.693 247.875 152.44C248.289 153.173 248.495 154.12 248.495 155.28V155.9H240.855C240.909 156.86 241.189 157.66 241.695 158.3C242.202 158.927 242.935 159.24 243.895 159.24C244.495 159.24 245.042 159.1 245.535 158.82C246.029 158.54 246.415 158.147 246.695 157.64L248.175 158.24C247.349 159.92 245.935 160.76 243.935 160.76ZM243.895 151.78C243.082 151.78 242.429 152.033 241.935 152.54C241.455 153.033 241.135 153.66 240.975 154.42H246.815C246.815 154.047 246.702 153.66 246.475 153.26C246.262 152.847 245.942 152.5 245.515 152.22C245.089 151.927 244.549 151.78 243.895 151.78ZM42.6833 184.74C41.5899 184.74 40.8166 184.493 40.3633 184C39.9099 183.507 39.6833 182.793 39.6833 181.86V176.04H37.8833V174.5H38.3433C38.8899 174.5 39.2499 174.413 39.4233 174.24C39.5966 174.053 39.6833 173.673 39.6833 173.1V171.96H41.3633V174.52H43.9433V176.04H41.3633V181.86C41.3633 182.393 41.4899 182.767 41.7433 182.98C41.9966 183.193 42.3699 183.3 42.8633 183.3C42.9966 183.3 43.1433 183.293 43.3033 183.28C43.4633 183.267 43.6233 183.247 43.7833 183.22V184.58C43.4233 184.687 43.0566 184.74 42.6833 184.74ZM50.1875 184.74C49.3208 184.74 48.5542 184.533 47.8875 184.12C47.2208 183.693 46.7008 183.093 46.3275 182.32C45.9542 181.533 45.7675 180.593 45.7675 179.5C45.7675 178.367 45.9608 177.413 46.3475 176.64C46.7342 175.867 47.2675 175.28 47.9475 174.88C48.6408 174.467 49.4208 174.26 50.2875 174.26C50.8742 174.26 51.3808 174.367 51.8075 174.58C52.2342 174.793 52.5875 175.067 52.8675 175.4C53.1608 175.733 53.3742 176.087 53.5075 176.46V174.5H55.1075V184.5H53.4475V182.58C53.3142 183.033 53.0742 183.427 52.7275 183.76C52.3942 184.08 52.0008 184.327 51.5475 184.5C51.1075 184.66 50.6542 184.74 50.1875 184.74ZM50.4275 183.22C51.0675 183.22 51.6075 183.053 52.0475 182.72C52.5008 182.373 52.8408 181.92 53.0675 181.36C53.3075 180.8 53.4275 180.18 53.4275 179.5C53.4275 178.393 53.1608 177.493 52.6275 176.8C52.1075 176.107 51.3542 175.76 50.3675 175.76C49.7142 175.76 49.1675 175.927 48.7275 176.26C48.3008 176.58 47.9808 177.02 47.7675 177.58C47.5542 178.14 47.4475 178.767 47.4475 179.46C47.4475 180.153 47.5542 180.787 47.7675 181.36C47.9808 181.92 48.3075 182.373 48.7475 182.72C49.2008 183.053 49.7608 183.22 50.4275 183.22ZM58.6759 189.1V174.5H60.2959V176.46C60.4426 176.087 60.6559 175.733 60.9359 175.4C61.2159 175.067 61.5693 174.793 61.9959 174.58C62.4226 174.367 62.9293 174.26 63.5159 174.26C64.3959 174.26 65.1759 174.467 65.8559 174.88C66.5359 175.28 67.0693 175.867 67.4559 176.64C67.8426 177.413 68.0359 178.367 68.0359 179.5C68.0359 180.593 67.8493 181.533 67.4759 182.32C67.1026 183.093 66.5826 183.693 65.9159 184.12C65.2626 184.533 64.4959 184.74 63.6159 184.74C63.1626 184.74 62.7093 184.66 62.2559 184.5C61.8026 184.327 61.4093 184.08 61.0759 183.76C60.7426 183.427 60.5026 183.033 60.3559 182.58V189.1H58.6759ZM63.3759 183.22C64.0559 183.22 64.6159 183.053 65.0559 182.72C65.4959 182.387 65.8226 181.933 66.0359 181.36C66.2493 180.787 66.3559 180.153 66.3559 179.46C66.3559 178.767 66.2493 178.14 66.0359 177.58C65.8226 177.02 65.4959 176.58 65.0559 176.26C64.6293 175.927 64.0893 175.76 63.4359 175.76C62.4493 175.76 61.6893 176.107 61.1559 176.8C60.6359 177.493 60.3759 178.393 60.3759 179.5C60.3759 180.18 60.4893 180.8 60.7159 181.36C60.9559 181.92 61.2959 182.367 61.7359 182.7C62.1893 183.033 62.7359 183.207 63.3759 183.22ZM74.9411 184.76C74.1011 184.76 73.3211 184.553 72.6011 184.14C71.8811 183.713 71.3011 183.107 70.8611 182.32C70.4211 181.533 70.2011 180.607 70.2011 179.54C70.2011 178.447 70.4211 177.507 70.8611 176.72C71.3011 175.933 71.8811 175.327 72.6011 174.9C73.3211 174.473 74.1011 174.26 74.9411 174.26C75.7944 174.26 76.5611 174.44 77.2411 174.8C77.9344 175.147 78.4811 175.693 78.8811 176.44C79.2944 177.173 79.5011 178.12 79.5011 179.28V179.9H71.8611C71.9144 180.86 72.1944 181.66 72.7011 182.3C73.2078 182.927 73.9411 183.24 74.9011 183.24C75.5011 183.24 76.0478 183.1 76.5411 182.82C77.0344 182.54 77.4211 182.147 77.7011 181.64L79.1811 182.24C78.3544 183.92 76.9411 184.76 74.9411 184.76ZM74.9011 175.78C74.0878 175.78 73.4344 176.033 72.9411 176.54C72.4611 177.033 72.1411 177.66 71.9811 178.42H77.8211C77.8211 178.047 77.7078 177.66 77.4811 177.26C77.2678 176.847 76.9478 176.5 76.5211 176.22C76.0944 175.927 75.5544 175.78 74.9011 175.78ZM86.1078 184.74C85.2411 184.74 84.4611 184.54 83.7678 184.14C83.0878 183.727 82.5545 183.133 82.1678 182.36C81.7811 181.573 81.5878 180.62 81.5878 179.5C81.5878 178.407 81.7745 177.473 82.1478 176.7C82.5211 175.913 83.0411 175.313 83.7078 174.9C84.3745 174.473 85.1411 174.26 86.0078 174.26C86.4745 174.26 86.9278 174.347 87.3678 174.52C87.8211 174.68 88.2145 174.92 88.5478 175.24C88.8945 175.56 89.1345 175.953 89.2678 176.42V170.26H90.9478V181.98C90.9478 182.38 91.0345 182.667 91.2078 182.84C91.3811 183 91.7145 183.027 92.2078 182.92V184.28C92.0745 184.36 91.9278 184.42 91.7678 184.46C91.6211 184.5 91.4211 184.52 91.1678 184.52C90.6478 184.52 90.2145 184.367 89.8678 184.06C89.5211 183.753 89.3478 183.247 89.3478 182.54C89.2011 182.9 88.9878 183.253 88.7078 183.6C88.4278 183.933 88.0678 184.207 87.6278 184.42C87.2011 184.633 86.6945 184.74 86.1078 184.74ZM86.1878 183.24C87.1745 183.24 87.9278 182.893 88.4478 182.2C88.9811 181.493 89.2478 180.593 89.2478 179.5C89.2478 178.82 89.1278 178.2 88.8878 177.64C88.6611 177.067 88.3211 176.613 87.8678 176.28C87.4278 175.947 86.8878 175.78 86.2478 175.78C85.5811 175.78 85.0211 175.953 84.5678 176.3C84.1278 176.633 83.8011 177.087 83.5878 177.66C83.3745 178.22 83.2678 178.847 83.2678 179.54C83.2678 180.233 83.3745 180.86 83.5878 181.42C83.8011 181.98 84.1211 182.427 84.5478 182.76C84.9878 183.08 85.5345 183.24 86.1878 183.24ZM100.238 184.5V170.26H101.918V176.38C101.985 176.14 102.138 175.853 102.378 175.52C102.618 175.187 102.972 174.893 103.438 174.64C103.905 174.387 104.512 174.26 105.258 174.26C106.232 174.26 107.032 174.573 107.658 175.2C108.298 175.827 108.618 176.74 108.618 177.94V184.5H106.938V178.18C106.938 177.313 106.732 176.7 106.318 176.34C105.905 175.967 105.365 175.78 104.698 175.78C103.778 175.78 103.085 176.093 102.618 176.72C102.152 177.347 101.918 178.14 101.918 179.1V184.5H100.238ZM116.132 184.74C115.305 184.74 114.532 184.547 113.812 184.16C113.092 183.76 112.512 183.173 112.072 182.4C111.632 181.613 111.412 180.647 111.412 179.5C111.412 178.353 111.632 177.393 112.072 176.62C112.512 175.833 113.092 175.247 113.812 174.86C114.532 174.46 115.305 174.26 116.132 174.26C116.959 174.26 117.732 174.46 118.452 174.86C119.172 175.247 119.752 175.833 120.192 176.62C120.632 177.393 120.852 178.353 120.852 179.5C120.852 180.647 120.632 181.613 120.192 182.4C119.752 183.173 119.172 183.76 118.452 184.16C117.732 184.547 116.959 184.74 116.132 184.74ZM116.132 183.22C117.132 183.22 117.885 182.893 118.392 182.24C118.912 181.587 119.172 180.673 119.172 179.5C119.172 178.327 118.912 177.413 118.392 176.76C117.885 176.107 117.132 175.78 116.132 175.78C115.132 175.78 114.372 176.107 113.852 176.76C113.345 177.413 113.092 178.327 113.092 179.5C113.092 180.673 113.345 181.587 113.852 182.24C114.372 182.893 115.132 183.22 116.132 183.22ZM123.734 184.5V170.26H125.414V184.5H123.734ZM132.69 184.74C131.823 184.74 131.043 184.54 130.35 184.14C129.67 183.727 129.137 183.133 128.75 182.36C128.363 181.573 128.17 180.62 128.17 179.5C128.17 178.407 128.357 177.473 128.73 176.7C129.103 175.913 129.623 175.313 130.29 174.9C130.957 174.473 131.723 174.26 132.59 174.26C133.057 174.26 133.51 174.347 133.95 174.52C134.403 174.68 134.797 174.92 135.13 175.24C135.477 175.56 135.717 175.953 135.85 176.42V170.26H137.53V181.98C137.53 182.38 137.617 182.667 137.79 182.84C137.963 183 138.297 183.027 138.79 182.92V184.28C138.657 184.36 138.51 184.42 138.35 184.46C138.203 184.5 138.003 184.52 137.75 184.52C137.23 184.52 136.797 184.367 136.45 184.06C136.103 183.753 135.93 183.247 135.93 182.54C135.783 182.9 135.57 183.253 135.29 183.6C135.01 183.933 134.65 184.207 134.21 184.42C133.783 184.633 133.277 184.74 132.69 184.74ZM132.77 183.24C133.757 183.24 134.51 182.893 135.03 182.2C135.563 181.493 135.83 180.593 135.83 179.5C135.83 178.82 135.71 178.2 135.47 177.64C135.243 177.067 134.903 176.613 134.45 176.28C134.01 175.947 133.47 175.78 132.83 175.78C132.163 175.78 131.603 175.953 131.15 176.3C130.71 176.633 130.383 177.087 130.17 177.66C129.957 178.22 129.85 178.847 129.85 179.54C129.85 180.233 129.957 180.86 130.17 181.42C130.383 181.98 130.703 182.427 131.13 182.76C131.57 183.08 132.117 183.24 132.77 183.24ZM144.549 184.74C143.882 184.74 143.249 184.6 142.649 184.32C142.049 184.027 141.562 183.627 141.189 183.12C140.816 182.613 140.629 182.033 140.629 181.38H142.429C142.429 181.793 142.549 182.14 142.789 182.42C143.029 182.687 143.322 182.887 143.669 183.02C144.016 183.153 144.356 183.22 144.689 183.22C145.356 183.22 145.889 183.1 146.289 182.86C146.689 182.62 146.889 182.253 146.889 181.76C146.889 181.32 146.742 180.993 146.449 180.78C146.156 180.553 145.782 180.387 145.329 180.28C144.876 180.16 144.389 180.053 143.869 179.96C143.349 179.867 142.862 179.733 142.409 179.56C141.956 179.387 141.582 179.12 141.289 178.76C140.996 178.4 140.849 177.9 140.849 177.26C140.849 176.767 140.982 176.293 141.249 175.84C141.516 175.387 141.916 175.013 142.449 174.72C142.996 174.413 143.676 174.26 144.489 174.26C145.462 174.26 146.229 174.42 146.789 174.74C147.362 175.047 147.769 175.427 148.009 175.88C148.262 176.32 148.389 176.747 148.389 177.16H146.669C146.669 176.827 146.482 176.513 146.109 176.22C145.736 175.927 145.189 175.78 144.469 175.78C143.816 175.78 143.329 175.913 143.009 176.18C142.689 176.433 142.529 176.773 142.529 177.2C142.529 177.573 142.676 177.86 142.969 178.06C143.262 178.26 143.636 178.42 144.089 178.54C144.556 178.647 145.042 178.76 145.549 178.88C146.069 178.987 146.556 179.147 147.009 179.36C147.476 179.56 147.856 179.853 148.149 180.24C148.442 180.613 148.589 181.12 148.589 181.76C148.589 182.293 148.442 182.787 148.149 183.24C147.869 183.693 147.429 184.06 146.829 184.34C146.242 184.607 145.482 184.74 144.549 184.74ZM151.928 184.74C151.581 184.74 151.281 184.613 151.028 184.36C150.774 184.107 150.648 183.813 150.648 183.48C150.648 183.133 150.774 182.833 151.028 182.58C151.281 182.327 151.581 182.2 151.928 182.2C152.274 182.2 152.568 182.327 152.808 182.58C153.048 182.833 153.168 183.133 153.168 183.48C153.168 183.813 153.048 184.107 152.808 184.36C152.568 184.613 152.274 184.74 151.928 184.74ZM160.973 184.5V183.02H163.353V172.02H160.973V170.5H167.493V172.02H165.113V182.98H167.493V184.5H160.973ZM176.176 189.1V174.5H177.796V176.46C177.943 176.087 178.156 175.733 178.436 175.4C178.716 175.067 179.069 174.793 179.496 174.58C179.923 174.367 180.429 174.26 181.016 174.26C181.896 174.26 182.676 174.467 183.356 174.88C184.036 175.28 184.569 175.867 184.956 176.64C185.343 177.413 185.536 178.367 185.536 179.5C185.536 180.593 185.349 181.533 184.976 182.32C184.603 183.093 184.083 183.693 183.416 184.12C182.763 184.533 181.996 184.74 181.116 184.74C180.663 184.74 180.209 184.66 179.756 184.5C179.303 184.327 178.909 184.08 178.576 183.76C178.243 183.427 178.003 183.033 177.856 182.58V189.1H176.176ZM180.876 183.22C181.556 183.22 182.116 183.053 182.556 182.72C182.996 182.387 183.323 181.933 183.536 181.36C183.749 180.787 183.856 180.153 183.856 179.46C183.856 178.767 183.749 178.14 183.536 177.58C183.323 177.02 182.996 176.58 182.556 176.26C182.129 175.927 181.589 175.76 180.936 175.76C179.949 175.76 179.189 176.107 178.656 176.8C178.136 177.493 177.876 178.393 177.876 179.5C177.876 180.18 177.989 180.8 178.216 181.36C178.456 181.92 178.796 182.367 179.236 182.7C179.689 183.033 180.236 183.207 180.876 183.22ZM191.701 184.74C190.728 184.74 189.921 184.427 189.281 183.8C188.654 183.173 188.341 182.26 188.341 181.06V174.5H190.021V180.82C190.021 181.687 190.228 182.307 190.641 182.68C191.054 183.04 191.594 183.22 192.261 183.22C193.181 183.22 193.874 182.907 194.341 182.28C194.808 181.653 195.041 180.86 195.041 179.9V174.5H196.721V184.5H195.041V182.62C194.988 182.847 194.834 183.133 194.581 183.48C194.341 183.813 193.988 184.107 193.521 184.36C193.054 184.613 192.448 184.74 191.701 184.74ZM200.355 184.5V170.26H202.035V184.5H200.355ZM205.511 184.5V170.26H207.191V184.5H205.511ZM220.019 184.74C219.192 184.74 218.419 184.547 217.699 184.16C216.979 183.76 216.399 183.173 215.959 182.4C215.519 181.613 215.299 180.647 215.299 179.5C215.299 178.353 215.519 177.393 215.959 176.62C216.399 175.833 216.979 175.247 217.699 174.86C218.419 174.46 219.192 174.26 220.019 174.26C220.845 174.26 221.619 174.46 222.339 174.86C223.059 175.247 223.639 175.833 224.079 176.62C224.519 177.393 224.739 178.353 224.739 179.5C224.739 180.647 224.519 181.613 224.079 182.4C223.639 183.173 223.059 183.76 222.339 184.16C221.619 184.547 220.845 184.74 220.019 184.74ZM220.019 183.22C221.019 183.22 221.772 182.893 222.279 182.24C222.799 181.587 223.059 180.673 223.059 179.5C223.059 178.327 222.799 177.413 222.279 176.76C221.772 176.107 221.019 175.78 220.019 175.78C219.019 175.78 218.259 176.107 217.739 176.76C217.232 177.413 216.979 178.327 216.979 179.5C216.979 180.673 217.232 181.587 217.739 182.24C218.259 182.893 219.019 183.22 220.019 183.22ZM227.66 184.5V174.5H229.34V176.38C229.407 176.14 229.56 175.853 229.8 175.52C230.04 175.187 230.394 174.893 230.86 174.64C231.327 174.387 231.934 174.26 232.68 174.26C233.654 174.26 234.454 174.573 235.08 175.2C235.72 175.827 236.04 176.74 236.04 177.94V184.5H234.36V178.18C234.36 177.313 234.154 176.7 233.74 176.34C233.327 175.967 232.787 175.78 232.12 175.78C231.2 175.78 230.507 176.093 230.04 176.72C229.574 177.347 229.34 178.14 229.34 179.1V184.5H227.66ZM238.754 186.88C238.754 186.88 238.754 186.82 238.754 186.7C238.754 186.593 238.754 186.487 238.754 186.38C238.754 186.273 238.754 186.22 238.754 186.22C238.754 186.22 238.827 186.193 238.974 186.14C239.121 186.1 239.294 186.013 239.494 185.88C239.694 185.76 239.867 185.587 240.014 185.36C240.161 185.133 240.234 184.84 240.234 184.48C240.221 184.493 240.187 184.5 240.134 184.5C240.094 184.5 240.061 184.5 240.034 184.5C239.701 184.5 239.401 184.373 239.134 184.12C238.881 183.853 238.754 183.553 238.754 183.22C238.754 182.873 238.881 182.553 239.134 182.26C239.401 181.967 239.714 181.82 240.074 181.82C240.541 181.82 240.914 181.987 241.194 182.32C241.487 182.64 241.634 183.047 241.634 183.54C241.634 184.113 241.521 184.653 241.294 185.16C241.081 185.68 240.761 186.093 240.334 186.4C239.907 186.72 239.381 186.88 238.754 186.88ZM35.3947 213.1V198.5H37.0147V200.46C37.1614 200.087 37.3747 199.733 37.6547 199.4C37.9347 199.067 38.288 198.793 38.7147 198.58C39.1414 198.367 39.648 198.26 40.2347 198.26C41.1147 198.26 41.8947 198.467 42.5747 198.88C43.2547 199.28 43.788 199.867 44.1747 200.64C44.5614 201.413 44.7547 202.367 44.7547 203.5C44.7547 204.593 44.568 205.533 44.1947 206.32C43.8214 207.093 43.3014 207.693 42.6347 208.12C41.9814 208.533 41.2147 208.74 40.3347 208.74C39.8814 208.74 39.428 208.66 38.9747 208.5C38.5214 208.327 38.128 208.08 37.7947 207.76C37.4614 207.427 37.2214 207.033 37.0747 206.58V213.1H35.3947ZM40.0947 207.22C40.7747 207.22 41.3347 207.053 41.7747 206.72C42.2147 206.387 42.5414 205.933 42.7547 205.36C42.968 204.787 43.0747 204.153 43.0747 203.46C43.0747 202.767 42.968 202.14 42.7547 201.58C42.5414 201.02 42.2147 200.58 41.7747 200.26C41.348 199.927 40.808 199.76 40.1547 199.76C39.168 199.76 38.408 200.107 37.8747 200.8C37.3547 201.493 37.0947 202.393 37.0947 203.5C37.0947 204.18 37.208 204.8 37.4347 205.36C37.6747 205.92 38.0147 206.367 38.4547 206.7C38.908 207.033 39.4547 207.207 40.0947 207.22ZM50.9198 208.74C49.9465 208.74 49.1398 208.427 48.4998 207.8C47.8732 207.173 47.5598 206.26 47.5598 205.06V198.5H49.2398V204.82C49.2398 205.687 49.4465 206.307 49.8598 206.68C50.2732 207.04 50.8132 207.22 51.4798 207.22C52.3998 207.22 53.0932 206.907 53.5598 206.28C54.0265 205.653 54.2598 204.86 54.2598 203.9V198.5H55.9398V208.5H54.2598V206.62C54.2065 206.847 54.0532 207.133 53.7998 207.48C53.5598 207.813 53.2065 208.107 52.7398 208.36C52.2732 208.613 51.6665 208.74 50.9198 208.74ZM63.0934 208.74C62.0001 208.74 61.2268 208.493 60.7734 208C60.3201 207.507 60.0934 206.793 60.0934 205.86V200.04H58.2934V198.5H58.7534C59.3001 198.5 59.6601 198.413 59.8334 198.24C60.0068 198.053 60.0934 197.673 60.0934 197.1V195.96H61.7734V198.52H64.3534V200.04H61.7734V205.86C61.7734 206.393 61.9001 206.767 62.1534 206.98C62.4068 207.193 62.7801 207.3 63.2734 207.3C63.4068 207.3 63.5534 207.293 63.7134 207.28C63.8734 207.267 64.0334 207.247 64.1934 207.22V208.58C63.8334 208.687 63.4668 208.74 63.0934 208.74ZM72.2892 208.5V198.5H73.9692V200.38C74.0359 200.14 74.1892 199.853 74.4292 199.52C74.6692 199.187 75.0226 198.893 75.4892 198.64C75.9559 198.387 76.5626 198.26 77.3092 198.26C78.0692 198.26 78.7292 198.46 79.2892 198.86C79.8626 199.247 80.2626 199.82 80.4892 200.58V200.54C80.5559 200.3 80.7226 200 80.9892 199.64C81.2559 199.28 81.6359 198.96 82.1292 198.68C82.6359 198.4 83.2626 198.26 84.0092 198.26C84.9826 198.26 85.7826 198.573 86.4092 199.2C87.0492 199.827 87.3692 200.74 87.3692 201.94V208.5H85.6892V202.18C85.6892 201.313 85.4826 200.7 85.0692 200.34C84.6559 199.967 84.1159 199.78 83.4492 199.78C82.5292 199.78 81.8359 200.093 81.3692 200.72C80.9026 201.347 80.6692 202.14 80.6692 203.1V208.5H78.9892V202.18C78.9892 201.313 78.7826 200.7 78.3692 200.34C77.9559 199.967 77.4159 199.78 76.7492 199.78C75.8292 199.78 75.1359 200.093 74.6692 200.72C74.2026 201.347 73.9692 202.14 73.9692 203.1V208.5H72.2892ZM91.3811 213.1C91.1678 213.1 90.9678 213.08 90.7811 213.04C90.5944 213.013 90.4344 212.98 90.3011 212.94V211.42C90.4211 211.447 90.5678 211.467 90.7411 211.48C90.9144 211.493 91.0878 211.5 91.2611 211.5C91.5678 211.5 91.8478 211.42 92.1011 211.26C92.3678 211.113 92.6211 210.82 92.8611 210.38C93.1011 209.94 93.3411 209.293 93.5811 208.44L89.4211 198.5H91.1411L94.3611 206.12L97.0611 198.5H98.8411L94.8211 209.18C94.5011 210.047 94.1944 210.767 93.9011 211.34C93.6211 211.927 93.2878 212.367 92.9011 212.66C92.5144 212.953 92.0078 213.1 91.3811 213.1ZM107.294 208.5V200.02H105.374V198.5H107.294V196.98C107.294 196.047 107.52 195.333 107.974 194.84C108.44 194.347 109.22 194.1 110.314 194.1C110.474 194.1 110.654 194.113 110.854 194.14C111.067 194.167 111.26 194.207 111.434 194.26V195.62C111.274 195.593 111.107 195.573 110.934 195.56C110.774 195.547 110.627 195.54 110.494 195.54C110 195.54 109.62 195.647 109.354 195.86C109.1 196.073 108.974 196.453 108.974 197V198.5H111.534V200.02H108.974V208.5H107.294ZM117.734 208.74C116.907 208.74 116.134 208.547 115.414 208.16C114.694 207.76 114.114 207.173 113.674 206.4C113.234 205.613 113.014 204.647 113.014 203.5C113.014 202.353 113.234 201.393 113.674 200.62C114.114 199.833 114.694 199.247 115.414 198.86C116.134 198.46 116.907 198.26 117.734 198.26C118.56 198.26 119.334 198.46 120.054 198.86C120.774 199.247 121.354 199.833 121.794 200.62C122.234 201.393 122.454 202.353 122.454 203.5C122.454 204.647 122.234 205.613 121.794 206.4C121.354 207.173 120.774 207.76 120.054 208.16C119.334 208.547 118.56 208.74 117.734 208.74ZM117.734 207.22C118.734 207.22 119.487 206.893 119.994 206.24C120.514 205.587 120.774 204.673 120.774 203.5C120.774 202.327 120.514 201.413 119.994 200.76C119.487 200.107 118.734 199.78 117.734 199.78C116.734 199.78 115.974 200.107 115.454 200.76C114.947 201.413 114.694 202.327 114.694 203.5C114.694 204.673 114.947 205.587 115.454 206.24C115.974 206.893 116.734 207.22 117.734 207.22ZM129.335 208.74C128.508 208.74 127.735 208.547 127.015 208.16C126.295 207.76 125.715 207.173 125.275 206.4C124.835 205.613 124.615 204.647 124.615 203.5C124.615 202.353 124.835 201.393 125.275 200.62C125.715 199.833 126.295 199.247 127.015 198.86C127.735 198.46 128.508 198.26 129.335 198.26C130.162 198.26 130.935 198.46 131.655 198.86C132.375 199.247 132.955 199.833 133.395 200.62C133.835 201.393 134.055 202.353 134.055 203.5C134.055 204.647 133.835 205.613 133.395 206.4C132.955 207.173 132.375 207.76 131.655 208.16C130.935 208.547 130.162 208.74 129.335 208.74ZM129.335 207.22C130.335 207.22 131.088 206.893 131.595 206.24C132.115 205.587 132.375 204.673 132.375 203.5C132.375 202.327 132.115 201.413 131.595 200.76C131.088 200.107 130.335 199.78 129.335 199.78C128.335 199.78 127.575 200.107 127.055 200.76C126.548 201.413 126.295 202.327 126.295 203.5C126.295 204.673 126.548 205.587 127.055 206.24C127.575 206.893 128.335 207.22 129.335 207.22ZM140.457 208.74C139.363 208.74 138.59 208.493 138.137 208C137.683 207.507 137.457 206.793 137.457 205.86V200.04H135.657V198.5H136.117C136.663 198.5 137.023 198.413 137.197 198.24C137.37 198.053 137.457 197.673 137.457 197.1V195.96H139.137V198.52H141.717V200.04H139.137V205.86C139.137 206.393 139.263 206.767 139.517 206.98C139.77 207.193 140.143 207.3 140.637 207.3C140.77 207.3 140.917 207.293 141.077 207.28C141.237 207.267 141.397 207.247 141.557 207.22V208.58C141.197 208.687 140.83 208.74 140.457 208.74ZM152.893 208.74C151.919 208.74 151.113 208.427 150.473 207.8C149.846 207.173 149.533 206.26 149.533 205.06V198.5H151.213V204.82C151.213 205.687 151.419 206.307 151.833 206.68C152.246 207.04 152.786 207.22 153.453 207.22C154.373 207.22 155.066 206.907 155.533 206.28C155.999 205.653 156.233 204.86 156.233 203.9V198.5H157.912V208.5H156.233V206.62C156.179 206.847 156.026 207.133 155.773 207.48C155.533 207.813 155.179 208.107 154.713 208.36C154.246 208.613 153.639 208.74 152.893 208.74ZM161.586 213.1V198.5H163.206V200.46C163.353 200.087 163.566 199.733 163.846 199.4C164.126 199.067 164.479 198.793 164.906 198.58C165.333 198.367 165.839 198.26 166.426 198.26C167.306 198.26 168.086 198.467 168.766 198.88C169.446 199.28 169.979 199.867 170.366 200.64C170.753 201.413 170.946 202.367 170.946 203.5C170.946 204.593 170.759 205.533 170.386 206.32C170.013 207.093 169.493 207.693 168.826 208.12C168.173 208.533 167.406 208.74 166.526 208.74C166.073 208.74 165.619 208.66 165.166 208.5C164.713 208.327 164.319 208.08 163.986 207.76C163.653 207.427 163.413 207.033 163.266 206.58V213.1H161.586ZM166.286 207.22C166.966 207.22 167.526 207.053 167.966 206.72C168.406 206.387 168.733 205.933 168.946 205.36C169.159 204.787 169.266 204.153 169.266 203.46C169.266 202.767 169.159 202.14 168.946 201.58C168.733 201.02 168.406 200.58 167.966 200.26C167.539 199.927 166.999 199.76 166.346 199.76C165.359 199.76 164.599 200.107 164.066 200.8C163.546 201.493 163.286 202.393 163.286 203.5C163.286 204.18 163.399 204.8 163.626 205.36C163.866 205.92 164.206 206.367 164.646 206.7C165.099 207.033 165.646 207.207 166.286 207.22ZM173.031 210.88C173.031 210.88 173.031 210.82 173.031 210.7C173.031 210.593 173.031 210.487 173.031 210.38C173.031 210.273 173.031 210.22 173.031 210.22C173.031 210.22 173.105 210.193 173.251 210.14C173.398 210.1 173.571 210.013 173.771 209.88C173.971 209.76 174.145 209.587 174.291 209.36C174.438 209.133 174.511 208.84 174.511 208.48C174.498 208.493 174.465 208.5 174.411 208.5C174.371 208.5 174.338 208.5 174.311 208.5C173.978 208.5 173.678 208.373 173.411 208.12C173.158 207.853 173.031 207.553 173.031 207.22C173.031 206.873 173.158 206.553 173.411 206.26C173.678 205.967 173.991 205.82 174.351 205.82C174.818 205.82 175.191 205.987 175.471 206.32C175.765 206.64 175.911 207.047 175.911 207.54C175.911 208.113 175.798 208.653 175.571 209.16C175.358 209.68 175.038 210.093 174.611 210.4C174.185 210.72 173.658 210.88 173.031 210.88ZM187.766 208.74C186.899 208.74 186.132 208.533 185.466 208.12C184.799 207.693 184.279 207.093 183.906 206.32C183.532 205.533 183.346 204.593 183.346 203.5C183.346 202.367 183.539 201.413 183.926 200.64C184.312 199.867 184.846 199.28 185.526 198.88C186.219 198.467 186.999 198.26 187.866 198.26C188.452 198.26 188.959 198.367 189.386 198.58C189.812 198.793 190.166 199.067 190.446 199.4C190.739 199.733 190.952 200.087 191.086 200.46V198.5H192.686V208.5H191.026V206.58C190.892 207.033 190.652 207.427 190.306 207.76C189.972 208.08 189.579 208.327 189.126 208.5C188.686 208.66 188.232 208.74 187.766 208.74ZM188.006 207.22C188.646 207.22 189.186 207.053 189.626 206.72C190.079 206.373 190.419 205.92 190.646 205.36C190.886 204.8 191.006 204.18 191.006 203.5C191.006 202.393 190.739 201.493 190.206 200.8C189.686 200.107 188.932 199.76 187.946 199.76C187.292 199.76 186.746 199.927 186.306 200.26C185.879 200.58 185.559 201.02 185.346 201.58C185.132 202.14 185.026 202.767 185.026 203.46C185.026 204.153 185.132 204.787 185.346 205.36C185.559 205.92 185.886 206.373 186.326 206.72C186.779 207.053 187.339 207.22 188.006 207.22ZM196.254 208.5V198.5H197.934V200.38C198.001 200.14 198.154 199.853 198.394 199.52C198.634 199.187 198.987 198.893 199.454 198.64C199.921 198.387 200.527 198.26 201.274 198.26C202.247 198.26 203.047 198.573 203.674 199.2C204.314 199.827 204.634 200.74 204.634 201.94V208.5H202.954V202.18C202.954 201.313 202.747 200.7 202.334 200.34C201.921 199.967 201.381 199.78 200.714 199.78C199.794 199.78 199.101 200.093 198.634 200.72C198.167 201.347 197.934 202.14 197.934 203.1V208.5H196.254ZM211.948 208.74C211.081 208.74 210.301 208.54 209.608 208.14C208.928 207.727 208.394 207.133 208.008 206.36C207.621 205.573 207.428 204.62 207.428 203.5C207.428 202.407 207.614 201.473 207.988 200.7C208.361 199.913 208.881 199.313 209.548 198.9C210.214 198.473 210.981 198.26 211.848 198.26C212.314 198.26 212.768 198.347 213.208 198.52C213.661 198.68 214.054 198.92 214.388 199.24C214.734 199.56 214.974 199.953 215.108 200.42V194.26H216.788V205.98C216.788 206.38 216.874 206.667 217.048 206.84C217.221 207 217.554 207.027 218.048 206.92V208.28C217.914 208.36 217.768 208.42 217.608 208.46C217.461 208.5 217.261 208.52 217.008 208.52C216.488 208.52 216.054 208.367 215.708 208.06C215.361 207.753 215.188 207.247 215.188 206.54C215.041 206.9 214.828 207.253 214.548 207.6C214.268 207.933 213.908 208.207 213.468 208.42C213.041 208.633 212.534 208.74 211.948 208.74ZM212.028 207.24C213.014 207.24 213.768 206.893 214.288 206.2C214.821 205.493 215.088 204.593 215.088 203.5C215.088 202.82 214.968 202.2 214.728 201.64C214.501 201.067 214.161 200.613 213.708 200.28C213.268 199.947 212.728 199.78 212.088 199.78C211.421 199.78 210.861 199.953 210.408 200.3C209.968 200.633 209.641 201.087 209.428 201.66C209.214 202.22 209.108 202.847 209.108 203.54C209.108 204.233 209.214 204.86 209.428 205.42C209.641 205.98 209.961 206.427 210.388 206.76C210.828 207.08 211.374 207.24 212.028 207.24ZM229.738 208.74C228.872 208.74 228.105 208.533 227.438 208.12C226.772 207.693 226.252 207.093 225.878 206.32C225.505 205.533 225.318 204.593 225.318 203.5C225.318 202.367 225.512 201.413 225.898 200.64C226.285 199.867 226.818 199.28 227.498 198.88C228.192 198.467 228.972 198.26 229.838 198.26C230.425 198.26 230.932 198.367 231.358 198.58C231.785 198.793 232.138 199.067 232.418 199.4C232.712 199.733 232.925 200.087 233.058 200.46V198.5H234.658V208.5H232.998V206.58C232.865 207.033 232.625 207.427 232.278 207.76C231.945 208.08 231.552 208.327 231.098 208.5C230.658 208.66 230.205 208.74 229.738 208.74ZM229.978 207.22C230.618 207.22 231.158 207.053 231.598 206.72C232.052 206.373 232.392 205.92 232.618 205.36C232.858 204.8 232.978 204.18 232.978 203.5C232.978 202.393 232.712 201.493 232.178 200.8C231.658 200.107 230.905 199.76 229.918 199.76C229.265 199.76 228.718 199.927 228.278 200.26C227.852 200.58 227.532 201.02 227.318 201.58C227.105 202.14 226.998 202.767 226.998 203.46C226.998 204.153 227.105 204.787 227.318 205.36C227.532 205.92 227.858 206.373 228.298 206.72C228.752 207.053 229.312 207.22 229.978 207.22ZM241.307 208.74C240.64 208.74 240.007 208.6 239.407 208.32C238.807 208.027 238.32 207.627 237.947 207.12C237.573 206.613 237.387 206.033 237.387 205.38H239.187C239.187 205.793 239.307 206.14 239.547 206.42C239.787 206.687 240.08 206.887 240.427 207.02C240.773 207.153 241.113 207.22 241.447 207.22C242.113 207.22 242.647 207.1 243.047 206.86C243.447 206.62 243.647 206.253 243.647 205.76C243.647 205.32 243.5 204.993 243.207 204.78C242.913 204.553 242.54 204.387 242.087 204.28C241.633 204.16 241.147 204.053 240.627 203.96C240.107 203.867 239.62 203.733 239.167 203.56C238.713 203.387 238.34 203.12 238.047 202.76C237.753 202.4 237.607 201.9 237.607 201.26C237.607 200.767 237.74 200.293 238.007 199.84C238.273 199.387 238.673 199.013 239.207 198.72C239.753 198.413 240.433 198.26 241.247 198.26C242.22 198.26 242.987 198.42 243.547 198.74C244.12 199.047 244.527 199.427 244.767 199.88C245.02 200.32 245.147 200.747 245.147 201.16H243.427C243.427 200.827 243.24 200.513 242.867 200.22C242.493 199.927 241.947 199.78 241.227 199.78C240.573 199.78 240.087 199.913 239.767 200.18C239.447 200.433 239.287 200.773 239.287 201.2C239.287 201.573 239.433 201.86 239.727 202.06C240.02 202.26 240.393 202.42 240.847 202.54C241.313 202.647 241.8 202.76 242.307 202.88C242.827 202.987 243.313 203.147 243.767 203.36C244.233 203.56 244.613 203.853 244.907 204.24C245.2 204.613 245.347 205.12 245.347 205.76C245.347 206.293 245.2 206.787 244.907 207.24C244.627 207.693 244.187 208.06 243.587 208.34C243 208.607 242.24 208.74 241.307 208.74ZM55.3985 232.74C54.7318 232.74 54.0985 232.6 53.4985 232.32C52.8985 232.027 52.4118 231.627 52.0385 231.12C51.6652 230.613 51.4785 230.033 51.4785 229.38H53.2785C53.2785 229.793 53.3985 230.14 53.6385 230.42C53.8785 230.687 54.1718 230.887 54.5185 231.02C54.8652 231.153 55.2052 231.22 55.5385 231.22C56.2052 231.22 56.7385 231.1 57.1385 230.86C57.5385 230.62 57.7385 230.253 57.7385 229.76C57.7385 229.32 57.5918 228.993 57.2985 228.78C57.0052 228.553 56.6318 228.387 56.1785 228.28C55.7252 228.16 55.2385 228.053 54.7185 227.96C54.1985 227.867 53.7118 227.733 53.2585 227.56C52.8052 227.387 52.4318 227.12 52.1385 226.76C51.8452 226.4 51.6985 225.9 51.6985 225.26C51.6985 224.767 51.8318 224.293 52.0985 223.84C52.3652 223.387 52.7652 223.013 53.2985 222.72C53.8452 222.413 54.5252 222.26 55.3385 222.26C56.3118 222.26 57.0785 222.42 57.6385 222.74C58.2118 223.047 58.6185 223.427 58.8585 223.88C59.1118 224.32 59.2385 224.747 59.2385 225.16H57.5185C57.5185 224.827 57.3318 224.513 56.9585 224.22C56.5852 223.927 56.0385 223.78 55.3185 223.78C54.6652 223.78 54.1785 223.913 53.8585 224.18C53.5385 224.433 53.3785 224.773 53.3785 225.2C53.3785 225.573 53.5252 225.86 53.8185 226.06C54.1118 226.26 54.4852 226.42 54.9385 226.54C55.4052 226.647 55.8918 226.76 56.3985 226.88C56.9185 226.987 57.4052 227.147 57.8585 227.36C58.3252 227.56 58.7052 227.853 58.9985 228.24C59.2918 228.613 59.4385 229.12 59.4385 229.76C59.4385 230.293 59.2918 230.787 58.9985 231.24C58.7185 231.693 58.2785 232.06 57.6785 232.34C57.0918 232.607 56.3318 232.74 55.3985 232.74ZM66.3371 232.74C65.5104 232.74 64.7371 232.547 64.0171 232.16C63.2971 231.76 62.7171 231.173 62.2771 230.4C61.8371 229.613 61.6171 228.647 61.6171 227.5C61.6171 226.353 61.8371 225.393 62.2771 224.62C62.7171 223.833 63.2971 223.247 64.0171 222.86C64.7371 222.46 65.5104 222.26 66.3371 222.26C67.1638 222.26 67.9371 222.46 68.6571 222.86C69.3771 223.247 69.9571 223.833 70.3971 224.62C70.8371 225.393 71.0571 226.353 71.0571 227.5C71.0571 228.647 70.8371 229.613 70.3971 230.4C69.9571 231.173 69.3771 231.76 68.6571 232.16C67.9371 232.547 67.1638 232.74 66.3371 232.74ZM66.3371 231.22C67.3371 231.22 68.0904 230.893 68.5971 230.24C69.1171 229.587 69.3771 228.673 69.3771 227.5C69.3771 226.327 69.1171 225.413 68.5971 224.76C68.0904 224.107 67.3371 223.78 66.3371 223.78C65.3371 223.78 64.5771 224.107 64.0571 224.76C63.5504 225.413 63.2971 226.327 63.2971 227.5C63.2971 228.673 63.5504 229.587 64.0571 230.24C64.5771 230.893 65.3371 231.22 66.3371 231.22ZM77.9387 232.74C77.112 232.74 76.3387 232.547 75.6187 232.16C74.8987 231.76 74.3187 231.173 73.8787 230.4C73.4387 229.613 73.2187 228.647 73.2187 227.5C73.2187 226.353 73.4387 225.393 73.8787 224.62C74.3187 223.833 74.8987 223.247 75.6187 222.86C76.3387 222.46 77.112 222.26 77.9387 222.26C78.7653 222.26 79.5387 222.46 80.2587 222.86C80.9787 223.247 81.5587 223.833 81.9987 224.62C82.4387 225.393 82.6587 226.353 82.6587 227.5C82.6587 228.647 82.4387 229.613 81.9987 230.4C81.5587 231.173 80.9787 231.76 80.2587 232.16C79.5387 232.547 78.7653 232.74 77.9387 232.74ZM77.9387 231.22C78.9387 231.22 79.692 230.893 80.1987 230.24C80.7187 229.587 80.9787 228.673 80.9787 227.5C80.9787 226.327 80.7187 225.413 80.1987 224.76C79.692 224.107 78.9387 223.78 77.9387 223.78C76.9387 223.78 76.1787 224.107 75.6587 224.76C75.152 225.413 74.8987 226.327 74.8987 227.5C74.8987 228.673 75.152 229.587 75.6587 230.24C76.1787 230.893 76.9387 231.22 77.9387 231.22ZM85.5802 232.5V222.5H87.2602V224.38C87.3269 224.14 87.4802 223.853 87.7202 223.52C87.9602 223.187 88.3136 222.893 88.7802 222.64C89.2469 222.387 89.8536 222.26 90.6002 222.26C91.5736 222.26 92.3736 222.573 93.0002 223.2C93.6402 223.827 93.9602 224.74 93.9602 225.94V232.5H92.2802V226.18C92.2802 225.313 92.0736 224.7 91.6602 224.34C91.2469 223.967 90.7069 223.78 90.0402 223.78C89.1202 223.78 88.4269 224.093 87.9602 224.72C87.4936 225.347 87.2602 226.14 87.2602 227.1V232.5H85.5802ZM106.525 232.74C105.659 232.74 104.892 232.533 104.225 232.12C103.559 231.693 103.039 231.093 102.665 230.32C102.292 229.533 102.105 228.593 102.105 227.5C102.105 226.367 102.299 225.413 102.685 224.64C103.072 223.867 103.605 223.28 104.285 222.88C104.979 222.467 105.759 222.26 106.625 222.26C107.212 222.26 107.719 222.367 108.145 222.58C108.572 222.793 108.925 223.067 109.205 223.4C109.499 223.733 109.712 224.087 109.845 224.46V222.5H111.445V232.5H109.785V230.58C109.652 231.033 109.412 231.427 109.065 231.76C108.732 232.08 108.339 232.327 107.885 232.5C107.445 232.66 106.992 232.74 106.525 232.74ZM106.765 231.22C107.405 231.22 107.945 231.053 108.385 230.72C108.839 230.373 109.179 229.92 109.405 229.36C109.645 228.8 109.765 228.18 109.765 227.5C109.765 226.393 109.499 225.493 108.965 224.8C108.445 224.107 107.692 223.76 106.705 223.76C106.052 223.76 105.505 223.927 105.065 224.26C104.639 224.58 104.319 225.02 104.105 225.58C103.892 226.14 103.785 226.767 103.785 227.46C103.785 228.153 103.892 228.787 104.105 229.36C104.319 229.92 104.645 230.373 105.085 230.72C105.539 231.053 106.099 231.22 106.765 231.22ZM118.094 232.74C117.427 232.74 116.794 232.6 116.194 232.32C115.594 232.027 115.107 231.627 114.734 231.12C114.36 230.613 114.174 230.033 114.174 229.38H115.974C115.974 229.793 116.094 230.14 116.334 230.42C116.574 230.687 116.867 230.887 117.214 231.02C117.56 231.153 117.9 231.22 118.234 231.22C118.9 231.22 119.434 231.1 119.834 230.86C120.234 230.62 120.434 230.253 120.434 229.76C120.434 229.32 120.287 228.993 119.994 228.78C119.7 228.553 119.327 228.387 118.874 228.28C118.42 228.16 117.934 228.053 117.414 227.96C116.894 227.867 116.407 227.733 115.954 227.56C115.5 227.387 115.127 227.12 114.834 226.76C114.54 226.4 114.394 225.9 114.394 225.26C114.394 224.767 114.527 224.293 114.794 223.84C115.06 223.387 115.46 223.013 115.994 222.72C116.54 222.413 117.22 222.26 118.034 222.26C119.007 222.26 119.774 222.42 120.334 222.74C120.907 223.047 121.314 223.427 121.554 223.88C121.807 224.32 121.934 224.747 121.934 225.16H120.214C120.214 224.827 120.027 224.513 119.654 224.22C119.28 223.927 118.734 223.78 118.014 223.78C117.36 223.78 116.874 223.913 116.554 224.18C116.234 224.433 116.074 224.773 116.074 225.2C116.074 225.573 116.22 225.86 116.514 226.06C116.807 226.26 117.18 226.42 117.634 226.54C118.1 226.647 118.587 226.76 119.094 226.88C119.614 226.987 120.1 227.147 120.554 227.36C121.02 227.56 121.4 227.853 121.694 228.24C121.987 228.613 122.134 229.12 122.134 229.76C122.134 230.293 121.987 230.787 121.694 231.24C121.414 231.693 120.974 232.06 120.374 232.34C119.787 232.607 119.027 232.74 118.094 232.74ZM130.084 232.5V231.02H132.464V220.02H130.084V218.5H136.604V220.02H134.224V230.98H136.604V232.5H130.084ZM145.247 232.5V218.26H146.927V232.5H145.247ZM154.424 232.76C153.584 232.76 152.804 232.553 152.084 232.14C151.364 231.713 150.784 231.107 150.344 230.32C149.904 229.533 149.684 228.607 149.684 227.54C149.684 226.447 149.904 225.507 150.344 224.72C150.784 223.933 151.364 223.327 152.084 222.9C152.804 222.473 153.584 222.26 154.424 222.26C155.277 222.26 156.044 222.44 156.724 222.8C157.417 223.147 157.964 223.693 158.364 224.44C158.777 225.173 158.984 226.12 158.984 227.28V227.9H151.344C151.397 228.86 151.677 229.66 152.184 230.3C152.69 230.927 153.424 231.24 154.384 231.24C154.984 231.24 155.53 231.1 156.024 230.82C156.517 230.54 156.904 230.147 157.184 229.64L158.664 230.24C157.837 231.92 156.424 232.76 154.424 232.76ZM154.384 223.78C153.57 223.78 152.917 224.033 152.424 224.54C151.944 225.033 151.624 225.66 151.464 226.42H157.304C157.304 226.047 157.19 225.66 156.964 225.26C156.75 224.847 156.43 224.5 156.004 224.22C155.577 223.927 155.037 223.78 154.384 223.78ZM165.49 232.74C164.624 232.74 163.857 232.533 163.19 232.12C162.524 231.693 162.004 231.093 161.63 230.32C161.257 229.533 161.07 228.593 161.07 227.5C161.07 226.367 161.264 225.413 161.65 224.64C162.037 223.867 162.57 223.28 163.25 222.88C163.944 222.467 164.724 222.26 165.59 222.26C166.177 222.26 166.684 222.367 167.11 222.58C167.537 222.793 167.89 223.067 168.17 223.4C168.464 223.733 168.677 224.087 168.81 224.46V222.5H170.41V232.5H168.75V230.58C168.617 231.033 168.377 231.427 168.03 231.76C167.697 232.08 167.304 232.327 166.85 232.5C166.41 232.66 165.957 232.74 165.49 232.74ZM165.73 231.22C166.37 231.22 166.91 231.053 167.35 230.72C167.804 230.373 168.144 229.92 168.37 229.36C168.61 228.8 168.73 228.18 168.73 227.5C168.73 226.393 168.464 225.493 167.93 224.8C167.41 224.107 166.657 223.76 165.67 223.76C165.017 223.76 164.47 223.927 164.03 224.26C163.604 224.58 163.284 225.02 163.07 225.58C162.857 226.14 162.75 226.767 162.75 227.46C162.75 228.153 162.857 228.787 163.07 229.36C163.284 229.92 163.61 230.373 164.05 230.72C164.504 231.053 165.064 231.22 165.73 231.22ZM176.099 232.5L172.479 222.5H174.159L177.179 230.82L180.199 222.5H181.799L178.179 232.5H176.099ZM187.959 232.76C187.119 232.76 186.339 232.553 185.619 232.14C184.899 231.713 184.319 231.107 183.879 230.32C183.439 229.533 183.219 228.607 183.219 227.54C183.219 226.447 183.439 225.507 183.879 224.72C184.319 223.933 184.899 223.327 185.619 222.9C186.339 222.473 187.119 222.26 187.959 222.26C188.812 222.26 189.579 222.44 190.259 222.8C190.952 223.147 191.499 223.693 191.899 224.44C192.312 225.173 192.519 226.12 192.519 227.28V227.9H184.879C184.932 228.86 185.212 229.66 185.719 230.3C186.225 230.927 186.959 231.24 187.919 231.24C188.519 231.24 189.065 231.1 189.559 230.82C190.052 230.54 190.439 230.147 190.719 229.64L192.199 230.24C191.372 231.92 189.959 232.76 187.959 232.76ZM187.919 223.78C187.105 223.78 186.452 224.033 185.959 224.54C185.479 225.033 185.159 225.66 184.999 226.42H190.839C190.839 226.047 190.725 225.66 190.499 225.26C190.285 224.847 189.965 224.5 189.539 224.22C189.112 223.927 188.572 223.78 187.919 223.78ZM204.197 232.74C203.104 232.74 202.33 232.493 201.877 232C201.424 231.507 201.197 230.793 201.197 229.86V224.04H199.397V222.5H199.857C200.404 222.5 200.764 222.413 200.937 222.24C201.11 222.053 201.197 221.673 201.197 221.1V219.96H202.877V222.52H205.457V224.04H202.877V229.86C202.877 230.393 203.004 230.767 203.257 230.98C203.51 231.193 203.884 231.3 204.377 231.3C204.51 231.3 204.657 231.293 204.817 231.28C204.977 231.267 205.137 231.247 205.297 231.22V232.58C204.937 232.687 204.57 232.74 204.197 232.74ZM208.041 232.5V218.26H209.721V224.38C209.788 224.14 209.941 223.853 210.181 223.52C210.421 223.187 210.775 222.893 211.241 222.64C211.708 222.387 212.315 222.26 213.061 222.26C214.035 222.26 214.835 222.573 215.461 223.2C216.101 223.827 216.421 224.74 216.421 225.94V232.5H214.741V226.18C214.741 225.313 214.535 224.7 214.121 224.34C213.708 223.967 213.168 223.78 212.501 223.78C211.581 223.78 210.888 224.093 210.421 224.72C209.955 225.347 209.721 226.14 209.721 227.1V232.5H208.041ZM223.955 232.76C223.115 232.76 222.335 232.553 221.615 232.14C220.895 231.713 220.315 231.107 219.875 230.32C219.435 229.533 219.215 228.607 219.215 227.54C219.215 226.447 219.435 225.507 219.875 224.72C220.315 223.933 220.895 223.327 221.615 222.9C222.335 222.473 223.115 222.26 223.955 222.26C224.808 222.26 225.575 222.44 226.255 222.8C226.948 223.147 227.495 223.693 227.895 224.44C228.308 225.173 228.515 226.12 228.515 227.28V227.9H220.875C220.928 228.86 221.208 229.66 221.715 230.3C222.221 230.927 222.955 231.24 223.915 231.24C224.515 231.24 225.061 231.1 225.555 230.82C226.048 230.54 226.435 230.147 226.715 229.64L228.195 230.24C227.368 231.92 225.955 232.76 223.955 232.76ZM223.915 223.78C223.101 223.78 222.448 224.033 221.955 224.54C221.475 225.033 221.155 225.66 220.995 226.42H226.835C226.835 226.047 226.721 225.66 226.495 225.26C226.281 224.847 225.961 224.5 225.535 224.22C225.108 223.927 224.568 223.78 223.915 223.78ZM46.3227 261.1C45.456 261.087 44.6427 260.893 43.8827 260.52C43.1227 260.147 42.5493 259.52 42.1627 258.64L43.4827 257.82C43.736 258.407 44.1093 258.853 44.6027 259.16C45.096 259.467 45.676 259.62 46.3427 259.62C47.4493 259.62 48.2493 259.327 48.7427 258.74C49.236 258.153 49.4827 257.293 49.4827 256.16V254.58C49.3493 255.033 49.1093 255.427 48.7627 255.76C48.4293 256.08 48.036 256.327 47.5827 256.5C47.1427 256.66 46.6893 256.74 46.2227 256.74C45.356 256.74 44.5893 256.533 43.9227 256.12C43.256 255.693 42.736 255.093 42.3627 254.32C41.9893 253.533 41.8027 252.593 41.8027 251.5C41.8027 250.367 41.996 249.413 42.3827 248.64C42.7693 247.867 43.3027 247.28 43.9827 246.88C44.676 246.467 45.456 246.26 46.3227 246.26C46.9093 246.26 47.416 246.367 47.8427 246.58C48.2693 246.793 48.6227 247.067 48.9027 247.4C49.196 247.733 49.4093 248.087 49.5427 248.46V246.5H51.1427V256.16C51.1427 257.413 50.9227 258.4 50.4827 259.12C50.056 259.853 49.476 260.367 48.7427 260.66C48.0093 260.967 47.2027 261.113 46.3227 261.1ZM46.4627 255.22C47.1027 255.22 47.6427 255.053 48.0827 254.72C48.536 254.373 48.876 253.92 49.1027 253.36C49.3427 252.8 49.4627 252.18 49.4627 251.5C49.4627 250.393 49.196 249.493 48.6627 248.8C48.1427 248.107 47.3893 247.76 46.4027 247.76C45.7493 247.76 45.2027 247.927 44.7627 248.26C44.336 248.58 44.016 249.02 43.8027 249.58C43.5893 250.14 43.4827 250.767 43.4827 251.46C43.4827 252.153 43.5893 252.787 43.8027 253.36C44.016 253.92 44.3427 254.373 44.7827 254.72C45.236 255.053 45.796 255.22 46.4627 255.22ZM54.7111 256.5V246.5H56.3911V248.48C56.5244 248.12 56.7111 247.773 56.9511 247.44C57.2044 247.093 57.5444 246.813 57.9711 246.6C58.4111 246.373 58.9711 246.26 59.6511 246.26C59.7578 246.26 59.9044 246.273 60.0911 246.3C60.2778 246.313 60.4178 246.327 60.5111 246.34V247.9C60.3111 247.833 60.0578 247.787 59.7511 247.76C59.4444 247.72 59.1644 247.727 58.9111 247.78C58.0978 247.94 57.4711 248.293 57.0311 248.84C56.6044 249.387 56.3911 250.14 56.3911 251.1V256.5H54.7111ZM66.718 256.74C65.8913 256.74 65.118 256.547 64.398 256.16C63.678 255.76 63.098 255.173 62.658 254.4C62.218 253.613 61.998 252.647 61.998 251.5C61.998 250.353 62.218 249.393 62.658 248.62C63.098 247.833 63.678 247.247 64.398 246.86C65.118 246.46 65.8913 246.26 66.718 246.26C67.5446 246.26 68.318 246.46 69.038 246.86C69.758 247.247 70.338 247.833 70.778 248.62C71.218 249.393 71.438 250.353 71.438 251.5C71.438 252.647 71.218 253.613 70.778 254.4C70.338 255.173 69.758 255.76 69.038 256.16C68.318 256.547 67.5446 256.74 66.718 256.74ZM66.718 255.22C67.718 255.22 68.4713 254.893 68.978 254.24C69.498 253.587 69.758 252.673 69.758 251.5C69.758 250.327 69.498 249.413 68.978 248.76C68.4713 248.107 67.718 247.78 66.718 247.78C65.718 247.78 64.958 248.107 64.438 248.76C63.9313 249.413 63.678 250.327 63.678 251.5C63.678 252.673 63.9313 253.587 64.438 254.24C64.958 254.893 65.718 255.22 66.718 255.22ZM77.5995 256.74C76.6262 256.74 75.8195 256.427 75.1795 255.8C74.5529 255.173 74.2395 254.26 74.2395 253.06V246.5H75.9195V252.82C75.9195 253.687 76.1262 254.307 76.5395 254.68C76.9529 255.04 77.4929 255.22 78.1595 255.22C79.0795 255.22 79.7729 254.907 80.2395 254.28C80.7062 253.653 80.9395 252.86 80.9395 251.9V246.5H82.6195V256.5H80.9395V254.62C80.8862 254.847 80.7329 255.133 80.4795 255.48C80.2395 255.813 79.8862 256.107 79.4195 256.36C78.9529 256.613 78.3462 256.74 77.5995 256.74ZM86.2931 256.5V246.5H87.9731V248.38C88.0398 248.14 88.1931 247.853 88.4331 247.52C88.6731 247.187 89.0265 246.893 89.4931 246.64C89.9598 246.387 90.5665 246.26 91.3131 246.26C92.2865 246.26 93.0865 246.573 93.7131 247.2C94.3531 247.827 94.6731 248.74 94.6731 249.94V256.5H92.9931V250.18C92.9931 249.313 92.7865 248.7 92.3731 248.34C91.9598 247.967 91.4198 247.78 90.7531 247.78C89.8331 247.78 89.1398 248.093 88.6731 248.72C88.2065 249.347 87.9731 250.14 87.9731 251.1V256.5H86.2931ZM101.987 256.74C101.12 256.74 100.34 256.54 99.6467 256.14C98.9667 255.727 98.4334 255.133 98.0467 254.36C97.6601 253.573 97.4667 252.62 97.4667 251.5C97.4667 250.407 97.6534 249.473 98.0267 248.7C98.4001 247.913 98.9201 247.313 99.5867 246.9C100.253 246.473 101.02 246.26 101.887 246.26C102.353 246.26 102.807 246.347 103.247 246.52C103.7 246.68 104.093 246.92 104.427 247.24C104.773 247.56 105.013 247.953 105.147 248.42V242.26H106.827V253.98C106.827 254.38 106.913 254.667 107.087 254.84C107.26 255 107.593 255.027 108.087 254.92V256.28C107.953 256.36 107.807 256.42 107.647 256.46C107.5 256.5 107.3 256.52 107.047 256.52C106.527 256.52 106.093 256.367 105.747 256.06C105.4 255.753 105.227 255.247 105.227 254.54C105.08 254.9 104.867 255.253 104.587 255.6C104.307 255.933 103.947 256.207 103.507 256.42C103.08 256.633 102.573 256.74 101.987 256.74ZM102.067 255.24C103.053 255.24 103.807 254.893 104.327 254.2C104.86 253.493 105.127 252.593 105.127 251.5C105.127 250.82 105.007 250.2 104.767 249.64C104.54 249.067 104.2 248.613 103.747 248.28C103.307 247.947 102.767 247.78 102.127 247.78C101.46 247.78 100.9 247.953 100.447 248.3C100.007 248.633 99.6801 249.087 99.4667 249.66C99.2534 250.22 99.1467 250.847 99.1467 251.54C99.1467 252.233 99.2534 252.86 99.4667 253.42C99.6801 253.98 100 254.427 100.427 254.76C100.867 255.08 101.413 255.24 102.067 255.24ZM109.926 258.88C109.926 258.88 109.926 258.82 109.926 258.7C109.926 258.593 109.926 258.487 109.926 258.38C109.926 258.273 109.926 258.22 109.926 258.22C109.926 258.22 109.999 258.193 110.146 258.14C110.292 258.1 110.466 258.013 110.666 257.88C110.866 257.76 111.039 257.587 111.186 257.36C111.332 257.133 111.406 256.84 111.406 256.48C111.392 256.493 111.359 256.5 111.306 256.5C111.266 256.5 111.232 256.5 111.206 256.5C110.872 256.5 110.572 256.373 110.306 256.12C110.052 255.853 109.926 255.553 109.926 255.22C109.926 254.873 110.052 254.553 110.306 254.26C110.572 253.967 110.886 253.82 111.246 253.82C111.712 253.82 112.086 253.987 112.366 254.32C112.659 254.64 112.806 255.047 112.806 255.54C112.806 256.113 112.692 256.653 112.466 257.16C112.252 257.68 111.932 258.093 111.506 258.4C111.079 258.72 110.552 258.88 109.926 258.88ZM121 256.5V246.5H122.68V248.38C122.747 248.14 122.9 247.853 123.14 247.52C123.38 247.187 123.733 246.893 124.2 246.64C124.667 246.387 125.273 246.26 126.02 246.26C126.78 246.26 127.44 246.46 128 246.86C128.573 247.247 128.973 247.82 129.2 248.58V248.54C129.267 248.3 129.433 248 129.7 247.64C129.967 247.28 130.347 246.96 130.84 246.68C131.347 246.4 131.973 246.26 132.72 246.26C133.693 246.26 134.493 246.573 135.12 247.2C135.76 247.827 136.08 248.74 136.08 249.94V256.5H134.4V250.18C134.4 249.313 134.193 248.7 133.78 248.34C133.367 247.967 132.827 247.78 132.16 247.78C131.24 247.78 130.547 248.093 130.08 248.72C129.613 249.347 129.38 250.14 129.38 251.1V256.5H127.7V250.18C127.7 249.313 127.493 248.7 127.08 248.34C126.667 247.967 126.127 247.78 125.46 247.78C124.54 247.78 123.847 248.093 123.38 248.72C122.913 249.347 122.68 250.14 122.68 251.1V256.5H121ZM140.092 261.1C139.879 261.1 139.679 261.08 139.492 261.04C139.305 261.013 139.145 260.98 139.012 260.94V259.42C139.132 259.447 139.279 259.467 139.452 259.48C139.625 259.493 139.799 259.5 139.972 259.5C140.279 259.5 140.559 259.42 140.812 259.26C141.079 259.113 141.332 258.82 141.572 258.38C141.812 257.94 142.052 257.293 142.292 256.44L138.132 246.5H139.852L143.072 254.12L145.772 246.5H147.552L143.532 257.18C143.212 258.047 142.905 258.767 142.612 259.34C142.332 259.927 141.999 260.367 141.612 260.66C141.225 260.953 140.719 261.1 140.092 261.1ZM156.005 256.5V248.02H154.085V246.5H156.005V244.98C156.005 244.047 156.231 243.333 156.685 242.84C157.151 242.347 157.931 242.1 159.025 242.1C159.185 242.1 159.365 242.113 159.565 242.14C159.778 242.167 159.971 242.207 160.145 242.26V243.62C159.985 243.593 159.818 243.573 159.645 243.56C159.485 243.547 159.338 243.54 159.205 243.54C158.711 243.54 158.331 243.647 158.065 243.86C157.811 244.073 157.685 244.453 157.685 245V246.5H160.245V248.02H157.685V256.5H156.005ZM166.445 256.74C165.618 256.74 164.845 256.547 164.125 256.16C163.405 255.76 162.825 255.173 162.385 254.4C161.945 253.613 161.725 252.647 161.725 251.5C161.725 250.353 161.945 249.393 162.385 248.62C162.825 247.833 163.405 247.247 164.125 246.86C164.845 246.46 165.618 246.26 166.445 246.26C167.271 246.26 168.045 246.46 168.765 246.86C169.485 247.247 170.065 247.833 170.505 248.62C170.945 249.393 171.165 250.353 171.165 251.5C171.165 252.647 170.945 253.613 170.505 254.4C170.065 255.173 169.485 255.76 168.765 256.16C168.045 256.547 167.271 256.74 166.445 256.74ZM166.445 255.22C167.445 255.22 168.198 254.893 168.705 254.24C169.225 253.587 169.485 252.673 169.485 251.5C169.485 250.327 169.225 249.413 168.705 248.76C168.198 248.107 167.445 247.78 166.445 247.78C165.445 247.78 164.685 248.107 164.165 248.76C163.658 249.413 163.405 250.327 163.405 251.5C163.405 252.673 163.658 253.587 164.165 254.24C164.685 254.893 165.445 255.22 166.445 255.22ZM178.046 256.74C177.219 256.74 176.446 256.547 175.726 256.16C175.006 255.76 174.426 255.173 173.986 254.4C173.546 253.613 173.326 252.647 173.326 251.5C173.326 250.353 173.546 249.393 173.986 248.62C174.426 247.833 175.006 247.247 175.726 246.86C176.446 246.46 177.219 246.26 178.046 246.26C178.873 246.26 179.646 246.46 180.366 246.86C181.086 247.247 181.666 247.833 182.106 248.62C182.546 249.393 182.766 250.353 182.766 251.5C182.766 252.647 182.546 253.613 182.106 254.4C181.666 255.173 181.086 255.76 180.366 256.16C179.646 256.547 178.873 256.74 178.046 256.74ZM178.046 255.22C179.046 255.22 179.799 254.893 180.306 254.24C180.826 253.587 181.086 252.673 181.086 251.5C181.086 250.327 180.826 249.413 180.306 248.76C179.799 248.107 179.046 247.78 178.046 247.78C177.046 247.78 176.286 248.107 175.766 248.76C175.259 249.413 175.006 250.327 175.006 251.5C175.006 252.673 175.259 253.587 175.766 254.24C176.286 254.893 177.046 255.22 178.046 255.22ZM189.168 256.74C188.074 256.74 187.301 256.493 186.848 256C186.394 255.507 186.168 254.793 186.168 253.86V248.04H184.368V246.5H184.828C185.374 246.5 185.734 246.413 185.908 246.24C186.081 246.053 186.168 245.673 186.168 245.1V243.96H187.848V246.52H190.428V248.04H187.848V253.86C187.848 254.393 187.974 254.767 188.228 254.98C188.481 255.193 188.854 255.3 189.348 255.3C189.481 255.3 189.628 255.293 189.788 255.28C189.948 255.267 190.108 255.247 190.268 255.22V256.58C189.908 256.687 189.541 256.74 189.168 256.74ZM201.443 256.74C200.777 256.74 200.143 256.6 199.543 256.32C198.943 256.027 198.457 255.627 198.083 255.12C197.71 254.613 197.523 254.033 197.523 253.38H199.323C199.323 253.793 199.443 254.14 199.683 254.42C199.923 254.687 200.217 254.887 200.563 255.02C200.91 255.153 201.25 255.22 201.583 255.22C202.25 255.22 202.783 255.1 203.183 254.86C203.583 254.62 203.783 254.253 203.783 253.76C203.783 253.32 203.637 252.993 203.343 252.78C203.05 252.553 202.677 252.387 202.223 252.28C201.77 252.16 201.283 252.053 200.763 251.96C200.243 251.867 199.757 251.733 199.303 251.56C198.85 251.387 198.477 251.12 198.183 250.76C197.89 250.4 197.743 249.9 197.743 249.26C197.743 248.767 197.877 248.293 198.143 247.84C198.41 247.387 198.81 247.013 199.343 246.72C199.89 246.413 200.57 246.26 201.383 246.26C202.357 246.26 203.123 246.42 203.683 246.74C204.257 247.047 204.663 247.427 204.903 247.88C205.157 248.32 205.283 248.747 205.283 249.16H203.563C203.563 248.827 203.377 248.513 203.003 248.22C202.63 247.927 202.083 247.78 201.363 247.78C200.71 247.78 200.223 247.913 199.903 248.18C199.583 248.433 199.423 248.773 199.423 249.2C199.423 249.573 199.57 249.86 199.863 250.06C200.157 250.26 200.53 250.42 200.983 250.54C201.45 250.647 201.937 250.76 202.443 250.88C202.963 250.987 203.45 251.147 203.903 251.36C204.37 251.56 204.75 251.853 205.043 252.24C205.337 252.613 205.483 253.12 205.483 253.76C205.483 254.293 205.337 254.787 205.043 255.24C204.763 255.693 204.323 256.06 203.723 256.34C203.137 256.607 202.377 256.74 201.443 256.74ZM208.382 256.5V242.26H210.062V256.5H208.382ZM214.358 244.6C214.038 244.6 213.758 244.487 213.518 244.26C213.292 244.02 213.178 243.747 213.178 243.44C213.178 243.12 213.292 242.847 213.518 242.62C213.758 242.38 214.038 242.26 214.358 242.26C214.665 242.26 214.932 242.38 215.158 242.62C215.385 242.847 215.498 243.12 215.498 243.44C215.498 243.747 215.385 244.02 215.158 244.26C214.932 244.487 214.665 244.6 214.358 244.6ZM213.498 256.5V246.5H215.178V256.5H213.498ZM218.774 261.1V246.5H220.394V248.46C220.54 248.087 220.754 247.733 221.034 247.4C221.314 247.067 221.667 246.793 222.094 246.58C222.52 246.367 223.027 246.26 223.614 246.26C224.494 246.26 225.274 246.467 225.954 246.88C226.634 247.28 227.167 247.867 227.554 248.64C227.94 249.413 228.134 250.367 228.134 251.5C228.134 252.593 227.947 253.533 227.574 254.32C227.2 255.093 226.68 255.693 226.014 256.12C225.36 256.533 224.594 256.74 223.714 256.74C223.26 256.74 222.807 256.66 222.354 256.5C221.9 256.327 221.507 256.08 221.174 255.76C220.84 255.427 220.6 255.033 220.454 254.58V261.1H218.774ZM223.474 255.22C224.154 255.22 224.714 255.053 225.154 254.72C225.594 254.387 225.92 253.933 226.134 253.36C226.347 252.787 226.454 252.153 226.454 251.46C226.454 250.767 226.347 250.14 226.134 249.58C225.92 249.02 225.594 248.58 225.154 248.26C224.727 247.927 224.187 247.76 223.534 247.76C222.547 247.76 221.787 248.107 221.254 248.8C220.734 249.493 220.474 250.393 220.474 251.5C220.474 252.18 220.587 252.8 220.814 253.36C221.054 253.92 221.394 254.367 221.834 254.7C222.287 255.033 222.834 255.207 223.474 255.22ZM234.139 256.74C233.472 256.74 232.839 256.6 232.239 256.32C231.639 256.027 231.152 255.627 230.779 255.12C230.405 254.613 230.219 254.033 230.219 253.38H232.019C232.019 253.793 232.139 254.14 232.379 254.42C232.619 254.687 232.912 254.887 233.259 255.02C233.605 255.153 233.945 255.22 234.279 255.22C234.945 255.22 235.479 255.1 235.879 254.86C236.279 254.62 236.479 254.253 236.479 253.76C236.479 253.32 236.332 252.993 236.039 252.78C235.745 252.553 235.372 252.387 234.919 252.28C234.465 252.16 233.979 252.053 233.459 251.96C232.939 251.867 232.452 251.733 231.999 251.56C231.545 251.387 231.172 251.12 230.879 250.76C230.585 250.4 230.439 249.9 230.439 249.26C230.439 248.767 230.572 248.293 230.839 247.84C231.105 247.387 231.505 247.013 232.039 246.72C232.585 246.413 233.265 246.26 234.079 246.26C235.052 246.26 235.819 246.42 236.379 246.74C236.952 247.047 237.359 247.427 237.599 247.88C237.852 248.32 237.979 248.747 237.979 249.16H236.259C236.259 248.827 236.072 248.513 235.699 248.22C235.325 247.927 234.779 247.78 234.059 247.78C233.405 247.78 232.919 247.913 232.599 248.18C232.279 248.433 232.119 248.773 232.119 249.2C232.119 249.573 232.265 249.86 232.559 250.06C232.852 250.26 233.225 250.42 233.679 250.54C234.145 250.647 234.632 250.76 235.139 250.88C235.659 250.987 236.145 251.147 236.599 251.36C237.065 251.56 237.445 251.853 237.739 252.24C238.032 252.613 238.179 253.12 238.179 253.76C238.179 254.293 238.032 254.787 237.739 255.24C237.459 255.693 237.019 256.06 236.419 256.34C235.832 256.607 235.072 256.74 234.139 256.74ZM103.539 280.5V270.5H105.219V272.48C105.353 272.12 105.539 271.773 105.779 271.44C106.033 271.093 106.373 270.813 106.799 270.6C107.239 270.373 107.799 270.26 108.479 270.26C108.586 270.26 108.733 270.273 108.919 270.3C109.106 270.313 109.246 270.327 109.339 270.34V271.9C109.139 271.833 108.886 271.787 108.579 271.76C108.273 271.72 107.993 271.727 107.739 271.78C106.926 271.94 106.299 272.293 105.859 272.84C105.433 273.387 105.219 274.14 105.219 275.1V280.5H103.539ZM112.366 268.6C112.046 268.6 111.766 268.487 111.526 268.26C111.299 268.02 111.186 267.747 111.186 267.44C111.186 267.12 111.299 266.847 111.526 266.62C111.766 266.38 112.046 266.26 112.366 266.26C112.673 266.26 112.939 266.38 113.166 266.62C113.393 266.847 113.506 267.12 113.506 267.44C113.506 267.747 113.393 268.02 113.166 268.26C112.939 268.487 112.673 268.6 112.366 268.6ZM111.506 280.5V270.5H113.186V280.5H111.506ZM120.541 285.1C119.675 285.087 118.861 284.893 118.101 284.52C117.341 284.147 116.768 283.52 116.381 282.64L117.701 281.82C117.955 282.407 118.328 282.853 118.821 283.16C119.315 283.467 119.895 283.62 120.561 283.62C121.668 283.62 122.468 283.327 122.961 282.74C123.455 282.153 123.701 281.293 123.701 280.16V278.58C123.568 279.033 123.328 279.427 122.981 279.76C122.648 280.08 122.255 280.327 121.801 280.5C121.361 280.66 120.908 280.74 120.441 280.74C119.575 280.74 118.808 280.533 118.141 280.12C117.475 279.693 116.955 279.093 116.581 278.32C116.208 277.533 116.021 276.593 116.021 275.5C116.021 274.367 116.215 273.413 116.601 272.64C116.988 271.867 117.521 271.28 118.201 270.88C118.895 270.467 119.675 270.26 120.541 270.26C121.128 270.26 121.635 270.367 122.061 270.58C122.488 270.793 122.841 271.067 123.121 271.4C123.415 271.733 123.628 272.087 123.761 272.46V270.5H125.361V280.16C125.361 281.413 125.141 282.4 124.701 283.12C124.275 283.853 123.695 284.367 122.961 284.66C122.228 284.967 121.421 285.113 120.541 285.1ZM120.681 279.22C121.321 279.22 121.861 279.053 122.301 278.72C122.755 278.373 123.095 277.92 123.321 277.36C123.561 276.8 123.681 276.18 123.681 275.5C123.681 274.393 123.415 273.493 122.881 272.8C122.361 272.107 121.608 271.76 120.621 271.76C119.968 271.76 119.421 271.927 118.981 272.26C118.555 272.58 118.235 273.02 118.021 273.58C117.808 274.14 117.701 274.767 117.701 275.46C117.701 276.153 117.808 276.787 118.021 277.36C118.235 277.92 118.561 278.373 119.001 278.72C119.455 279.053 120.015 279.22 120.681 279.22ZM128.93 280.5V266.26H130.61V272.38C130.677 272.14 130.83 271.853 131.07 271.52C131.31 271.187 131.663 270.893 132.13 270.64C132.597 270.387 133.203 270.26 133.95 270.26C134.923 270.26 135.723 270.573 136.35 271.2C136.99 271.827 137.31 272.74 137.31 273.94V280.5H135.63V274.18C135.63 273.313 135.423 272.7 135.01 272.34C134.597 271.967 134.057 271.78 133.39 271.78C132.47 271.78 131.777 272.093 131.31 272.72C130.843 273.347 130.61 274.14 130.61 275.1V280.5H128.93ZM144.343 280.74C143.25 280.74 142.477 280.493 142.023 280C141.57 279.507 141.343 278.793 141.343 277.86V272.04H139.543V270.5H140.003C140.55 270.5 140.91 270.413 141.083 270.24C141.257 270.053 141.343 269.673 141.343 269.1V267.96H143.023V270.52H145.603V272.04H143.023V277.86C143.023 278.393 143.15 278.767 143.403 278.98C143.657 279.193 144.03 279.3 144.523 279.3C144.657 279.3 144.803 279.293 144.963 279.28C145.123 279.267 145.283 279.247 145.443 279.22V280.58C145.083 280.687 144.717 280.74 144.343 280.74ZM157.499 280.74C156.673 280.74 155.899 280.547 155.179 280.16C154.459 279.76 153.879 279.173 153.439 278.4C152.999 277.613 152.779 276.647 152.779 275.5C152.779 274.353 152.999 273.393 153.439 272.62C153.879 271.833 154.459 271.247 155.179 270.86C155.899 270.46 156.673 270.26 157.499 270.26C158.326 270.26 159.099 270.46 159.819 270.86C160.539 271.247 161.119 271.833 161.559 272.62C161.999 273.393 162.219 274.353 162.219 275.5C162.219 276.647 161.999 277.613 161.559 278.4C161.119 279.173 160.539 279.76 159.819 280.16C159.099 280.547 158.326 280.74 157.499 280.74ZM157.499 279.22C158.499 279.22 159.253 278.893 159.759 278.24C160.279 277.587 160.539 276.673 160.539 275.5C160.539 274.327 160.279 273.413 159.759 272.76C159.253 272.107 158.499 271.78 157.499 271.78C156.499 271.78 155.739 272.107 155.219 272.76C154.713 273.413 154.459 274.327 154.459 275.5C154.459 276.673 154.713 277.587 155.219 278.24C155.739 278.893 156.499 279.22 157.499 279.22ZM166.161 280.5V272.02H164.241V270.5H166.161V268.98C166.161 268.047 166.387 267.333 166.841 266.84C167.307 266.347 168.087 266.1 169.181 266.1C169.341 266.1 169.521 266.113 169.721 266.14C169.934 266.167 170.127 266.207 170.301 266.26V267.62C170.141 267.593 169.974 267.573 169.801 267.56C169.641 267.547 169.494 267.54 169.361 267.54C168.867 267.54 168.487 267.647 168.221 267.86C167.967 268.073 167.841 268.453 167.841 269V270.5H170.401V272.02H167.841V280.5H166.161ZM173.661 280.5V272.02H171.741V270.5H173.661V268.98C173.661 268.047 173.887 267.333 174.341 266.84C174.807 266.347 175.587 266.1 176.681 266.1C176.841 266.1 177.021 266.113 177.221 266.14C177.434 266.167 177.627 266.207 177.801 266.26V267.62C177.641 267.593 177.474 267.573 177.301 267.56C177.141 267.547 176.994 267.54 176.861 267.54C176.367 267.54 175.987 267.647 175.721 267.86C175.467 268.073 175.341 268.453 175.341 269V270.5H177.901V272.02H175.341V280.5H173.661Z" fill="white"/>
</svg>
