<svg width="303" height="178" viewBox="0 0 303 178" fill="none" xmlns="http://www.w3.org/2000/svg">
<path fill-rule="evenodd" clip-rule="evenodd" d="M154.923 176.938C106.923 175.605 8.92347 154.138 0.923473 78.9384C-7.07653 3.73842 100.257 -3.06158 154.923 2.93842C208.257 -4.39492 312.123 0.538406 300.923 78.9384C289.723 157.338 198.923 176.938 154.923 176.938Z" fill="#1497EB" stroke="black"/>
<path d="M40.5366 46.9385V45.4585H42.9166V34.4585H40.5366V32.9385H47.0566V34.4585H44.6766V45.4185H47.0566V46.9385H40.5366ZM53.8683 47.1785C52.775 47.1785 52.0017 46.9318 51.5483 46.4385C51.095 45.9451 50.8683 45.2318 50.8683 44.2985V38.4785H49.0683V36.9385H49.5283C50.075 36.9385 50.435 36.8518 50.6083 36.6785C50.7817 36.4918 50.8683 36.1118 50.8683 35.5385V34.3985H52.5483V36.9585H55.1283V38.4785H52.5483V44.2985C52.5483 44.8318 52.675 45.2051 52.9283 45.4185C53.1817 45.6318 53.555 45.7385 54.0483 45.7385C54.1817 45.7385 54.3283 45.7318 54.4883 45.7185C54.6483 45.7051 54.8083 45.6851 54.9683 45.6585V47.0185C54.6083 47.1251 54.2417 47.1785 53.8683 47.1785ZM63.8441 35.0385C63.5241 35.0385 63.2441 34.9251 63.0041 34.6985C62.7775 34.4585 62.6641 34.1851 62.6641 33.8785C62.6641 33.5585 62.7775 33.2851 63.0041 33.0585C63.2441 32.8185 63.5241 32.6985 63.8441 32.6985C64.1508 32.6985 64.4175 32.8185 64.6441 33.0585C64.8708 33.2851 64.9841 33.5585 64.9841 33.8785C64.9841 34.1851 64.8708 34.4585 64.6441 34.6985C64.4175 34.9251 64.1508 35.0385 63.8441 35.0385ZM62.9841 46.9385V36.9385H64.6641V46.9385H62.9841ZM71.3394 47.1785C70.6728 47.1785 70.0394 47.0385 69.4394 46.7585C68.8394 46.4651 68.3528 46.0651 67.9794 45.5585C67.6061 45.0518 67.4194 44.4718 67.4194 43.8185H69.2194C69.2194 44.2318 69.3394 44.5785 69.5794 44.8585C69.8194 45.1251 70.1128 45.3251 70.4594 45.4585C70.8061 45.5918 71.1461 45.6585 71.4794 45.6585C72.1461 45.6585 72.6794 45.5385 73.0794 45.2985C73.4794 45.0585 73.6794 44.6918 73.6794 44.1985C73.6794 43.7585 73.5328 43.4318 73.2394 43.2185C72.9461 42.9918 72.5728 42.8251 72.1194 42.7185C71.6661 42.5985 71.1794 42.4918 70.6594 42.3985C70.1394 42.3051 69.6528 42.1718 69.1994 41.9985C68.7461 41.8251 68.3728 41.5585 68.0794 41.1985C67.7861 40.8385 67.6394 40.3385 67.6394 39.6985C67.6394 39.2051 67.7728 38.7318 68.0394 38.2785C68.3061 37.8251 68.7061 37.4518 69.2394 37.1585C69.7861 36.8518 70.4661 36.6985 71.2794 36.6985C72.2528 36.6985 73.0194 36.8585 73.5794 37.1785C74.1528 37.4851 74.5594 37.8651 74.7994 38.3185C75.0528 38.7585 75.1794 39.1851 75.1794 39.5985H73.4594C73.4594 39.2651 73.2728 38.9518 72.8994 38.6585C72.5261 38.3651 71.9794 38.2185 71.2594 38.2185C70.6061 38.2185 70.1194 38.3518 69.7994 38.6185C69.4794 38.8718 69.3194 39.2118 69.3194 39.6385C69.3194 40.0118 69.4661 40.2985 69.7594 40.4985C70.0528 40.6985 70.4261 40.8585 70.8794 40.9785C71.3461 41.0851 71.8328 41.1985 72.3394 41.3185C72.8594 41.4251 73.3461 41.5851 73.7994 41.7985C74.2661 41.9985 74.6461 42.2918 74.9394 42.6785C75.2328 43.0518 75.3794 43.5585 75.3794 44.1985C75.3794 44.7318 75.2328 45.2251 74.9394 45.6785C74.6594 46.1318 74.2194 46.4985 73.6194 46.7785C73.0328 47.0451 72.2728 47.1785 71.3394 47.1785ZM84.4496 35.0385C84.1296 35.0385 83.8496 34.9251 83.6096 34.6985C83.3829 34.4585 83.2696 34.1851 83.2696 33.8785C83.2696 33.5585 83.3829 33.2851 83.6096 33.0585C83.8496 32.8185 84.1296 32.6985 84.4496 32.6985C84.7563 32.6985 85.0229 32.8185 85.2496 33.0585C85.4763 33.2851 85.5896 33.5585 85.5896 33.8785C85.5896 34.1851 85.4763 34.4585 85.2496 34.6985C85.0229 34.9251 84.7563 35.0385 84.4496 35.0385ZM83.5896 46.9385V36.9385H85.2696V46.9385H83.5896ZM88.8649 46.9385V36.9385H90.5449V38.8185C90.6116 38.5785 90.7649 38.2918 91.0049 37.9585C91.2449 37.6251 91.5982 37.3318 92.0649 37.0785C92.5316 36.8251 93.1382 36.6985 93.8849 36.6985C94.8582 36.6985 95.6582 37.0118 96.2849 37.6385C96.9249 38.2651 97.2449 39.1785 97.2449 40.3785V46.9385H95.5649V40.6185C95.5649 39.7518 95.3582 39.1385 94.9449 38.7785C94.5316 38.4051 93.9916 38.2185 93.3249 38.2185C92.4049 38.2185 91.7116 38.5318 91.2449 39.1585C90.7782 39.7851 90.5449 40.5785 90.5449 41.5385V46.9385H88.8649ZM101.818 46.9385V38.4585H99.8985V36.9385H101.818V35.4185C101.818 34.4851 102.045 33.7718 102.498 33.2785C102.965 32.7851 103.745 32.5385 104.838 32.5385C104.998 32.5385 105.178 32.5518 105.378 32.5785C105.592 32.6051 105.785 32.6451 105.958 32.6985V34.0585C105.798 34.0318 105.632 34.0118 105.458 33.9985C105.298 33.9851 105.152 33.9785 105.018 33.9785C104.525 33.9785 104.145 34.0851 103.878 34.2985C103.625 34.5118 103.498 34.8918 103.498 35.4385V36.9385H106.058V38.4585H103.498V46.9385H101.818ZM111.538 47.1785C110.565 47.1785 109.758 46.8651 109.118 46.2385C108.492 45.6118 108.178 44.6985 108.178 43.4985V36.9385H109.858V43.2585C109.858 44.1251 110.065 44.7451 110.478 45.1185C110.892 45.4785 111.432 45.6585 112.098 45.6585C113.018 45.6585 113.712 45.3451 114.178 44.7185C114.645 44.0918 114.878 43.2985 114.878 42.3385V36.9385H116.558V46.9385H114.878V45.0585C114.825 45.2851 114.672 45.5718 114.418 45.9185C114.178 46.2518 113.825 46.5451 113.358 46.7985C112.892 47.0518 112.285 47.1785 111.538 47.1785ZM120.232 46.9385V36.9385H121.912V38.9185C122.045 38.5585 122.232 38.2118 122.472 37.8785C122.725 37.5318 123.065 37.2518 123.492 37.0385C123.932 36.8118 124.492 36.6985 125.172 36.6985C125.279 36.6985 125.425 36.7118 125.612 36.7385C125.799 36.7518 125.939 36.7651 126.032 36.7785V38.3385C125.832 38.2718 125.579 38.2251 125.272 38.1985C124.965 38.1585 124.685 38.1651 124.432 38.2185C123.619 38.3785 122.992 38.7318 122.552 39.2785C122.125 39.8251 121.912 40.5785 121.912 41.5385V46.9385H120.232ZM129.059 35.0385C128.739 35.0385 128.459 34.9251 128.219 34.6985C127.992 34.4585 127.879 34.1851 127.879 33.8785C127.879 33.5585 127.992 33.2851 128.219 33.0585C128.459 32.8185 128.739 32.6985 129.059 32.6985C129.366 32.6985 129.632 32.8185 129.859 33.0585C130.086 33.2851 130.199 33.5585 130.199 33.8785C130.199 34.1851 130.086 34.4585 129.859 34.6985C129.632 34.9251 129.366 35.0385 129.059 35.0385ZM128.199 46.9385V36.9385H129.879V46.9385H128.199ZM137.134 47.1785C136.268 47.1785 135.501 46.9718 134.834 46.5585C134.168 46.1318 133.648 45.5318 133.274 44.7585C132.901 43.9718 132.714 43.0318 132.714 41.9385C132.714 40.8051 132.908 39.8518 133.294 39.0785C133.681 38.3051 134.214 37.7185 134.894 37.3185C135.588 36.9051 136.368 36.6985 137.234 36.6985C137.821 36.6985 138.328 36.8051 138.754 37.0185C139.181 37.2318 139.534 37.5051 139.814 37.8385C140.108 38.1718 140.321 38.5251 140.454 38.8985V36.9385H142.054V46.9385H140.394V45.0185C140.261 45.4718 140.021 45.8651 139.674 46.1985C139.341 46.5185 138.948 46.7651 138.494 46.9385C138.054 47.0985 137.601 47.1785 137.134 47.1785ZM137.374 45.6585C138.014 45.6585 138.554 45.4918 138.994 45.1585C139.448 44.8118 139.788 44.3585 140.014 43.7985C140.254 43.2385 140.374 42.6185 140.374 41.9385C140.374 40.8318 140.108 39.9318 139.574 39.2385C139.054 38.5451 138.301 38.1985 137.314 38.1985C136.661 38.1985 136.114 38.3651 135.674 38.6985C135.248 39.0185 134.928 39.4585 134.714 40.0185C134.501 40.5785 134.394 41.2051 134.394 41.8985C134.394 42.5918 134.501 43.2251 134.714 43.7985C134.928 44.3585 135.254 44.8118 135.694 45.1585C136.148 45.4918 136.708 45.6585 137.374 45.6585ZM149.103 47.1785C148.009 47.1785 147.236 46.9318 146.783 46.4385C146.329 45.9451 146.103 45.2318 146.103 44.2985V38.4785H144.303V36.9385H144.763C145.309 36.9385 145.669 36.8518 145.843 36.6785C146.016 36.4918 146.103 36.1118 146.103 35.5385V34.3985H147.783V36.9585H150.363V38.4785H147.783V44.2985C147.783 44.8318 147.909 45.2051 148.163 45.4185C148.416 45.6318 148.789 45.7385 149.283 45.7385C149.416 45.7385 149.563 45.7318 149.723 45.7185C149.883 45.7051 150.043 45.6851 150.203 45.6585V47.0185C149.843 47.1251 149.476 47.1785 149.103 47.1785ZM153.727 35.0385C153.407 35.0385 153.127 34.9251 152.887 34.6985C152.66 34.4585 152.547 34.1851 152.547 33.8785C152.547 33.5585 152.66 33.2851 152.887 33.0585C153.127 32.8185 153.407 32.6985 153.727 32.6985C154.034 32.6985 154.3 32.8185 154.527 33.0585C154.754 33.2851 154.867 33.5585 154.867 33.8785C154.867 34.1851 154.754 34.4585 154.527 34.6985C154.3 34.9251 154.034 35.0385 153.727 35.0385ZM152.867 46.9385V36.9385H154.547V46.9385H152.867ZM158.142 46.9385V36.9385H159.822V38.8185C159.889 38.5785 160.042 38.2918 160.282 37.9585C160.522 37.6251 160.876 37.3318 161.342 37.0785C161.809 36.8251 162.416 36.6985 163.162 36.6985C164.136 36.6985 164.936 37.0118 165.562 37.6385C166.202 38.2651 166.522 39.1785 166.522 40.3785V46.9385H164.842V40.6185C164.842 39.7518 164.636 39.1385 164.222 38.7785C163.809 38.4051 163.269 38.2185 162.602 38.2185C161.682 38.2185 160.989 38.5318 160.522 39.1585C160.056 39.7851 159.822 40.5785 159.822 41.5385V46.9385H158.142ZM173.836 51.5385C172.969 51.5251 172.156 51.3318 171.396 50.9585C170.636 50.5851 170.063 49.9585 169.676 49.0785L170.996 48.2585C171.249 48.8451 171.623 49.2918 172.116 49.5985C172.609 49.9051 173.189 50.0585 173.856 50.0585C174.963 50.0585 175.763 49.7651 176.256 49.1785C176.749 48.5918 176.996 47.7318 176.996 46.5985V45.0185C176.863 45.4718 176.623 45.8651 176.276 46.1985C175.943 46.5185 175.549 46.7651 175.096 46.9385C174.656 47.0985 174.203 47.1785 173.736 47.1785C172.869 47.1785 172.103 46.9718 171.436 46.5585C170.769 46.1318 170.249 45.5318 169.876 44.7585C169.503 43.9718 169.316 43.0318 169.316 41.9385C169.316 40.8051 169.509 39.8518 169.896 39.0785C170.283 38.3051 170.816 37.7185 171.496 37.3185C172.189 36.9051 172.969 36.6985 173.836 36.6985C174.423 36.6985 174.929 36.8051 175.356 37.0185C175.783 37.2318 176.136 37.5051 176.416 37.8385C176.709 38.1718 176.923 38.5251 177.056 38.8985V36.9385H178.656V46.5985C178.656 47.8518 178.436 48.8385 177.996 49.5585C177.569 50.2918 176.989 50.8051 176.256 51.0985C175.523 51.4051 174.716 51.5518 173.836 51.5385ZM173.976 45.6585C174.616 45.6585 175.156 45.4918 175.596 45.1585C176.049 44.8118 176.389 44.3585 176.616 43.7985C176.856 43.2385 176.976 42.6185 176.976 41.9385C176.976 40.8318 176.709 39.9318 176.176 39.2385C175.656 38.5451 174.903 38.1985 173.916 38.1985C173.263 38.1985 172.716 38.3651 172.276 38.6985C171.849 39.0185 171.529 39.4585 171.316 40.0185C171.103 40.5785 170.996 41.2051 170.996 41.8985C170.996 42.5918 171.103 43.2251 171.316 43.7985C171.529 44.3585 171.856 44.8118 172.296 45.1585C172.749 45.4918 173.309 45.6585 173.976 45.6585ZM182.624 47.1785C182.278 47.1785 181.978 47.0518 181.724 46.7985C181.471 46.5451 181.344 46.2518 181.344 45.9185C181.344 45.5718 181.471 45.2718 181.724 45.0185C181.978 44.7651 182.278 44.6385 182.624 44.6385C182.971 44.6385 183.264 44.7651 183.504 45.0185C183.744 45.2718 183.864 45.5718 183.864 45.9185C183.864 46.2518 183.744 46.5451 183.504 46.7985C183.264 47.0518 182.971 47.1785 182.624 47.1785ZM193.729 46.9385L190.729 32.9385H192.589L194.929 44.6185L198.349 32.9385H200.509L203.929 44.6185L206.269 32.9385H208.129L205.129 46.9385H202.829L199.429 35.5585L196.029 46.9385H193.729ZM210.525 46.9385V32.6985H212.205V38.8185C212.272 38.5785 212.425 38.2918 212.665 37.9585C212.905 37.6251 213.258 37.3318 213.725 37.0785C214.192 36.8251 214.798 36.6985 215.545 36.6985C216.518 36.6985 217.318 37.0118 217.945 37.6385C218.585 38.2651 218.905 39.1785 218.905 40.3785V46.9385H217.225V40.6185C217.225 39.7518 217.018 39.1385 216.605 38.7785C216.192 38.4051 215.652 38.2185 214.985 38.2185C214.065 38.2185 213.372 38.5318 212.905 39.1585C212.438 39.7851 212.205 40.5785 212.205 41.5385V46.9385H210.525ZM226.439 47.1985C225.599 47.1985 224.819 46.9918 224.099 46.5785C223.379 46.1518 222.799 45.5451 222.359 44.7585C221.919 43.9718 221.699 43.0451 221.699 41.9785C221.699 40.8851 221.919 39.9451 222.359 39.1585C222.799 38.3718 223.379 37.7651 224.099 37.3385C224.819 36.9118 225.599 36.6985 226.439 36.6985C227.292 36.6985 228.059 36.8785 228.739 37.2385C229.432 37.5851 229.979 38.1318 230.379 38.8785C230.792 39.6118 230.999 40.5585 230.999 41.7185V42.3385H223.359C223.412 43.2985 223.692 44.0985 224.199 44.7385C224.705 45.3651 225.439 45.6785 226.399 45.6785C226.999 45.6785 227.545 45.5385 228.039 45.2585C228.532 44.9785 228.919 44.5851 229.199 44.0785L230.679 44.6785C229.852 46.3585 228.439 47.1985 226.439 47.1985ZM226.399 38.2185C225.585 38.2185 224.932 38.4718 224.439 38.9785C223.959 39.4718 223.639 40.0985 223.479 40.8585H229.319C229.319 40.4851 229.205 40.0985 228.979 39.6985C228.765 39.2851 228.445 38.9385 228.019 38.6585C227.592 38.3651 227.052 38.2185 226.399 38.2185ZM233.845 46.9385V36.9385H235.525V38.8185C235.592 38.5785 235.745 38.2918 235.985 37.9585C236.225 37.6251 236.579 37.3318 237.045 37.0785C237.512 36.8251 238.119 36.6985 238.865 36.6985C239.839 36.6985 240.639 37.0118 241.265 37.6385C241.905 38.2651 242.225 39.1785 242.225 40.3785V46.9385H240.545V40.6185C240.545 39.7518 240.339 39.1385 239.925 38.7785C239.512 38.4051 238.972 38.2185 238.305 38.2185C237.385 38.2185 236.692 38.5318 236.225 39.1585C235.759 39.7851 235.525 40.5785 235.525 41.5385V46.9385H233.845ZM251.911 35.0385C251.591 35.0385 251.311 34.9251 251.071 34.6985C250.844 34.4585 250.731 34.1851 250.731 33.8785C250.731 33.5585 250.844 33.2851 251.071 33.0585C251.311 32.8185 251.591 32.6985 251.911 32.6985C252.217 32.6985 252.484 32.8185 252.711 33.0585C252.937 33.2851 253.051 33.5585 253.051 33.8785C253.051 34.1851 252.937 34.4585 252.711 34.6985C252.484 34.9251 252.217 35.0385 251.911 35.0385ZM251.051 46.9385V36.9385H252.731V46.9385H251.051ZM259.806 47.1785C258.713 47.1785 257.939 46.9318 257.486 46.4385C257.033 45.9451 256.806 45.2318 256.806 44.2985V38.4785H255.006V36.9385H255.466C256.013 36.9385 256.373 36.8518 256.546 36.6785C256.719 36.4918 256.806 36.1118 256.806 35.5385V34.3985H258.486V36.9585H261.066V38.4785H258.486V44.2985C258.486 44.8318 258.613 45.2051 258.866 45.4185C259.119 45.6318 259.493 45.7385 259.986 45.7385C260.119 45.7385 260.266 45.7318 260.426 45.7185C260.586 45.7051 260.746 45.6851 260.906 45.6585V47.0185C260.546 47.1251 260.179 47.1785 259.806 47.1785ZM44.4357 70.9385V62.4585H42.5157V60.9385H44.4357V59.4185C44.4357 58.4851 44.6624 57.7718 45.1157 57.2785C45.5824 56.7851 46.3624 56.5385 47.4557 56.5385C47.6157 56.5385 47.7957 56.5518 47.9957 56.5785C48.209 56.6051 48.4024 56.6451 48.5757 56.6985V58.0585C48.4157 58.0318 48.249 58.0118 48.0757 57.9985C47.9157 57.9851 47.769 57.9785 47.6357 57.9785C47.1424 57.9785 46.7624 58.0851 46.4957 58.2985C46.2424 58.5118 46.1157 58.8918 46.1157 59.4385V60.9385H48.6757V62.4585H46.1157V70.9385H44.4357ZM54.8957 71.1985C54.0557 71.1985 53.2757 70.9918 52.5557 70.5785C51.8357 70.1518 51.2557 69.5451 50.8157 68.7585C50.3757 67.9718 50.1557 67.0451 50.1557 65.9785C50.1557 64.8851 50.3757 63.9451 50.8157 63.1585C51.2557 62.3718 51.8357 61.7651 52.5557 61.3385C53.2757 60.9118 54.0557 60.6985 54.8957 60.6985C55.749 60.6985 56.5157 60.8785 57.1957 61.2385C57.889 61.5851 58.4357 62.1318 58.8357 62.8785C59.249 63.6118 59.4557 64.5585 59.4557 65.7185V66.3385H51.8157C51.869 67.2985 52.149 68.0985 52.6557 68.7385C53.1624 69.3651 53.8957 69.6785 54.8557 69.6785C55.4557 69.6785 56.0024 69.5385 56.4957 69.2585C56.989 68.9785 57.3757 68.5851 57.6557 68.0785L59.1357 68.6785C58.309 70.3585 56.8957 71.1985 54.8957 71.1985ZM54.8557 62.2185C54.0424 62.2185 53.389 62.4718 52.8957 62.9785C52.4157 63.4718 52.0957 64.0985 51.9357 64.8585H57.7757C57.7757 64.4851 57.6624 64.0985 57.4357 63.6985C57.2224 63.2851 56.9024 62.9385 56.4757 62.6585C56.049 62.3651 55.509 62.2185 54.8557 62.2185ZM66.2824 71.1985C65.4424 71.1985 64.6624 70.9918 63.9424 70.5785C63.2224 70.1518 62.6424 69.5451 62.2024 68.7585C61.7624 67.9718 61.5424 67.0451 61.5424 65.9785C61.5424 64.8851 61.7624 63.9451 62.2024 63.1585C62.6424 62.3718 63.2224 61.7651 63.9424 61.3385C64.6624 60.9118 65.4424 60.6985 66.2824 60.6985C67.1357 60.6985 67.9024 60.8785 68.5824 61.2385C69.2757 61.5851 69.8224 62.1318 70.2224 62.8785C70.6357 63.6118 70.8424 64.5585 70.8424 65.7185V66.3385H63.2024C63.2557 67.2985 63.5357 68.0985 64.0424 68.7385C64.5491 69.3651 65.2824 69.6785 66.2424 69.6785C66.8424 69.6785 67.3891 69.5385 67.8824 69.2585C68.3757 68.9785 68.7624 68.5851 69.0424 68.0785L70.5224 68.6785C69.6957 70.3585 68.2824 71.1985 66.2824 71.1985ZM66.2424 62.2185C65.4291 62.2185 64.7757 62.4718 64.2824 62.9785C63.8024 63.4718 63.4824 64.0985 63.3224 64.8585H69.1624C69.1624 64.4851 69.0491 64.0985 68.8224 63.6985C68.6091 63.2851 68.2891 62.9385 67.8624 62.6585C67.4357 62.3651 66.8957 62.2185 66.2424 62.2185ZM73.6491 70.9385V56.6985H75.3291V70.9385H73.6491ZM81.9254 71.1785C81.2587 71.1785 80.6254 71.0385 80.0254 70.7585C79.4254 70.4651 78.9387 70.0651 78.5654 69.5585C78.192 69.0518 78.0054 68.4718 78.0054 67.8185H79.8054C79.8054 68.2318 79.9254 68.5785 80.1654 68.8585C80.4054 69.1251 80.6987 69.3251 81.0454 69.4585C81.392 69.5918 81.732 69.6585 82.0654 69.6585C82.732 69.6585 83.2654 69.5385 83.6654 69.2985C84.0654 69.0585 84.2654 68.6918 84.2654 68.1985C84.2654 67.7585 84.1187 67.4318 83.8254 67.2185C83.532 66.9918 83.1587 66.8251 82.7054 66.7185C82.252 66.5985 81.7654 66.4918 81.2454 66.3985C80.7254 66.3051 80.2387 66.1718 79.7854 65.9985C79.332 65.8251 78.9587 65.5585 78.6654 65.1985C78.372 64.8385 78.2254 64.3385 78.2254 63.6985C78.2254 63.2051 78.3587 62.7318 78.6254 62.2785C78.892 61.8251 79.292 61.4518 79.8254 61.1585C80.372 60.8518 81.052 60.6985 81.8654 60.6985C82.8387 60.6985 83.6054 60.8585 84.1654 61.1785C84.7387 61.4851 85.1454 61.8651 85.3854 62.3185C85.6387 62.7585 85.7654 63.1851 85.7654 63.5985H84.0454C84.0454 63.2651 83.8587 62.9518 83.4854 62.6585C83.112 62.3651 82.5654 62.2185 81.8454 62.2185C81.192 62.2185 80.7054 62.3518 80.3854 62.6185C80.0654 62.8718 79.9054 63.2118 79.9054 63.6385C79.9054 64.0118 80.052 64.2985 80.3454 64.4985C80.6387 64.6985 81.012 64.8585 81.4654 64.9785C81.932 65.0851 82.4187 65.1985 82.9254 65.3185C83.4454 65.4251 83.932 65.5851 84.3854 65.7985C84.852 65.9985 85.232 66.2918 85.5254 66.6785C85.8187 67.0518 85.9654 67.5585 85.9654 68.1985C85.9654 68.7318 85.8187 69.2251 85.5254 69.6785C85.2454 70.1318 84.8054 70.4985 84.2054 70.7785C83.6187 71.0451 82.8587 71.1785 81.9254 71.1785ZM95.0355 59.0385C94.7155 59.0385 94.4355 58.9251 94.1955 58.6985C93.9689 58.4585 93.8555 58.1851 93.8555 57.8785C93.8555 57.5585 93.9689 57.2851 94.1955 57.0585C94.4355 56.8185 94.7155 56.6985 95.0355 56.6985C95.3422 56.6985 95.6089 56.8185 95.8355 57.0585C96.0622 57.2851 96.1755 57.5585 96.1755 57.8785C96.1755 58.1851 96.0622 58.4585 95.8355 58.6985C95.6089 58.9251 95.3422 59.0385 95.0355 59.0385ZM94.1755 70.9385V60.9385H95.8555V70.9385H94.1755ZM99.4508 70.9385V60.9385H101.131V62.8185C101.198 62.5785 101.351 62.2918 101.591 61.9585C101.831 61.6251 102.184 61.3318 102.651 61.0785C103.118 60.8251 103.724 60.6985 104.471 60.6985C105.231 60.6985 105.891 60.8985 106.451 61.2985C107.024 61.6851 107.424 62.2585 107.651 63.0185V62.9785C107.718 62.7385 107.884 62.4385 108.151 62.0785C108.418 61.7185 108.798 61.3985 109.291 61.1185C109.798 60.8385 110.424 60.6985 111.171 60.6985C112.144 60.6985 112.944 61.0118 113.571 61.6385C114.211 62.2651 114.531 63.1785 114.531 64.3785V70.9385H112.851V64.6185C112.851 63.7518 112.644 63.1385 112.231 62.7785C111.818 62.4051 111.278 62.2185 110.611 62.2185C109.691 62.2185 108.998 62.5318 108.531 63.1585C108.064 63.7851 107.831 64.5785 107.831 65.5385V70.9385H106.151V64.6185C106.151 63.7518 105.944 63.1385 105.531 62.7785C105.118 62.4051 104.578 62.2185 103.911 62.2185C102.991 62.2185 102.298 62.5318 101.831 63.1585C101.364 63.7851 101.131 64.5785 101.131 65.5385V70.9385H99.4508ZM118.123 75.5385V60.9385H119.743V62.8985C119.889 62.5251 120.103 62.1718 120.383 61.8385C120.663 61.5051 121.016 61.2318 121.443 61.0185C121.869 60.8051 122.376 60.6985 122.963 60.6985C123.843 60.6985 124.623 60.9051 125.303 61.3185C125.983 61.7185 126.516 62.3051 126.903 63.0785C127.289 63.8518 127.483 64.8051 127.483 65.9385C127.483 67.0318 127.296 67.9718 126.923 68.7585C126.549 69.5318 126.029 70.1318 125.363 70.5585C124.709 70.9718 123.943 71.1785 123.063 71.1785C122.609 71.1785 122.156 71.0985 121.703 70.9385C121.249 70.7651 120.856 70.5185 120.523 70.1985C120.189 69.8651 119.949 69.4718 119.803 69.0185V75.5385H118.123ZM122.823 69.6585C123.503 69.6585 124.063 69.4918 124.503 69.1585C124.943 68.8251 125.269 68.3718 125.483 67.7985C125.696 67.2251 125.803 66.5918 125.803 65.8985C125.803 65.2051 125.696 64.5785 125.483 64.0185C125.269 63.4585 124.943 63.0185 124.503 62.6985C124.076 62.3651 123.536 62.1985 122.883 62.1985C121.896 62.1985 121.136 62.5451 120.603 63.2385C120.083 63.9318 119.823 64.8318 119.823 65.9385C119.823 66.6185 119.936 67.2385 120.163 67.7985C120.403 68.3585 120.743 68.8051 121.183 69.1385C121.636 69.4718 122.183 69.6451 122.823 69.6585ZM134.368 71.1785C133.541 71.1785 132.768 70.9851 132.048 70.5985C131.328 70.1985 130.748 69.6118 130.308 68.8385C129.868 68.0518 129.648 67.0851 129.648 65.9385C129.648 64.7918 129.868 63.8318 130.308 63.0585C130.748 62.2718 131.328 61.6851 132.048 61.2985C132.768 60.8985 133.541 60.6985 134.368 60.6985C135.195 60.6985 135.968 60.8985 136.688 61.2985C137.408 61.6851 137.988 62.2718 138.428 63.0585C138.868 63.8318 139.088 64.7918 139.088 65.9385C139.088 67.0851 138.868 68.0518 138.428 68.8385C137.988 69.6118 137.408 70.1985 136.688 70.5985C135.968 70.9851 135.195 71.1785 134.368 71.1785ZM134.368 69.6585C135.368 69.6585 136.121 69.3318 136.628 68.6785C137.148 68.0251 137.408 67.1118 137.408 65.9385C137.408 64.7651 137.148 63.8518 136.628 63.1985C136.121 62.5451 135.368 62.2185 134.368 62.2185C133.368 62.2185 132.608 62.5451 132.088 63.1985C131.581 63.8518 131.328 64.7651 131.328 65.9385C131.328 67.1118 131.581 68.0251 132.088 68.6785C132.608 69.3318 133.368 69.6585 134.368 69.6585ZM145.089 71.1785C144.423 71.1785 143.789 71.0385 143.189 70.7585C142.589 70.4651 142.103 70.0651 141.729 69.5585C141.356 69.0518 141.169 68.4718 141.169 67.8185H142.969C142.969 68.2318 143.089 68.5785 143.329 68.8585C143.569 69.1251 143.863 69.3251 144.209 69.4585C144.556 69.5918 144.896 69.6585 145.229 69.6585C145.896 69.6585 146.429 69.5385 146.829 69.2985C147.229 69.0585 147.429 68.6918 147.429 68.1985C147.429 67.7585 147.283 67.4318 146.989 67.2185C146.696 66.9918 146.323 66.8251 145.869 66.7185C145.416 66.5985 144.929 66.4918 144.409 66.3985C143.889 66.3051 143.403 66.1718 142.949 65.9985C142.496 65.8251 142.123 65.5585 141.829 65.1985C141.536 64.8385 141.389 64.3385 141.389 63.6985C141.389 63.2051 141.523 62.7318 141.789 62.2785C142.056 61.8251 142.456 61.4518 142.989 61.1585C143.536 60.8518 144.216 60.6985 145.029 60.6985C146.003 60.6985 146.769 60.8585 147.329 61.1785C147.903 61.4851 148.309 61.8651 148.549 62.3185C148.803 62.7585 148.929 63.1851 148.929 63.5985H147.209C147.209 63.2651 147.023 62.9518 146.649 62.6585C146.276 62.3651 145.729 62.2185 145.009 62.2185C144.356 62.2185 143.869 62.3518 143.549 62.6185C143.229 62.8718 143.069 63.2118 143.069 63.6385C143.069 64.0118 143.216 64.2985 143.509 64.4985C143.803 64.6985 144.176 64.8585 144.629 64.9785C145.096 65.0851 145.583 65.1985 146.089 65.3185C146.609 65.4251 147.096 65.5851 147.549 65.7985C148.016 65.9985 148.396 66.2918 148.689 66.6785C148.983 67.0518 149.129 67.5585 149.129 68.1985C149.129 68.7318 148.983 69.2251 148.689 69.6785C148.409 70.1318 147.969 70.4985 147.369 70.7785C146.783 71.0451 146.023 71.1785 145.089 71.1785ZM155.148 71.1785C154.481 71.1785 153.848 71.0385 153.248 70.7585C152.648 70.4651 152.161 70.0651 151.788 69.5585C151.415 69.0518 151.228 68.4718 151.228 67.8185H153.028C153.028 68.2318 153.148 68.5785 153.388 68.8585C153.628 69.1251 153.921 69.3251 154.268 69.4585C154.615 69.5918 154.955 69.6585 155.288 69.6585C155.955 69.6585 156.488 69.5385 156.888 69.2985C157.288 69.0585 157.488 68.6918 157.488 68.1985C157.488 67.7585 157.341 67.4318 157.048 67.2185C156.755 66.9918 156.381 66.8251 155.928 66.7185C155.475 66.5985 154.988 66.4918 154.468 66.3985C153.948 66.3051 153.461 66.1718 153.008 65.9985C152.555 65.8251 152.181 65.5585 151.888 65.1985C151.595 64.8385 151.448 64.3385 151.448 63.6985C151.448 63.2051 151.581 62.7318 151.848 62.2785C152.115 61.8251 152.515 61.4518 153.048 61.1585C153.595 60.8518 154.275 60.6985 155.088 60.6985C156.061 60.6985 156.828 60.8585 157.388 61.1785C157.961 61.4851 158.368 61.8651 158.608 62.3185C158.861 62.7585 158.988 63.1851 158.988 63.5985H157.268C157.268 63.2651 157.081 62.9518 156.708 62.6585C156.335 62.3651 155.788 62.2185 155.068 62.2185C154.415 62.2185 153.928 62.3518 153.608 62.6185C153.288 62.8718 153.128 63.2118 153.128 63.6385C153.128 64.0118 153.275 64.2985 153.568 64.4985C153.861 64.6985 154.235 64.8585 154.688 64.9785C155.155 65.0851 155.641 65.1985 156.148 65.3185C156.668 65.4251 157.155 65.5851 157.608 65.7985C158.075 65.9985 158.455 66.2918 158.748 66.6785C159.041 67.0518 159.188 67.5585 159.188 68.1985C159.188 68.7318 159.041 69.2251 158.748 69.6785C158.468 70.1318 158.028 70.4985 157.428 70.7785C156.841 71.0451 156.081 71.1785 155.148 71.1785ZM162.907 59.0385C162.587 59.0385 162.307 58.9251 162.067 58.6985C161.84 58.4585 161.727 58.1851 161.727 57.8785C161.727 57.5585 161.84 57.2851 162.067 57.0585C162.307 56.8185 162.587 56.6985 162.907 56.6985C163.213 56.6985 163.48 56.8185 163.707 57.0585C163.933 57.2851 164.047 57.5585 164.047 57.8785C164.047 58.1851 163.933 58.4585 163.707 58.6985C163.48 58.9251 163.213 59.0385 162.907 59.0385ZM162.047 70.9385V60.9385H163.727V70.9385H162.047ZM172.162 71.1785C171.575 71.1785 171.069 71.0718 170.642 70.8585C170.215 70.6451 169.862 70.3718 169.582 70.0385C169.302 69.6918 169.089 69.3385 168.942 68.9785V70.9385H167.322V56.5385H169.002V62.8585C169.149 62.3918 169.389 61.9985 169.722 61.6785C170.055 61.3585 170.449 61.1185 170.902 60.9585C171.355 60.7851 171.809 60.6985 172.262 60.6985C173.142 60.6985 173.909 60.9118 174.562 61.3385C175.229 61.7518 175.749 62.3518 176.122 63.1385C176.495 63.9118 176.682 64.8451 176.682 65.9385C176.682 67.0585 176.489 68.0118 176.102 68.7985C175.715 69.5718 175.182 70.1651 174.502 70.5785C173.822 70.9785 173.042 71.1785 172.162 71.1785ZM172.082 69.6785C172.735 69.6785 173.275 69.5185 173.702 69.1985C174.142 68.8651 174.469 68.4185 174.682 67.8585C174.895 67.2985 175.002 66.6718 175.002 65.9785C175.002 65.2851 174.895 64.6518 174.682 64.0785C174.469 63.5051 174.142 63.0518 173.702 62.7185C173.262 62.3718 172.702 62.2051 172.022 62.2185C171.382 62.2185 170.835 62.3918 170.382 62.7385C169.942 63.0718 169.602 63.5185 169.362 64.0785C169.135 64.6385 169.022 65.2585 169.022 65.9385C169.022 67.0318 169.282 67.9318 169.802 68.6385C170.335 69.3318 171.095 69.6785 172.082 69.6785ZM179.567 70.9385V56.6985H181.247V70.9385H179.567ZM188.743 71.1985C187.903 71.1985 187.123 70.9918 186.403 70.5785C185.683 70.1518 185.103 69.5451 184.663 68.7585C184.223 67.9718 184.003 67.0451 184.003 65.9785C184.003 64.8851 184.223 63.9451 184.663 63.1585C185.103 62.3718 185.683 61.7651 186.403 61.3385C187.123 60.9118 187.903 60.6985 188.743 60.6985C189.597 60.6985 190.363 60.8785 191.043 61.2385C191.737 61.5851 192.283 62.1318 192.683 62.8785C193.097 63.6118 193.303 64.5585 193.303 65.7185V66.3385H185.663C185.717 67.2985 185.997 68.0985 186.503 68.7385C187.01 69.3651 187.743 69.6785 188.703 69.6785C189.303 69.6785 189.85 69.5385 190.343 69.2585C190.837 68.9785 191.223 68.5851 191.503 68.0785L192.983 68.6785C192.157 70.3585 190.743 71.1985 188.743 71.1985ZM188.703 62.2185C187.89 62.2185 187.237 62.4718 186.743 62.9785C186.263 63.4718 185.943 64.0985 185.783 64.8585H191.623C191.623 64.4851 191.51 64.0985 191.283 63.6985C191.07 63.2851 190.75 62.9385 190.323 62.6585C189.897 62.3651 189.357 62.2185 188.703 62.2185ZM204.982 71.1785C203.888 71.1785 203.115 70.9318 202.662 70.4385C202.208 69.9451 201.982 69.2318 201.982 68.2985V62.4785H200.182V60.9385H200.642C201.188 60.9385 201.548 60.8518 201.722 60.6785C201.895 60.4918 201.982 60.1118 201.982 59.5385V58.3985H203.662V60.9585H206.242V62.4785H203.662V68.2985C203.662 68.8318 203.788 69.2051 204.042 69.4185C204.295 69.6318 204.668 69.7385 205.162 69.7385C205.295 69.7385 205.442 69.7318 205.602 69.7185C205.762 69.7051 205.922 69.6851 206.082 69.6585V71.0185C205.722 71.1251 205.355 71.1785 204.982 71.1785ZM212.786 71.1785C211.959 71.1785 211.186 70.9851 210.466 70.5985C209.746 70.1985 209.166 69.6118 208.726 68.8385C208.286 68.0518 208.066 67.0851 208.066 65.9385C208.066 64.7918 208.286 63.8318 208.726 63.0585C209.166 62.2718 209.746 61.6851 210.466 61.2985C211.186 60.8985 211.959 60.6985 212.786 60.6985C213.613 60.6985 214.386 60.8985 215.106 61.2985C215.826 61.6851 216.406 62.2718 216.846 63.0585C217.286 63.8318 217.506 64.7918 217.506 65.9385C217.506 67.0851 217.286 68.0518 216.846 68.8385C216.406 69.6118 215.826 70.1985 215.106 70.5985C214.386 70.9851 213.613 71.1785 212.786 71.1785ZM212.786 69.6585C213.786 69.6585 214.539 69.3318 215.046 68.6785C215.566 68.0251 215.826 67.1118 215.826 65.9385C215.826 64.7651 215.566 63.8518 215.046 63.1985C214.539 62.5451 213.786 62.2185 212.786 62.2185C211.786 62.2185 211.026 62.5451 210.506 63.1985C209.999 63.8518 209.746 64.7651 209.746 65.9385C209.746 67.1118 209.999 68.0251 210.506 68.6785C211.026 69.3318 211.786 69.6585 212.786 69.6585ZM227.279 59.0785C226.932 59.0785 226.632 58.9518 226.379 58.6985C226.126 58.4451 225.999 58.1518 225.999 57.8185C225.999 57.4718 226.126 57.1718 226.379 56.9185C226.632 56.6651 226.932 56.5385 227.279 56.5385C227.626 56.5385 227.919 56.6651 228.159 56.9185C228.399 57.1718 228.519 57.4718 228.519 57.8185C228.519 58.1518 228.399 58.4451 228.159 58.6985C227.919 58.9518 227.626 59.0785 227.279 59.0785ZM225.139 75.5385C224.979 75.5385 224.792 75.5251 224.579 75.4985C224.379 75.4718 224.192 75.4318 224.019 75.3785V74.0185C224.179 74.0451 224.339 74.0651 224.499 74.0785C224.672 74.0918 224.826 74.0985 224.959 74.0985C225.452 74.0985 225.826 73.9851 226.079 73.7585C226.346 73.5451 226.479 73.1718 226.479 72.6385V60.9385H228.159C228.159 62.9385 228.159 64.6318 228.159 66.0185C228.159 67.3918 228.159 68.5185 228.159 69.3985C228.159 70.2651 228.152 70.9318 228.139 71.3985C228.139 71.8785 228.139 72.2051 228.139 72.3785C228.139 72.5651 228.139 72.6585 228.139 72.6585C228.139 73.5918 227.912 74.3051 227.459 74.7985C227.006 75.2918 226.232 75.5385 225.139 75.5385ZM235.035 71.1785C234.061 71.1785 233.255 70.8651 232.615 70.2385C231.988 69.6118 231.675 68.6985 231.675 67.4985V60.9385H233.355V67.2585C233.355 68.1251 233.561 68.7451 233.975 69.1185C234.388 69.4785 234.928 69.6585 235.595 69.6585C236.515 69.6585 237.208 69.3451 237.675 68.7185C238.141 68.0918 238.375 67.2985 238.375 66.3385V60.9385H240.055V70.9385H238.375V69.0585C238.321 69.2851 238.168 69.5718 237.915 69.9185C237.675 70.2518 237.321 70.5451 236.855 70.7985C236.388 71.0518 235.781 71.1785 235.035 71.1785ZM246.808 71.1785C246.142 71.1785 245.508 71.0385 244.908 70.7585C244.308 70.4651 243.822 70.0651 243.448 69.5585C243.075 69.0518 242.888 68.4718 242.888 67.8185H244.688C244.688 68.2318 244.808 68.5785 245.048 68.8585C245.288 69.1251 245.582 69.3251 245.928 69.4585C246.275 69.5918 246.615 69.6585 246.948 69.6585C247.615 69.6585 248.148 69.5385 248.548 69.2985C248.948 69.0585 249.148 68.6918 249.148 68.1985C249.148 67.7585 249.002 67.4318 248.708 67.2185C248.415 66.9918 248.042 66.8251 247.588 66.7185C247.135 66.5985 246.648 66.4918 246.128 66.3985C245.608 66.3051 245.122 66.1718 244.668 65.9985C244.215 65.8251 243.842 65.5585 243.548 65.1985C243.255 64.8385 243.108 64.3385 243.108 63.6985C243.108 63.2051 243.242 62.7318 243.508 62.2785C243.775 61.8251 244.175 61.4518 244.708 61.1585C245.255 60.8518 245.935 60.6985 246.748 60.6985C247.722 60.6985 248.488 60.8585 249.048 61.1785C249.622 61.4851 250.028 61.8651 250.268 62.3185C250.522 62.7585 250.648 63.1851 250.648 63.5985H248.928C248.928 63.2651 248.742 62.9518 248.368 62.6585C247.995 62.3651 247.448 62.2185 246.728 62.2185C246.075 62.2185 245.588 62.3518 245.268 62.6185C244.948 62.8718 244.788 63.2118 244.788 63.6385C244.788 64.0118 244.935 64.2985 245.228 64.4985C245.522 64.6985 245.895 64.8585 246.348 64.9785C246.815 65.0851 247.302 65.1985 247.808 65.3185C248.328 65.4251 248.815 65.5851 249.268 65.7985C249.735 65.9985 250.115 66.2918 250.408 66.6785C250.702 67.0518 250.848 67.5585 250.848 68.1985C250.848 68.7318 250.702 69.2251 250.408 69.6785C250.128 70.1318 249.688 70.4985 249.088 70.7785C248.502 71.0451 247.742 71.1785 246.808 71.1785ZM257.267 71.1785C256.173 71.1785 255.4 70.9318 254.947 70.4385C254.493 69.9451 254.267 69.2318 254.267 68.2985V62.4785H252.467V60.9385H252.927C253.473 60.9385 253.833 60.8518 254.007 60.6785C254.18 60.4918 254.267 60.1118 254.267 59.5385V58.3985H255.947V60.9585H258.527V62.4785H255.947V68.2985C255.947 68.8318 256.073 69.2051 256.327 69.4185C256.58 69.6318 256.953 69.7385 257.447 69.7385C257.58 69.7385 257.727 69.7318 257.887 69.7185C258.047 69.7051 258.207 69.6851 258.367 69.6585V71.0185C258.007 71.1251 257.64 71.1785 257.267 71.1785ZM55.2616 99.5385C54.395 99.5251 53.5816 99.3318 52.8216 98.9585C52.0616 98.5851 51.4883 97.9585 51.1016 97.0785L52.4216 96.2585C52.675 96.8451 53.0483 97.2918 53.5416 97.5985C54.035 97.9051 54.615 98.0585 55.2816 98.0585C56.3883 98.0585 57.1883 97.7651 57.6816 97.1785C58.175 96.5918 58.4216 95.7318 58.4216 94.5985V93.0185C58.2883 93.4718 58.0483 93.8651 57.7016 94.1985C57.3683 94.5185 56.975 94.7651 56.5216 94.9385C56.0816 95.0985 55.6283 95.1785 55.1616 95.1785C54.295 95.1785 53.5283 94.9718 52.8616 94.5585C52.195 94.1318 51.675 93.5318 51.3016 92.7585C50.9283 91.9718 50.7416 91.0318 50.7416 89.9385C50.7416 88.8051 50.935 87.8518 51.3216 87.0785C51.7083 86.3051 52.2416 85.7185 52.9216 85.3185C53.615 84.9051 54.395 84.6985 55.2616 84.6985C55.8483 84.6985 56.355 84.8051 56.7816 85.0185C57.2083 85.2318 57.5616 85.5051 57.8416 85.8385C58.135 86.1718 58.3483 86.5251 58.4816 86.8985V84.9385H60.0816V94.5985C60.0816 95.8518 59.8616 96.8385 59.4216 97.5585C58.995 98.2918 58.415 98.8051 57.6816 99.0985C56.9483 99.4051 56.1416 99.5518 55.2616 99.5385ZM55.4016 93.6585C56.0416 93.6585 56.5816 93.4918 57.0216 93.1585C57.475 92.8118 57.815 92.3585 58.0416 91.7985C58.2816 91.2385 58.4016 90.6185 58.4016 89.9385C58.4016 88.8318 58.135 87.9318 57.6016 87.2385C57.0816 86.5451 56.3283 86.1985 55.3416 86.1985C54.6883 86.1985 54.1416 86.3651 53.7016 86.6985C53.275 87.0185 52.955 87.4585 52.7416 88.0185C52.5283 88.5785 52.4216 89.2051 52.4216 89.8985C52.4216 90.5918 52.5283 91.2251 52.7416 91.7985C52.955 92.3585 53.2816 92.8118 53.7216 93.1585C54.175 93.4918 54.735 93.6585 55.4016 93.6585ZM67.6301 95.1985C66.7901 95.1985 66.0101 94.9918 65.2901 94.5785C64.5701 94.1518 63.9901 93.5451 63.5501 92.7585C63.1101 91.9718 62.8901 91.0451 62.8901 89.9785C62.8901 88.8851 63.1101 87.9451 63.5501 87.1585C63.9901 86.3718 64.5701 85.7651 65.2901 85.3385C66.0101 84.9118 66.7901 84.6985 67.6301 84.6985C68.4834 84.6985 69.2501 84.8785 69.9301 85.2385C70.6234 85.5851 71.1701 86.1318 71.5701 86.8785C71.9834 87.6118 72.1901 88.5585 72.1901 89.7185V90.3385H64.5501C64.6034 91.2985 64.8834 92.0985 65.3901 92.7385C65.8967 93.3651 66.6301 93.6785 67.5901 93.6785C68.1901 93.6785 68.7367 93.5385 69.2301 93.2585C69.7234 92.9785 70.1101 92.5851 70.3901 92.0785L71.8701 92.6785C71.0434 94.3585 69.6301 95.1985 67.6301 95.1985ZM67.5901 86.2185C66.7767 86.2185 66.1234 86.4718 65.6301 86.9785C65.1501 87.4718 64.8301 88.0985 64.6701 88.8585H70.5101C70.5101 88.4851 70.3967 88.0985 70.1701 87.6985C69.9567 87.2851 69.6367 86.9385 69.2101 86.6585C68.7834 86.3651 68.2434 86.2185 67.5901 86.2185ZM78.5168 95.1785C77.4234 95.1785 76.6501 94.9318 76.1968 94.4385C75.7434 93.9451 75.5168 93.2318 75.5168 92.2985V86.4785H73.7168V84.9385H74.1768C74.7234 84.9385 75.0834 84.8518 75.2568 84.6785C75.4301 84.4918 75.5168 84.1118 75.5168 83.5385V82.3985H77.1968V84.9585H79.7768V86.4785H77.1968V92.2985C77.1968 92.8318 77.3234 93.2051 77.5768 93.4185C77.8301 93.6318 78.2034 93.7385 78.6968 93.7385C78.8301 93.7385 78.9768 93.7318 79.1368 93.7185C79.2968 93.7051 79.4568 93.6851 79.6168 93.6585V95.0185C79.2568 95.1251 78.8901 95.1785 78.5168 95.1785ZM91.6726 95.1785C90.8459 95.1785 90.0726 94.9851 89.3526 94.5985C88.6326 94.1985 88.0526 93.6118 87.6126 92.8385C87.1726 92.0518 86.9526 91.0851 86.9526 89.9385C86.9526 88.7918 87.1726 87.8318 87.6126 87.0585C88.0526 86.2718 88.6326 85.6851 89.3526 85.2985C90.0726 84.8985 90.8459 84.6985 91.6726 84.6985C92.4992 84.6985 93.2726 84.8985 93.9926 85.2985C94.7126 85.6851 95.2926 86.2718 95.7326 87.0585C96.1726 87.8318 96.3926 88.7918 96.3926 89.9385C96.3926 91.0851 96.1726 92.0518 95.7326 92.8385C95.2926 93.6118 94.7126 94.1985 93.9926 94.5985C93.2726 94.9851 92.4992 95.1785 91.6726 95.1785ZM91.6726 93.6585C92.6726 93.6585 93.4259 93.3318 93.9326 92.6785C94.4526 92.0251 94.7126 91.1118 94.7126 89.9385C94.7126 88.7651 94.4526 87.8518 93.9326 87.1985C93.4259 86.5451 92.6726 86.2185 91.6726 86.2185C90.6726 86.2185 89.9126 86.5451 89.3926 87.1985C88.8859 87.8518 88.6326 88.7651 88.6326 89.9385C88.6326 91.1118 88.8859 92.0251 89.3926 92.6785C89.9126 93.3318 90.6726 93.6585 91.6726 93.6585ZM100.334 94.9385V86.4585H98.4141V84.9385H100.334V83.4185C100.334 82.4851 100.561 81.7718 101.014 81.2785C101.481 80.7851 102.261 80.5385 103.354 80.5385C103.514 80.5385 103.694 80.5518 103.894 80.5785C104.107 80.6051 104.301 80.6451 104.474 80.6985V82.0585C104.314 82.0318 104.147 82.0118 103.974 81.9985C103.814 81.9851 103.667 81.9785 103.534 81.9785C103.041 81.9785 102.661 82.0851 102.394 82.2985C102.141 82.5118 102.014 82.8918 102.014 83.4385V84.9385H104.574V86.4585H102.014V94.9385H100.334ZM107.834 94.9385V86.4585H105.914V84.9385H107.834V83.4185C107.834 82.4851 108.061 81.7718 108.514 81.2785C108.981 80.7851 109.761 80.5385 110.854 80.5385C111.014 80.5385 111.194 80.5518 111.394 80.5785C111.607 80.6051 111.801 80.6451 111.974 80.6985V82.0585C111.814 82.0318 111.647 82.0118 111.474 81.9985C111.314 81.9851 111.167 81.9785 111.034 81.9785C110.541 81.9785 110.161 82.0851 109.894 82.2985C109.641 82.5118 109.514 82.8918 109.514 83.4385V84.9385H112.074V86.4585H109.514V94.9385H107.834ZM123.146 95.1785C122.052 95.1785 121.279 94.9318 120.826 94.4385C120.372 93.9451 120.146 93.2318 120.146 92.2985V86.4785H118.346V84.9385H118.806C119.352 84.9385 119.712 84.8518 119.886 84.6785C120.059 84.4918 120.146 84.1118 120.146 83.5385V82.3985H121.826V84.9585H124.406V86.4785H121.826V92.2985C121.826 92.8318 121.952 93.2051 122.206 93.4185C122.459 93.6318 122.832 93.7385 123.326 93.7385C123.459 93.7385 123.606 93.7318 123.766 93.7185C123.926 93.7051 124.086 93.6851 124.246 93.6585V95.0185C123.886 95.1251 123.519 95.1785 123.146 95.1785ZM126.99 94.9385V80.6985H128.67V86.8185C128.737 86.5785 128.89 86.2918 129.13 85.9585C129.37 85.6251 129.723 85.3318 130.19 85.0785C130.657 84.8251 131.263 84.6985 132.01 84.6985C132.983 84.6985 133.783 85.0118 134.41 85.6385C135.05 86.2651 135.37 87.1785 135.37 88.3785V94.9385H133.69V88.6185C133.69 87.7518 133.483 87.1385 133.07 86.7785C132.657 86.4051 132.117 86.2185 131.45 86.2185C130.53 86.2185 129.837 86.5318 129.37 87.1585C128.903 87.7851 128.67 88.5785 128.67 89.5385V94.9385H126.99ZM142.903 95.1985C142.063 95.1985 141.283 94.9918 140.563 94.5785C139.843 94.1518 139.263 93.5451 138.823 92.7585C138.383 91.9718 138.163 91.0451 138.163 89.9785C138.163 88.8851 138.383 87.9451 138.823 87.1585C139.263 86.3718 139.843 85.7651 140.563 85.3385C141.283 84.9118 142.063 84.6985 142.903 84.6985C143.757 84.6985 144.523 84.8785 145.203 85.2385C145.897 85.5851 146.443 86.1318 146.843 86.8785C147.257 87.6118 147.463 88.5585 147.463 89.7185V90.3385H139.823C139.877 91.2985 140.157 92.0985 140.663 92.7385C141.17 93.3651 141.903 93.6785 142.863 93.6785C143.463 93.6785 144.01 93.5385 144.503 93.2585C144.997 92.9785 145.383 92.5851 145.663 92.0785L147.143 92.6785C146.317 94.3585 144.903 95.1985 142.903 95.1985ZM142.863 86.2185C142.05 86.2185 141.397 86.4718 140.903 86.9785C140.423 87.4718 140.103 88.0985 139.943 88.8585H145.783C145.783 88.4851 145.67 88.0985 145.443 87.6985C145.23 87.2851 144.91 86.9385 144.483 86.6585C144.057 86.3651 143.517 86.2185 142.863 86.2185ZM155.662 94.9385V84.9385H157.342V86.8185C157.408 86.5785 157.562 86.2918 157.802 85.9585C158.042 85.6251 158.395 85.3318 158.862 85.0785C159.328 84.8251 159.935 84.6985 160.682 84.6985C161.442 84.6985 162.102 84.8985 162.662 85.2985C163.235 85.6851 163.635 86.2585 163.862 87.0185V86.9785C163.928 86.7385 164.095 86.4385 164.362 86.0785C164.628 85.7185 165.008 85.3985 165.502 85.1185C166.008 84.8385 166.635 84.6985 167.382 84.6985C168.355 84.6985 169.155 85.0118 169.782 85.6385C170.422 86.2651 170.742 87.1785 170.742 88.3785V94.9385H169.062V88.6185C169.062 87.7518 168.855 87.1385 168.442 86.7785C168.028 86.4051 167.488 86.2185 166.822 86.2185C165.902 86.2185 165.208 86.5318 164.742 87.1585C164.275 87.7851 164.042 88.5785 164.042 89.5385V94.9385H162.362V88.6185C162.362 87.7518 162.155 87.1385 161.742 86.7785C161.328 86.4051 160.788 86.2185 160.122 86.2185C159.202 86.2185 158.508 86.5318 158.042 87.1585C157.575 87.7851 157.342 88.5785 157.342 89.5385V94.9385H155.662ZM177.994 95.1785C177.127 95.1785 176.36 94.9718 175.694 94.5585C175.027 94.1318 174.507 93.5318 174.134 92.7585C173.76 91.9718 173.574 91.0318 173.574 89.9385C173.574 88.8051 173.767 87.8518 174.154 87.0785C174.54 86.3051 175.074 85.7185 175.754 85.3185C176.447 84.9051 177.227 84.6985 178.094 84.6985C178.68 84.6985 179.187 84.8051 179.614 85.0185C180.04 85.2318 180.394 85.5051 180.674 85.8385C180.967 86.1718 181.18 86.5251 181.314 86.8985V84.9385H182.914V94.9385H181.254V93.0185C181.12 93.4718 180.88 93.8651 180.534 94.1985C180.2 94.5185 179.807 94.7651 179.354 94.9385C178.914 95.0985 178.46 95.1785 177.994 95.1785ZM178.234 93.6585C178.874 93.6585 179.414 93.4918 179.854 93.1585C180.307 92.8118 180.647 92.3585 180.874 91.7985C181.114 91.2385 181.234 90.6185 181.234 89.9385C181.234 88.8318 180.967 87.9318 180.434 87.2385C179.914 86.5451 179.16 86.1985 178.174 86.1985C177.52 86.1985 176.974 86.3651 176.534 86.6985C176.107 87.0185 175.787 87.4585 175.574 88.0185C175.36 88.5785 175.254 89.2051 175.254 89.8985C175.254 90.5918 175.36 91.2251 175.574 91.7985C175.787 92.3585 176.114 92.8118 176.554 93.1585C177.007 93.4918 177.567 93.6585 178.234 93.6585ZM189.962 95.1785C188.869 95.1785 188.095 94.9318 187.642 94.4385C187.189 93.9451 186.962 93.2318 186.962 92.2985V86.4785H185.162V84.9385H185.622C186.169 84.9385 186.529 84.8518 186.702 84.6785C186.875 84.4918 186.962 84.1118 186.962 83.5385V82.3985H188.642V84.9585H191.222V86.4785H188.642V92.2985C188.642 92.8318 188.769 93.2051 189.022 93.4185C189.275 93.6318 189.649 93.7385 190.142 93.7385C190.275 93.7385 190.422 93.7318 190.582 93.7185C190.742 93.7051 190.902 93.6851 191.062 93.6585V95.0185C190.702 95.1251 190.335 95.1785 189.962 95.1785ZM196.886 95.1785C196.22 95.1785 195.586 95.0385 194.986 94.7585C194.386 94.4651 193.9 94.0651 193.526 93.5585C193.153 93.0518 192.966 92.4718 192.966 91.8185H194.766C194.766 92.2318 194.886 92.5785 195.126 92.8585C195.366 93.1251 195.66 93.3251 196.006 93.4585C196.353 93.5918 196.693 93.6585 197.026 93.6585C197.693 93.6585 198.226 93.5385 198.626 93.2985C199.026 93.0585 199.226 92.6918 199.226 92.1985C199.226 91.7585 199.08 91.4318 198.786 91.2185C198.493 90.9918 198.12 90.8251 197.666 90.7185C197.213 90.5985 196.726 90.4918 196.206 90.3985C195.686 90.3051 195.2 90.1718 194.746 89.9985C194.293 89.8251 193.92 89.5585 193.626 89.1985C193.333 88.8385 193.186 88.3385 193.186 87.6985C193.186 87.2051 193.32 86.7318 193.586 86.2785C193.853 85.8251 194.253 85.4518 194.786 85.1585C195.333 84.8518 196.013 84.6985 196.826 84.6985C197.8 84.6985 198.566 84.8585 199.126 85.1785C199.7 85.4851 200.106 85.8651 200.346 86.3185C200.6 86.7585 200.726 87.1851 200.726 87.5985H199.006C199.006 87.2651 198.82 86.9518 198.446 86.6585C198.073 86.3651 197.526 86.2185 196.806 86.2185C196.153 86.2185 195.666 86.3518 195.346 86.6185C195.026 86.8718 194.866 87.2118 194.866 87.6385C194.866 88.0118 195.013 88.2985 195.306 88.4985C195.6 88.6985 195.973 88.8585 196.426 88.9785C196.893 89.0851 197.38 89.1985 197.886 89.3185C198.406 89.4251 198.893 89.5851 199.346 89.7985C199.813 89.9985 200.193 90.2918 200.486 90.6785C200.78 91.0518 200.926 91.5585 200.926 92.1985C200.926 92.7318 200.78 93.2251 200.486 93.6785C200.206 94.1318 199.766 94.4985 199.166 94.7785C198.58 95.0451 197.82 95.1785 196.886 95.1785ZM203.025 97.3185C203.025 97.3185 203.025 97.2585 203.025 97.1385C203.025 97.0318 203.025 96.9251 203.025 96.8185C203.025 96.7118 203.025 96.6585 203.025 96.6585C203.025 96.6585 203.098 96.6318 203.245 96.5785C203.392 96.5385 203.565 96.4518 203.765 96.3185C203.965 96.1985 204.138 96.0251 204.285 95.7985C204.432 95.5718 204.505 95.2785 204.505 94.9185C204.492 94.9318 204.458 94.9385 204.405 94.9385C204.365 94.9385 204.332 94.9385 204.305 94.9385C203.972 94.9385 203.672 94.8118 203.405 94.5585C203.152 94.2918 203.025 93.9918 203.025 93.6585C203.025 93.3118 203.152 92.9918 203.405 92.6985C203.672 92.4051 203.985 92.2585 204.345 92.2585C204.812 92.2585 205.185 92.4251 205.465 92.7585C205.758 93.0785 205.905 93.4851 205.905 93.9785C205.905 94.5518 205.792 95.0918 205.565 95.5985C205.352 96.1185 205.032 96.5318 204.605 96.8385C204.178 97.1585 203.652 97.3185 203.025 97.3185ZM214.099 94.9385V80.6985H215.779V86.8185C215.846 86.5785 215.999 86.2918 216.239 85.9585C216.479 85.6251 216.833 85.3318 217.299 85.0785C217.766 84.8251 218.373 84.6985 219.119 84.6985C220.093 84.6985 220.893 85.0118 221.519 85.6385C222.159 86.2651 222.479 87.1785 222.479 88.3785V94.9385H220.799V88.6185C220.799 87.7518 220.593 87.1385 220.179 86.7785C219.766 86.4051 219.226 86.2185 218.559 86.2185C217.639 86.2185 216.946 86.5318 216.479 87.1585C216.013 87.7851 215.779 88.5785 215.779 89.5385V94.9385H214.099ZM229.993 95.1785C229.166 95.1785 228.393 94.9851 227.673 94.5985C226.953 94.1985 226.373 93.6118 225.933 92.8385C225.493 92.0518 225.273 91.0851 225.273 89.9385C225.273 88.7918 225.493 87.8318 225.933 87.0585C226.373 86.2718 226.953 85.6851 227.673 85.2985C228.393 84.8985 229.166 84.6985 229.993 84.6985C230.82 84.6985 231.593 84.8985 232.313 85.2985C233.033 85.6851 233.613 86.2718 234.053 87.0585C234.493 87.8318 234.713 88.7918 234.713 89.9385C234.713 91.0851 234.493 92.0518 234.053 92.8385C233.613 93.6118 233.033 94.1985 232.313 94.5985C231.593 94.9851 230.82 95.1785 229.993 95.1785ZM229.993 93.6585C230.993 93.6585 231.746 93.3318 232.253 92.6785C232.773 92.0251 233.033 91.1118 233.033 89.9385C233.033 88.7651 232.773 87.8518 232.253 87.1985C231.746 86.5451 230.993 86.2185 229.993 86.2185C228.993 86.2185 228.233 86.5451 227.713 87.1985C227.206 87.8518 226.953 88.7651 226.953 89.9385C226.953 91.1118 227.206 92.0251 227.713 92.6785C228.233 93.3318 228.993 93.6585 229.993 93.6585ZM239.274 94.9385L236.494 84.9585H238.314L240.294 93.2785L242.574 84.9585H244.414L246.674 93.2985L248.674 84.9585H250.494L247.714 94.9385H245.454L243.494 87.5985L241.454 94.9385H239.274ZM43.5015 119.178C42.6348 119.178 41.8681 118.972 41.2015 118.558C40.5348 118.132 40.0148 117.532 39.6415 116.758C39.2681 115.972 39.0815 115.032 39.0815 113.938C39.0815 112.805 39.2748 111.852 39.6615 111.078C40.0481 110.305 40.5815 109.718 41.2615 109.318C41.9548 108.905 42.7348 108.698 43.6015 108.698C44.1881 108.698 44.6948 108.805 45.1215 109.018C45.5481 109.232 45.9015 109.505 46.1815 109.838C46.4748 110.172 46.6881 110.525 46.8215 110.898V108.938H48.4215V118.938H46.7615V117.018C46.6281 117.472 46.3881 117.865 46.0415 118.198C45.7081 118.518 45.3148 118.765 44.8615 118.938C44.4215 119.098 43.9681 119.178 43.5015 119.178ZM43.7415 117.658C44.3815 117.658 44.9215 117.492 45.3615 117.158C45.8148 116.812 46.1548 116.358 46.3815 115.798C46.6215 115.238 46.7415 114.618 46.7415 113.938C46.7415 112.832 46.4748 111.932 45.9415 111.238C45.4215 110.545 44.6681 110.198 43.6815 110.198C43.0281 110.198 42.4815 110.365 42.0415 110.698C41.6148 111.018 41.2948 111.458 41.0815 112.018C40.8681 112.578 40.7615 113.205 40.7615 113.898C40.7615 114.592 40.8681 115.225 41.0815 115.798C41.2948 116.358 41.6215 116.812 42.0615 117.158C42.5148 117.492 43.0748 117.658 43.7415 117.658ZM51.9899 118.938V108.938H53.6699V110.818C53.7366 110.578 53.8899 110.292 54.1299 109.958C54.3699 109.625 54.7232 109.332 55.1899 109.078C55.6566 108.825 56.2632 108.698 57.0099 108.698C57.7699 108.698 58.4299 108.898 58.9899 109.298C59.5632 109.685 59.9632 110.258 60.1899 111.018V110.978C60.2566 110.738 60.4232 110.438 60.6899 110.078C60.9566 109.718 61.3366 109.398 61.8299 109.118C62.3366 108.838 62.9632 108.698 63.7099 108.698C64.6832 108.698 65.4832 109.012 66.1099 109.638C66.7499 110.265 67.0699 111.178 67.0699 112.378V118.938H65.3899V112.618C65.3899 111.752 65.1832 111.138 64.7699 110.778C64.3566 110.405 63.8166 110.218 63.1499 110.218C62.2299 110.218 61.5366 110.532 61.0699 111.158C60.6032 111.785 60.3699 112.578 60.3699 113.538V118.938H58.6899V112.618C58.6899 111.752 58.4832 111.138 58.0699 110.778C57.6566 110.405 57.1166 110.218 56.4499 110.218C55.5299 110.218 54.8366 110.532 54.3699 111.158C53.9032 111.785 53.6699 112.578 53.6699 113.538V118.938H51.9899ZM75.6733 118.938V117.458H78.0533V106.458H75.6733V104.938H82.1933V106.458H79.8133V117.418H82.1933V118.938H75.6733ZM93.9566 119.178C93.29 119.178 92.6566 119.038 92.0566 118.758C91.4566 118.465 90.97 118.065 90.5966 117.558C90.2233 117.052 90.0366 116.472 90.0366 115.818H91.8366C91.8366 116.232 91.9566 116.578 92.1966 116.858C92.4366 117.125 92.73 117.325 93.0766 117.458C93.4233 117.592 93.7633 117.658 94.0966 117.658C94.7633 117.658 95.2966 117.538 95.6966 117.298C96.0966 117.058 96.2966 116.692 96.2966 116.198C96.2966 115.758 96.15 115.432 95.8566 115.218C95.5633 114.992 95.19 114.825 94.7366 114.718C94.2833 114.598 93.7966 114.492 93.2766 114.398C92.7566 114.305 92.27 114.172 91.8166 113.998C91.3633 113.825 90.99 113.558 90.6966 113.198C90.4033 112.838 90.2566 112.338 90.2566 111.698C90.2566 111.205 90.39 110.732 90.6566 110.278C90.9233 109.825 91.3233 109.452 91.8566 109.158C92.4033 108.852 93.0833 108.698 93.8966 108.698C94.87 108.698 95.6366 108.858 96.1966 109.178C96.77 109.485 97.1766 109.865 97.4166 110.318C97.67 110.758 97.7966 111.185 97.7966 111.598H96.0766C96.0766 111.265 95.89 110.952 95.5166 110.658C95.1433 110.365 94.5966 110.218 93.8766 110.218C93.2233 110.218 92.7366 110.352 92.4166 110.618C92.0966 110.872 91.9366 111.212 91.9366 111.638C91.9366 112.012 92.0833 112.298 92.3766 112.498C92.67 112.698 93.0433 112.858 93.4966 112.978C93.9633 113.085 94.45 113.198 94.9566 113.318C95.4766 113.425 95.9633 113.585 96.4166 113.798C96.8833 113.998 97.2633 114.292 97.5566 114.678C97.85 115.052 97.9966 115.558 97.9966 116.198C97.9966 116.732 97.85 117.225 97.5566 117.678C97.2766 118.132 96.8366 118.498 96.2366 118.778C95.65 119.045 94.89 119.178 93.9566 119.178ZM104.175 119.178C103.202 119.178 102.395 118.865 101.755 118.238C101.129 117.612 100.815 116.698 100.815 115.498V108.938H102.495V115.258C102.495 116.125 102.702 116.745 103.115 117.118C103.529 117.478 104.069 117.658 104.735 117.658C105.655 117.658 106.349 117.345 106.815 116.718C107.282 116.092 107.515 115.298 107.515 114.338V108.938H109.195V118.938H107.515V117.058C107.462 117.285 107.309 117.572 107.055 117.918C106.815 118.252 106.462 118.545 105.995 118.798C105.529 119.052 104.922 119.178 104.175 119.178ZM112.869 123.538V108.938H114.489V110.898C114.635 110.525 114.849 110.172 115.129 109.838C115.409 109.505 115.762 109.232 116.189 109.018C116.615 108.805 117.122 108.698 117.709 108.698C118.589 108.698 119.369 108.905 120.049 109.318C120.729 109.718 121.262 110.305 121.649 111.078C122.035 111.852 122.229 112.805 122.229 113.938C122.229 115.032 122.042 115.972 121.669 116.758C121.295 117.532 120.775 118.132 120.109 118.558C119.455 118.972 118.689 119.178 117.809 119.178C117.355 119.178 116.902 119.098 116.449 118.938C115.995 118.765 115.602 118.518 115.269 118.198C114.935 117.865 114.695 117.472 114.549 117.018V123.538H112.869ZM117.569 117.658C118.249 117.658 118.809 117.492 119.249 117.158C119.689 116.825 120.015 116.372 120.229 115.798C120.442 115.225 120.549 114.592 120.549 113.898C120.549 113.205 120.442 112.578 120.229 112.018C120.015 111.458 119.689 111.018 119.249 110.698C118.822 110.365 118.282 110.198 117.629 110.198C116.642 110.198 115.882 110.545 115.349 111.238C114.829 111.932 114.569 112.832 114.569 113.938C114.569 114.618 114.682 115.238 114.909 115.798C115.149 116.358 115.489 116.805 115.929 117.138C116.382 117.472 116.929 117.645 117.569 117.658ZM125.154 123.538V108.938H126.774V110.898C126.921 110.525 127.134 110.172 127.414 109.838C127.694 109.505 128.047 109.232 128.474 109.018C128.901 108.805 129.407 108.698 129.994 108.698C130.874 108.698 131.654 108.905 132.334 109.318C133.014 109.718 133.547 110.305 133.934 111.078C134.321 111.852 134.514 112.805 134.514 113.938C134.514 115.032 134.327 115.972 133.954 116.758C133.581 117.532 133.061 118.132 132.394 118.558C131.741 118.972 130.974 119.178 130.094 119.178C129.641 119.178 129.187 119.098 128.734 118.938C128.281 118.765 127.887 118.518 127.554 118.198C127.221 117.865 126.981 117.472 126.834 117.018V123.538H125.154ZM129.854 117.658C130.534 117.658 131.094 117.492 131.534 117.158C131.974 116.825 132.301 116.372 132.514 115.798C132.727 115.225 132.834 114.592 132.834 113.898C132.834 113.205 132.727 112.578 132.514 112.018C132.301 111.458 131.974 111.018 131.534 110.698C131.107 110.365 130.567 110.198 129.914 110.198C128.927 110.198 128.167 110.545 127.634 111.238C127.114 111.932 126.854 112.832 126.854 113.938C126.854 114.618 126.967 115.238 127.194 115.798C127.434 116.358 127.774 116.805 128.214 117.138C128.667 117.472 129.214 117.645 129.854 117.658ZM141.399 119.178C140.572 119.178 139.799 118.985 139.079 118.598C138.359 118.198 137.779 117.612 137.339 116.838C136.899 116.052 136.679 115.085 136.679 113.938C136.679 112.792 136.899 111.832 137.339 111.058C137.779 110.272 138.359 109.685 139.079 109.298C139.799 108.898 140.572 108.698 141.399 108.698C142.226 108.698 142.999 108.898 143.719 109.298C144.439 109.685 145.019 110.272 145.459 111.058C145.899 111.832 146.119 112.792 146.119 113.938C146.119 115.085 145.899 116.052 145.459 116.838C145.019 117.612 144.439 118.198 143.719 118.598C142.999 118.985 142.226 119.178 141.399 119.178ZM141.399 117.658C142.399 117.658 143.152 117.332 143.659 116.678C144.179 116.025 144.439 115.112 144.439 113.938C144.439 112.765 144.179 111.852 143.659 111.198C143.152 110.545 142.399 110.218 141.399 110.218C140.399 110.218 139.639 110.545 139.119 111.198C138.612 111.852 138.359 112.765 138.359 113.938C138.359 115.112 138.612 116.025 139.119 116.678C139.639 117.332 140.399 117.658 141.399 117.658ZM152.121 119.178C151.454 119.178 150.821 119.038 150.221 118.758C149.621 118.465 149.134 118.065 148.761 117.558C148.387 117.052 148.201 116.472 148.201 115.818H150.001C150.001 116.232 150.121 116.578 150.361 116.858C150.601 117.125 150.894 117.325 151.241 117.458C151.587 117.592 151.927 117.658 152.261 117.658C152.927 117.658 153.461 117.538 153.861 117.298C154.261 117.058 154.461 116.692 154.461 116.198C154.461 115.758 154.314 115.432 154.021 115.218C153.727 114.992 153.354 114.825 152.901 114.718C152.447 114.598 151.961 114.492 151.441 114.398C150.921 114.305 150.434 114.172 149.981 113.998C149.527 113.825 149.154 113.558 148.861 113.198C148.567 112.838 148.421 112.338 148.421 111.698C148.421 111.205 148.554 110.732 148.821 110.278C149.087 109.825 149.487 109.452 150.021 109.158C150.567 108.852 151.247 108.698 152.061 108.698C153.034 108.698 153.801 108.858 154.361 109.178C154.934 109.485 155.341 109.865 155.581 110.318C155.834 110.758 155.961 111.185 155.961 111.598H154.241C154.241 111.265 154.054 110.952 153.681 110.658C153.307 110.365 152.761 110.218 152.041 110.218C151.387 110.218 150.901 110.352 150.581 110.618C150.261 110.872 150.101 111.212 150.101 111.638C150.101 112.012 150.247 112.298 150.541 112.498C150.834 112.698 151.207 112.858 151.661 112.978C152.127 113.085 152.614 113.198 153.121 113.318C153.641 113.425 154.127 113.585 154.581 113.798C155.047 113.998 155.427 114.292 155.721 114.678C156.014 115.052 156.161 115.558 156.161 116.198C156.161 116.732 156.014 117.225 155.721 117.678C155.441 118.132 155.001 118.498 154.401 118.778C153.814 119.045 153.054 119.178 152.121 119.178ZM163.079 119.198C162.239 119.198 161.459 118.992 160.739 118.578C160.019 118.152 159.439 117.545 158.999 116.758C158.559 115.972 158.339 115.045 158.339 113.978C158.339 112.885 158.559 111.945 158.999 111.158C159.439 110.372 160.019 109.765 160.739 109.338C161.459 108.912 162.239 108.698 163.079 108.698C163.933 108.698 164.699 108.878 165.379 109.238C166.073 109.585 166.619 110.132 167.019 110.878C167.433 111.612 167.639 112.558 167.639 113.718V114.338H159.999C160.053 115.298 160.333 116.098 160.839 116.738C161.346 117.365 162.079 117.678 163.039 117.678C163.639 117.678 164.186 117.538 164.679 117.258C165.173 116.978 165.559 116.585 165.839 116.078L167.319 116.678C166.493 118.358 165.079 119.198 163.079 119.198ZM163.039 110.218C162.226 110.218 161.573 110.472 161.079 110.978C160.599 111.472 160.279 112.098 160.119 112.858H165.959C165.959 112.485 165.846 112.098 165.619 111.698C165.406 111.285 165.086 110.938 164.659 110.658C164.233 110.365 163.693 110.218 163.039 110.218ZM174.246 119.178C173.379 119.178 172.599 118.978 171.906 118.578C171.226 118.165 170.693 117.572 170.306 116.798C169.919 116.012 169.726 115.058 169.726 113.938C169.726 112.845 169.913 111.912 170.286 111.138C170.659 110.352 171.179 109.752 171.846 109.338C172.513 108.912 173.279 108.698 174.146 108.698C174.613 108.698 175.066 108.785 175.506 108.958C175.959 109.118 176.353 109.358 176.686 109.678C177.033 109.998 177.273 110.392 177.406 110.858V104.698H179.086V116.418C179.086 116.818 179.173 117.105 179.346 117.278C179.519 117.438 179.853 117.465 180.346 117.358V118.718C180.213 118.798 180.066 118.858 179.906 118.898C179.759 118.938 179.559 118.958 179.306 118.958C178.786 118.958 178.353 118.805 178.006 118.498C177.659 118.192 177.486 117.685 177.486 116.978C177.339 117.338 177.126 117.692 176.846 118.038C176.566 118.372 176.206 118.645 175.766 118.858C175.339 119.072 174.833 119.178 174.246 119.178ZM174.326 117.678C175.313 117.678 176.066 117.332 176.586 116.638C177.119 115.932 177.386 115.032 177.386 113.938C177.386 113.258 177.266 112.638 177.026 112.078C176.799 111.505 176.459 111.052 176.006 110.718C175.566 110.385 175.026 110.218 174.386 110.218C173.719 110.218 173.159 110.392 172.706 110.738C172.266 111.072 171.939 111.525 171.726 112.098C171.513 112.658 171.406 113.285 171.406 113.978C171.406 114.672 171.513 115.298 171.726 115.858C171.939 116.418 172.259 116.865 172.686 117.198C173.126 117.518 173.673 117.678 174.326 117.678ZM191.857 119.178C190.763 119.178 189.99 118.932 189.537 118.438C189.083 117.945 188.857 117.232 188.857 116.298V110.478H187.057V108.938H187.517C188.063 108.938 188.423 108.852 188.597 108.678C188.77 108.492 188.857 108.112 188.857 107.538V106.398H190.537V108.958H193.117V110.478H190.537V116.298C190.537 116.832 190.663 117.205 190.917 117.418C191.17 117.632 191.543 117.738 192.037 117.738C192.17 117.738 192.317 117.732 192.477 117.718C192.637 117.705 192.797 117.685 192.957 117.658V119.018C192.597 119.125 192.23 119.178 191.857 119.178ZM199.661 119.178C198.834 119.178 198.061 118.985 197.341 118.598C196.621 118.198 196.041 117.612 195.601 116.838C195.161 116.052 194.941 115.085 194.941 113.938C194.941 112.792 195.161 111.832 195.601 111.058C196.041 110.272 196.621 109.685 197.341 109.298C198.061 108.898 198.834 108.698 199.661 108.698C200.488 108.698 201.261 108.898 201.981 109.298C202.701 109.685 203.281 110.272 203.721 111.058C204.161 111.832 204.381 112.792 204.381 113.938C204.381 115.085 204.161 116.052 203.721 116.838C203.281 117.612 202.701 118.198 201.981 118.598C201.261 118.985 200.488 119.178 199.661 119.178ZM199.661 117.658C200.661 117.658 201.414 117.332 201.921 116.678C202.441 116.025 202.701 115.112 202.701 113.938C202.701 112.765 202.441 111.852 201.921 111.198C201.414 110.545 200.661 110.218 199.661 110.218C198.661 110.218 197.901 110.545 197.381 111.198C196.874 111.852 196.621 112.765 196.621 113.938C196.621 115.112 196.874 116.025 197.381 116.678C197.901 117.332 198.661 117.658 199.661 117.658ZM216.654 119.198C215.814 119.198 215.027 118.992 214.294 118.578C213.574 118.152 212.994 117.545 212.554 116.758C212.114 115.972 211.894 115.045 211.894 113.978C211.894 112.885 212.114 111.945 212.554 111.158C212.994 110.372 213.574 109.765 214.294 109.338C215.027 108.912 215.814 108.698 216.654 108.698C217.534 108.698 218.327 108.932 219.034 109.398C219.741 109.852 220.267 110.492 220.614 111.318L219.094 111.918C218.881 111.412 218.561 111.005 218.134 110.698C217.721 110.378 217.214 110.218 216.614 110.218C215.934 110.218 215.367 110.385 214.914 110.718C214.474 111.038 214.141 111.478 213.914 112.038C213.687 112.598 213.574 113.225 213.574 113.918C213.574 114.612 213.687 115.245 213.914 115.818C214.141 116.378 214.474 116.832 214.914 117.178C215.367 117.512 215.934 117.678 216.614 117.678C217.214 117.678 217.721 117.525 218.134 117.218C218.561 116.898 218.881 116.485 219.094 115.978L220.614 116.578C220.267 117.405 219.734 118.052 219.014 118.518C218.307 118.972 217.521 119.198 216.654 119.198ZM223.337 118.938V104.698H225.017V118.938H223.337ZM229.313 107.038C228.993 107.038 228.713 106.925 228.473 106.698C228.246 106.458 228.133 106.185 228.133 105.878C228.133 105.558 228.246 105.285 228.473 105.058C228.713 104.818 228.993 104.698 229.313 104.698C229.62 104.698 229.886 104.818 230.113 105.058C230.34 105.285 230.453 105.558 230.453 105.878C230.453 106.185 230.34 106.458 230.113 106.698C229.886 106.925 229.62 107.038 229.313 107.038ZM228.453 118.938V108.938H230.133V118.938H228.453ZM233.728 118.938V108.938H235.408V110.818C235.475 110.578 235.628 110.292 235.868 109.958C236.108 109.625 236.462 109.332 236.928 109.078C237.395 108.825 238.002 108.698 238.748 108.698C239.508 108.698 240.168 108.898 240.728 109.298C241.302 109.685 241.702 110.258 241.928 111.018V110.978C241.995 110.738 242.162 110.438 242.428 110.078C242.695 109.718 243.075 109.398 243.568 109.118C244.075 108.838 244.702 108.698 245.448 108.698C246.422 108.698 247.222 109.012 247.848 109.638C248.488 110.265 248.808 111.178 248.808 112.378V118.938H247.128V112.618C247.128 111.752 246.922 111.138 246.508 110.778C246.095 110.405 245.555 110.218 244.888 110.218C243.968 110.218 243.275 110.532 242.808 111.158C242.342 111.785 242.108 112.578 242.108 113.538V118.938H240.428V112.618C240.428 111.752 240.222 111.138 239.808 110.778C239.395 110.405 238.855 110.218 238.188 110.218C237.268 110.218 236.575 110.532 236.108 111.158C235.642 111.785 235.408 112.578 235.408 113.538V118.938H233.728ZM257.24 119.178C256.653 119.178 256.147 119.072 255.72 118.858C255.293 118.645 254.94 118.372 254.66 118.038C254.38 117.692 254.167 117.338 254.02 116.978V118.938H252.4V104.538H254.08V110.858C254.227 110.392 254.467 109.998 254.8 109.678C255.133 109.358 255.527 109.118 255.98 108.958C256.433 108.785 256.887 108.698 257.34 108.698C258.22 108.698 258.987 108.912 259.64 109.338C260.307 109.752 260.827 110.352 261.2 111.138C261.573 111.912 261.76 112.845 261.76 113.938C261.76 115.058 261.567 116.012 261.18 116.798C260.793 117.572 260.26 118.165 259.58 118.578C258.9 118.978 258.12 119.178 257.24 119.178ZM257.16 117.678C257.813 117.678 258.353 117.518 258.78 117.198C259.22 116.865 259.547 116.418 259.76 115.858C259.973 115.298 260.08 114.672 260.08 113.978C260.08 113.285 259.973 112.652 259.76 112.078C259.547 111.505 259.22 111.052 258.78 110.718C258.34 110.372 257.78 110.205 257.1 110.218C256.46 110.218 255.913 110.392 255.46 110.738C255.02 111.072 254.68 111.518 254.44 112.078C254.213 112.638 254.1 113.258 254.1 113.938C254.1 115.032 254.36 115.932 254.88 116.638C255.413 117.332 256.173 117.678 257.16 117.678ZM94.591 143.178C93.4977 143.178 92.7243 142.932 92.271 142.438C91.8177 141.945 91.591 141.232 91.591 140.298V134.478H89.791V132.938H90.251C90.7977 132.938 91.1577 132.852 91.331 132.678C91.5043 132.492 91.591 132.112 91.591 131.538V130.398H93.271V132.958H95.851V134.478H93.271V140.298C93.271 140.832 93.3977 141.205 93.651 141.418C93.9043 141.632 94.2777 141.738 94.771 141.738C94.9043 141.738 95.051 141.732 95.211 141.718C95.371 141.705 95.531 141.685 95.691 141.658V143.018C95.331 143.125 94.9643 143.178 94.591 143.178ZM102.395 143.178C101.569 143.178 100.795 142.985 100.075 142.598C99.3552 142.198 98.7752 141.612 98.3352 140.838C97.8952 140.052 97.6752 139.085 97.6752 137.938C97.6752 136.792 97.8952 135.832 98.3352 135.058C98.7752 134.272 99.3552 133.685 100.075 133.298C100.795 132.898 101.569 132.698 102.395 132.698C103.222 132.698 103.995 132.898 104.715 133.298C105.435 133.685 106.015 134.272 106.455 135.058C106.895 135.832 107.115 136.792 107.115 137.938C107.115 139.085 106.895 140.052 106.455 140.838C106.015 141.612 105.435 142.198 104.715 142.598C103.995 142.985 103.222 143.178 102.395 143.178ZM102.395 141.658C103.395 141.658 104.149 141.332 104.655 140.678C105.175 140.025 105.435 139.112 105.435 137.938C105.435 136.765 105.175 135.852 104.655 135.198C104.149 134.545 103.395 134.218 102.395 134.218C101.395 134.218 100.635 134.545 100.115 135.198C99.6085 135.852 99.3552 136.765 99.3552 137.938C99.3552 139.112 99.6085 140.025 100.115 140.678C100.635 141.332 101.395 141.658 102.395 141.658ZM118.868 143.178C117.775 143.178 117.002 142.932 116.548 142.438C116.095 141.945 115.868 141.232 115.868 140.298V134.478H114.068V132.938H114.528C115.075 132.938 115.435 132.852 115.608 132.678C115.782 132.492 115.868 132.112 115.868 131.538V130.398H117.548V132.958H120.128V134.478H117.548V140.298C117.548 140.832 117.675 141.205 117.928 141.418C118.182 141.632 118.555 141.738 119.048 141.738C119.182 141.738 119.328 141.732 119.488 141.718C119.648 141.705 119.808 141.685 119.968 141.658V143.018C119.608 143.125 119.242 143.178 118.868 143.178ZM122.713 142.938V128.698H124.393V134.818C124.459 134.578 124.613 134.292 124.853 133.958C125.093 133.625 125.446 133.332 125.913 133.078C126.379 132.825 126.986 132.698 127.733 132.698C128.706 132.698 129.506 133.012 130.133 133.638C130.773 134.265 131.093 135.178 131.093 136.378V142.938H129.413V136.618C129.413 135.752 129.206 135.138 128.793 134.778C128.379 134.405 127.839 134.218 127.173 134.218C126.253 134.218 125.559 134.532 125.093 135.158C124.626 135.785 124.393 136.578 124.393 137.538V142.938H122.713ZM138.626 143.198C137.786 143.198 137.006 142.992 136.286 142.578C135.566 142.152 134.986 141.545 134.546 140.758C134.106 139.972 133.886 139.045 133.886 137.978C133.886 136.885 134.106 135.945 134.546 135.158C134.986 134.372 135.566 133.765 136.286 133.338C137.006 132.912 137.786 132.698 138.626 132.698C139.479 132.698 140.246 132.878 140.926 133.238C141.619 133.585 142.166 134.132 142.566 134.878C142.979 135.612 143.186 136.558 143.186 137.718V138.338H135.546C135.599 139.298 135.879 140.098 136.386 140.738C136.893 141.365 137.626 141.678 138.586 141.678C139.186 141.678 139.733 141.538 140.226 141.258C140.719 140.978 141.106 140.585 141.386 140.078L142.866 140.678C142.039 142.358 140.626 143.198 138.626 143.198ZM138.586 134.218C137.773 134.218 137.119 134.472 136.626 134.978C136.146 135.472 135.826 136.098 135.666 136.858H141.506C141.506 136.485 141.393 136.098 141.166 135.698C140.953 135.285 140.633 134.938 140.206 134.658C139.779 134.365 139.239 134.218 138.586 134.218ZM152.404 142.938V134.458H150.484V132.938H152.404V131.418C152.404 130.485 152.631 129.772 153.084 129.278C153.551 128.785 154.331 128.538 155.424 128.538C155.584 128.538 155.764 128.552 155.964 128.578C156.178 128.605 156.371 128.645 156.544 128.698V130.058C156.384 130.032 156.218 130.012 156.044 129.998C155.884 129.985 155.738 129.978 155.604 129.978C155.111 129.978 154.731 130.085 154.464 130.298C154.211 130.512 154.084 130.892 154.084 131.438V132.938H156.644V134.458H154.084V142.938H152.404ZM159.664 131.038C159.344 131.038 159.064 130.925 158.824 130.698C158.598 130.458 158.484 130.185 158.484 129.878C158.484 129.558 158.598 129.285 158.824 129.058C159.064 128.818 159.344 128.698 159.664 128.698C159.971 128.698 160.238 128.818 160.464 129.058C160.691 129.285 160.804 129.558 160.804 129.878C160.804 130.185 160.691 130.458 160.464 130.698C160.238 130.925 159.971 131.038 159.664 131.038ZM158.804 142.938V132.938H160.484V142.938H158.804ZM164.08 142.938V132.938H165.76V134.818C165.826 134.578 165.98 134.292 166.22 133.958C166.46 133.625 166.813 133.332 167.28 133.078C167.746 132.825 168.353 132.698 169.1 132.698C170.073 132.698 170.873 133.012 171.5 133.638C172.14 134.265 172.46 135.178 172.46 136.378V142.938H170.78V136.618C170.78 135.752 170.573 135.138 170.16 134.778C169.746 134.405 169.206 134.218 168.54 134.218C167.62 134.218 166.926 134.532 166.46 135.158C165.993 135.785 165.76 136.578 165.76 137.538V142.938H164.08ZM176.793 131.038C176.473 131.038 176.193 130.925 175.953 130.698C175.727 130.458 175.613 130.185 175.613 129.878C175.613 129.558 175.727 129.285 175.953 129.058C176.193 128.818 176.473 128.698 176.793 128.698C177.1 128.698 177.367 128.818 177.593 129.058C177.82 129.285 177.933 129.558 177.933 129.878C177.933 130.185 177.82 130.458 177.593 130.698C177.367 130.925 177.1 131.038 176.793 131.038ZM175.933 142.938V132.938H177.613V142.938H175.933ZM184.289 143.178C183.622 143.178 182.989 143.038 182.389 142.758C181.789 142.465 181.302 142.065 180.929 141.558C180.555 141.052 180.369 140.472 180.369 139.818H182.169C182.169 140.232 182.289 140.578 182.529 140.858C182.769 141.125 183.062 141.325 183.409 141.458C183.755 141.592 184.095 141.658 184.429 141.658C185.095 141.658 185.629 141.538 186.029 141.298C186.429 141.058 186.629 140.692 186.629 140.198C186.629 139.758 186.482 139.432 186.189 139.218C185.895 138.992 185.522 138.825 185.069 138.718C184.615 138.598 184.129 138.492 183.609 138.398C183.089 138.305 182.602 138.172 182.149 137.998C181.695 137.825 181.322 137.558 181.029 137.198C180.735 136.838 180.589 136.338 180.589 135.698C180.589 135.205 180.722 134.732 180.989 134.278C181.255 133.825 181.655 133.452 182.189 133.158C182.735 132.852 183.415 132.698 184.229 132.698C185.202 132.698 185.969 132.858 186.529 133.178C187.102 133.485 187.509 133.865 187.749 134.318C188.002 134.758 188.129 135.185 188.129 135.598H186.409C186.409 135.265 186.222 134.952 185.849 134.658C185.475 134.365 184.929 134.218 184.209 134.218C183.555 134.218 183.069 134.352 182.749 134.618C182.429 134.872 182.269 135.212 182.269 135.638C182.269 136.012 182.415 136.298 182.709 136.498C183.002 136.698 183.375 136.858 183.829 136.978C184.295 137.085 184.782 137.198 185.289 137.318C185.809 137.425 186.295 137.585 186.749 137.798C187.215 137.998 187.595 138.292 187.889 138.678C188.182 139.052 188.329 139.558 188.329 140.198C188.329 140.732 188.182 141.225 187.889 141.678C187.609 142.132 187.169 142.498 186.569 142.778C185.982 143.045 185.222 143.178 184.289 143.178ZM191.267 142.938V128.698H192.947V134.818C193.014 134.578 193.167 134.292 193.407 133.958C193.647 133.625 194.001 133.332 194.467 133.078C194.934 132.825 195.541 132.698 196.287 132.698C197.261 132.698 198.061 133.012 198.687 133.638C199.327 134.265 199.647 135.178 199.647 136.378V142.938H197.967V136.618C197.967 135.752 197.761 135.138 197.347 134.778C196.934 134.405 196.394 134.218 195.727 134.218C194.807 134.218 194.114 134.532 193.647 135.158C193.181 135.785 192.947 136.578 192.947 137.538V142.938H191.267ZM205.121 138.618C205.121 137.885 205.214 137.292 205.401 136.838C205.588 136.372 205.828 135.998 206.121 135.718C206.414 135.438 206.721 135.198 207.041 134.998C207.374 134.785 207.688 134.572 207.981 134.358C208.274 134.145 208.514 133.872 208.701 133.538C208.888 133.205 208.981 132.765 208.981 132.218C208.981 131.658 208.754 131.178 208.301 130.778C207.861 130.365 207.248 130.158 206.461 130.158C205.968 130.158 205.534 130.265 205.161 130.478C204.788 130.678 204.494 130.945 204.281 131.278C204.068 131.598 203.961 131.952 203.961 132.338H202.321C202.321 131.978 202.361 131.645 202.441 131.338C202.534 131.018 202.654 130.732 202.801 130.478C203.161 129.852 203.674 129.378 204.341 129.058C205.008 128.725 205.721 128.558 206.481 128.558C207.254 128.558 207.948 128.712 208.561 129.018C209.188 129.312 209.688 129.738 210.061 130.298C210.434 130.858 210.621 131.538 210.621 132.338C210.621 133.072 210.528 133.665 210.341 134.118C210.168 134.558 209.941 134.918 209.661 135.198C209.394 135.465 209.101 135.698 208.781 135.898C208.461 136.085 208.161 136.285 207.881 136.498C207.614 136.712 207.388 136.985 207.201 137.318C207.028 137.638 206.941 138.072 206.941 138.618H205.121ZM205.841 143.178C205.494 143.178 205.194 143.052 204.941 142.798C204.688 142.545 204.561 142.252 204.561 141.918C204.561 141.572 204.688 141.272 204.941 141.018C205.194 140.765 205.494 140.638 205.841 140.638C206.188 140.638 206.481 140.765 206.721 141.018C206.961 141.272 207.081 141.572 207.081 141.918C207.081 142.252 206.961 142.545 206.721 142.798C206.481 143.052 206.188 143.178 205.841 143.178Z" fill="white"/>
</svg>
