<?xml version="1.0" encoding="UTF-8"?>
<svg id="_Ñëîé_1" data-name="Ñëîé 1" xmlns="http://www.w3.org/2000/svg" viewBox="0 0 2000 2000">
  <defs>
    <style>
      .cls-1 {
        fill: #cecece;
      }

      .cls-2 {
        fill: #a0a0a0;
      }

      .cls-3 {
        fill: #595858;
      }

      .cls-4 {
        fill: #bc91ed;
      }

      .cls-5 {
        fill: #c6c6c6;
      }

      .cls-6 {
        fill: #fcfbfc;
      }

      .cls-7 {
        fill: #e8e8e8;
      }
    </style>
  </defs>
  <g>
    <rect class="cls-6" x="1116.91" y="750.45" width="883.09" height="793.44"/>
    <polygon class="cls-6" points="0 0 0 84.09 360.42 0 0 0"/>
    <polygon class="cls-2" points="1008.03 352.41 1008.03 372.65 1008.03 401.05 1313.97 401.05 1313.97 153.94 1008.03 153.94 1008.03 210.14 604.72 178.1 0 481.66 0 645.56 434.68 630.1 1008.03 352.41"/>
    <path class="cls-6" d="M110.42,1139.71h381.92c-18.98-166-57.66-504.98-57.66-509.61l-324.26,509.61Z"/>
    <polygon class="cls-6" points="2000 84.09 2000 0 1711.57 0 1846.6 119.89 2000 84.09"/>
    <path class="cls-1" d="M1556.55,908.31c-.02-.07,0-.09.02-.07L1846.6,119.89,1711.57,0h-391.89l-56.24,224.06,293.11,684.26Z"/>
    <path class="cls-5" d="M1556.55,908.31l.02-.07s-.04,0-.02.07Z"/>
    <polygon class="cls-5" points="1116.91 218.79 1263.38 224.97 1116.91 299.67 434.68 630.1 1019.36 799.57 1116.91 722.48 1233.83 630.1 1263.45 224.06 1116.91 40.68 1084.41 0 639.64 0 604.72 178.1 1116.91 218.79"/>
    <polygon class="cls-2" points="1648.62 658.06 2000 645.56 2000 481.66 1648.62 658.06"/>
    <path class="cls-7" d="M1233.83,630.1s324.77,286.38,322.72,278.21l-293.11-684.26-29.62,406.04Z"/>
    <path class="cls-2" d="M1319.69,0h-44.59c-6.72,130.94-11.65,224.06-11.65,224.06L1319.69,0Z"/>
    <path class="cls-5" d="M502.6,1229.33L0,1457.05v123.78c220.6,117.58,647.62,352.16,647.62,352.16l-145.02-703.66Z"/>
    <path class="cls-6" d="M0,1580.83v419.17h360.42l287.19-67.01S220.6,1698.41,0,1580.83Z"/>
    <path class="cls-2" d="M434.68,630.1c0,4.62,38.69,343.61,57.66,509.61,6.17,53.94,10.25,89.62,10.25,89.62l222.64,314.55-128.51-404.18-162.04-509.61Z"/>
    <path class="cls-7" d="M1116.91,40.68l146.53,183.37s4.93-93.12,11.65-224.06h-190.69l32.51,40.68Z"/>
    <polygon class="cls-7" points="434.68 630.1 0 645.56 0 1313.25 110.42 1139.71 434.68 630.1"/>
    <polygon class="cls-7" points="604.72 178.1 639.64 0 360.42 0 0 84.09 0 481.66 604.72 178.1"/>
    <path class="cls-6" d="M492.34,1139.71H110.42L0,1313.25v143.79l502.6-227.71s-4.09-35.69-10.25-89.62Z"/>
    <path class="cls-5" d="M2000,1580.83v-123.78l-128.55,58.24c2.2-1,53.4,25.48,128.55,65.54Z"/>
    <path class="cls-6" d="M2000,1580.83c-75.15-40.06-126.35-66.54-128.55-65.54l-480.34,200.17,320.47,284.54h288.43v-419.17Z"/>
    <polygon class="cls-1" points="1319.69 2000 1711.57 2000 1391.11 1715.46 1319.69 2000"/>
    <polygon class="cls-5" points="639.64 2000 1084.41 2000 727.28 1553.08 639.64 2000"/>
    <polygon class="cls-5" points="735.45 1543.89 1116.91 1294.98 1311.45 1168.06 1556.55 908.31 889.62 1139.71 735.45 1543.89"/>
    <path class="cls-5" d="M1311.45,1168.06l560,347.23s-44.88-177.6-94.92-375.58l-465.08,28.35Z"/>
    <path class="cls-7" d="M1846.6,119.89l-290.02,788.36c1.49,1.18,314.87,607.04,314.87,607.04l128.55-202.04v-667.69l-351.38,12.5,351.38-176.39V84.09l-153.4,35.79Z"/>
    <polygon class="cls-6" points="2000 1457.05 2000 1313.25 1871.45 1515.29 2000 1457.05"/>
    <path class="cls-7" d="M1311.45,1168.06l-194.53,126.93-381.47,248.9,154.17-404.18,129.74-340.14-584.68-169.47,162.04,509.61,128.51,404.18-222.64-314.55,145.02,703.66-287.19,67.01h279.22l87.63-446.92,357.13,446.92h190.69c15.9-309.79,41.85-831.27,36.35-831.94Z"/>
    <path class="cls-2" d="M1871.45,1515.29l-560-347.23c5.5.68-20.45,522.15-36.35,831.94h44.59l71.42-284.54,480.34-200.17Z"/>
    <path class="cls-2" d="M1556.24,908.43c.24.08.35.05.31-.12l.02-.07s-.1.08-.33.18Z"/>
    <path class="cls-2" d="M1116.91,722.48l-97.55,77.08-129.74,340.14s649.91-223.89,666.63-231.28c-11.14-3.85-322.41-278.33-322.41-278.33l-116.91,92.38Z"/>
  </g>
  <g>
    <path class="cls-4" d="M1009.82,775.36c.06-1.06.1-2.12.18-3.18.03-.46.08-.91.13-1.37.04-.22.08-.44.13-.66,3.08-14.99-6.14-28.01-15.47-38.76-2.62-3.02-5.34-5.95-8.07-8.87-2.27-2.43-4.37-4.55-5.72-7.62-2.16-4.89-2.38-11.36-4.03-16.76-1.93-6.33-5.63-13.84-11.9-16.84-5.1-2.44-10.75-1.4-15.39,1.58-4.1,2.63-7.43,6.14-10.35,10-4.02,5.32-5.02,11.72-5.67,18.19-.52,5.24-.51,13.91-5.65,17.02-2.1,1.27-4.96,1.92-7.45,2.86-2.85,1.08-5.76,2.15-8.4,3.68-5.42,3.14-8.94,8.24-7.62,14.7.7,3.44,3,8.53,5.97,10.55,1.77,1.21,3.85,2.13,5.81,3,6.52,2.89,13.15,4.07,20.25,4.17,2.96.04,5.92.03,8.88.26.79.06,1.58.15,2.36.24.12.01.24.03.35.05.01,0,.01,0,.03,0,.48.08.96.15,1.43.24,1.92.35,3.82.8,5.7,1.35,11.61,3.4,22.63,10.41,33.01,17.71,4.94,3.47,12.14,7.2,17.46,2.25,3.63-3.37,3.81-9.2,4.05-13.79Z"/>
    <path class="cls-4" d="M345.12,150.02c14.81-4.37,27.68-15.81,35.03-29.25,6.83-12.48,9.16-27.14,6.64-41.14-.51-2.81-1.24-5.56-2.22-8.25-.08-.22-.18-.42-.27-.62-.06-.21-.12-.43-.2-.63-2.23-5.72-7.1-9.08-13.1-9.76-2.59-.3-5.21-.01-7.78.26-1.23.13-2.45.29-3.68.45-.62.08-1.23.15-1.85.22-1.03.12-.25.06-1.29.12-1.19.07-2.38.12-3.57.05-.51-.03-1.02-.07-1.52-.15-.08-.04-1.02-.26-1.25-.34-1.37-.43-1.04-.29-2.34-1.03-1.01-.57-1.96-1.21-2.89-1.91-1.33-1-3.32-2.92-4.98-4.64-1.82-1.89-3.57-3.84-5.37-5.76-7.33-7.81-17.21-15.56-28.59-11.46-13.01,4.69-14.24,19.33-17.63,30.69-.38,1.26-.72,2.52-1.09,3.78-.42,1.44-.48,1.58-1.31,2.93-1.23,2.01-2.47,3.27-4.47,5.05-4.02,3.56-8.64,6.36-12.71,9.86-4.2,3.61-7.59,8.12-8.45,13.7-1.14,7.43,4.63,13.12,10.72,16.24,6.04,3.09,12.26,5.16,17.89,9.07,5.68,3.94,10.8,8.61,16.26,12.82,5.36,4.13,11.21,7.83,17.74,9.79,7.22,2.16,15.07,2.04,22.28-.09Z"/>
    <path class="cls-4" d="M1035.15,1623.68c-5.15-15.47-22.67-17.14-35.06-24.16-4.62-2.49-7.37-7.58-10.47-11.72-10.7-13.59-36.14-15.02-47.41-1.55-4.04,6.32-1.8,14.16-1.3,21.07,1.2,9.06.1,17.85-2.13,26.36-2.65,10.11-14.89,37.4-.41,43.76,15.89,6.98,39.79-6.52,54.48-15.27,17.66-6.5,48.65-13.11,42.3-38.5ZM995.19,1661s.01,0,.02-.01c.36-.16.15-.07-.02.01Z"/>
    <path class="cls-4" d="M827.06,55.56c-4.03,10-5.27,21.83-14.91,28.26-11.55,11.44-12.22,28.01-11.99,43.08-.11,19.74,29.63,22.81,44.08,18.03,22.33-12.01,11.81-39.55,44.67-41.59,10.04-2.21,13.95-11.34,16.3-20.67,6.44-25.62-18.22-28.08-27.66-29.47-16.6-2.44-16.73-15.21-33.9-13.18-6.41.76-12.11,5.31-16.59,15.53Z"/>
    <path class="cls-4" d="M1391.48,1389.71c-30.53-36.91-74.15,15.47-62.83,49.86,8.32,16.54,26.4,25.93,42.98,32.39,15.3,9.89,33.03,1.99,38.89-14.59,10.27-23.57-1.8-50.78-19.04-67.66Z"/>
    <path class="cls-4" d="M384.82,1877.4c-25.16-21.72-51.21-14.05-79.2-40.91-12.67-8.08-31.78-13.35-43.48-.92-12.09,15.96,2.78,38.15,9.82,53.62,8.58,13.58,25.35,8.5,38.59,10.56,18.53,1.98,33.2,17.24,51.9,18.49,19.71,0,36.51-24.23,22.38-40.85Z"/>
    <path class="cls-4" d="M880.81,948.95c-34.52,5.43-49.38-26.28-77.58-35.62-12.08-4.28-13.93,10.4-13.39,19.19.25,21.76,13.19,40.53,26.45,56.77,8.33,11.15,8.43,27.42,19.92,36.63,14.96,13.02,32.67-2.4,33.31-19.23,1.09-6.32.67-13.9,5.64-18.66,4.83-4.61,12.05-4.79,18.18-6.46,27.69-10.08,13.27-39.34-12.54-32.62Z"/>
    <path class="cls-4" d="M618.18,508.13c-24.7-47.4-88.84,13.18-61.19,48.77,15.19,17.78,41.35,0,55.67-10.96,13.29-8.55,13.03-25.39,5.52-37.81Z"/>
    <path class="cls-4" d="M460.96,1182.85c-5.14-1.66-10.12-1.61-15.12-6.82-4.99-5.21-4.04-14.89-9.7-18.68-5.45-3.65-12.59-4.44-19.83-.61-7.67.67-12.34-13.92-22.93,2.26-10.6,16.17,16.58,32.47,27.95,45.11,5.36,7.31,8.03,17.53,17.3,21.04,10.4,4.2,22.36-.48,30.43-8.11,12.03-11.38,15.37-29.33-8.11-34.18Z"/>
    <path class="cls-4" d="M1196.67,1200.66c-18.19,57.72,43.65,18.4,61.53-1.27,23.38-20.73-19.53-55.49-31.37-73.5-8.91-7.46-20.96,3.13-17.35,13.22,5.29,21.48-5.73,41.89-12.8,61.55Z"/>
    <path class="cls-4" d="M622.36,984.14c-9.82-7.87-24.2-15.18-20.37-30.14,2.01-12.94-14.6-29.96-26.47-19.3-9.93,13.2-17.32,31-11.66,47.46,11.77,38.63,86.7,40.26,58.5,1.98Z"/>
    <path class="cls-4" d="M118.34,956.33c-34.52,5.43-49.38-26.28-77.58-35.62-12.08-4.28-13.93,10.4-13.39,19.19.25,21.76,13.19,40.53,26.45,56.77,8.33,11.15,8.43,27.42,19.92,36.63,14.96,13.02,32.67-2.4,33.31-19.23,1.09-6.32.67-13.9,5.64-18.66,4.83-4.61,12.05-4.79,18.18-6.46,27.69-10.08,13.27-39.34-12.54-32.62Z"/>
    <path class="cls-4" d="M1768.86,737.98c-17.9-13.21-38.07-1.9-49.89,15.8-11.19,16.73-15.74,42.53-2.2,52.01,13.55,9.48,35.62-16.77,48.05-30.48,12.71-9.01,14.09-25.7,4.04-37.32Z"/>
    <path class="cls-4" d="M1252.8,731.41c-36.85-36.54-72.92,25.58-37.35,51.56,18.97,12.75,35.94-6.66,44.82-18.34,8.77-9.45,3.09-23.81-7.47-33.21Z"/>
    <path class="cls-4" d="M1896.8,317.47c-39.87,50.85,58.83,91.25,84.23,43.05,12-25.6-20.62-45.54-39.84-55.84-16.04-10.37-34.46-1.68-44.39,12.78Z"/>
    <path class="cls-4" d="M1616.91,579.36c67.81,37.18,33.94-50.12,13.75-77.43-20.15-34.47-74.42,10.64-99.94,20.99-11.57,9.31-1.3,27.04,12.24,25.05,28.24-1.27,51.07,17.62,73.95,31.39Z"/>
    <path class="cls-4" d="M236.9,1638.24c-12.72-5.75-31.31-9.32-26.58-27.86,2.41-15.6-19.15-29.61-34.27-13.3-12.6,18.58-21.86,41.6-14.38,58.67,15.63,40.56,111.98,17.1,75.23-17.51Z"/>
    <path class="cls-4" d="M1622.98,1388.23c-11.53-5.93-24.68-4.14-36.85-7.7-5.27-1.93-10.52-5.85-16.4-3.73-26,18.24,12.52,40.95,22.89,56.55,9.26,16.75,17.85,37.76,39.95,22.1,21.9-16.85,13.94-55.54-9.58-67.22Z"/>
    <path class="cls-4" d="M1148.98,929.48c-6.46-8.58-15.27-7.82-24.99-11.05-14.55-4.83-28.31-4.81-38.11,3.36-21.64,18.04-54.64,15.86-41.11,46.36,4.56,10.28,21.65,13.39,27.72,25.79s10.88,20.39,18.59,21c10.17.8,9.91-16.63,22.78-28.81,12.87-12.18,25.81-12.07,33.04-22.82,6.55-9.74,8.53-25.25,2.07-33.83Z"/>
    <path class="cls-4" d="M230.13,727.57c-34.75-26.96-79.41,45.04-52.09,67.8,13.55,9.47,35.62-16.77,48.05-30.48,12.71-9.01,14.09-25.7,4.04-37.32Z"/>
    <path class="cls-4" d="M373.21,1433.02c1.31-43.97-83.17-37.63-85.48-2.15.33,16.53,34.53,18.91,52.94,20.87,14.77,4.97,29.07-3.76,32.54-18.72Z"/>
    <path class="cls-4" d="M752.03,1215.8c-18.92-19.49-4.69-24.47-5.87-43.88-2.74-7.69-9.29-13.78-19.35-15.31-8.16-5.02-2-23.05-24.58-14.75-22.58,8.3-7.52,44.73-5.53,65.79-20.64,71.56,95.47,55.86,55.34,8.16Z"/>
    <path class="cls-4" d="M339.15,996.98c50.19-20.51-12.32-40.62-36.1-41.68-27.67-4.25-27.06,45.23-32.69,63.7-.04,10.41,14.16,12.65,19.05,4.39,11.78-15.94,32.15-20.04,49.75-26.42Z"/>
    <path class="cls-4" d="M873.37,1859.97c-11.82-22.8-41.29-37-65.26-24.53-3.59,2.56-8.53,4.04-11.54,1.13-5.24-13.62-25.94-6.57-28.94,5.22-4.38,16.34,1.58,38.45,16.71,47.24,23.86,9.47,34.59-.34,54.82,22.36,33.98,22.63,52.16-25.17,34.21-51.42Z"/>
    <path class="cls-4" d="M756.78,314.19c-8.93-5.09-18.99-7.14-28.54-10.69-11.53-21.48-29.65-17.2-39.26,3.11-15.51,16.4-17.53,40.45,5.34,51.07,14.84,8.2,29.27-7.53,43.35-10.74,9.04-2.5,18.48,4.78,27.47.48,17.07-8.38,3.64-27.22-8.36-33.23Z"/>
    <path class="cls-4" d="M1932.09,989.22c-10.27-7.44-22.64.71-29.24-9.38-5.2-7.94-4.7-27.11-17.71-33.1-17.81-8.2-32.84,8.73-39.14,9.4-9.32.99-45.13-10.6-45.1,18.98.01,13.92,12.19,30.35,25.48,36.48,20.75,9.58,17.22,19.55,28.69,25.4,19.05,5.55,35.46-12,55.71-6.36,20.25,5.64,22.64-1.69,27.89-9.56,6.14-9.2,3.68-24.42-6.58-31.86ZM1902.67,979.73c-.32-.22-.3-.26,0,0h0Z"/>
    <path class="cls-4" d="M1149.47,525.31c-7.23-3.12-12.01-8.37-15.96-15.05-5.93-9.4-12.36-12.55-18.83-12.03-10.46.84-17.44,16.52-21.19,19.17-3.75,2.65-17,6.63-18.91,10.63-4.47,9.36-2.15,22.61-3.39,32.82-.86,12.69-11.91,18.37-5.83,31.34,9.46,12.45,44.3-13.24,54.15-20.41,9.44-6.76,22.71-6.01,32.21-13.03,13.14-8.05,11.46-26.99-2.26-33.44Z"/>
    <path class="cls-4" d="M1408.59,102.03c7.12-14.37,4.65-30.59,8.81-45.7,2.29-6.55,7.03-13.12,4.29-20.35-23.04-31.79-50.38,16.25-69.46,29.37-20.53,11.76-46.33,22.78-26.55,49.8,21.24,26.74,68.92,16.17,82.91-13.12Z"/>
    <path class="cls-4" d="M1926.17,1839.74c-6.46-8.58-15.27-7.82-24.99-11.05-14.55-4.83-28.31-4.81-38.11,3.36-21.64,18.04-54.64,15.86-41.11,46.36,4.56,10.28,21.65,13.39,27.72,25.79,6.07,12.4,10.88,20.39,18.59,21,10.17.8,9.91-16.63,22.78-28.81,12.87-12.18,25.81-12.07,33.04-22.82,6.55-9.74,8.53-25.25,2.07-33.83Z"/>
    <path class="cls-4" d="M1691.9,101.44c-.55-1.04-1.1-2.07-1.63-3.13-.23-.45-.44-.91-.66-1.37-.09-.23-.17-.47-.25-.7-5.57-16.02-21.73-23.17-36.71-28.11-4.21-1.39-8.46-2.63-12.71-3.86-3.54-1.02-6.74-1.85-9.77-4-4.83-3.43-8.71-9.46-13.34-13.66-5.43-4.93-13.2-9.98-20.88-9.28-6.24.57-11.02,4.76-13.75,10.23-2.41,4.83-3.59,10.05-4.18,15.38-.81,7.34,1.87,14,4.92,20.53,2.48,5.29,7.4,13.53,4.27,19.4-1.28,2.4-3.63,4.64-5.47,6.95-2.1,2.64-4.26,5.31-5.9,8.27-3.38,6.07-3.83,12.91,1.08,18.31,2.62,2.88,7.69,6.42,11.66,6.65,2.37.14,4.88-.16,7.23-.44,7.85-.95,14.82-3.58,21.64-7.52,2.84-1.64,5.65-3.33,8.59-4.79.79-.39,1.58-.75,2.38-1.12.12-.05.24-.11.36-.16.01,0,.01,0,.03-.01.5-.2,1-.4,1.5-.59,2.03-.76,4.1-1.4,6.19-1.94,12.98-3.35,27.44-2.93,41.45-1.87,6.67.5,15.64-.04,17.89-7.76,1.54-5.27-1.6-10.91-3.96-15.42Z"/>
    <path class="cls-4" d="M479.77,1620.99c-30.53-36.91-74.15,15.47-62.83,49.86,8.32,16.54,26.4,25.93,42.98,32.39,15.3,9.89,33.03,1.99,38.89-14.59,10.27-23.57-1.8-50.78-19.04-67.66Z"/>
    <path class="cls-4" d="M1387.76,557.07c-8.12-21.7-26.61-25.71-34.74-51.5-5.05-9.18-14.97-18.79-26.28-15.1-12.73,5.71-11.06,24.26-11.93,36.06.7,11.17,12.66,13.68,20.06,19.36,10.67,7.41,14.53,21.64,25.55,28.66,12.05,6.6,30.42-2.6,27.34-17.49Z"/>
    <path class="cls-4" d="M1117.14,1906.38c15.72-3.15,27.05-15.01,41.55-20.96,6.59-2.2,14.68-2.46,18.73-9.04,11.08-37.67-43.65-29.94-65.7-37.03-21.86-9.06-46.35-22.75-55.64,9.42-8.18,33.16,29.32,64.43,61.06,57.6Z"/>
    <path class="cls-4" d="M1119.86,397.74c-3.53-4.68-8.34-4.27-13.64-6.03-7.94-2.64-15.45-2.63-20.8,1.84-11.81,9.85-29.82,8.65-22.44,25.31,2.49,5.61,11.82,7.31,15.13,14.08,3.32,6.77,5.94,11.13,10.15,11.46,5.55.44,5.41-9.08,12.44-15.72,7.03-6.65,14.09-6.59,18.04-12.46,3.58-5.31,4.66-13.78,1.13-18.47Z"/>
    <path class="cls-4" d="M373.25,511.99c-12.67-1.36-19.68,11.79-30.39,6.34-8.44-4.3-17.25-21.12-31.65-19.87-19.71,1.71-24.83,23.77-30.08,27.46-7.77,5.46-45.04,13.13-30.73,38.69,6.73,12.02,25.43,20.22,40.15,18.96,22.98-1.97,24.68,8.4,37.64,7.79,19.53-4.61,25.57-27.9,46.2-33.03,20.63-5.13,19.21-12.65,20.05-22.04.99-10.99-8.54-22.94-21.21-24.29ZM342.65,518.32c-.39-.03-.39-.08,0,0h0Z"/>
  </g>
  <g>
    <path class="cls-3" d="M56.37,72.45c5.05-4.78,13.23-4.78,18.27,0,5.05,4.78,5.05,12.54,0,17.32s-13.23,4.78-18.27,0-5.05-12.54,0-17.32Z"/>
    <path class="cls-3" d="M314.8,72.45c5.05-4.78,13.23-4.78,18.27,0,5.05,4.78,5.05,12.54,0,17.32s-13.23,4.78-18.27,0-5.05-12.54,0-17.32Z"/>
    <path class="cls-3" d="M573.22,72.45c5.05-4.78,13.23-4.78,18.27,0,5.05,4.78,5.05,12.54,0,17.32s-13.23,4.78-18.27,0-5.05-12.54,0-17.32Z"/>
    <path class="cls-3" d="M831.65,72.45c5.05-4.78,13.23-4.78,18.27,0,5.05,4.78,5.05,12.54,0,17.32s-13.23,4.78-18.27,0c-5.05-4.78-5.05-12.54,0-17.32Z"/>
    <path class="cls-3" d="M1090.08,72.45c5.05-4.78,13.23-4.78,18.27,0,5.05,4.78,5.05,12.54,0,17.32-5.05,4.78-13.23,4.78-18.27,0s-5.05-12.54,0-17.32Z"/>
    <path class="cls-3" d="M1348.5,72.45c5.05-4.78,13.23-4.78,18.27,0,5.05,4.78,5.05,12.54,0,17.32-5.05,4.78-13.23,4.78-18.27,0-5.05-4.78-5.05-12.54,0-17.32Z"/>
    <path class="cls-3" d="M1606.93,72.45c5.05-4.78,13.23-4.78,18.27,0,5.05,4.78,5.05,12.54,0,17.32s-13.23,4.78-18.27,0c-5.05-4.78-5.05-12.54,0-17.32Z"/>
    <path class="cls-3" d="M1865.36,72.45c5.05-4.78,13.23-4.78,18.27,0,5.05,4.78,5.05,12.54,0,17.32-5.05,4.78-13.23,4.78-18.27,0-5.05-4.78-5.05-12.54,0-17.32Z"/>
    <path class="cls-3" d="M186.37,294.67c5.05-4.78,13.23-4.78,18.27,0s5.05,12.54,0,17.32-13.23,4.78-18.27,0c-5.05-4.78-5.05-12.54,0-17.32Z"/>
    <path class="cls-3" d="M444.8,294.67c5.05-4.78,13.23-4.78,18.27,0s5.05,12.54,0,17.32-13.23,4.78-18.27,0-5.05-12.54,0-17.32Z"/>
    <path class="cls-3" d="M703.22,294.67c5.05-4.78,13.23-4.78,18.27,0s5.05,12.54,0,17.32-13.23,4.78-18.27,0-5.05-12.54,0-17.32Z"/>
    <path class="cls-3" d="M961.65,294.67c5.05-4.78,13.23-4.78,18.27,0s5.05,12.54,0,17.32-13.23,4.78-18.27,0c-5.05-4.78-5.05-12.54,0-17.32Z"/>
    <path class="cls-3" d="M1220.08,294.67c5.05-4.78,13.23-4.78,18.27,0,5.05,4.78,5.05,12.54,0,17.32-5.05,4.78-13.23,4.78-18.27,0s-5.05-12.54,0-17.32Z"/>
    <path class="cls-3" d="M1478.5,294.67c5.05-4.78,13.23-4.78,18.27,0,5.05,4.78,5.05,12.54,0,17.32-5.05,4.78-13.23,4.78-18.27,0-5.05-4.78-5.05-12.54,0-17.32Z"/>
    <path class="cls-3" d="M1736.93,294.67c5.05-4.78,13.23-4.78,18.27,0s5.05,12.54,0,17.32-13.23,4.78-18.27,0c-5.05-4.78-5.05-12.54,0-17.32Z"/>
    <path class="cls-3" d="M186.37,739.12c5.05-4.78,13.23-4.78,18.27,0,5.05,4.78,5.05,12.54,0,17.32-5.05,4.78-13.23,4.78-18.27,0-5.05-4.78-5.05-12.54,0-17.32Z"/>
    <path class="cls-3" d="M703.22,739.12c5.05-4.78,13.23-4.78,18.27,0,5.05,4.78,5.05,12.54,0,17.32-5.05,4.78-13.23,4.78-18.27,0-5.05-4.78-5.05-12.54,0-17.32Z"/>
    <path class="cls-3" d="M961.65,739.12c5.05-4.78,13.23-4.78,18.27,0,5.05,4.78,5.05,12.54,0,17.32-5.05,4.78-13.23,4.78-18.27,0-5.05-4.78-5.05-12.54,0-17.32Z"/>
    <path class="cls-3" d="M1220.08,739.12c5.05-4.78,13.23-4.78,18.27,0,5.05,4.78,5.05,12.54,0,17.32-5.05,4.78-13.23,4.78-18.27,0-5.05-4.78-5.05-12.54,0-17.32Z"/>
    <path class="cls-3" d="M1478.5,739.12c5.05-4.78,13.23-4.78,18.27,0,5.05,4.78,5.05,12.54,0,17.32-5.05,4.78-13.23,4.78-18.27,0-5.05-4.78-5.05-12.54,0-17.32Z"/>
    <path class="cls-3" d="M1736.93,739.12c5.05-4.78,13.23-4.78,18.27,0,5.05,4.78,5.05,12.54,0,17.32-5.05,4.78-13.23,4.78-18.27,0-5.05-4.78-5.05-12.54,0-17.32Z"/>
    <path class="cls-3" d="M56.37,516.89c5.05-4.78,13.23-4.78,18.27,0s5.05,12.54,0,17.32-13.23,4.78-18.27,0-5.05-12.54,0-17.32Z"/>
    <path class="cls-3" d="M314.8,516.89c5.05-4.78,13.23-4.78,18.27,0s5.05,12.54,0,17.32-13.23,4.78-18.27,0-5.05-12.54,0-17.32Z"/>
    <path class="cls-3" d="M573.22,516.89c5.05-4.78,13.23-4.78,18.27,0s5.05,12.54,0,17.32-13.23,4.78-18.27,0-5.05-12.54,0-17.32Z"/>
    <path class="cls-3" d="M831.65,516.89c5.05-4.78,13.23-4.78,18.27,0s5.05,12.54,0,17.32-13.23,4.78-18.27,0c-5.05-4.78-5.05-12.54,0-17.32Z"/>
    <path class="cls-3" d="M1090.08,516.89c5.05-4.78,13.23-4.78,18.27,0,5.05,4.78,5.05,12.54,0,17.32-5.05,4.78-13.23,4.78-18.27,0s-5.05-12.54,0-17.32Z"/>
    <path class="cls-3" d="M1348.5,516.89c5.05-4.78,13.23-4.78,18.27,0,5.05,4.78,5.05,12.54,0,17.32-5.05,4.78-13.23,4.78-18.27,0-5.05-4.78-5.05-12.54,0-17.32Z"/>
    <path class="cls-3" d="M1606.93,516.89c5.05-4.78,13.23-4.78,18.27,0s5.05,12.54,0,17.32-13.23,4.78-18.27,0c-5.05-4.78-5.05-12.54,0-17.32Z"/>
    <path class="cls-3" d="M1865.36,516.89c5.05-4.78,13.23-4.78,18.27,0,5.05,4.78,5.05,12.54,0,17.32-5.05,4.78-13.23,4.78-18.27,0-5.05-4.78-5.05-12.54,0-17.32Z"/>
    <path class="cls-3" d="M186.37,1183.56c5.05-4.78,13.23-4.78,18.27,0,5.05,4.78,5.05,12.54,0,17.32-5.05,4.78-13.23,4.78-18.27,0-5.05-4.78-5.05-12.54,0-17.32Z"/>
    <path class="cls-3" d="M444.8,1183.56c5.05-4.78,13.23-4.78,18.27,0,5.05,4.78,5.05,12.54,0,17.32-5.05,4.78-13.23,4.78-18.27,0-5.05-4.78-5.05-12.54,0-17.32Z"/>
    <path class="cls-3" d="M703.22,1183.56c5.05-4.78,13.23-4.78,18.27,0,5.05,4.78,5.05,12.54,0,17.32-5.05,4.78-13.23,4.78-18.27,0-5.05-4.78-5.05-12.54,0-17.32Z"/>
    <path class="cls-3" d="M961.65,1183.56c5.05-4.78,13.23-4.78,18.27,0,5.05,4.78,5.05,12.54,0,17.32-5.05,4.78-13.23,4.78-18.27,0-5.05-4.78-5.05-12.54,0-17.32Z"/>
    <path class="cls-3" d="M1220.08,1183.56c5.05-4.78,13.23-4.78,18.27,0,5.05,4.78,5.05,12.54,0,17.32-5.05,4.78-13.23,4.78-18.27,0-5.05-4.78-5.05-12.54,0-17.32Z"/>
    <path class="cls-3" d="M1478.5,1183.56c5.05-4.78,13.23-4.78,18.27,0,5.05,4.78,5.05,12.54,0,17.32-5.05,4.78-13.23,4.78-18.27,0-5.05-4.78-5.05-12.54,0-17.32Z"/>
    <path class="cls-3" d="M1736.93,1183.56c5.05-4.78,13.23-4.78,18.27,0,5.05,4.78,5.05,12.54,0,17.32-5.05,4.78-13.23,4.78-18.27,0-5.05-4.78-5.05-12.54,0-17.32Z"/>
    <path class="cls-3" d="M56.37,961.34c5.05-4.78,13.23-4.78,18.27,0,5.05,4.78,5.05,12.54,0,17.32-5.05,4.78-13.23,4.78-18.27,0-5.05-4.78-5.05-12.54,0-17.32Z"/>
    <path class="cls-3" d="M314.8,961.34c5.05-4.78,13.23-4.78,18.27,0,5.05,4.78,5.05,12.54,0,17.32-5.05,4.78-13.23,4.78-18.27,0-5.05-4.78-5.05-12.54,0-17.32Z"/>
    <path class="cls-3" d="M573.22,961.34c5.05-4.78,13.23-4.78,18.27,0,5.05,4.78,5.05,12.54,0,17.32-5.05,4.78-13.23,4.78-18.27,0-5.05-4.78-5.05-12.54,0-17.32Z"/>
    <path class="cls-3" d="M831.65,961.34c5.05-4.78,13.23-4.78,18.27,0,5.05,4.78,5.05,12.54,0,17.32-5.05,4.78-13.23,4.78-18.27,0-5.05-4.78-5.05-12.54,0-17.32Z"/>
    <path class="cls-3" d="M1090.08,961.34c5.05-4.78,13.23-4.78,18.27,0,5.05,4.78,5.05,12.54,0,17.32-5.05,4.78-13.23,4.78-18.27,0-5.05-4.78-5.05-12.54,0-17.32Z"/>
    <path class="cls-3" d="M1348.5,961.34c5.05-4.78,13.23-4.78,18.27,0,5.05,4.78,5.05,12.54,0,17.32-5.05,4.78-13.23,4.78-18.27,0-5.05-4.78-5.05-12.54,0-17.32Z"/>
    <path class="cls-3" d="M1606.93,961.34c5.05-4.78,13.23-4.78,18.27,0,5.05,4.78,5.05,12.54,0,17.32-5.05,4.78-13.23,4.78-18.27,0-5.05-4.78-5.05-12.54,0-17.32Z"/>
    <path class="cls-3" d="M1865.36,961.34c5.05-4.78,13.23-4.78,18.27,0,5.05,4.78,5.05,12.54,0,17.32-5.05,4.78-13.23,4.78-18.27,0-5.05-4.78-5.05-12.54,0-17.32Z"/>
    <path class="cls-3" d="M56.37,1405.78c5.05-4.78,13.23-4.78,18.27,0,5.05,4.78,5.05,12.54,0,17.32-5.05,4.78-13.23,4.78-18.27,0-5.05-4.78-5.05-12.54,0-17.32Z"/>
    <path class="cls-3" d="M314.8,1405.78c5.05-4.78,13.23-4.78,18.27,0,5.05,4.78,5.05,12.54,0,17.32-5.05,4.78-13.23,4.78-18.27,0-5.05-4.78-5.05-12.54,0-17.32Z"/>
    <path class="cls-3" d="M573.22,1405.78c5.05-4.78,13.23-4.78,18.27,0,5.05,4.78,5.05,12.54,0,17.32-5.05,4.78-13.23,4.78-18.27,0-5.05-4.78-5.05-12.54,0-17.32Z"/>
    <path class="cls-3" d="M831.65,1405.78c5.05-4.78,13.23-4.78,18.27,0,5.05,4.78,5.05,12.54,0,17.32-5.05,4.78-13.23,4.78-18.27,0-5.05-4.78-5.05-12.54,0-17.32Z"/>
    <path class="cls-3" d="M1090.08,1405.78c5.05-4.78,13.23-4.78,18.27,0,5.05,4.78,5.05,12.54,0,17.32-5.05,4.78-13.23,4.78-18.27,0-5.05-4.78-5.05-12.54,0-17.32Z"/>
    <path class="cls-3" d="M1348.5,1405.78c5.05-4.78,13.23-4.78,18.27,0,5.05,4.78,5.05,12.54,0,17.32-5.05,4.78-13.23,4.78-18.27,0-5.05-4.78-5.05-12.54,0-17.32Z"/>
    <path class="cls-3" d="M1606.93,1405.78c5.05-4.78,13.23-4.78,18.27,0,5.05,4.78,5.05,12.54,0,17.32-5.05,4.78-13.23,4.78-18.27,0-5.05-4.78-5.05-12.54,0-17.32Z"/>
    <path class="cls-3" d="M1865.36,1405.78c5.05-4.78,13.23-4.78,18.27,0,5.05,4.78,5.05,12.54,0,17.32-5.05,4.78-13.23,4.78-18.27,0-5.05-4.78-5.05-12.54,0-17.32Z"/>
    <path class="cls-3" d="M186.37,1628c5.05-4.78,13.23-4.78,18.27,0,5.05,4.78,5.05,12.54,0,17.32-5.05,4.78-13.23,4.78-18.27,0-5.05-4.78-5.05-12.54,0-17.32Z"/>
    <path class="cls-3" d="M444.8,1628c5.05-4.78,13.23-4.78,18.27,0,5.05,4.78,5.05,12.54,0,17.32-5.05,4.78-13.23,4.78-18.27,0-5.05-4.78-5.05-12.54,0-17.32Z"/>
    <path class="cls-3" d="M961.65,1628c5.05-4.78,13.23-4.78,18.27,0,5.05,4.78,5.05,12.54,0,17.32-5.05,4.78-13.23,4.78-18.27,0-5.05-4.78-5.05-12.54,0-17.32Z"/>
    <path class="cls-3" d="M1220.08,1628c5.05-4.78,13.23-4.78,18.27,0,5.05,4.78,5.05,12.54,0,17.32-5.05,4.78-13.23,4.78-18.27,0-5.05-4.78-5.05-12.54,0-17.32Z"/>
    <path class="cls-3" d="M1478.5,1628c5.05-4.78,13.23-4.78,18.27,0,5.05,4.78,5.05,12.54,0,17.32-5.05,4.78-13.23,4.78-18.27,0-5.05-4.78-5.05-12.54,0-17.32Z"/>
    <path class="cls-3" d="M1736.93,1628c5.05-4.78,13.23-4.78,18.27,0,5.05,4.78,5.05,12.54,0,17.32-5.05,4.78-13.23,4.78-18.27,0-5.05-4.78-5.05-12.54,0-17.32Z"/>
    <path class="cls-3" d="M56.37,1850.23c5.05-4.78,13.23-4.78,18.27,0s5.05,12.54,0,17.32c-5.05,4.78-13.23,4.78-18.27,0-5.05-4.78-5.05-12.54,0-17.32Z"/>
    <path class="cls-3" d="M314.8,1850.23c5.05-4.78,13.23-4.78,18.27,0s5.05,12.54,0,17.32c-5.05,4.78-13.23,4.78-18.27,0-5.05-4.78-5.05-12.54,0-17.32Z"/>
    <path class="cls-3" d="M573.22,1850.23c5.05-4.78,13.23-4.78,18.27,0s5.05,12.54,0,17.32c-5.05,4.78-13.23,4.78-18.27,0-5.05-4.78-5.05-12.54,0-17.32Z"/>
    <path class="cls-3" d="M831.65,1850.23c5.05-4.78,13.23-4.78,18.27,0s5.05,12.54,0,17.32c-5.05,4.78-13.23,4.78-18.27,0-5.05-4.78-5.05-12.54,0-17.32Z"/>
    <path class="cls-3" d="M1090.08,1850.23c5.05-4.78,13.23-4.78,18.27,0,5.05,4.78,5.05,12.54,0,17.32-5.05,4.78-13.23,4.78-18.27,0-5.05-4.78-5.05-12.54,0-17.32Z"/>
    <path class="cls-3" d="M1348.5,1850.23c5.05-4.78,13.23-4.78,18.27,0,5.05,4.78,5.05,12.54,0,17.32-5.05,4.78-13.23,4.78-18.27,0-5.05-4.78-5.05-12.54,0-17.32Z"/>
    <path class="cls-3" d="M1606.93,1850.23c5.05-4.78,13.23-4.78,18.27,0s5.05,12.54,0,17.32c-5.05,4.78-13.23,4.78-18.27,0-5.05-4.78-5.05-12.54,0-17.32Z"/>
    <path class="cls-3" d="M1865.36,1850.23c5.05-4.78,13.23-4.78,18.27,0,5.05,4.78,5.05,12.54,0,17.32-5.05,4.78-13.23,4.78-18.27,0-5.05-4.78-5.05-12.54,0-17.32Z"/>
  </g>
</svg>